<svg xmlns="http://www.w3.org/2000/svg" xmlns:xlink="http://www.w3.org/1999/xlink" viewBox="0 0 63.63 86.27"><defs><style>.cls-1,.cls-3,.cls-4,.cls-5{fill:none;}.cls-1,.cls-3,.cls-4{stroke:#fff;stroke-miterlimit:10;}.cls-1{stroke-width:0.25px;}.cls-2{fill:#fff;}.cls-3{stroke-width:0.5px;}</style><symbol id="detail_1" data-name="detail 1" viewBox="0 0 4.4 4.7"><path class="cls-1" d="M.12,4.67a28.31,28.31,0,0,1,1-3.81,1.38,1.38,0,0,1,1-.73,1.5,1.5,0,0,1,1,.73,36.76,36.76,0,0,1,1,3.81"/><path class="cls-2" d="M3.06,1.21A1,1,0,0,0,2.21.63a1,1,0,0,0-.86.58A27.47,27.47,0,0,0,.49,4.67H3.92S3.31,1.76,3.06,1.21ZM2.21,3.15a.41.41,0,0,1-.39-.44.41.41,0,0,1,.39-.44.41.41,0,0,1,.37.44A.41.41,0,0,1,2.21,3.15Z"/></symbol><symbol id="leaf" data-name="leaf" viewBox="0 0 4.83 7.28"><path class="cls-3" d="M4.31,7H.52a7.19,7.19,0,0,1,0-3.79A8.83,8.83,0,0,1,2.42.36,12.88,12.88,0,0,1,4.31,3.23,7.38,7.38,0,0,1,4.31,7Z"/></symbol><symbol id="leaf_detail" data-name="leaf_detail" viewBox="0 0 4.83 7.34"><use width="4.83" height="7.28" xlink:href="#leaf"/><path class="cls-2" d="M3.06,2.66c0,.28-.38.47-.38,1.1S2.64,7,2.64,7H2.22s-.11-2.54-.11-3.2-.34-.84-.34-1.12a.78.78,0,0,1,.65-.86C2.78,1.81,3.06,2.19,3.06,2.66Z"/><path class="cls-2" d="M3.71,4.31c-.11.23-.29.38-.42.38A16.68,16.68,0,0,0,3.06,7H2.77A12.44,12.44,0,0,1,3.2,4.09c.09-.31.37-.45.51-.38S3.85,4,3.71,4.31Z"/><path class="cls-2" d="M1.14,4.31c.11.23.29.38.42.38A16.68,16.68,0,0,1,1.79,7h.29a12.44,12.44,0,0,0-.43-2.89c-.09-.31-.37-.45-.51-.38S1,4,1.14,4.31Z"/><path class="cls-2" d="M.72,5.91a.48.48,0,0,0,.39.18,4.42,4.42,0,0,1,.37,1.25h.29a9.64,9.64,0,0,0-.43-1.76.44.44,0,0,0-.51-.23C.68,5.39.57,5.75.72,5.91Z"/><path class="cls-2" d="M4.11,5.91a.48.48,0,0,1-.39.18,4.42,4.42,0,0,0-.37,1.25H3.06A9.64,9.64,0,0,1,3.5,5.58.44.44,0,0,1,4,5.35C4.15,5.39,4.26,5.75,4.11,5.91Z"/></symbol></defs><title>banner_bottom</title><g id="Layer_2" data-name="Layer 2"><g id="detail"><use id="detail_1-3" data-name="detail 1" width="4.4" height="4.7" transform="translate(29.44 25.92) scale(1.03)" xlink:href="#detail_1"/><use width="4.4" height="4.7" transform="matrix(1.02, -0.18, 0.18, 1.02, 24.38, 26.76)" xlink:href="#detail_1"/><use width="4.4" height="4.7" transform="matrix(0.97, -0.35, 0.35, 0.97, 19.54, 28.46)" xlink:href="#detail_1"/><use width="4.4" height="4.7" transform="translate(15.08 30.98) rotate(-30) scale(1.03)" xlink:href="#detail_1"/><use width="4.4" height="4.7" transform="matrix(0.79, -0.66, 0.66, 0.79, 11.12, 34.24)" xlink:href="#detail_1"/><use width="4.4" height="4.7" transform="translate(7.78 38.13) rotate(-50) scale(1.03)" xlink:href="#detail_1"/><use width="4.4" height="4.7" transform="translate(5.17 42.55) rotate(-60) scale(1.03)" xlink:href="#detail_1"/><use width="4.4" height="4.7" transform="translate(3.37 47.35) rotate(-70) scale(1.03)" xlink:href="#detail_1"/><use width="4.4" height="4.7" transform="translate(2.43 52.39) rotate(-80) scale(1.03)" xlink:href="#detail_1"/><use width="4.4" height="4.7" transform="translate(2.38 57.52) rotate(-90) scale(1.03)" xlink:href="#detail_1"/><use width="4.4" height="4.7" transform="matrix(-0.18, -1.02, 1.02, -0.18, 3.22, 62.58)" xlink:href="#detail_1"/><use width="4.4" height="4.7" transform="translate(4.92 67.42) rotate(-110) scale(1.03)" xlink:href="#detail_1"/><use width="4.4" height="4.7" transform="matrix(-0.52, -0.89, 0.89, -0.52, 7.44, 71.88)" xlink:href="#detail_1"/><use width="4.4" height="4.7" transform="matrix(-0.66, -0.79, 0.79, -0.66, 10.7, 75.84)" xlink:href="#detail_1"/><use width="4.4" height="4.7" transform="translate(14.59 79.18) rotate(-140) scale(1.03)" xlink:href="#detail_1"/><use width="4.4" height="4.7" transform="matrix(-0.89, -0.52, 0.52, -0.89, 19.01, 81.79)" xlink:href="#detail_1"/><use width="4.4" height="4.7" transform="translate(23.81 83.59) rotate(-160) scale(1.03)" xlink:href="#detail_1"/><use width="4.4" height="4.7" transform="translate(28.85 84.53) rotate(-170) scale(1.03)" xlink:href="#detail_1"/><use width="4.4" height="4.7" transform="translate(33.98 84.58) rotate(180) scale(1.03)" xlink:href="#detail_1"/><use width="4.4" height="4.7" transform="matrix(-1.02, 0.18, -0.18, -1.02, 39.04, 83.74)" xlink:href="#detail_1"/><use width="4.4" height="4.7" transform="translate(43.88 82.04) rotate(160) scale(1.03)" xlink:href="#detail_1"/><use width="4.4" height="4.7" transform="translate(48.34 79.52) rotate(150) scale(1.03)" xlink:href="#detail_1"/><use width="4.4" height="4.7" transform="translate(52.3 76.26) rotate(140) scale(1.03)" xlink:href="#detail_1"/><use width="4.4" height="4.7" transform="translate(55.64 72.36) rotate(130) scale(1.03)" xlink:href="#detail_1"/><use width="4.4" height="4.7" transform="translate(58.25 67.95) rotate(120) scale(1.03)" xlink:href="#detail_1"/><use width="4.4" height="4.7" transform="translate(60.05 63.15) rotate(110) scale(1.03)" xlink:href="#detail_1"/><use width="4.4" height="4.7" transform="translate(60.99 58.11) rotate(100) scale(1.03)" xlink:href="#detail_1"/><use width="4.4" height="4.7" transform="translate(61.04 52.98) rotate(90) scale(1.03)" xlink:href="#detail_1"/><use width="4.4" height="4.7" transform="translate(60.2 47.92) rotate(80) scale(1.03)" xlink:href="#detail_1"/><use width="4.4" height="4.7" transform="matrix(0.35, 0.97, -0.97, 0.35, 58.5, 43.08)" xlink:href="#detail_1"/><use width="4.4" height="4.7" transform="matrix(0.52, 0.89, -0.89, 0.52, 55.98, 38.62)" xlink:href="#detail_1"/><use width="4.4" height="4.7" transform="translate(52.72 34.65) rotate(50) scale(1.03)" xlink:href="#detail_1"/><use width="4.4" height="4.7" transform="matrix(0.79, 0.66, -0.66, 0.79, 48.83, 31.32)" xlink:href="#detail_1"/><use width="4.4" height="4.7" transform="translate(44.41 28.71) rotate(30) scale(1.03)" xlink:href="#detail_1"/><use width="4.4" height="4.7" transform="matrix(0.97, 0.35, -0.35, 0.97, 39.61, 26.91)" xlink:href="#detail_1"/><use width="4.4" height="4.7" transform="translate(34.57 25.97) rotate(10) scale(1.03)" xlink:href="#detail_1"/><circle class="cls-1" cx="31.71" cy="55.25" r="24.52"/></g><g id="ring"><path class="cls-2" d="M31.71,31.18A24.07,24.07,0,1,0,55.78,55.25,24.1,24.1,0,0,0,31.71,31.18Zm23.56,22a.58.58,0,0,1-.52.62.57.57,0,1,1,.52-.62Zm.09,2.06a.58.58,0,1,1-.58-.57A.57.57,0,0,1,55.36,55.25ZM55,51.14a.57.57,0,1,1-1.13.2.57.57,0,0,1,1.13-.2Zm-.45-2a.57.57,0,0,1-1.1.3.57.57,0,1,1,1.1-.3Zm-.62-2a.57.57,0,0,1-.34.74.57.57,0,0,1-.73-.34.57.57,0,1,1,1.07-.4Zm-.79-1.9a.57.57,0,0,1-.27.76.59.59,0,0,1-.77-.28.57.57,0,0,1,1-.48Zm-1.73-2a.56.56,0,0,1,.78.21.57.57,0,0,1-1,.57A.56.56,0,0,1,51.41,43.22Zm-1.13-1.67a.57.57,0,1,1,.66.94.58.58,0,0,1-.8-.14A.58.58,0,0,1,50.28,41.55ZM49,40a.57.57,0,1,1-.07.81A.57.57,0,0,1,49,40Zm-1.4-1.45a.58.58,0,0,1,.81,0,.56.56,0,0,1,0,.81.57.57,0,1,1-.81-.81ZM46.1,37.21a.57.57,0,0,1,.81-.07.57.57,0,0,1-.73.88A.57.57,0,0,1,46.1,37.21ZM44.48,36a.58.58,0,0,1,.8-.14.58.58,0,0,1,.14.8.57.57,0,1,1-.94-.66Zm-1.73-1a.58.58,0,1,1,.21.79A.58.58,0,0,1,42.75,35Zm-1.81-.88a.59.59,0,0,1,.77-.28.57.57,0,1,1-.77.28Zm-1.87-.73A.57.57,0,0,1,39.8,33a.57.57,0,1,1-.73.34Zm-1.94-.55a.57.57,0,1,1,.41.7A.57.57,0,0,1,37.13,32.82ZM35.82,32a.58.58,0,0,1,.46.67.57.57,0,0,1-1.12-.2A.58.58,0,0,1,35.82,32Zm-2-.26a.56.56,0,0,1,.52.62.57.57,0,0,1-.62.52.59.59,0,0,1-.52-.62A.57.57,0,0,1,33.77,31.7Zm-2.06-.09a.57.57,0,1,1-.57.57A.57.57,0,0,1,31.71,31.61Zm-2.06.09a.56.56,0,0,1,.62.52.57.57,0,0,1-.52.62.59.59,0,0,1-.62-.52A.57.57,0,0,1,29.65,31.7Zm-2,.26a.58.58,0,0,1,.66.47.56.56,0,0,1-.46.66.57.57,0,0,1-.67-.46A.59.59,0,0,1,27.61,32Zm-2,.45a.58.58,0,0,1,.71.41.57.57,0,1,1-.71-.41Zm-2,.62A.57.57,0,0,1,24,34.11.57.57,0,1,1,23.63,33Zm-1.91.79a.57.57,0,0,1,.49,1,.59.59,0,0,1-.77-.28A.57.57,0,0,1,21.72,33.82Zm-1.83.95a.58.58,0,1,1-.21.79A.58.58,0,0,1,19.89,34.77Zm-1.74,1.11a.57.57,0,1,1-.14.8A.58.58,0,0,1,18.15,35.88Zm-1.63,1.26a.56.56,0,0,1,.8.07.57.57,0,1,1-.88.73A.56.56,0,0,1,16.52,37.14ZM15,38.53a.58.58,0,0,1,.81,0,.56.56,0,0,1,0,.81.57.57,0,1,1-.81-.81ZM13.6,40a.57.57,0,1,1,.07.81A.58.58,0,0,1,13.6,40Zm-1.25,1.64a.57.57,0,1,1,.93.66.57.57,0,0,1-.79.14A.57.57,0,0,1,12.35,41.69Zm-1.11,1.74a.56.56,0,0,1,.78-.21.57.57,0,0,1-.57,1A.56.56,0,0,1,11.24,43.43Zm-1,1.83A.59.59,0,0,1,11,45a.57.57,0,0,1-.49,1A.57.57,0,0,1,10.28,45.26Zm-.79,1.9a.58.58,0,0,1,.74-.34.57.57,0,0,1-.39,1.08A.59.59,0,0,1,9.49,47.16Zm-.62,2a.57.57,0,1,1,.41.7A.57.57,0,0,1,8.87,49.13Zm.22,1.55a.58.58,0,0,1,.47.66.59.59,0,0,1-.67.47.57.57,0,0,1-.46-.67A.56.56,0,0,1,9.09,50.68Zm-.31,2a.57.57,0,0,1,.52.62.58.58,0,0,1-.62.52.57.57,0,0,1,.1-1.14Zm-.14,2a.57.57,0,1,1,0,1.14.57.57,0,0,1,0-1.14Zm-.48,2.63a.57.57,0,0,1,.52-.62.58.58,0,0,1,.62.52.57.57,0,0,1-.52.62A.57.57,0,0,1,8.16,57.31Zm.27,2a.57.57,0,0,1,.46-.67.59.59,0,0,1,.67.47.58.58,0,0,1-.47.66A.56.56,0,0,1,8.43,59.36Zm.44,2a.57.57,0,1,1,.71.4A.57.57,0,0,1,8.87,61.37Zm.62,2a.59.59,0,0,1,.35-.74.57.57,0,0,1,.39,1.08A.58.58,0,0,1,9.49,63.34Zm.79,1.9a.57.57,0,1,1,1-.48.57.57,0,0,1-.27.76A.59.59,0,0,1,10.28,65.24Zm1.74,2a.57.57,0,1,1-.57-1,.57.57,0,0,1,.57,1Zm1.12,1.67a.57.57,0,0,1-.65-.94.57.57,0,0,1,.79.14A.57.57,0,0,1,13.14,68.95Zm1.27,1.57a.57.57,0,1,1,.07-.81A.58.58,0,0,1,14.41,70.52ZM15.8,72a.57.57,0,1,1,0-.81A.56.56,0,0,1,15.8,72Zm1.52,1.32a.57.57,0,0,1-.88-.73.57.57,0,1,1,.88.73ZM19,74.48a.57.57,0,1,1-.14-.8A.58.58,0,0,1,19,74.48Zm1.72,1a.57.57,0,1,1-.21-.79A.58.58,0,0,1,20.67,75.52Zm1.81.88a.57.57,0,1,1-1-.48.59.59,0,0,1,.77-.28A.57.57,0,0,1,22.48,76.4Zm1.88.73a.58.58,0,0,1-.73.34A.57.57,0,1,1,24,76.39.57.57,0,0,1,24.36,77.13Zm1.94.55a.58.58,0,0,1-.71.41.58.58,0,0,1-.4-.7.57.57,0,1,1,1.11.29Zm1.31.86a.59.59,0,0,1-.47-.67.57.57,0,0,1,.67-.46.56.56,0,0,1,.46.66A.58.58,0,0,1,27.61,78.54Zm2,.26a.57.57,0,0,1-.52-.62.59.59,0,0,1,.62-.52.57.57,0,0,1,.52.62A.56.56,0,0,1,29.65,78.8Zm2.06.09a.57.57,0,1,1,.58-.57A.57.57,0,0,1,31.71,78.89Zm2.06-.09a.57.57,0,0,1-.62-.52.59.59,0,0,1,.52-.62.57.57,0,0,1,.62.52A.56.56,0,0,1,33.77,78.8Zm2-.26a.58.58,0,0,1-.66-.47.57.57,0,1,1,1.12-.2A.58.58,0,0,1,35.82,78.54Zm2-.45a.57.57,0,1,1,.41-.7A.57.57,0,0,1,37.83,78.09Zm2-.62a.57.57,0,0,1-.73-.34.57.57,0,1,1,.73.34Zm1.91-.79a.59.59,0,0,1-.77-.28.57.57,0,1,1,.77.28Zm1.83-1a.59.59,0,0,1-.79-.21.58.58,0,0,1,.21-.79.58.58,0,0,1,.58,1Zm1.74-1.11a.57.57,0,1,1,.14-.8A.58.58,0,0,1,45.28,74.62Zm1.63-1.26a.57.57,0,1,1-.73-.88.57.57,0,0,1,.73.88ZM48.43,72a.57.57,0,1,1,0-.81A.56.56,0,0,1,48.43,72ZM31.71,77.32A22.07,22.07,0,1,1,53.78,55.25,22.09,22.09,0,0,1,31.71,77.32Zm18.12-6.87a.58.58,0,0,1-.81.07.57.57,0,0,1-.07-.81.57.57,0,0,1,.88.74Zm1.25-1.64a.57.57,0,1,1-.94-.66.58.58,0,0,1,.8-.14A.58.58,0,0,1,51.08,68.81Zm1.11-1.74a.57.57,0,0,1-1-.57.57.57,0,1,1,1,.57Zm1-1.83a.57.57,0,0,1-1-.48.59.59,0,0,1,.77-.28A.57.57,0,0,1,53.14,65.24Zm.79-1.9a.57.57,0,1,1-1.07-.4.57.57,0,0,1,.73-.34A.57.57,0,0,1,53.93,63.34Zm.62-2a.57.57,0,0,1-1.1-.3.57.57,0,1,1,1.1.3Zm-.22-1.55a.57.57,0,0,1-.46-.66.57.57,0,1,1,.46.66Zm.32-2a.57.57,0,1,1,.1-1.14.58.58,0,0,1,.52.62A.57.57,0,0,1,54.65,57.83Z"/></g><g id="outer_rings"><circle class="cls-1" cx="31.71" cy="55.25" r="29.42"/><circle class="cls-4" cx="31.71" cy="55.25" r="30.52"/></g><g id="top"><path class="cls-2" d="M32.55,20.67c0,1-.23,4.06-.23,4.06H31.14s-.23-3.05-.23-4.06a.86.86,0,0,1,.82-.87A.87.87,0,0,1,32.55,20.67Z"/><circle class="cls-5" cx="31.71" cy="55.25" r="30.52"/><polyline class="cls-4" points="5.82 39.07 5.82 23.37 18.3 23.37 18.3 27.82"/><polyline class="cls-4" points="57.64 39.07 57.64 23.37 45.17 23.37 45.17 27.82"/><polyline class="cls-4" points="45.17 23.62 45.17 17.25 40.21 17.25 31.71 8.75 23.25 17 18.3 17 18.3 23.37"/><path class="cls-2" d="M32.34,24.85s.47-3,.52-3.46.43-.53.78-.42.61.37.37.8Z"/><path class="cls-2" d="M33.92,25.15s1.23-2,1.39-2.35.51-.2.78.06.42.57.1.78Z"/><path class="cls-2" d="M37.06,23.62c.26.25-.93,1.46-1,1.7s-.42.05-.66-.23-.38-.58-.13-.69S36.79,23.37,37.06,23.62Z"/><path class="cls-2" d="M35,21.52c.76.51-1,3-1.09,3.4s-.53.46-.88.27-.58-.5-.26-.88S34.26,21,35,21.52Z"/><path class="cls-2" d="M31.08,24.72s-.47-3-.52-3.46-.43-.53-.78-.42-.61.37-.37.8Z"/><path class="cls-2" d="M29.5,25s-1.23-2-1.39-2.35-.51-.2-.78.06-.42.57-.1.78Z"/><path class="cls-2" d="M26.36,23.49c-.26.25.93,1.46,1,1.7s.42.05.66-.23.38-.58.13-.69S26.62,23.24,26.36,23.49Z"/><path class="cls-2" d="M28.4,21.38c-.76.51,1,3,1.09,3.4s.53.46.88.27.58-.5.26-.88S29.16,20.87,28.4,21.38Z"/><path class="cls-2" d="M23,11.73l-3,3h2.52a.54.54,0,0,1,.45-.92c.47,0,.81.59.81,1.06a.86.86,0,0,1-.85.86H17.53L23,10.32l3.53,3.53-.71.71Z"/><path class="cls-2" d="M40.4,11.73l3,3H40.91a.54.54,0,0,0-.45-.92c-.47,0-.81.59-.81,1.06a.86.86,0,0,0,.85.86h5.34L40.4,10.32l-3.53,3.53.71.71Z"/><use width="4.83" height="7.34" transform="translate(5.05 16.11) scale(0.94 1)" xlink:href="#leaf_detail"/><use width="4.83" height="7.34" transform="translate(9.34 16.13) scale(0.94 1)" xlink:href="#leaf_detail"/><use width="4.83" height="7.34" transform="translate(13.64 16.15) scale(0.94 1)" xlink:href="#leaf_detail"/><use width="4.83" height="7.34" transform="translate(45.18 16.2) scale(0.94 1)" xlink:href="#leaf_detail"/><use width="4.83" height="7.34" transform="translate(49.48 16.22) scale(0.94 1)" xlink:href="#leaf_detail"/><use width="4.83" height="7.34" transform="translate(53.77 16.24) scale(0.94 1)" xlink:href="#leaf_detail"/><path class="cls-1" d="M4.06,6.42"/><path class="cls-2" d="M21,6.17v1h-.69V6.67H3A2.36,2.36,0,0,0,2.1,8.52a2.29,2.29,0,0,0,.76,1.91,1.92,1.92,0,0,0,1.48.43A2,2,0,0,0,5.69,10,1.75,1.75,0,0,0,5.4,7.68a1.16,1.16,0,0,0-.88-.25,1.18,1.18,0,0,0-.8.49.84.84,0,0,0-.13.56.82.82,0,0,1,.47-.14A.73.73,0,0,1,4.84,9a.73.73,0,0,1-.76.67h0l-.19,0-.11,0a.81.81,0,0,1-.35-.25.83.83,0,0,1-.13-.18,1.62,1.62,0,0,1,0-1.58,1.67,1.67,0,0,1,1.15-.69,1.57,1.57,0,0,1,1.25.35,2.26,2.26,0,0,1,.39,3,2.47,2.47,0,0,1-1.7,1,1.65,1.65,0,0,1-.32,0,2.42,2.42,0,0,1-1.53-.56,2.79,2.79,0,0,1-1-2.32,3,3,0,0,1,.71-1.83H2.16a4.78,4.78,0,0,0-.84,2.71,2.68,2.68,0,0,0,1.19,2.38,4.3,4.3,0,0,0,3.83-.13A2.46,2.46,0,0,0,7,9.71a12.88,12.88,0,0,0-.58-2.35L8,7.3A11.62,11.62,0,0,1,8.1,8.69c.32,0,.68-.07,1-.08,0-.74,0-1.33,0-1.33s2.18-.12,2.9,0h5.77a.69.69,0,0,1,.64.73.7.7,0,0,1-.64.74c-.35,0-.55-.15-.58-.42s.24-.36,0-.54a51.08,51.08,0,0,0-5.82.14c-1.08.06-3.89,3-3.55,3.16s1.45-.77,2.39-1.14A11.6,11.6,0,0,1,14.89,9h0a.74.74,0,0,1,0,1.46c-.35,0-.73,0-.74-.42s.3-.35.19-.5-.44-.05-.63,0A10.75,10.75,0,0,0,8.76,11.1,19,19,0,0,1,7,11.94a6.93,6.93,0,0,1-2.67.81,3.76,3.76,0,0,1-2.09-.57A3.24,3.24,0,0,1,.82,9.39a5.16,5.16,0,0,1,.76-2.72H.5s0,7.8,0,8.33c0,0,0,.42.19.42s.18-.63.59-.65.53.4.53.75-.21.65-.77.65-1-.28-1-.63V6.17Z"/><path class="cls-1" d="M59.32,6.5"/><path class="cls-2" d="M42.38,6.25v1h.69V6.75H60.34a2.36,2.36,0,0,1,.94,1.85,2.29,2.29,0,0,1-.76,1.91,1.92,1.92,0,0,1-1.48.43,2,2,0,0,1-1.35-.82A1.75,1.75,0,0,1,58,7.76a1.16,1.16,0,0,1,.88-.25,1.18,1.18,0,0,1,.8.49.84.84,0,0,1,.13.56.82.82,0,0,0-.47-.14.73.73,0,0,0-.78.68.73.73,0,0,0,.76.67h0l.19,0,.11,0A.81.81,0,0,0,60,9.47a.83.83,0,0,0,.13-.18,1.62,1.62,0,0,0,0-1.58A1.67,1.67,0,0,0,58.92,7a1.57,1.57,0,0,0-1.25.35,2.26,2.26,0,0,0-.39,3,2.47,2.47,0,0,0,1.7,1,1.65,1.65,0,0,0,.32,0,2.42,2.42,0,0,0,1.53-.56,2.79,2.79,0,0,0,1-2.32,3,3,0,0,0-.71-1.83h.15a4.78,4.78,0,0,1,.84,2.71,2.68,2.68,0,0,1-1.19,2.38A4.3,4.3,0,0,1,57,11.71a2.46,2.46,0,0,1-.7-1.92,12.88,12.88,0,0,1,.58-2.35l-1.58-.06a11.62,11.62,0,0,0-.06,1.39c-.32,0-.68-.07-1-.08,0-.74,0-1.33,0-1.33s-2.18-.12-2.9,0H45.6A.69.69,0,0,0,45,8a.7.7,0,0,0,.64.74c.35,0,.55-.15.58-.42s-.24-.36,0-.54A51.08,51.08,0,0,1,52,8c1.08.06,3.89,3,3.55,3.16s-1.45-.77-2.39-1.14A11.6,11.6,0,0,0,48.49,9h0a.74.74,0,0,0,0,1.46c.35,0,.73,0,.74-.42s-.3-.35-.19-.5.44-.05.63,0a10.75,10.75,0,0,1,4.91,1.62,19,19,0,0,0,1.76.84,6.93,6.93,0,0,0,2.67.81,3.76,3.76,0,0,0,2.09-.57,3.24,3.24,0,0,0,1.42-2.79,5.16,5.16,0,0,0-.76-2.72h1.08s0,7.8,0,8.33c0,0,0,.42-.19.42s-.18-.63-.59-.65-.53.4-.53.75.21.65.77.65,1-.28,1-.63V6.25Z"/><path class="cls-2" d="M32.6,5.6A3,3,0,0,1,32,7.43s0,.3-.24.3-.24-.3-.24-.3a3,3,0,0,1-.63-1.82h0c0-.5.38-3,.86-3s.86,2.48.86,3Z"/><path class="cls-2" d="M8.66,25.3a2.4,2.4,0,0,1,.68,1.41s.19.15,0,.31-.31,0-.31,0a2.4,2.4,0,0,1-1.41-.68h0c-.28-.28-1.49-1.93-1.21-2.2s1.92.93,2.2,1.21Z"/><path class="cls-2" d="M9.93,25.81a2.43,2.43,0,0,1-.25,1s0,.17-.08.17-.07-.17-.07-.17a2.43,2.43,0,0,1-.18-1h0c0-.28.19-1.66.35-1.66s.24,1.4.23,1.68Z"/><path class="cls-2" d="M8.18,27.66a2.43,2.43,0,0,0,1-.25s.17,0,.17-.08-.17-.07-.17-.07a2.43,2.43,0,0,0-1-.18h0c-.28,0-1.66.19-1.66.35s1.4.24,1.68.23Z"/><path class="cls-2" d="M33.91,7.13a2.39,2.39,0,0,1-1.17,1s-.09.23-.29.12S32.4,8,32.4,8a2.39,2.39,0,0,1,.26-1.54h0c.19-.35,1.44-2,1.79-1.77s-.35,2.1-.55,2.46Z"/><path class="cls-2" d="M34.67,8.44a1.82,1.82,0,0,1-1.16.49.17.17,0,1,1-.23-.24,1.82,1.82,0,0,1,.55-1.13h0c.23-.22,1.58-1.13,1.81-.89s-.75,1.55-1,1.77Z"/><path class="cls-2" d="M35,9.7a1.22,1.22,0,0,1-.93.07.14.14,0,1,1-.13-.25,1.22,1.22,0,0,1,.59-.73h0c.21-.11,1.34-.45,1.48-.2s-.79,1-1,1.1Z"/><path class="cls-2" d="M29.32,7.13a2.39,2.39,0,0,0,1.17,1s.09.23.29.12.05-.31.05-.31a2.39,2.39,0,0,0-.26-1.54h0c-.19-.35-1.44-2-1.79-1.77s.35,2.1.55,2.46Z"/><path class="cls-2" d="M28.55,8.44a1.82,1.82,0,0,0,1.16.49.17.17,0,1,0,.23-.24,1.82,1.82,0,0,0-.55-1.13h0c-.23-.22-1.58-1.13-1.81-.89s.75,1.55,1,1.77Z"/><path class="cls-2" d="M28.23,9.7a1.22,1.22,0,0,0,.93.07.14.14,0,1,0,.13-.25,1.22,1.22,0,0,0-.59-.73h0c-.21-.11-1.34-.45-1.48-.2s.79,1,1,1.1Z"/><polyline class="cls-3" points="18.28 27.36 9.79 27.36 9.79 33.77"/><rect class="cls-2" x="10.81" y="23.74" width="1.25" height="3.62"/><rect class="cls-2" x="7.3" y="27.38" width="1.25" height="3.62" transform="translate(-21.27 37.12) rotate(-90)"/><path class="cls-3" d="M10.48,28v4s1.12-1,2.45-2a29.16,29.16,0,0,1,3.13-2Z"/><path class="cls-2" d="M54.67,25.43A2.4,2.4,0,0,0,54,26.84s-.19.15,0,.31.31,0,.31,0a2.4,2.4,0,0,0,1.41-.68h0c.28-.28,1.49-1.93,1.21-2.2s-1.92.93-2.2,1.21Z"/><path class="cls-2" d="M53.4,25.94a2.43,2.43,0,0,0,.25,1s0,.17.08.17.07-.17.07-.17a2.43,2.43,0,0,0,.18-1h0c0-.28-.19-1.66-.35-1.66s-.24,1.4-.23,1.68Z"/><path class="cls-2" d="M55.16,27.79a2.43,2.43,0,0,1-1-.25s-.17,0-.17-.08.17-.07.17-.07a2.43,2.43,0,0,1,1-.18h0c.28,0,1.66.19,1.66.35s-1.4.24-1.68.23Z"/><polyline class="cls-3" points="45.05 27.5 53.55 27.5 53.55 33.9"/><rect class="cls-2" x="51.27" y="23.88" width="1.25" height="3.62" transform="translate(103.8 51.37) rotate(-180)"/><rect class="cls-2" x="54.78" y="27.52" width="1.25" height="3.62" transform="translate(26.08 84.73) rotate(-90)"/><path class="cls-3" d="M52.81,28.26v3.66s-1-.89-2.25-1.85a26.86,26.86,0,0,0-2.88-1.85Z"/><path class="cls-2" d="M4.58,22.72v19H3.9V39.88a6.91,6.91,0,0,1-2.61-1,3.79,3.79,0,0,1,.62-.53,6.71,6.71,0,0,0,2,.74v-.22l-.22-.06a8.91,8.91,0,0,1-1.13-.4l-.45-.2.16-.08a8.18,8.18,0,0,1,1.64-.57v-.2a6.84,6.84,0,0,0-2.19.87c-.08.06-.17.12-.26.2a3.43,3.43,0,0,0-.33.33,1.31,1.31,0,0,0-.24.43s.24,0,.31,0a.66.66,0,0,1,.61.65c0,.44-.67.76-.92.76a.64.64,0,0,1-.47-.18C0,40,.16,39.31.3,38.82a2.12,2.12,0,0,1,.31-.62,2.55,2.55,0,0,1,.51-.53A6.55,6.55,0,0,1,3.9,36.52v-.08a6.91,6.91,0,0,1-2.61-1,3.79,3.79,0,0,1,.62-.53,6.71,6.71,0,0,0,2,.74V35.4l-.22-.06a8.91,8.91,0,0,1-1.13-.4l-.45-.2.16-.08a8.18,8.18,0,0,1,1.64-.57v-.2a6.84,6.84,0,0,0-2.19.87c-.08.06-.17.12-.26.2a3.43,3.43,0,0,0-.33.33,1.31,1.31,0,0,0-.24.43s.24,0,.31,0a.66.66,0,0,1,.61.65c0,.44-.67.76-.92.76a.64.64,0,0,1-.47-.18c-.4-.36-.25-1-.11-1.54a2.12,2.12,0,0,1,.31-.62,2.55,2.55,0,0,1,.51-.53A6.55,6.55,0,0,1,3.9,33.08V33a6.91,6.91,0,0,1-2.61-1,3.79,3.79,0,0,1,.62-.53,6.71,6.71,0,0,0,2,.74V32l-.22-.06a8.91,8.91,0,0,1-1.13-.4l-.45-.2.16-.08a8.18,8.18,0,0,1,1.64-.57v-.2a6.84,6.84,0,0,0-2.19.87c-.08.06-.17.12-.26.2a3.43,3.43,0,0,0-.33.33,1.31,1.31,0,0,0-.24.43s.24,0,.31,0a.66.66,0,0,1,.61.65c0,.44-.67.76-.92.76a.64.64,0,0,1-.47-.18c-.4-.36-.25-1-.11-1.54a2.12,2.12,0,0,1,.31-.62,2.55,2.55,0,0,1,.51-.53A6.55,6.55,0,0,1,3.9,29.64v-.08a6.91,6.91,0,0,1-2.61-1A3.8,3.8,0,0,1,1.91,28a6.71,6.71,0,0,0,2,.74v-.22l-.22-.06a8.91,8.91,0,0,1-1.13-.4l-.45-.2.16-.08a8.18,8.18,0,0,1,1.64-.57V27a6.84,6.84,0,0,0-2.19.87c-.08.06-.17.12-.26.2a3.43,3.43,0,0,0-.33.33,1.31,1.31,0,0,0-.24.43c0,.05.24,0,.31,0a.66.66,0,0,1,.61.65c0,.44-.67.76-.92.76A.64.64,0,0,1,.41,30C0,29.68.16,29,.3,28.5a2.12,2.12,0,0,1,.31-.62,2.55,2.55,0,0,1,.51-.53A6.55,6.55,0,0,1,3.9,26.2v-.08a6.91,6.91,0,0,1-2.61-1,3.8,3.8,0,0,1,.62-.53,6.71,6.71,0,0,0,2,.74v-.22L3.68,25a8.91,8.91,0,0,1-1.13-.4l-.45-.2.16-.08a8.18,8.18,0,0,1,1.64-.57v-.2a6.84,6.84,0,0,0-2.19.87c-.08.06-.17.12-.26.2a3.42,3.42,0,0,0-.33.33,1.31,1.31,0,0,0-.24.43c0,.05.24,0,.31,0A.66.66,0,0,1,1.8,26c0,.44-.67.76-.92.76a.64.64,0,0,1-.47-.18c-.4-.36-.25-1-.11-1.54a2.12,2.12,0,0,1,.31-.62,2.55,2.55,0,0,1,.51-.53h0a9,9,0,0,1,0-3.19A2.67,2.67,0,0,1,1.41,20a1.46,1.46,0,0,1,.39-.49c.34-.27,1-.65,1.37-.3a1.27,1.27,0,0,1,.4,1c0,.48-.16.7-.52.77a.68.68,0,0,1-.72-.52c0-.08,0-.35-.07-.35a1.08,1.08,0,0,0-.27.37,4.44,4.44,0,0,0-.15.44c0,.12-.05.23-.07.33a6.92,6.92,0,0,0,.09,2.2,8,8,0,0,1,2-.67C4,22.74,4.58,22.72,4.58,22.72Z"/><path class="cls-2" d="M58.92,22.72v19h.68V39.88a6.91,6.91,0,0,0,2.61-1,3.79,3.79,0,0,0-.62-.53,6.71,6.71,0,0,1-2,.74v-.22l.22-.06a8.91,8.91,0,0,0,1.13-.4l.45-.2-.16-.08a8.18,8.18,0,0,0-1.64-.57v-.2a6.84,6.84,0,0,1,2.19.87c.08.06.17.12.26.2a3.43,3.43,0,0,1,.33.33,1.31,1.31,0,0,1,.24.43s-.24,0-.31,0a.66.66,0,0,0-.61.65c0,.44.67.76.92.76a.64.64,0,0,0,.47-.18c.4-.36.25-1,.11-1.54a2.12,2.12,0,0,0-.31-.62,2.55,2.55,0,0,0-.51-.53,6.55,6.55,0,0,0-2.78-1.15v-.08a6.91,6.91,0,0,0,2.61-1,3.79,3.79,0,0,0-.62-.53,6.71,6.71,0,0,1-2,.74V35.4l.22-.06a8.91,8.91,0,0,0,1.13-.4l.45-.2-.16-.08a8.18,8.18,0,0,0-1.64-.57v-.2a6.84,6.84,0,0,1,2.19.87c.08.06.17.12.26.2a3.43,3.43,0,0,1,.33.33,1.31,1.31,0,0,1,.24.43s-.24,0-.31,0a.66.66,0,0,0-.61.65c0,.44.67.76.92.76a.64.64,0,0,0,.47-.18c.4-.36.25-1,.11-1.54a2.12,2.12,0,0,0-.31-.62,2.55,2.55,0,0,0-.51-.53,6.55,6.55,0,0,0-2.78-1.15V33a6.91,6.91,0,0,0,2.61-1,3.79,3.79,0,0,0-.62-.53,6.71,6.71,0,0,1-2,.74V32l.22-.06a8.91,8.91,0,0,0,1.13-.4l.45-.2-.16-.08a8.18,8.18,0,0,0-1.64-.57v-.2a6.84,6.84,0,0,1,2.19.87c.08.06.17.12.26.2a3.43,3.43,0,0,1,.33.33,1.31,1.31,0,0,1,.24.43s-.24,0-.31,0a.66.66,0,0,0-.61.65c0,.44.67.76.92.76a.64.64,0,0,0,.47-.18c.4-.36.25-1,.11-1.54a2.12,2.12,0,0,0-.31-.62,2.55,2.55,0,0,0-.51-.53,6.55,6.55,0,0,0-2.78-1.15v-.08a6.91,6.91,0,0,0,2.61-1,3.8,3.8,0,0,0-.62-.53,6.71,6.71,0,0,1-2,.74v-.22l.22-.06a8.91,8.91,0,0,0,1.13-.4l.45-.2-.16-.08a8.18,8.18,0,0,0-1.64-.57V27a6.84,6.84,0,0,1,2.19.87c.08.06.17.12.26.2a3.43,3.43,0,0,1,.33.33,1.31,1.31,0,0,1,.24.43c0,.05-.24,0-.31,0a.66.66,0,0,0-.61.65c0,.44.67.76.92.76a.64.64,0,0,0,.47-.18c.4-.36.25-1,.11-1.54a2.12,2.12,0,0,0-.31-.62,2.55,2.55,0,0,0-.51-.53A6.55,6.55,0,0,0,59.6,26.2v-.08a6.91,6.91,0,0,0,2.61-1,3.8,3.8,0,0,0-.62-.53,6.71,6.71,0,0,1-2,.74v-.22l.22-.06a8.91,8.91,0,0,0,1.13-.4l.45-.2-.16-.08a8.18,8.18,0,0,0-1.64-.57v-.2a6.84,6.84,0,0,1,2.19.87c.08.06.17.12.26.2a3.42,3.42,0,0,1,.33.33,1.31,1.31,0,0,1,.24.43c0,.05-.24,0-.31,0a.66.66,0,0,0-.61.65c0,.44.67.76.92.76a.64.64,0,0,0,.47-.18c.4-.36.25-1,.11-1.54a2.12,2.12,0,0,0-.31-.62,2.55,2.55,0,0,0-.51-.53h0a9,9,0,0,0,0-3.19,2.67,2.67,0,0,0-.25-.69,1.46,1.46,0,0,0-.39-.49c-.34-.27-1-.65-1.37-.3a1.27,1.27,0,0,0-.4,1c0,.48.16.7.52.77a.68.68,0,0,0,.72-.52c0-.08,0-.35.07-.35a1.08,1.08,0,0,1,.27.37,4.44,4.44,0,0,1,.15.44c0,.12.05.23.07.33a6.92,6.92,0,0,1-.09,2.2,8,8,0,0,0-2-.67C59.46,22.74,58.92,22.72,58.92,22.72Z"/><path class="cls-2" d="M2.8,1h0L3,.81,3,.74,3.11.67A1.91,1.91,0,0,1,3.76.2l.18,0V0h-.1A1.33,1.33,0,0,0,3,.47,2.17,2.17,0,0,0,2.78.23,1,1,0,0,0,2.16,0a1.08,1.08,0,0,0-.77.38A1.21,1.21,0,0,0,.58,0H.42V.18H.6a1.52,1.52,0,0,1,.65.32l0,0,0,0,0,0L1.07.69h0A1.09,1.09,0,0,0,.61.48H.42V.63H.57C.66.64.75.67.94.83c-.15.16-.3.34-.41.44l-.07.06,0,0v.08h0s0,0,0,0l.16.15h0l.05.06.05.06.05.06.07.07.44.47.06.06.06.07h0l0,0,0,0,0,0,0,0,.06.06,0,0h0l0,0,0,0h0l0,0C1.91,3,2,3,2.16,3a.63.63,0,0,0,.4-.17l.18-.17h0l.05-.06.09-.1,0,0,.18-.21h0l.05-.06.29-.31a0,0,0,0,1,.06,0L3.57,2h0L3.63,2a0,0,0,0,1,0,.06l-.29.31-.06.07-.08.09-.08.09,0,0L3,2.78l0,0,0,.05a1.06,1.06,0,0,1-.77.42.68.68,0,0,1-.4-.13A2.06,2.06,0,0,1,1.49,3h0l0,0-.09-.09,0,0-.09-.09,0,0,0,0,0,0-.06-.06L.6,2h0L.42,1.86v.21l.12.16h0l.39.43a.75.75,0,0,1-.36.19l-.15,0V3L.6,3a.88.88,0,0,0,.46-.24h0l0,.05,0,0,0,0,0,0h0a1.07,1.07,0,0,1-.65.34H.42v.16H.58a1.21,1.21,0,0,0,.8-.38,2.31,2.31,0,0,0,.27.22.86.86,0,0,0,.5.16A1.23,1.23,0,0,0,3,3a2.69,2.69,0,0,0,.37.31.88.88,0,0,0,.43.16h.1V3.33l-.18,0a.87.87,0,0,1-.24-.13,2.5,2.5,0,0,1-.34-.29l.06-.06,0,0,.1-.11A1.56,1.56,0,0,0,3.76,3l.18,0V2.86l-.07,0a1.14,1.14,0,0,1-.4-.3l.32-.34h0l.14-.13V1.85s0,0-.05,0-.07.07-.1.08l-.05,0h0L3.65,1.8h0l-.1-.11,0,0-.35-.38,0,0,.1-.1.06-.06.4.43a.1.1,0,0,0,.12,0s0-.05.07-.05v-.1c-.09,0-.33-.25-.47-.42A2.46,2.46,0,0,1,3.74.71.38.38,0,0,1,3.87.64h.07V.48l-.18,0a.35.35,0,0,0-.13.06,2.62,2.62,0,0,0-.28.24l0,0,0,0L3.16,1,3,1.2l-.06.06-.32.35L2.5,1.52l-.1-.11.32-.35ZM1.4,2.22.95,1.74l.45-.48.46.48Zm.32.32,0,0-.09-.09-.05-.05h0L2,1.88,2.09,2l0,0,0,0Zm.73.18a.46.46,0,0,1-.28.13c-.06,0-.12,0-.31-.18l.44-.46.33.35ZM3,1.4l.32.35L3,2.09l-.32-.35Zm-.56.35.05.06.07.07.32.35-.07.07,0,0,0,0,0,0h0l0,0L2.4,2.08,2.32,2l-.05-.06,0,0-.09-.1L2,1.68l0,0,0,0H2l-.45-.47h0L1.71.94l.5.53Zm-.19-.47L1.84.82,2,.71A.29.29,0,0,1,2.16.64c.14,0,.28.11.45.29ZM2.16.46a.47.47,0,0,0-.29.11L1.72.69l0,0,0,0L1.6.8,1.54.86,1.4,1l-.07.07-.06.06-.44.47-.18-.2L1.07.95,1.13.89,1.2.81l0,0,0,0,0,0,0,0,0,0,0,0,0,0,0,0c.29-.27.46-.36.68-.36a.85.85,0,0,1,.52.19A2.1,2.1,0,0,1,2.92.6L2.83.69l-.1.11A.84.84,0,0,0,2.16.46Z"/><path class="cls-2" d="M6.32,1h0L6.49.81,6.56.74,6.63.67A1.91,1.91,0,0,1,7.28.2l.18,0V0h-.1a1.33,1.33,0,0,0-.79.46A2.17,2.17,0,0,0,6.3.23,1,1,0,0,0,5.68,0a1.08,1.08,0,0,0-.77.38A1.21,1.21,0,0,0,4.11,0H3.94V.18h.18a1.52,1.52,0,0,1,.65.32l0,0,0,0,0,0L4.6.69h0A1.09,1.09,0,0,0,4.13.48H3.94V.63H4.1c.09,0,.18,0,.36.19-.15.16-.3.34-.41.44L4,1.33l0,0v.08h0s0,0,0,0l.16.15h0l.05.06.05.06.05.06.07.07.44.47.06.06.06.07h0l0,0,0,0,0,0,0,0,.06.06,0,0h0l0,0,0,0h0l0,0c.2.18.31.24.44.24a.63.63,0,0,0,.4-.17l.18-.17h0l.05-.06.09-.1,0,0,.18-.21h0l.05-.06L7,1.91a0,0,0,0,1,.06,0L7.09,2h0L7.16,2a0,0,0,0,1,0,.06l-.29.31-.06.07-.08.09-.08.09,0,0-.07.08,0,0,0,.05a1.06,1.06,0,0,1-.77.42.68.68,0,0,1-.4-.13A2.06,2.06,0,0,1,5,3H5l0,0-.09-.09,0,0-.09-.09,0,0,0,0,0,0-.06-.06L4.13,2h0l-.18-.17v.21l.12.16h0l.39.43a.75.75,0,0,1-.36.19l-.15,0V3l.18,0a.88.88,0,0,0,.46-.24h0l0,.05,0,0,0,0,0,0h0a1.07,1.07,0,0,1-.65.34H3.94v.16h.16a1.21,1.21,0,0,0,.8-.38,2.31,2.31,0,0,0,.27.22.86.86,0,0,0,.5.16A1.23,1.23,0,0,0,6.57,3a2.69,2.69,0,0,0,.37.31.88.88,0,0,0,.43.16h.1V3.33l-.18,0A.87.87,0,0,1,7,3.17a2.5,2.5,0,0,1-.34-.29l.06-.06,0,0,.1-.11A1.56,1.56,0,0,0,7.28,3l.18,0V2.86l-.07,0a1.14,1.14,0,0,1-.4-.3l.32-.34h0l.14-.13V1.85s0,0-.05,0-.07.07-.1.08l-.05,0h0L7.18,1.8h0l-.1-.11,0,0-.35-.38,0,0,.1-.1.06-.06.4.43a.1.1,0,0,0,.12,0s0-.05.07-.05v-.1c-.09,0-.33-.25-.47-.42A2.46,2.46,0,0,1,7.26.71.38.38,0,0,1,7.39.64h.07V.48l-.18,0a.35.35,0,0,0-.13.06,2.62,2.62,0,0,0-.28.24l0,0,0,0L6.68,1l-.19.2-.06.06-.32.35L6,1.52l-.1-.11.32-.35ZM4.92,2.22l-.45-.48.45-.48.46.48Zm.32.32,0,0L5.1,2.41,5,2.36H5l.45-.47L5.62,2l0,0,0,0ZM6,2.72a.46.46,0,0,1-.28.13c-.06,0-.12,0-.31-.18l.44-.46.33.35ZM6.55,1.4l.32.35-.32.35-.32-.35ZM6,1.74,6,1.8l.07.07.32.35-.07.07,0,0,0,0,0,0h0l0,0-.33-.35L5.84,2l-.05-.06,0,0-.09-.1-.09-.1,0,0,0,0h0L5,1.13H5L5.24.94l.5.53ZM5.8,1.28,5.37.82,5.5.71A.29.29,0,0,1,5.68.64c.14,0,.28.11.45.29ZM5.68.46a.47.47,0,0,0-.29.11L5.24.69l0,0,0,0L5.12.8,5.06.86,4.92,1l-.07.07-.06.06-.44.47-.18-.2L4.59.95,4.65.89,4.73.81l0,0,0,0,0,0,0,0,0,0,0,0,0,0,0,0c.29-.27.46-.36.68-.36A.85.85,0,0,1,6.2.37,2.1,2.1,0,0,1,6.44.6L6.36.69l-.1.11A.84.84,0,0,0,5.68.46Z"/><path class="cls-2" d="M9.84,1h0L10,.81l.07-.07.07-.07A1.91,1.91,0,0,1,10.81.2l.18,0V0h-.1a1.33,1.33,0,0,0-.79.46A2.17,2.17,0,0,0,9.83.23,1,1,0,0,0,9.2,0a1.08,1.08,0,0,0-.77.38A1.21,1.21,0,0,0,7.63,0H7.47V.18h.18A1.52,1.52,0,0,1,8.3.51l0,0,0,0,0,0L8.12.69h0A1.09,1.09,0,0,0,7.65.48H7.47V.63h.15c.09,0,.18,0,.36.19-.15.16-.3.34-.41.44l-.07.06,0,0v.08h0s0,0,0,0l.16.15h0l.05.06.05.06.05.06.07.07.44.47.06.06.06.07h0l0,0,0,0,0,0,0,0,.06.06,0,0h0l0,0,0,0h0l0,0C9,3,9.07,3,9.2,3a.63.63,0,0,0,.4-.17l.18-.17h0l.05-.06.09-.1,0,0,.18-.21h0l.05-.06.29-.31a0,0,0,0,1,.06,0l.06.06h0l.06.06a0,0,0,0,1,0,.06l-.29.31-.06.07-.08.09-.08.09,0,0-.07.08,0,0,0,.05a1.06,1.06,0,0,1-.77.42.68.68,0,0,1-.4-.13A2.06,2.06,0,0,1,8.54,3h0l0,0-.09-.09,0,0-.09-.09,0,0,0,0,0,0-.06-.06L7.65,2h0l-.18-.17v.21l.12.16h0L8,2.65a.75.75,0,0,1-.36.19l-.15,0V3l.18,0a.88.88,0,0,0,.46-.24h0l0,.05,0,0,0,0,0,0h0a1.07,1.07,0,0,1-.65.34H7.47v.16h.16a1.21,1.21,0,0,0,.8-.38,2.31,2.31,0,0,0,.27.22.86.86,0,0,0,.5.16A1.23,1.23,0,0,0,10.1,3a2.69,2.69,0,0,0,.37.31.88.88,0,0,0,.43.16H11V3.33l-.18,0a.87.87,0,0,1-.24-.13,2.5,2.5,0,0,1-.34-.29l.06-.06,0,0,.1-.11a1.56,1.56,0,0,0,.41.32L11,3V2.86l-.07,0a1.14,1.14,0,0,1-.4-.3l.32-.34h0L11,2.06V1.85s0,0-.05,0-.07.07-.1.08l-.05,0h0L10.7,1.8h0l-.1-.11,0,0-.35-.38,0,0,.1-.1.06-.06.4.43a.1.1,0,0,0,.12,0s0-.05.07-.05v-.1c-.09,0-.33-.25-.47-.42a2.46,2.46,0,0,1,.27-.23.38.38,0,0,1,.13-.07H11V.48l-.18,0a.35.35,0,0,0-.13.06,2.62,2.62,0,0,0-.28.24l0,0,0,0L10.2,1,10,1.2,10,1.26l-.32.35-.09-.09-.1-.11.32-.35ZM8.44,2.22,8,1.74l.45-.48.46.48Zm.32.32,0,0-.09-.09-.05-.05h0L9,1.88,9.14,2l0,0,0,0Zm.73.18a.46.46,0,0,1-.28.13c-.06,0-.12,0-.31-.18l.44-.46.33.35Zm.59-1.32.32.35-.32.35-.32-.35Zm-.56.35.05.06.07.07.32.35-.07.07,0,0,0,0,0,0h0l0,0-.33-.35L9.37,2l-.05-.06,0,0-.09-.1-.09-.1,0,0,0,0H9l-.45-.47h0L8.76.94l.5.53Zm-.19-.47L8.89.82,9,.71A.29.29,0,0,1,9.2.64c.14,0,.28.11.45.29ZM9.2.46a.47.47,0,0,0-.29.11L8.76.69l0,0,0,0L8.64.8,8.58.86,8.44,1l-.07.07-.06.06-.44.47-.18-.2L8.12.95,8.18.89,8.25.81l0,0,0,0,0,0,0,0,0,0,0,0,0,0,0,0C8.81.27,9,.19,9.2.19a.85.85,0,0,1,.52.19A2.1,2.1,0,0,1,10,.6L9.88.69l-.1.11A.84.84,0,0,0,9.2.46Z"/><path class="cls-2" d="M13.36,1h0l.17-.17.07-.07.07-.07A1.91,1.91,0,0,1,14.33.2l.18,0V0h-.1a1.33,1.33,0,0,0-.79.46,2.17,2.17,0,0,0-.27-.24A1,1,0,0,0,12.73,0,1.08,1.08,0,0,0,12,.38a1.21,1.21,0,0,0-.8-.38H11V.18h.18a1.52,1.52,0,0,1,.65.32l0,0,0,0,0,0-.07.07h0a1.09,1.09,0,0,0-.46-.21H11V.63h.15c.09,0,.18,0,.36.19-.15.16-.3.34-.41.44L11,1.33l0,0v.08h0s0,0,0,0l.16.15h0l.05.06.05.06.05.06.07.07.44.47.06.06.06.07h0l0,0,0,0,0,0,0,0,.06.06,0,0h0l0,0,0,0h0l0,0c.2.18.31.24.44.24a.63.63,0,0,0,.4-.17l.18-.17h0l.05-.06.09-.1,0,0,.18-.21h0l.05-.06L14,1.91a0,0,0,0,1,.06,0l.06.06h0L14.2,2a0,0,0,0,1,0,.06l-.29.31-.06.07-.08.09-.08.09,0,0-.07.08,0,0,0,.05a1.06,1.06,0,0,1-.77.42.68.68,0,0,1-.4-.13A2.06,2.06,0,0,1,12.06,3h0l0,0-.09-.09,0,0-.09-.09,0,0,0,0,0,0-.06-.06L11.17,2h0L11,1.86v.21l.12.16h0l.39.43a.75.75,0,0,1-.36.19l-.15,0V3l.18,0a.88.88,0,0,0,.46-.24h0l0,.05,0,0,0,0,0,0h0a1.07,1.07,0,0,1-.65.34H11v.16h.16A1.21,1.21,0,0,0,12,3.1a2.31,2.31,0,0,0,.27.22.86.86,0,0,0,.5.16A1.23,1.23,0,0,0,13.62,3a2.69,2.69,0,0,0,.37.31.88.88,0,0,0,.43.16h.1V3.33l-.18,0a.87.87,0,0,1-.24-.13,2.5,2.5,0,0,1-.34-.29l.06-.06,0,0,.1-.11a1.56,1.56,0,0,0,.41.32l.18,0V2.86l-.07,0a1.14,1.14,0,0,1-.4-.3l.32-.34h0l.14-.13V1.85s0,0-.05,0-.07.07-.1.08l-.05,0h0l-.07-.07h0l-.1-.11,0,0-.35-.38,0,0,.1-.1.06-.06.4.43a.1.1,0,0,0,.12,0s0-.05.07-.05v-.1c-.09,0-.33-.25-.47-.42a2.46,2.46,0,0,1,.27-.23.38.38,0,0,1,.13-.07h.07V.48l-.18,0a.35.35,0,0,0-.13.06,2.62,2.62,0,0,0-.28.24l0,0,0,0L13.73,1l-.19.2-.06.06-.32.35-.09-.09L13,1.41l.32-.35ZM12,2.22l-.45-.48L12,1.26l.46.48Zm.32.32,0,0-.09-.09-.05-.05h0l.45-.47.12.13,0,0,0,0Zm.73.18a.46.46,0,0,1-.28.13c-.06,0-.12,0-.31-.18l.44-.46.33.35ZM13.6,1.4l.32.35-.32.35-.32-.35ZM13,1.74l.05.06.07.07.32.35-.07.07,0,0,0,0,0,0h0l0,0L13,2.08,12.89,2l-.05-.06,0,0-.09-.1-.09-.1,0,0,0,0h0l-.45-.47h0l.19-.19.5.53Zm-.19-.47L12.41.82l.13-.11a.29.29,0,0,1,.18-.08c.14,0,.28.11.45.29ZM12.73.46a.47.47,0,0,0-.29.11l-.15.13,0,0,0,0L12.17.8l-.06.06L12,1l-.07.07-.06.06-.44.47-.18-.2.43-.46L11.7.89l.07-.07,0,0,0,0,0,0,0,0,0,0,0,0,0,0,0,0c.29-.27.46-.36.68-.36a.85.85,0,0,1,.52.19,2.1,2.1,0,0,1,.25.23L13.4.69l-.1.11A.84.84,0,0,0,12.73.46Z"/><path class="cls-2" d="M16.89,1h0l.17-.17.07-.07L17.2.67A1.91,1.91,0,0,1,17.85.2l.18,0V0h-.1a1.33,1.33,0,0,0-.79.46,2.17,2.17,0,0,0-.27-.24A1,1,0,0,0,16.25,0a1.08,1.08,0,0,0-.77.38,1.21,1.21,0,0,0-.8-.38h-.16V.18h.18a1.52,1.52,0,0,1,.65.32l0,0,0,0,0,0-.07.07h0A1.09,1.09,0,0,0,14.7.48h-.18V.63h.15c.09,0,.18,0,.36.19-.15.16-.3.34-.41.44l-.07.06,0,0v.08h0s0,0,0,0l.16.15h0l.05.06.05.06.05.06.07.07.44.47.06.06.06.07h0l0,0,0,0,0,0,0,0,.06.06,0,0h0l0,0,0,0h0l0,0c.2.18.31.24.44.24a.63.63,0,0,0,.4-.17l.18-.17h0l.05-.06.09-.1,0,0,.18-.21h0l.05-.06.29-.31a0,0,0,0,1,.06,0l.06.06h0l.06.06a0,0,0,0,1,0,.06l-.29.31-.06.07-.08.09-.08.09,0,0-.07.08,0,0,0,.05a1.06,1.06,0,0,1-.77.42.68.68,0,0,1-.4-.13A2.06,2.06,0,0,1,15.58,3h0l0,0-.09-.09,0,0-.09-.09,0,0,0,0,0,0-.06-.06L14.7,2h0l-.18-.17v.21l.12.16h0l.39.43a.75.75,0,0,1-.36.19l-.15,0V3l.18,0a.88.88,0,0,0,.46-.24h0l0,.05,0,0,0,0,0,0h0a1.07,1.07,0,0,1-.65.34h-.18v.16h.16a1.21,1.21,0,0,0,.8-.38,2.31,2.31,0,0,0,.27.22.86.86,0,0,0,.5.16A1.23,1.23,0,0,0,17.14,3a2.69,2.69,0,0,0,.37.31.88.88,0,0,0,.43.16H18V3.33l-.18,0a.87.87,0,0,1-.24-.13,2.5,2.5,0,0,1-.34-.29l.06-.06,0,0,.1-.11a1.56,1.56,0,0,0,.41.32L18,3V2.86l-.07,0a1.14,1.14,0,0,1-.4-.3l.32-.34h0L18,2.06V1.85s0,0-.05,0-.07.07-.1.08l-.05,0h0l-.07-.07h0l-.1-.11,0,0-.35-.38,0,0,.1-.1.06-.06.4.43a.1.1,0,0,0,.12,0s0-.05.07-.05v-.1c-.09,0-.33-.25-.47-.42a2.46,2.46,0,0,1,.27-.23A.38.38,0,0,1,18,.64H18V.48l-.18,0a.35.35,0,0,0-.13.06,2.62,2.62,0,0,0-.28.24l0,0,0,0L17.25,1l-.19.2L17,1.26l-.32.35-.09-.09-.1-.11.32-.35Zm-1.4,1.23L15,1.74l.45-.48.46.48Zm.32.32,0,0-.09-.09-.05-.05h0l.45-.47.12.13,0,0,0,0Zm.73.18a.46.46,0,0,1-.28.13c-.06,0-.12,0-.31-.18l.44-.46.33.35Zm.59-1.32.32.35-.32.35-.32-.35Zm-.56.35.05.06.07.07.32.35-.07.07,0,0,0,0,0,0h0l0,0-.33-.35L16.41,2l-.05-.06,0,0-.09-.1-.09-.1,0,0,0,0h0l-.45-.47h0L15.8.94l.5.53Zm-.19-.47L15.94.82l.13-.11a.29.29,0,0,1,.18-.08c.14,0,.28.11.45.29ZM16.25.46A.47.47,0,0,0,16,.57l-.15.13,0,0,0,0L15.69.8l-.06.06L15.49,1l-.07.07-.06.06-.44.47-.18-.2.43-.46.06-.06L15.3.81l0,0,0,0,0,0,0,0,0,0,0,0,0,0,0,0c.29-.27.46-.36.68-.36a.85.85,0,0,1,.52.19A2.1,2.1,0,0,1,17,.6l-.09.09-.1.11A.84.84,0,0,0,16.25.46Z"/><path class="cls-2" d="M20.41,1h0l.17-.17.07-.07.07-.07A1.91,1.91,0,0,1,21.37.2l.18,0V0h-.1a1.33,1.33,0,0,0-.79.46A2.17,2.17,0,0,0,20.4.23,1,1,0,0,0,19.77,0,1.08,1.08,0,0,0,19,.38,1.21,1.21,0,0,0,18.2,0H18V.18h.18a1.52,1.52,0,0,1,.65.32l0,0,0,0,0,0-.07.07h0a1.09,1.09,0,0,0-.46-.21H18V.63h.15c.09,0,.18,0,.36.19-.15.16-.3.34-.41.44l-.07.06,0,0v.08h0s0,0,0,0l.16.15h0l.05.06.05.06.05.06.07.07.44.47.06.06.06.07h0l0,0,0,0,0,0,0,0,.06.06,0,0h0l0,0,0,0h0l0,0c.2.18.31.24.44.24a.63.63,0,0,0,.4-.17l.18-.17h0l.05-.06.09-.1,0,0,.18-.21h0l.05-.06.29-.31a0,0,0,0,1,.06,0l.06.06h0l.06.06a0,0,0,0,1,0,.06L21,2.41l-.06.07-.08.09-.08.09,0,0-.07.08,0,0,0,.05a1.06,1.06,0,0,1-.77.42.68.68,0,0,1-.4-.13A2.06,2.06,0,0,1,19.11,3h0l0,0L19,2.83l0,0-.09-.09,0,0,0,0,0,0-.06-.06L18.22,2h0L18,1.86v.21l.12.16h0l.39.43a.75.75,0,0,1-.36.19l-.15,0V3l.18,0a.88.88,0,0,0,.46-.24h0l0,.05,0,0,0,0,0,0h0a1.07,1.07,0,0,1-.65.34H18v.16h.16A1.21,1.21,0,0,0,19,3.1a2.31,2.31,0,0,0,.27.22.86.86,0,0,0,.5.16A1.23,1.23,0,0,0,20.66,3a2.69,2.69,0,0,0,.37.31.88.88,0,0,0,.43.16h.1V3.33l-.18,0a.87.87,0,0,1-.24-.13,2.5,2.5,0,0,1-.34-.29l.06-.06,0,0,.1-.11a1.56,1.56,0,0,0,.41.32l.18,0V2.86l-.07,0a1.14,1.14,0,0,1-.4-.3l.32-.34h0l.14-.13V1.85s0,0-.05,0-.07.07-.1.08l-.05,0h0l-.07-.07h0l-.1-.11,0,0-.35-.38,0,0,.1-.1L21,1.07l.4.43a.1.1,0,0,0,.12,0s0-.05.07-.05v-.1c-.09,0-.33-.25-.47-.42a2.46,2.46,0,0,1,.27-.23.38.38,0,0,1,.13-.07h.07V.48l-.18,0a.35.35,0,0,0-.13.06A2.62,2.62,0,0,0,21,.81l0,0,0,0L20.77,1l-.19.2-.06.06-.32.35-.09-.09L20,1.41l.32-.35ZM19,2.22l-.45-.48L19,1.26l.46.48Zm.32.32,0,0-.09-.09-.05-.05h0l.45-.47.12.13,0,0,0,0Zm.73.18a.46.46,0,0,1-.28.13c-.06,0-.12,0-.31-.18l.44-.46.33.35Zm.59-1.32.32.35-.32.35-.32-.35Zm-.56.35.05.06.07.07.32.35-.07.07,0,0,0,0,0,0h0l0,0L20,2.08,19.94,2l-.05-.06,0,0-.09-.1-.09-.1,0,0,0,0h0l-.45-.47h0l.19-.19.5.53Zm-.19-.47L19.46.82l.13-.11a.29.29,0,0,1,.18-.08c.14,0,.28.11.45.29ZM19.77.46a.47.47,0,0,0-.29.11l-.15.13,0,0,0,0L19.21.8l-.06.06L19,1l-.07.07-.06.06-.44.47-.18-.2.43-.46.06-.06.07-.07,0,0,0,0,0,0,0,0,0,0,0,0,0,0,0,0c.29-.27.46-.36.68-.36a.85.85,0,0,1,.52.19,2.1,2.1,0,0,1,.25.23l-.09.09-.1.11A.84.84,0,0,0,19.77.46Z"/><path class="cls-2" d="M44.87,1h0L45,.81l.07-.07.07-.07A1.91,1.91,0,0,1,45.83.2l.18,0V0h-.1a1.33,1.33,0,0,0-.79.46,2.17,2.17,0,0,0-.27-.24A1,1,0,0,0,44.23,0a1.08,1.08,0,0,0-.77.38,1.21,1.21,0,0,0-.8-.38h-.16V.18h.18a1.52,1.52,0,0,1,.65.32l0,0,0,0,0,0-.07.07h0a1.09,1.09,0,0,0-.46-.21h-.18V.63h.15c.09,0,.18,0,.36.19-.15.16-.3.34-.41.44l-.07.06,0,0v.08h0s0,0,0,0l.16.15h0l.05.06.05.06.05.06.07.07.44.47.06.06.06.07h0l0,0,0,0,0,0,0,0,.06.06,0,0h0l0,0,0,0h0l0,0c.2.18.31.24.44.24a.63.63,0,0,0,.4-.17l.18-.17h0l.05-.06.09-.1,0,0,.18-.21h0l.05-.06.29-.31a0,0,0,0,1,.06,0l.06.06h0l.06.06a0,0,0,0,1,0,.06l-.29.31-.06.07-.08.09-.08.09,0,0-.07.08,0,0,0,.05a1.06,1.06,0,0,1-.77.42.68.68,0,0,1-.4-.13A2.06,2.06,0,0,1,43.57,3h0l0,0-.09-.09,0,0-.09-.09,0,0,0,0,0,0-.06-.06L42.68,2h0l-.18-.17v.21l.12.16h0l.39.43a.75.75,0,0,1-.36.19l-.15,0V3l.18,0a.88.88,0,0,0,.46-.24h0l0,.05,0,0,0,0,0,0h0a1.07,1.07,0,0,1-.65.34h-.18v.16h.16a1.21,1.21,0,0,0,.8-.38,2.31,2.31,0,0,0,.27.22.86.86,0,0,0,.5.16A1.23,1.23,0,0,0,45.12,3a2.69,2.69,0,0,0,.37.31.88.88,0,0,0,.43.16H46V3.33l-.18,0a.87.87,0,0,1-.24-.13,2.5,2.5,0,0,1-.34-.29l.06-.06,0,0,.1-.11a1.56,1.56,0,0,0,.41.32L46,3V2.86l-.07,0a1.14,1.14,0,0,1-.4-.3l.32-.34h0L46,2.06V1.85s0,0-.05,0-.07.07-.1.08l-.05,0h0l-.07-.07h0l-.1-.11,0,0-.35-.38,0,0,.1-.1.06-.06.4.43a.1.1,0,0,0,.12,0s0-.05.07-.05v-.1c-.09,0-.33-.25-.47-.42a2.46,2.46,0,0,1,.27-.23.38.38,0,0,1,.13-.07H46V.48l-.18,0a.35.35,0,0,0-.13.06,2.62,2.62,0,0,0-.28.24l0,0,0,0L45.23,1,45,1.2,45,1.26l-.32.35-.09-.09-.1-.11.32-.35Zm-1.4,1.23L43,1.74l.45-.48.46.48Zm.32.32,0,0-.09-.09-.05-.05h0L44,1.88l.12.13,0,0,0,0Zm.73.18a.46.46,0,0,1-.28.13c-.06,0-.12,0-.31-.18l.44-.46.33.35ZM45.1,1.4l.32.35-.32.35-.32-.35Zm-.56.35.05.06.07.07.32.35-.07.07,0,0,0,0,0,0h0l0,0-.33-.35L44.39,2l-.05-.06,0,0-.09-.1-.09-.1,0,0,0,0h0l-.45-.47h0l.19-.19.5.53Zm-.19-.47L43.92.82,44,.71a.29.29,0,0,1,.18-.08c.14,0,.28.11.45.29ZM44.23.46a.47.47,0,0,0-.29.11l-.15.13,0,0,0,0L43.67.8l-.06.06L43.47,1l-.07.07-.06.06-.44.47-.18-.2.43-.46L43.2.89l.07-.07,0,0,0,0,0,0,0,0,0,0,0,0,0,0,0,0c.29-.27.46-.36.68-.36a.85.85,0,0,1,.52.19A2.1,2.1,0,0,1,45,.6l-.09.09-.1.11A.84.84,0,0,0,44.23.46Z"/><path class="cls-2" d="M48.39,1h0l.17-.17.07-.07L48.7.67A1.91,1.91,0,0,1,49.35.2l.18,0V0h-.1a1.33,1.33,0,0,0-.79.46,2.17,2.17,0,0,0-.27-.24A1,1,0,0,0,47.75,0,1.08,1.08,0,0,0,47,.38a1.21,1.21,0,0,0-.8-.38H46V.18h.18a1.52,1.52,0,0,1,.65.32l0,0,0,0,0,0-.07.07h0A1.09,1.09,0,0,0,46.2.48H46V.63h.15c.09,0,.18,0,.36.19-.15.16-.3.34-.41.44l-.07.06,0,0v.08h0s0,0,0,0l.16.15h0l.05.06.05.06.05.06.07.07.44.47.06.06.06.07h0l0,0,0,0,0,0,0,0,.06.06,0,0h0l0,0,0,0h0l0,0c.2.18.31.24.44.24a.63.63,0,0,0,.4-.17l.18-.17h0l.05-.06.09-.1,0,0,.18-.21h0l.05-.06L49,1.91a0,0,0,0,1,.06,0l.06.06h0l.06.06a0,0,0,0,1,0,.06l-.29.31-.06.07-.08.09-.08.09,0,0-.07.08,0,0,0,.05a1.06,1.06,0,0,1-.77.42.68.68,0,0,1-.4-.13A2.06,2.06,0,0,1,47.09,3h0l0,0L47,2.83l0,0-.09-.09,0,0,0,0,0,0-.06-.06L46.2,2h0L46,1.86v.21l.12.16h0l.39.43a.75.75,0,0,1-.36.19l-.15,0V3l.18,0a.88.88,0,0,0,.46-.24h0l0,.05,0,0,0,0,0,0h0a1.07,1.07,0,0,1-.65.34H46v.16h.16A1.21,1.21,0,0,0,47,3.1a2.31,2.31,0,0,0,.27.22.86.86,0,0,0,.5.16A1.23,1.23,0,0,0,48.64,3a2.69,2.69,0,0,0,.37.31.88.88,0,0,0,.43.16h.1V3.33l-.18,0a.87.87,0,0,1-.24-.13,2.5,2.5,0,0,1-.34-.29l.06-.06,0,0,.1-.11a1.56,1.56,0,0,0,.41.32l.18,0V2.86l-.07,0a1.14,1.14,0,0,1-.4-.3l.32-.34h0l.14-.13V1.85s0,0-.05,0-.07.07-.1.08l-.05,0h0l-.07-.07h0l-.1-.11,0,0-.35-.38,0,0,.1-.1.06-.06.4.43a.1.1,0,0,0,.12,0s0-.05.07-.05v-.1c-.09,0-.33-.25-.47-.42a2.46,2.46,0,0,1,.27-.23.38.38,0,0,1,.13-.07h.07V.48l-.18,0a.35.35,0,0,0-.13.06,2.62,2.62,0,0,0-.28.24l0,0,0,0L48.75,1l-.19.2-.06.06-.32.35-.09-.09L48,1.41l.32-.35ZM47,2.22l-.45-.48L47,1.26l.46.48Zm.32.32,0,0-.09-.09-.05-.05h0l.45-.47.12.13,0,0,0,0Zm.73.18a.46.46,0,0,1-.28.13c-.06,0-.12,0-.31-.18l.44-.46.33.35Zm.59-1.32.32.35-.32.35-.32-.35Zm-.56.35.05.06.07.07.32.35-.07.07,0,0,0,0,0,0h0l0,0L48,2.08,47.92,2l-.05-.06,0,0-.09-.1-.09-.1,0,0,0,0h0l-.45-.47h0l.19-.19.5.53Zm-.19-.47L47.44.82l.13-.11a.29.29,0,0,1,.18-.08c.14,0,.28.11.45.29ZM47.75.46a.47.47,0,0,0-.29.11l-.15.13,0,0,0,0L47.19.8l-.06.06L47,1l-.07.07-.06.06-.44.47-.18-.2.43-.46.06-.06L46.8.81l0,0,0,0,0,0,0,0,0,0,0,0,0,0,0,0c.29-.27.46-.36.68-.36a.85.85,0,0,1,.52.19,2.1,2.1,0,0,1,.25.23l-.09.09-.1.11A.84.84,0,0,0,47.75.46Z"/><path class="cls-2" d="M51.91,1h0l.17-.17.07-.07.07-.07A1.91,1.91,0,0,1,52.88.2l.18,0V0H53a1.33,1.33,0,0,0-.79.46A2.17,2.17,0,0,0,51.9.23,1,1,0,0,0,51.28,0a1.08,1.08,0,0,0-.77.38A1.21,1.21,0,0,0,49.7,0h-.16V.18h.18a1.52,1.52,0,0,1,.65.32l0,0,0,0,0,0-.07.07h0a1.09,1.09,0,0,0-.46-.21h-.18V.63h.15c.09,0,.18,0,.36.19-.15.16-.3.34-.41.44l-.07.06,0,0v.08h0s0,0,0,0l.16.15h0l.05.06.05.06.05.06.07.07.44.47.06.06.06.07h0l0,0,0,0,0,0,0,0,.06.06,0,0h0l0,0,0,0h0l0,0c.2.18.31.24.44.24a.63.63,0,0,0,.4-.17l.18-.17h0l.05-.06.09-.1,0,0,.18-.21h0l.05-.06.29-.31a0,0,0,0,1,.06,0l.06.06h0l.06.06a0,0,0,0,1,0,.06l-.29.31-.06.07-.08.09-.08.09,0,0-.07.08,0,0,0,.05a1.06,1.06,0,0,1-.77.42.68.68,0,0,1-.4-.13A2.06,2.06,0,0,1,50.61,3h0l0,0-.09-.09,0,0-.09-.09,0,0,0,0,0,0-.06-.06L49.72,2h0l-.18-.17v.21l.12.16h0l.39.43a.75.75,0,0,1-.36.19l-.15,0V3l.18,0a.88.88,0,0,0,.46-.24h0l0,.05,0,0,0,0,0,0h0a1.07,1.07,0,0,1-.65.34h-.18v.16h.16a1.21,1.21,0,0,0,.8-.38,2.31,2.31,0,0,0,.27.22.86.86,0,0,0,.5.16A1.23,1.23,0,0,0,52.17,3a2.69,2.69,0,0,0,.37.31.88.88,0,0,0,.43.16h.1V3.33l-.18,0a.87.87,0,0,1-.24-.13,2.5,2.5,0,0,1-.34-.29l.06-.06,0,0,.1-.11a1.56,1.56,0,0,0,.41.32l.18,0V2.86l-.07,0a1.14,1.14,0,0,1-.4-.3l.32-.34h0l.14-.13V1.85s0,0-.05,0-.07.07-.1.08l-.05,0h0l-.07-.07h0l-.1-.11,0,0-.35-.38,0,0,.1-.1.06-.06.4.43a.1.1,0,0,0,.12,0s0-.05.07-.05v-.1c-.09,0-.33-.25-.47-.42a2.46,2.46,0,0,1,.27-.23A.38.38,0,0,1,53,.64h.07V.48l-.18,0a.35.35,0,0,0-.13.06,2.62,2.62,0,0,0-.28.24l0,0,0,0L52.28,1l-.19.2L52,1.26l-.32.35-.09-.09-.1-.11.32-.35Zm-1.4,1.23-.45-.48.45-.48.46.48Zm.32.32,0,0-.09-.09-.05-.05h0l.45-.47.12.13,0,0,0,0Zm.73.18a.46.46,0,0,1-.28.13c-.06,0-.12,0-.31-.18l.44-.46.33.35Zm.59-1.32.32.35-.32.35-.32-.35Zm-.56.35.05.06.07.07.32.35L52,2.3l0,0,0,0,0,0h0l0,0-.33-.35L51.44,2l-.05-.06,0,0-.09-.1-.09-.1,0,0,0,0h0l-.45-.47h0l.19-.19.5.53Zm-.19-.47L51,.82,51.1.71a.29.29,0,0,1,.18-.08c.14,0,.28.11.45.29ZM51.28.46A.47.47,0,0,0,51,.57l-.15.13,0,0,0,0L50.72.8l-.06.06L50.51,1l-.07.07-.06.06-.44.47-.18-.2.43-.46.06-.06.07-.07,0,0,0,0,0,0,0,0,0,0,0,0,0,0,0,0c.29-.27.46-.36.68-.36a.85.85,0,0,1,.52.19A2.1,2.1,0,0,1,52,.6L52,.69l-.1.11A.84.84,0,0,0,51.28.46Z"/><path class="cls-2" d="M55.44,1h0l.17-.17.07-.07.07-.07A1.91,1.91,0,0,1,56.4.2l.18,0V0h-.1a1.33,1.33,0,0,0-.79.46,2.17,2.17,0,0,0-.27-.24A1,1,0,0,0,54.8,0,1.08,1.08,0,0,0,54,.38a1.21,1.21,0,0,0-.8-.38h-.16V.18h.18a1.52,1.52,0,0,1,.65.32l0,0,0,0,0,0-.07.07h0a1.09,1.09,0,0,0-.46-.21h-.18V.63h.15c.09,0,.18,0,.36.19-.15.16-.3.34-.41.44l-.07.06,0,0v.08h0s0,0,0,0l.16.15h0l.05.06.05.06.05.06.07.07.44.47.06.06.06.07h0l0,0,0,0,0,0,0,0,.06.06,0,0h0l0,0,0,0h0l0,0c.2.18.31.24.44.24a.63.63,0,0,0,.4-.17l.18-.17h0l.05-.06.09-.1,0,0,.18-.21h0l.05-.06.29-.31a0,0,0,0,1,.06,0l.06.06h0l.06.06a0,0,0,0,1,0,.06L56,2.41l-.06.07-.08.09-.08.09,0,0-.07.08,0,0,0,.05a1.06,1.06,0,0,1-.77.42.68.68,0,0,1-.4-.13A2.06,2.06,0,0,1,54.13,3h0l0,0L54,2.83l0,0-.09-.09,0,0,0,0,0,0-.06-.06L53.24,2h0l-.18-.17v.21l.12.16h0l.39.43a.75.75,0,0,1-.36.19l-.15,0V3l.18,0a.88.88,0,0,0,.46-.24h0l0,.05,0,0,0,0,0,0h0a1.07,1.07,0,0,1-.65.34h-.18v.16h.16A1.21,1.21,0,0,0,54,3.1a2.31,2.31,0,0,0,.27.22.86.86,0,0,0,.5.16A1.23,1.23,0,0,0,55.69,3a2.69,2.69,0,0,0,.37.31.88.88,0,0,0,.43.16h.1V3.33l-.18,0a.87.87,0,0,1-.24-.13,2.5,2.5,0,0,1-.34-.29l.06-.06,0,0,.1-.11A1.56,1.56,0,0,0,56.4,3l.18,0V2.86l-.07,0a1.14,1.14,0,0,1-.4-.3l.32-.34h0l.14-.13V1.85s0,0-.05,0-.07.07-.1.08l-.05,0h0L56.3,1.8h0l-.1-.11,0,0-.35-.38,0,0,.1-.1L56,1.07l.4.43a.1.1,0,0,0,.12,0s0-.05.07-.05v-.1c-.09,0-.33-.25-.47-.42a2.46,2.46,0,0,1,.27-.23.38.38,0,0,1,.13-.07h.07V.48l-.18,0a.35.35,0,0,0-.13.06A2.62,2.62,0,0,0,56,.81l0,0,0,0L55.8,1l-.19.2-.06.06-.32.35-.09-.09L55,1.41l.32-.35ZM54,2.22l-.45-.48L54,1.26l.46.48Zm.32.32,0,0-.09-.09-.05-.05h0l.45-.47.12.13,0,0,0,0Zm.73.18a.46.46,0,0,1-.28.13c-.06,0-.12,0-.31-.18l.44-.46.33.35Zm.59-1.32.32.35-.32.35-.32-.35Zm-.56.35.05.06.07.07.32.35-.07.07,0,0,0,0,0,0h0l0,0L55,2.08,55,2l-.05-.06,0,0-.09-.1-.09-.1,0,0,0,0h0l-.45-.47h0l.19-.19.5.53Zm-.19-.47L54.49.82l.13-.11A.29.29,0,0,1,54.8.64c.14,0,.28.11.45.29ZM54.8.46a.47.47,0,0,0-.29.11l-.15.13,0,0,0,0L54.24.8l-.06.06L54,1,54,1.07l-.06.06-.44.47-.18-.2.43-.46.06-.06.07-.07,0,0,0,0,0,0,0,0,0,0,0,0,0,0,0,0c.29-.27.46-.36.68-.36a.85.85,0,0,1,.52.19,2.1,2.1,0,0,1,.25.23l-.09.09-.1.11A.84.84,0,0,0,54.8.46Z"/><path class="cls-2" d="M59,1h0l.17-.17L59.2.74l.07-.07A1.91,1.91,0,0,1,59.92.2l.18,0V0H60a1.33,1.33,0,0,0-.79.46,2.17,2.17,0,0,0-.27-.24A1,1,0,0,0,58.32,0a1.08,1.08,0,0,0-.77.38,1.21,1.21,0,0,0-.8-.38h-.16V.18h.18a1.52,1.52,0,0,1,.65.32l0,0,0,0,0,0-.07.07h0a1.09,1.09,0,0,0-.46-.21h-.18V.63h.15c.09,0,.18,0,.36.19-.15.16-.3.34-.41.44l-.07.06,0,0v.08h0s0,0,0,0l.16.15h0l.05.06.05.06.05.06.07.07.44.47.06.06.06.07h0l0,0,0,0,0,0,0,0,.06.06,0,0h0l0,0,0,0h0l0,0c.2.18.31.24.44.24a.63.63,0,0,0,.4-.17l.18-.17h0L59,2.62l.09-.1,0,0,.18-.21h0l.05-.06.29-.31a0,0,0,0,1,.06,0l.06.06h0L59.8,2a0,0,0,0,1,0,.06l-.29.31-.06.07-.08.09-.08.09,0,0-.07.08,0,0,0,.05a1.06,1.06,0,0,1-.77.42.68.68,0,0,1-.4-.13A2.06,2.06,0,0,1,57.66,3h0l0,0-.09-.09,0,0-.09-.09,0,0,0,0,0,0-.06-.06L56.77,2h0l-.18-.17v.21l.12.16h0l.39.43a.75.75,0,0,1-.36.19l-.15,0V3l.18,0a.88.88,0,0,0,.46-.24h0l0,.05,0,0,0,0,0,0h0a1.07,1.07,0,0,1-.65.34h-.18v.16h.16a1.21,1.21,0,0,0,.8-.38,2.31,2.31,0,0,0,.27.22.86.86,0,0,0,.5.16A1.23,1.23,0,0,0,59.21,3a2.69,2.69,0,0,0,.37.31.88.88,0,0,0,.43.16h.1V3.33l-.18,0a.87.87,0,0,1-.24-.13,2.5,2.5,0,0,1-.34-.29l.06-.06,0,0,.1-.11a1.56,1.56,0,0,0,.41.32l.18,0V2.86l-.07,0a1.14,1.14,0,0,1-.4-.3L60,2.2h0l.14-.13V1.85s0,0-.05,0-.07.07-.1.08l-.05,0h0l-.07-.07h0l-.1-.11,0,0-.35-.38,0,0,.1-.1.06-.06.4.43a.1.1,0,0,0,.12,0s0-.05.07-.05v-.1c-.09,0-.33-.25-.47-.42A2.46,2.46,0,0,1,59.9.71.38.38,0,0,1,60,.64h.07V.48l-.18,0a.35.35,0,0,0-.13.06,2.62,2.62,0,0,0-.28.24l0,0,0,0L59.32,1l-.19.2-.06.06-.32.35-.09-.09-.1-.11.32-.35Zm-1.4,1.23-.45-.48.45-.48.46.48Zm.32.32,0,0-.09-.09-.05-.05h0l.45-.47.12.13,0,0,0,0Zm.73.18a.46.46,0,0,1-.28.13c-.06,0-.12,0-.31-.18l.44-.46.33.35Zm.59-1.32.32.35-.32.35-.32-.35Zm-.56.35.05.06.07.07.32.35L59,2.3l0,0,0,0,0,0h0l0,0-.33-.35L58.49,2l-.05-.06,0,0-.09-.1-.09-.1,0,0,0,0h0l-.45-.47h0l.19-.19.5.53Zm-.19-.47L58,.82l.13-.11a.29.29,0,0,1,.18-.08c.14,0,.28.11.45.29ZM58.32.46A.47.47,0,0,0,58,.57l-.15.13,0,0,0,0L57.76.8,57.7.86,57.56,1l-.07.07-.06.06L57,1.61l-.18-.2.43-.46L57.3.89l.07-.07,0,0,0,0,0,0,0,0,0,0,0,0,0,0,0,0c.29-.27.46-.36.68-.36a.85.85,0,0,1,.52.19,2.1,2.1,0,0,1,.25.23L59,.69l-.1.11A.84.84,0,0,0,58.32.46Z"/><path class="cls-2" d="M62.48,1h0l.17-.17.07-.07L62.8.67A1.91,1.91,0,0,1,63.45.2l.18,0V0h-.1a1.33,1.33,0,0,0-.79.46,2.17,2.17,0,0,0-.27-.24A1,1,0,0,0,61.84,0a1.08,1.08,0,0,0-.77.38,1.21,1.21,0,0,0-.8-.38h-.16V.18h.18a1.52,1.52,0,0,1,.65.32l0,0,0,0,0,0-.07.07h0a1.09,1.09,0,0,0-.46-.21h-.18V.63h.15c.09,0,.18,0,.36.19-.15.16-.3.34-.41.44l-.07.06,0,0v.08h0s0,0,0,0l.16.15h0l.05.06.05.06.05.06.07.07.44.47.06.06.06.07h0l0,0,0,0,0,0,0,0,.06.06,0,0h0l0,0,0,0h0l0,0c.2.18.31.24.44.24a.63.63,0,0,0,.4-.17l.18-.17h0l.05-.06.09-.1,0,0,.18-.21h0l.05-.06.29-.31a0,0,0,0,1,.06,0l.06.06h0l.06.06a0,0,0,0,1,0,.06L63,2.41,63,2.48l-.08.09-.08.09,0,0-.07.08,0,0,0,.05a1.06,1.06,0,0,1-.77.42.68.68,0,0,1-.4-.13A2.06,2.06,0,0,1,61.18,3h0l0,0L61,2.83l0,0-.09-.09,0,0,0,0,0,0-.06-.06L60.29,2h0l-.18-.17v.21l.12.16h0l.39.43a.75.75,0,0,1-.36.19l-.15,0V3l.18,0a.88.88,0,0,0,.46-.24h0l0,.05,0,0,0,0,0,0h0a1.07,1.07,0,0,1-.65.34h-.18v.16h.16a1.21,1.21,0,0,0,.8-.38,2.31,2.31,0,0,0,.27.22.86.86,0,0,0,.5.16A1.23,1.23,0,0,0,62.74,3a2.69,2.69,0,0,0,.37.31.88.88,0,0,0,.43.16h.1V3.33l-.18,0a.87.87,0,0,1-.24-.13,2.5,2.5,0,0,1-.34-.29l.06-.06,0,0,.1-.11a1.56,1.56,0,0,0,.41.32l.18,0V2.86l-.07,0a1.14,1.14,0,0,1-.4-.3l.32-.34h0l.14-.13V1.85s0,0-.05,0-.07.07-.1.08l-.05,0h0l-.07-.07h0l-.1-.11,0,0-.35-.38,0,0,.1-.1L63,1.07l.4.43a.1.1,0,0,0,.12,0s0-.05.07-.05v-.1c-.09,0-.33-.25-.47-.42a2.46,2.46,0,0,1,.27-.23.38.38,0,0,1,.13-.07h.07V.48l-.18,0a.35.35,0,0,0-.13.06A2.62,2.62,0,0,0,63,.81l0,0,0,0L62.84,1l-.19.2-.06.06-.32.35-.09-.09-.1-.11.32-.35Zm-1.4,1.23-.45-.48.45-.48.46.48Zm.32.32,0,0-.09-.09-.05-.05h0l.45-.47.12.13,0,0,0,0Zm.73.18a.46.46,0,0,1-.28.13c-.06,0-.12,0-.31-.18L62,2.21l.33.35Zm.59-1.32.32.35-.32.35-.32-.35Zm-.56.35.05.06.07.07.32.35-.07.07,0,0,0,0,0,0h0l0,0-.33-.35L62,2,62,1.93l0,0-.09-.1-.09-.1,0,0,0,0h0l-.45-.47h0L61.4.94l.5.53ZM62,1.28,61.53.82l.13-.11a.29.29,0,0,1,.18-.08c.14,0,.28.11.45.29ZM61.84.46a.47.47,0,0,0-.29.11L61.4.69l0,0,0,0L61.28.8l-.06.06L61.08,1,61,1.07,61,1.14l-.44.47-.18-.2.43-.46.06-.06.07-.07,0,0,0,0,0,0,0,0,0,0,0,0,0,0,0,0c.29-.27.46-.36.68-.36a.85.85,0,0,1,.52.19,2.1,2.1,0,0,1,.25.23l-.09.09-.1.11A.84.84,0,0,0,61.84.46Z"/></g></g></svg>