<svg xmlns="http://www.w3.org/2000/svg" viewBox="0 0 63.77 9.47"><defs><style>.cls-1{fill:#fff;}</style></defs><title>banner_top</title><g id="Layer_2" data-name="Layer 2"><g id="top"><path class="cls-1" d="M40.5,4.4A1.64,1.64,0,0,0,40.91,4a1.58,1.58,0,0,0,.22-1.23,2.49,2.49,0,0,0-2.91-1.66,2.71,2.71,0,0,0-1.71,1,3.17,3.17,0,0,0-.36-1A2.25,2.25,0,0,0,33,.32a1.92,1.92,0,0,0-.65,2.6,1.57,1.57,0,0,0,1,.72,1.48,1.48,0,0,0,1.16-.18A1.31,1.31,0,0,0,35,1.68l-.43.25A.83.83,0,0,1,34.25,3a1,1,0,0,1-.79.11,1,1,0,0,1-.64-.49A1.4,1.4,0,0,1,33.3.75a1.72,1.72,0,0,1,1.33-.2,1.75,1.75,0,0,1,1.09.83A2.36,2.36,0,0,1,36,3.13a.09.09,0,0,0,0,0,2.23,2.23,0,0,1-.82,1.22H28.43a2.34,2.34,0,0,1-.58-3A1.8,1.8,0,0,1,29,.55a1.69,1.69,0,0,1,1.33.2,1.41,1.41,0,0,1,.48,1.91,1.06,1.06,0,0,1-.65.49A1,1,0,0,1,29.33,3,.82.82,0,0,1,29,1.93l-.43-.25a1.31,1.31,0,0,0,.45,1.78,1.5,1.5,0,0,0,1.17.18,1.57,1.57,0,0,0,1-.72,1.92,1.92,0,0,0-.65-2.6,2.26,2.26,0,0,0-3.12.81,3.09,3.09,0,0,0-.37,1A2.74,2.74,0,0,0,25.3,1.09a2.49,2.49,0,0,0-2.91,1.66A1.54,1.54,0,0,0,22.62,4,1.49,1.49,0,0,0,23,4.4H0v.75H63.38V4.4ZM25.8,2.84a1.43,1.43,0,0,0-.94-.58,1.17,1.17,0,0,0-1.36.79l.48.12a.69.69,0,0,1,.8-.42.94.94,0,0,1,.6.37.64.64,0,0,1,.09.46,1.2,1.2,0,0,1-1.4.76,1.57,1.57,0,0,1-1-.64,1,1,0,0,1-.15-.84,2,2,0,0,1,2.34-1.28,2.32,2.32,0,0,1,1.55,1,2.29,2.29,0,0,1,.36,1.77h-1.6A1.34,1.34,0,0,0,26,3.7,1.1,1.1,0,0,0,25.8,2.84ZM35.87,4.4s0,0,0,0,0,0,0,0Zm.52,0a2,2,0,0,1,0-1,.74.74,0,0,1,0-.14,2.77,2.77,0,0,1,.29-.6,2.36,2.36,0,0,1,1.55-1,2,2,0,0,1,2.34,1.28,1,1,0,0,1-.15.84,1.55,1.55,0,0,1-1,.64,1.18,1.18,0,0,1-1.39-.76.59.59,0,0,1,.08-.46.94.94,0,0,1,.61-.37.68.68,0,0,1,.79.42L40,3.05a1.16,1.16,0,0,0-1.36-.79,1.41,1.41,0,0,0-.93.58,1.1,1.1,0,0,0-.16.86,1.32,1.32,0,0,0,.43.7Z"/><path class="cls-1" d="M6.26,7h0l.17-.17.07-.07.07-.07a1.91,1.91,0,0,1,.65-.46l.18,0V6H7.3a1.33,1.33,0,0,0-.79.46,2.17,2.17,0,0,0-.27-.24A1,1,0,0,0,5.62,6a1.08,1.08,0,0,0-.77.38A1.21,1.21,0,0,0,4,6H3.88v.18h.18a1.52,1.52,0,0,1,.65.32l0,0,0,0,0,0-.07.07h0a1.09,1.09,0,0,0-.46-.21H3.88v.16H4c.09,0,.18,0,.36.19-.15.16-.3.34-.41.44l-.07.06,0,0v.08h0s0,0,0,0l.16.15h0l.05.06.05.06.05.06.07.07.44.47.06.06.06.07h0l0,0,0,0,0,0,0,0,.06.06,0,0h0l0,0,0,0h0l0,0c.2.18.31.24.44.24A.63.63,0,0,0,6,8.85l.18-.17h0l.05-.06.09-.1,0,0,.18-.21h0l.05-.06L6.9,7.9A0,0,0,0,1,7,7.9L7,8H7L7.09,8a0,0,0,0,1,0,.06L6.8,8.4l-.06.07-.08.09-.08.09,0,0-.07.08,0,0,0,.05a1.06,1.06,0,0,1-.77.42.68.68,0,0,1-.4-.13A2.06,2.06,0,0,1,5,8.94h0l0,0-.09-.09,0,0L4.7,8.7l0,0,0,0,0,0-.06-.06L4.06,8h0l-.18-.17v.21L4,8.21H4l.39.43A.75.75,0,0,1,4,8.84l-.15,0V9l.18,0a.88.88,0,0,0,.46-.24h0l0,.05,0,0,0,0,0,0h0a1.07,1.07,0,0,1-.65.34H3.88v.16H4a1.21,1.21,0,0,0,.8-.38,2.31,2.31,0,0,0,.27.22.86.86,0,0,0,.5.16A1.23,1.23,0,0,0,6.51,9a2.69,2.69,0,0,0,.37.31.88.88,0,0,0,.43.16h.1V9.32l-.18,0A.87.87,0,0,1,7,9.16a2.5,2.5,0,0,1-.34-.29l.06-.06,0,0,.1-.11A1.56,1.56,0,0,0,7.22,9L7.4,9V8.85l-.07,0a1.14,1.14,0,0,1-.4-.3l.32-.34h0L7.4,8V7.84s0,0-.05,0-.07.07-.1.08l-.05,0h0l-.07-.07h0L7,7.67l0,0-.35-.38,0,0,.1-.1.06-.06.4.43a.1.1,0,0,0,.12,0s0-.05.07-.05v-.1c-.09,0-.33-.25-.47-.42A2.46,2.46,0,0,1,7.2,6.7a.38.38,0,0,1,.13-.07H7.4V6.46l-.18,0a.35.35,0,0,0-.13.06,2.62,2.62,0,0,0-.28.24l0,0,0,0L6.62,7l-.19.2-.06.06L6,7.6,6,7.5l-.1-.11L6.19,7ZM4.86,8.21l-.45-.48.45-.48.46.48Zm.32.32,0,0L5,8.4,5,8.35H5l.45-.47L5.55,8l0,0,0,0Zm.73.18a.46.46,0,0,1-.28.13c-.06,0-.12,0-.31-.18l.44-.46.33.35Zm.59-1.32.32.35-.32.35-.32-.35Zm-.56.35L6,7.79,6,7.86l.32.35-.07.07,0,0,0,0,0,0h0l0,0-.33-.35L5.78,8l-.05-.06,0,0-.09-.1-.09-.1,0,0,0,0h0L5,7.12H5l.19-.19.5.53Zm-.19-.47-.44-.46.13-.11a.29.29,0,0,1,.18-.08c.14,0,.28.11.45.29Zm-.12-.82a.47.47,0,0,0-.29.11l-.15.13,0,0,0,0-.05.05L5,6.85,4.86,7l-.07.07-.06.06-.44.47L4.1,7.4l.43-.46.06-.06.07-.07,0,0,0,0,0,0,0,0,0,0,0,0,0,0,0,0c.29-.27.46-.36.68-.36a.85.85,0,0,1,.52.19,2.1,2.1,0,0,1,.25.23l-.09.09-.1.11A.84.84,0,0,0,5.62,6.45Z"/><path class="cls-1" d="M2.73,7h0L2.9,6.8,3,6.73,3,6.65a1.91,1.91,0,0,1,.65-.46l.18,0V6h-.1A1.33,1.33,0,0,0,3,6.46a2.17,2.17,0,0,0-.27-.24A1,1,0,0,0,2.1,6a1.08,1.08,0,0,0-.77.38A1.21,1.21,0,0,0,.52,6H.36v.18H.54a1.52,1.52,0,0,1,.65.32l0,0,0,0,0,0L1,6.67H1a1.09,1.09,0,0,0-.46-.21H.36v.16H.51c.09,0,.18,0,.36.19-.15.16-.3.34-.41.44l-.07.06,0,0v.08h0s0,0,0,0l.16.15h0l.05.06.05.06.05.06.07.07.44.47.06.06.06.07h0l0,0,0,0,0,0,0,0,.06.06,0,0h0l0,0,0,0h0l0,0C1.85,9,2,9,2.1,9a.63.63,0,0,0,.4-.17l.18-.17h0l.05-.06.09-.1,0,0L3,8.27H3l.05-.06.29-.31a0,0,0,0,1,.06,0L3.51,8h0L3.57,8a0,0,0,0,1,0,.06l-.29.31-.06.07-.08.09-.08.09,0,0L3,8.77l0,0,0,.05a1.06,1.06,0,0,1-.77.42.68.68,0,0,1-.4-.13,2.06,2.06,0,0,1-.26-.21h0l0,0L1.3,8.82l0,0L1.18,8.7l0,0,0,0,0,0L1,8.52.54,8h0L.36,7.84v.21l.12.16h0l.39.43a.75.75,0,0,1-.36.19l-.15,0V9L.54,9A.88.88,0,0,0,1,8.77H1l0,.05,0,0,0,0,0,0h0a1.07,1.07,0,0,1-.65.34H.36v.16H.52a1.21,1.21,0,0,0,.8-.38,2.31,2.31,0,0,0,.27.22.86.86,0,0,0,.5.16A1.23,1.23,0,0,0,3,9a2.69,2.69,0,0,0,.37.31.88.88,0,0,0,.43.16h.1V9.32l-.18,0a.87.87,0,0,1-.24-.13,2.5,2.5,0,0,1-.34-.29l.06-.06,0,0,.1-.11A1.56,1.56,0,0,0,3.7,9l.18,0V8.85l-.07,0a1.14,1.14,0,0,1-.4-.3l.32-.34h0L3.88,8V7.84s0,0-.05,0-.07.07-.1.08l-.05,0h0l-.07-.07h0l-.1-.11,0,0-.35-.38,0,0,.1-.1.06-.06.4.43a.1.1,0,0,0,.12,0s0-.05.07-.05v-.1c-.09,0-.33-.25-.47-.42a2.46,2.46,0,0,1,.27-.23.38.38,0,0,1,.13-.07h.07V6.46l-.18,0a.35.35,0,0,0-.13.06,2.62,2.62,0,0,0-.28.24l0,0,0,0L3.1,7l-.19.2-.06.06-.32.35L2.44,7.5l-.1-.11L2.67,7ZM1.33,8.21.89,7.73l.45-.48.46.48Zm.32.32,0,0L1.52,8.4l-.05-.05h0l.45-.47L2,8l0,0,0,0Zm.73.18a.46.46,0,0,1-.28.13c-.06,0-.12,0-.31-.18l.44-.46.33.35ZM3,7.39l.32.35L3,8.08l-.32-.35Zm-.56.35.05.06.07.07.32.35-.07.07,0,0,0,0,0,0h0l0,0-.33-.35L2.26,8,2.2,7.92l0,0-.09-.1L2,7.67l0,0,0,0h0l-.45-.47h0l.19-.19.5.53Zm-.19-.47-.44-.46.13-.11a.29.29,0,0,1,.18-.08c.14,0,.28.11.45.29ZM2.1,6.45a.47.47,0,0,0-.29.11l-.15.13,0,0,0,0-.05.05-.06.06L1.33,7l-.07.07-.06.06L.77,7.6.58,7.4,1,6.94l.06-.06.07-.07,0,0,0,0,0,0,0,0,0,0,0,0,0,0,0,0c.29-.27.46-.36.68-.36a.85.85,0,0,1,.52.19,2.1,2.1,0,0,1,.25.23l-.09.09-.1.11A.84.84,0,0,0,2.1,6.45Z"/><path class="cls-1" d="M9.78,7h0l.17-.17L10,6.73l.07-.07a1.91,1.91,0,0,1,.65-.46l.18,0V6h-.1a1.33,1.33,0,0,0-.79.46,2.17,2.17,0,0,0-.27-.24A1,1,0,0,0,9.14,6a1.08,1.08,0,0,0-.77.38A1.21,1.21,0,0,0,7.57,6H7.4v.18h.18a1.52,1.52,0,0,1,.65.32l0,0,0,0,0,0-.07.07H8a1.09,1.09,0,0,0-.46-.21H7.4v.16h.15c.09,0,.18,0,.36.19-.15.16-.3.34-.41.44l-.07.06,0,0v.08h0s0,0,0,0l.16.15h0l.05.06.05.06.05.06.07.07.44.47.06.06.06.07h0l0,0,0,0,0,0,0,0,.06.06,0,0h0l0,0,0,0h0l0,0C8.9,9,9,9,9.14,9a.63.63,0,0,0,.4-.17l.18-.17h0l.05-.06.09-.1,0,0,.18-.21h0l.05-.06.29-.31a0,0,0,0,1,.06,0l.06.06h0l.06.06a0,0,0,0,1,0,.06l-.29.31-.06.07-.08.09-.08.09,0,0L10,8.77l0,0,0,.05a1.06,1.06,0,0,1-.77.42.68.68,0,0,1-.4-.13,2.06,2.06,0,0,1-.26-.21h0l0,0-.09-.09,0,0L8.22,8.7l0,0,0,0,0,0-.06-.06L7.59,8h0L7.4,7.84v.21l.12.16h0l.39.43a.75.75,0,0,1-.36.19l-.15,0V9l.18,0A.88.88,0,0,0,8,8.77h0l0,.05,0,0,0,0,0,0h0a1.07,1.07,0,0,1-.65.34H7.4v.16h.16a1.21,1.21,0,0,0,.8-.38,2.31,2.31,0,0,0,.27.22.86.86,0,0,0,.5.16A1.23,1.23,0,0,0,10,9a2.69,2.69,0,0,0,.37.31.88.88,0,0,0,.43.16h.1V9.32l-.18,0a.87.87,0,0,1-.24-.13,2.5,2.5,0,0,1-.34-.29l.06-.06,0,0,.1-.11a1.56,1.56,0,0,0,.41.32l.18,0V8.85l-.07,0a1.14,1.14,0,0,1-.4-.3l.32-.34h0L10.92,8V7.84s0,0-.05,0-.07.07-.1.08l-.05,0h0l-.07-.07h0l-.1-.11,0,0-.35-.38,0,0,.1-.1.06-.06.4.43a.1.1,0,0,0,.12,0s0-.05.07-.05v-.1c-.09,0-.33-.25-.47-.42a2.46,2.46,0,0,1,.27-.23.38.38,0,0,1,.13-.07h.07V6.46l-.18,0a.35.35,0,0,0-.13.06,2.62,2.62,0,0,0-.28.24l0,0,0,0L10.14,7l-.19.2-.06.06-.32.35L9.49,7.5l-.1-.11L9.71,7ZM8.38,8.21l-.45-.48.45-.48.46.48Zm.32.32,0,0L8.56,8.4l-.05-.05h0L9,7.86,9.08,8l0,0,0,0Zm.73.18a.46.46,0,0,1-.28.13c-.06,0-.12,0-.31-.18l.44-.46.33.35ZM10,7.39l.32.35L10,8.08l-.32-.35Zm-.56.35.05.06.07.07.32.35-.07.07,0,0,0,0,0,0h0l0,0-.33-.35L9.3,8l-.05-.06,0,0-.09-.1L9,7.67l0,0,0,0H9L8.5,7.12h0l.19-.19.5.53Zm-.19-.47-.44-.46L9,6.7a.29.29,0,0,1,.18-.08c.14,0,.28.11.45.29Zm-.12-.82a.47.47,0,0,0-.29.11l-.15.13,0,0,0,0-.05.05-.06.06L8.38,7l-.07.07-.06.06-.44.47-.18-.2.43-.46.06-.06.07-.07,0,0,0,0,0,0,0,0,0,0,0,0,0,0,0,0c.29-.27.46-.36.68-.36a.85.85,0,0,1,.52.19,2.1,2.1,0,0,1,.25.23l-.09.09-.1.11A.84.84,0,0,0,9.14,6.45Z"/><path class="cls-1" d="M13.3,7h0l.17-.17.07-.07.07-.07a1.91,1.91,0,0,1,.65-.46l.18,0V6h-.1a1.33,1.33,0,0,0-.79.46,2.17,2.17,0,0,0-.27-.24A1,1,0,0,0,12.66,6a1.08,1.08,0,0,0-.77.38,1.21,1.21,0,0,0-.8-.38h-.16v.18h.18a1.52,1.52,0,0,1,.65.32l0,0,0,0,0,0-.07.07h0a1.09,1.09,0,0,0-.46-.21h-.18v.16h.15c.09,0,.18,0,.36.19-.15.16-.3.34-.41.44L11,7.32l0,0v.08h0s0,0,0,0l.16.15h0l.05.06.05.06.05.06.07.07.44.47.06.06.06.07h0l0,0,0,0,0,0,0,0,.06.06,0,0h0l0,0,0,0h0l0,0c.2.18.31.24.44.24a.63.63,0,0,0,.4-.17l.18-.17h0l.05-.06.09-.1,0,0,.18-.21h0l.05-.06.29-.31a0,0,0,0,1,.06,0l.06.06h0l.06.06a0,0,0,0,1,0,.06l-.29.31-.06.07-.08.09-.08.09,0,0-.07.08,0,0,0,.05a1.06,1.06,0,0,1-.77.42.68.68,0,0,1-.4-.13A2.06,2.06,0,0,1,12,8.94h0l0,0-.09-.09,0,0-.09-.09,0,0,0,0,0,0-.06-.06L11.11,8h0l-.18-.17v.21l.12.16h0l.39.43a.75.75,0,0,1-.36.19l-.15,0V9l.18,0a.88.88,0,0,0,.46-.24h0l0,.05,0,0,0,0,0,0h0a1.07,1.07,0,0,1-.65.34h-.18v.16h.16a1.21,1.21,0,0,0,.8-.38,2.31,2.31,0,0,0,.27.22.86.86,0,0,0,.5.16A1.23,1.23,0,0,0,13.56,9a2.69,2.69,0,0,0,.37.31.88.88,0,0,0,.43.16h.1V9.32l-.18,0A.87.87,0,0,1,14,9.16a2.5,2.5,0,0,1-.34-.29l.06-.06,0,0,.1-.11a1.56,1.56,0,0,0,.41.32l.18,0V8.85l-.07,0a1.14,1.14,0,0,1-.4-.3l.32-.34h0L14.45,8V7.84s0,0-.05,0-.07.07-.1.08l-.05,0h0l-.07-.07h0L14,7.67l0,0-.35-.38,0,0,.1-.1.06-.06.4.43a.1.1,0,0,0,.12,0s0-.05.07-.05v-.1c-.09,0-.33-.25-.47-.42a2.46,2.46,0,0,1,.27-.23.38.38,0,0,1,.13-.07h.07V6.46l-.18,0a.35.35,0,0,0-.13.06,2.62,2.62,0,0,0-.28.24l0,0,0,0L13.66,7l-.19.2-.06.06-.32.35L13,7.5l-.1-.11L13.23,7ZM11.9,8.21l-.45-.48.45-.48.46.48Zm.32.32,0,0-.09-.09L12,8.35h0l.45-.47L12.6,8l0,0,0,0Zm.73.18a.46.46,0,0,1-.28.13c-.06,0-.12,0-.31-.18l.44-.46.33.35Zm.59-1.32.32.35-.32.35-.32-.35ZM13,7.73l.05.06.07.07.32.35-.07.07,0,0,0,0,0,0h0l0,0-.33-.35L12.83,8l-.05-.06,0,0-.09-.1-.09-.1,0,0,0,0h0L12,7.12h0l.19-.19.5.53Zm-.19-.47-.44-.46.13-.11a.29.29,0,0,1,.18-.08c.14,0,.28.11.45.29Zm-.12-.82a.47.47,0,0,0-.29.11l-.15.13,0,0,0,0-.05.05L12,6.85,11.9,7l-.07.07-.06.06-.44.47-.18-.2.43-.46.06-.06.07-.07,0,0,0,0,0,0,0,0,0,0,0,0,0,0,0,0c.29-.27.46-.36.68-.36a.85.85,0,0,1,.52.19,2.1,2.1,0,0,1,.25.23l-.09.09-.1.11A.84.84,0,0,0,12.66,6.45Z"/><path class="cls-1" d="M16.82,7h0L17,6.8l.07-.07.07-.07a1.91,1.91,0,0,1,.65-.46l.18,0V6h-.1a1.33,1.33,0,0,0-.79.46,2.17,2.17,0,0,0-.27-.24A1,1,0,0,0,16.19,6a1.08,1.08,0,0,0-.77.38,1.21,1.21,0,0,0-.8-.38h-.16v.18h.18a1.52,1.52,0,0,1,.65.32l0,0,0,0,0,0-.07.07h0a1.09,1.09,0,0,0-.46-.21h-.18v.16h.15c.09,0,.18,0,.36.19-.15.16-.3.34-.41.44l-.07.06,0,0v.08h0s0,0,0,0l.16.15h0l.05.06.05.06.05.06.07.07.44.47.06.06.06.07h0l0,0,0,0,0,0,0,0,.06.06,0,0h0l0,0,0,0h0l0,0c.2.18.31.24.44.24a.63.63,0,0,0,.4-.17l.18-.17h0l.05-.06.09-.1,0,0,.18-.21h0l.05-.06.29-.31a0,0,0,0,1,.06,0L17.6,8h0l.06.06a0,0,0,0,1,0,.06l-.29.31-.06.07-.08.09-.08.09,0,0L17,8.77l0,0,0,.05a1.06,1.06,0,0,1-.77.42.68.68,0,0,1-.4-.13,2.06,2.06,0,0,1-.26-.21h0l0,0-.09-.09,0,0-.09-.09,0,0,0,0,0,0-.06-.06L14.63,8h0l-.18-.17v.21l.12.16h0l.39.43a.75.75,0,0,1-.36.19l-.15,0V9l.18,0a.88.88,0,0,0,.46-.24h0l0,.05,0,0,0,0,0,0h0a1.07,1.07,0,0,1-.65.34h-.18v.16h.16a1.21,1.21,0,0,0,.8-.38,2.31,2.31,0,0,0,.27.22.86.86,0,0,0,.5.16A1.23,1.23,0,0,0,17.08,9a2.69,2.69,0,0,0,.37.31.88.88,0,0,0,.43.16H18V9.32l-.18,0a.87.87,0,0,1-.24-.13,2.5,2.5,0,0,1-.34-.29l.06-.06,0,0,.1-.11a1.56,1.56,0,0,0,.41.32L18,9V8.85l-.07,0a1.14,1.14,0,0,1-.4-.3l.32-.34h0L18,8V7.84s0,0-.05,0-.07.07-.1.08l-.05,0h0l-.07-.07h0l-.1-.11,0,0-.35-.38,0,0,.1-.1.06-.06.4.43a.1.1,0,0,0,.12,0s0-.05.07-.05v-.1c-.09,0-.33-.25-.47-.42a2.46,2.46,0,0,1,.27-.23.38.38,0,0,1,.13-.07H18V6.46l-.18,0a.35.35,0,0,0-.13.06,2.62,2.62,0,0,0-.28.24l0,0,0,0L17.19,7l-.19.2-.06.06-.32.35-.09-.09-.1-.11L16.76,7Zm-1.4,1.23L15,7.73l.45-.48.46.48Zm.32.32,0,0-.09-.09-.05-.05h0L16,7.86l.12.13,0,0,0,0Zm.73.18a.46.46,0,0,1-.28.13c-.06,0-.12,0-.31-.18l.44-.46.33.35Zm.59-1.32.32.35-.32.35-.32-.35Zm-.56.35.05.06.07.07.32.35-.07.07,0,0,0,0,0,0h0l0,0-.33-.35L16.35,8l-.05-.06,0,0-.09-.1-.09-.1,0,0,0,0h0l-.45-.47h0l.19-.19.5.53Zm-.19-.47-.44-.46L16,6.7a.29.29,0,0,1,.18-.08c.14,0,.28.11.45.29Zm-.12-.82a.47.47,0,0,0-.29.11l-.15.13,0,0,0,0-.05.05-.06.06L15.42,7l-.07.07-.06.06-.44.47-.18-.2.43-.46.06-.06.07-.07,0,0,0,0,0,0,0,0,0,0,0,0,0,0,0,0c.29-.27.46-.36.68-.36a.85.85,0,0,1,.52.19,2.1,2.1,0,0,1,.25.23l-.09.09-.1.11A.84.84,0,0,0,16.19,6.45Z"/><path class="cls-1" d="M20.35,7h0l.17-.17.07-.07.07-.07a1.91,1.91,0,0,1,.65-.46l.18,0V6h-.1a1.33,1.33,0,0,0-.79.46,2.17,2.17,0,0,0-.27-.24A1,1,0,0,0,19.71,6a1.08,1.08,0,0,0-.77.38,1.21,1.21,0,0,0-.8-.38H18v.18h.18a1.52,1.52,0,0,1,.65.32l0,0,0,0,0,0-.07.07h0a1.09,1.09,0,0,0-.46-.21H18v.16h.15c.09,0,.18,0,.36.19-.15.16-.3.34-.41.44L18,7.32l0,0v.08h0s0,0,0,0l.16.15h0l.05.06.05.06.05.06.07.07.44.47.06.06.06.07h0l0,0,0,0,0,0,0,0,.06.06,0,0h0l0,0,0,0h0l0,0c.2.18.31.24.44.24a.63.63,0,0,0,.4-.17l.18-.17h0l.05-.06.09-.1,0,0,.18-.21h0l.05-.06L21,7.9a0,0,0,0,1,.06,0l.06.06h0l.06.06a0,0,0,0,1,0,.06l-.29.31-.06.07-.08.09-.08.09,0,0-.07.08,0,0,0,.05a1.06,1.06,0,0,1-.77.42.68.68,0,0,1-.4-.13A2.06,2.06,0,0,1,19,8.94h0l0,0-.09-.09,0,0-.09-.09,0,0,0,0,0,0-.06-.06L18.16,8h0L18,7.84v.21l.12.16h0l.39.43a.75.75,0,0,1-.36.19l-.15,0V9l.18,0a.88.88,0,0,0,.46-.24h0l0,.05,0,0,0,0,0,0h0a1.07,1.07,0,0,1-.65.34H18v.16h.16a1.21,1.21,0,0,0,.8-.38,2.31,2.31,0,0,0,.27.22.86.86,0,0,0,.5.16A1.23,1.23,0,0,0,20.6,9a2.69,2.69,0,0,0,.37.31.88.88,0,0,0,.43.16h.1V9.32l-.18,0a.87.87,0,0,1-.24-.13,2.5,2.5,0,0,1-.34-.29l.06-.06,0,0,.1-.11a1.56,1.56,0,0,0,.41.32l.18,0V8.85l-.07,0a1.14,1.14,0,0,1-.4-.3l.32-.34h0L21.49,8V7.84s0,0-.05,0-.07.07-.1.08l-.05,0h0l-.07-.07h0l-.1-.11,0,0-.35-.38,0,0,.1-.1.06-.06.4.43a.1.1,0,0,0,.12,0s0-.05.07-.05v-.1c-.09,0-.33-.25-.47-.42a2.46,2.46,0,0,1,.27-.23.38.38,0,0,1,.13-.07h.07V6.46l-.18,0a.35.35,0,0,0-.13.06,2.62,2.62,0,0,0-.28.24l0,0,0,0L20.71,7l-.19.2-.06.06-.32.35-.09-.09L20,7.4,20.28,7Zm-1.4,1.23-.45-.48.45-.48.46.48Zm.32.32,0,0-.09-.09-.05-.05h0l.45-.47.12.13,0,0,0,0Zm.73.18a.46.46,0,0,1-.28.13c-.06,0-.12,0-.31-.18l.44-.46.33.35Zm.59-1.32.32.35-.32.35-.32-.35ZM20,7.73l.05.06.07.07.32.35-.07.07,0,0,0,0,0,0h0l0,0L20,8.07,19.87,8l-.05-.06,0,0-.09-.1-.09-.1,0,0,0,0h0l-.45-.47h0l.19-.19.5.53Zm-.19-.47-.44-.46.13-.11a.29.29,0,0,1,.18-.08c.14,0,.28.11.45.29Zm-.12-.82a.47.47,0,0,0-.29.11l-.15.13,0,0,0,0-.05.05-.06.06L18.95,7l-.07.07-.06.06-.44.47-.18-.2.43-.46.06-.06.07-.07,0,0,0,0,0,0,0,0,0,0,0,0,0,0,0,0c.29-.27.46-.36.68-.36a.85.85,0,0,1,.52.19,2.1,2.1,0,0,1,.25.23l-.09.09-.1.11A.84.84,0,0,0,19.71,6.45Z"/><path class="cls-1" d="M23.87,7h0L24,6.8l.07-.07.07-.07a1.91,1.91,0,0,1,.65-.46l.18,0V6h-.1a1.33,1.33,0,0,0-.79.46,2.17,2.17,0,0,0-.27-.24A1,1,0,0,0,23.23,6a1.08,1.08,0,0,0-.77.38,1.21,1.21,0,0,0-.8-.38h-.16v.18h.18a1.52,1.52,0,0,1,.65.32l0,0,0,0,0,0-.07.07h0a1.09,1.09,0,0,0-.46-.21h-.18v.16h.15c.09,0,.18,0,.36.19-.15.16-.3.34-.41.44l-.07.06,0,0v.08h0s0,0,0,0l.16.15h0l.05.06.05.06.05.06.07.07.44.47.06.06.06.07h0l0,0,0,0,0,0,0,0,.06.06,0,0h0l0,0,0,0h0l0,0c.2.18.31.24.44.24a.63.63,0,0,0,.4-.17l.18-.17h0l.05-.06.09-.1,0,0,.18-.21h0l.05-.06.29-.31a0,0,0,0,1,.06,0l.06.06h0l.06.06a0,0,0,0,1,0,.06l-.29.31-.06.07-.08.09-.08.09,0,0-.07.08,0,0,0,.05a1.06,1.06,0,0,1-.77.42.68.68,0,0,1-.4-.13,2.06,2.06,0,0,1-.26-.21h0l0,0-.09-.09,0,0-.09-.09,0,0,0,0,0,0-.06-.06L21.68,8h0l-.18-.17v.21l.12.16h0l.39.43a.75.75,0,0,1-.36.19l-.15,0V9l.18,0a.88.88,0,0,0,.46-.24h0l0,.05,0,0,0,0,0,0h0a1.07,1.07,0,0,1-.65.34h-.18v.16h.16a1.21,1.21,0,0,0,.8-.38,2.31,2.31,0,0,0,.27.22.86.86,0,0,0,.5.16A1.23,1.23,0,0,0,24.12,9a2.69,2.69,0,0,0,.37.31.88.88,0,0,0,.43.16H25V9.32l-.18,0a.87.87,0,0,1-.24-.13,2.5,2.5,0,0,1-.34-.29l.06-.06,0,0,.1-.11a1.56,1.56,0,0,0,.41.32L25,9V8.85l-.07,0a1.14,1.14,0,0,1-.4-.3l.32-.34h0L25,8V7.84s0,0-.05,0-.07.07-.1.08l-.05,0h0l-.07-.07h0l-.1-.11,0,0-.35-.38,0,0,.1-.1.06-.06.4.43a.1.1,0,0,0,.12,0s0-.05.07-.05v-.1c-.09,0-.33-.25-.47-.42a2.46,2.46,0,0,1,.27-.23.38.38,0,0,1,.13-.07H25V6.46l-.18,0a.35.35,0,0,0-.13.06,2.62,2.62,0,0,0-.28.24l0,0,0,0L24.23,7l-.19.2L24,7.25l-.32.35-.09-.09-.1-.11L23.8,7Zm-1.4,1.23L22,7.73l.45-.48.46.48Zm.32.32,0,0-.09-.09-.05-.05h0L23,7.86l.12.13,0,0,0,0Zm.73.18a.46.46,0,0,1-.28.13c-.06,0-.12,0-.31-.18l.44-.46.33.35Zm.59-1.32.32.35-.32.35-.32-.35Zm-.56.35.05.06.07.07.32.35-.07.07,0,0,0,0,0,0h0l0,0-.33-.35L23.4,8l-.05-.06,0,0-.09-.1-.09-.1,0,0,0,0h0l-.45-.47h0l.19-.19.5.53Zm-.19-.47-.44-.46.13-.11a.29.29,0,0,1,.18-.08c.14,0,.28.11.45.29Zm-.12-.82a.47.47,0,0,0-.29.11l-.15.13,0,0,0,0-.05.05-.06.06L22.47,7l-.07.07-.06.06-.44.47-.18-.2.43-.46.06-.06.07-.07,0,0,0,0,0,0,0,0,0,0,0,0,0,0,0,0c.29-.27.46-.36.68-.36a.85.85,0,0,1,.52.19,2.1,2.1,0,0,1,.25.23l-.09.09-.1.11A.84.84,0,0,0,23.23,6.45Z"/><path class="cls-1" d="M27.39,7h0l.17-.17.07-.07.07-.07a1.91,1.91,0,0,1,.65-.46l.18,0V6h-.1a1.33,1.33,0,0,0-.79.46,2.17,2.17,0,0,0-.27-.24A1,1,0,0,0,26.76,6a1.08,1.08,0,0,0-.77.38,1.21,1.21,0,0,0-.8-.38H25v.18h.18a1.52,1.52,0,0,1,.65.32l0,0,0,0,0,0-.07.07h0a1.09,1.09,0,0,0-.46-.21H25v.16h.15c.09,0,.18,0,.36.19-.15.16-.3.34-.41.44l-.07.06,0,0v.08h0s0,0,0,0l.16.15h0l.05.06.05.06.05.06.07.07.44.47.06.06.06.07h0l0,0,0,0,0,0,0,0,.06.06,0,0h0l0,0,0,0h0l0,0c.2.18.31.24.44.24a.63.63,0,0,0,.4-.17l.18-.17h0l.05-.06.09-.1,0,0,.18-.21h0l.05-.06L28,7.9a0,0,0,0,1,.06,0l.06.06h0l.06.06a0,0,0,0,1,0,.06l-.29.31-.06.07-.08.09-.08.09,0,0-.07.08,0,0,0,.05a1.06,1.06,0,0,1-.77.42.68.68,0,0,1-.4-.13,2.06,2.06,0,0,1-.26-.21h0l0,0L26,8.82l0,0-.09-.09,0,0,0,0,0,0-.06-.06L25.2,8h0L25,7.84v.21l.12.16h0l.39.43a.75.75,0,0,1-.36.19l-.15,0V9l.18,0a.88.88,0,0,0,.46-.24h0l0,.05,0,0,0,0,0,0h0a1.07,1.07,0,0,1-.65.34H25v.16h.16a1.21,1.21,0,0,0,.8-.38,2.31,2.31,0,0,0,.27.22.86.86,0,0,0,.5.16A1.23,1.23,0,0,0,27.65,9a2.69,2.69,0,0,0,.37.31.88.88,0,0,0,.43.16h.1V9.32l-.18,0a.87.87,0,0,1-.24-.13,2.5,2.5,0,0,1-.34-.29l.06-.06,0,0,.1-.11a1.56,1.56,0,0,0,.41.32l.18,0V8.85l-.07,0a1.14,1.14,0,0,1-.4-.3l.32-.34h0L28.54,8V7.84s0,0-.05,0-.07.07-.1.08l-.05,0h0l-.07-.07h0l-.1-.11,0,0-.35-.38,0,0,.1-.1.06-.06.4.43a.1.1,0,0,0,.12,0s0-.05.07-.05v-.1c-.09,0-.33-.25-.47-.42a2.46,2.46,0,0,1,.27-.23.38.38,0,0,1,.13-.07h.07V6.46l-.18,0a.35.35,0,0,0-.13.06,2.62,2.62,0,0,0-.28.24l0,0,0,0L27.75,7l-.19.2-.06.06-.32.35L27.1,7.5,27,7.4,27.32,7ZM26,8.21l-.45-.48L26,7.25l.46.48Zm.32.32,0,0-.09-.09-.05-.05h0l.45-.47.12.13,0,0,0,0Zm.73.18a.46.46,0,0,1-.28.13c-.06,0-.12,0-.31-.18l.44-.46.33.35Zm.59-1.32.32.35-.32.35-.32-.35Zm-.56.35.05.06.07.07.32.35-.07.07,0,0,0,0,0,0h0l0,0L27,8.07,26.92,8l-.05-.06,0,0-.09-.1-.09-.1,0,0,0,0h0l-.45-.47h0l.19-.19.5.53Zm-.19-.47-.44-.46.13-.11a.29.29,0,0,1,.18-.08c.14,0,.28.11.45.29Zm-.12-.82a.47.47,0,0,0-.29.11l-.15.13,0,0,0,0-.05.05-.06.06L26,7l-.07.07-.06.06-.44.47-.18-.2.43-.46.06-.06.07-.07,0,0,0,0,0,0,0,0,0,0,0,0,0,0,0,0c.29-.27.46-.36.68-.36a.85.85,0,0,1,.52.19,2.1,2.1,0,0,1,.25.23l-.09.09-.1.11A.84.84,0,0,0,26.76,6.45Z"/><path class="cls-1" d="M30.91,7h0l.17-.17.07-.07.07-.07a1.91,1.91,0,0,1,.65-.46l.18,0V6H32a1.33,1.33,0,0,0-.79.46,2.17,2.17,0,0,0-.27-.24A1,1,0,0,0,30.28,6a1.08,1.08,0,0,0-.77.38A1.21,1.21,0,0,0,28.7,6h-.16v.18h.18a1.52,1.52,0,0,1,.65.32l0,0,0,0,0,0-.07.07h0a1.09,1.09,0,0,0-.46-.21h-.18v.16h.15c.09,0,.18,0,.36.19-.15.16-.3.34-.41.44l-.07.06,0,0v.08h0s0,0,0,0l.16.15h0l.05.06.05.06.05.06.07.07.44.47.06.06.06.07h0l0,0,0,0,0,0,0,0,.06.06,0,0h0l0,0,0,0h0l0,0c.2.18.31.24.44.24a.63.63,0,0,0,.4-.17l.18-.17h0l.05-.06.09-.1,0,0,.18-.21h0l.05-.06.29-.31a0,0,0,0,1,.06,0l.06.06h0l.06.06a0,0,0,0,1,0,.06l-.29.31-.06.07-.08.09-.08.09,0,0-.07.08,0,0,0,.05a1.06,1.06,0,0,1-.77.42.68.68,0,0,1-.4-.13,2.06,2.06,0,0,1-.26-.21h0l0,0-.09-.09,0,0-.09-.09,0,0,0,0,0,0-.06-.06L28.72,8h0l-.18-.17v.21l.12.16h0l.39.43a.75.75,0,0,1-.36.19l-.15,0V9l.18,0a.88.88,0,0,0,.46-.24h0l0,.05,0,0,0,0,0,0h0a1.07,1.07,0,0,1-.65.34h-.18v.16h.16a1.21,1.21,0,0,0,.8-.38,2.31,2.31,0,0,0,.27.22.86.86,0,0,0,.5.16A1.23,1.23,0,0,0,31.17,9a2.69,2.69,0,0,0,.37.31.88.88,0,0,0,.43.16h.1V9.32l-.18,0a.87.87,0,0,1-.24-.13,2.5,2.5,0,0,1-.34-.29l.06-.06,0,0,.1-.11a1.56,1.56,0,0,0,.41.32l.18,0V8.85l-.07,0a1.14,1.14,0,0,1-.4-.3l.32-.34h0L32.06,8V7.84s0,0-.05,0-.07.07-.1.08l-.05,0h0l-.07-.07h0l-.1-.11,0,0-.35-.38,0,0,.1-.1.06-.06.4.43a.1.1,0,0,0,.12,0s0-.05.07-.05v-.1c-.09,0-.33-.25-.47-.42a2.46,2.46,0,0,1,.27-.23A.38.38,0,0,1,32,6.63h.07V6.46l-.18,0a.35.35,0,0,0-.13.06,2.62,2.62,0,0,0-.28.24l0,0,0,0L31.28,7l-.19.2L31,7.25l-.32.35-.09-.09-.1-.11L30.85,7Zm-1.4,1.23-.45-.48.45-.48.46.48Zm.32.32,0,0L29.7,8.4l-.05-.05h0l.45-.47.12.13,0,0,0,0Zm.73.18a.46.46,0,0,1-.28.13c-.06,0-.12,0-.31-.18l.44-.46.33.35Zm.59-1.32.32.35-.32.35-.32-.35Zm-.56.35.05.06.07.07.32.35L31,8.28l0,0,0,0,0,0h0l0,0-.33-.35L30.44,8l-.05-.06,0,0-.09-.1-.09-.1,0,0,0,0h0l-.45-.47h0l.19-.19.5.53Zm-.19-.47L30,6.81l.13-.11a.29.29,0,0,1,.18-.08c.14,0,.28.11.45.29Zm-.12-.82a.47.47,0,0,0-.29.11l-.15.13,0,0,0,0-.05.05-.06.06L29.52,7l-.07.07-.06.06-.44.47-.18-.2.43-.46.06-.06.07-.07,0,0,0,0,0,0,0,0,0,0,0,0,0,0,0,0c.29-.27.46-.36.68-.36a.85.85,0,0,1,.52.19,2.1,2.1,0,0,1,.25.23L31,6.67l-.1.11A.84.84,0,0,0,30.28,6.45Z"/><path class="cls-1" d="M34.44,7h0l.17-.17.07-.07.07-.07a1.91,1.91,0,0,1,.65-.46l.18,0V6h-.1a1.33,1.33,0,0,0-.79.46,2.17,2.17,0,0,0-.27-.24A1,1,0,0,0,33.8,6a1.08,1.08,0,0,0-.77.38,1.21,1.21,0,0,0-.8-.38h-.16v.18h.18a1.52,1.52,0,0,1,.65.32l0,0,0,0,0,0-.07.07h0a1.09,1.09,0,0,0-.46-.21h-.18v.16h.15c.09,0,.18,0,.36.19-.15.16-.3.34-.41.44l-.07.06,0,0v.08h0s0,0,0,0l.16.15h0l.05.06.05.06.05.06.07.07.44.47L33,8.4l.06.07h0l0,0,0,0,0,0,0,0,.06.06,0,0h0l0,0,0,0h0l0,0c.2.18.31.24.44.24a.63.63,0,0,0,.4-.17l.18-.17h0l.05-.06.09-.1,0,0,.18-.21h0l.05-.06.29-.31a0,0,0,0,1,.06,0l.06.06h0l.06.06a0,0,0,0,1,0,.06L35,8.4l-.06.07-.08.09-.08.09,0,0-.07.08,0,0,0,.05a1.06,1.06,0,0,1-.77.42.68.68,0,0,1-.4-.13,2.06,2.06,0,0,1-.26-.21h0l0,0L33,8.82l0,0-.09-.09,0,0,0,0,0,0-.06-.06L32.25,8h0l-.18-.17v.21l.12.16h0l.39.43a.75.75,0,0,1-.36.19l-.15,0V9l.18,0a.88.88,0,0,0,.46-.24h0l0,.05,0,0,0,0,0,0h0a1.07,1.07,0,0,1-.65.34h-.18v.16h.16a1.21,1.21,0,0,0,.8-.38,2.31,2.31,0,0,0,.27.22.86.86,0,0,0,.5.16A1.23,1.23,0,0,0,34.69,9a2.69,2.69,0,0,0,.37.31.88.88,0,0,0,.43.16h.1V9.32l-.18,0a.87.87,0,0,1-.24-.13,2.5,2.5,0,0,1-.34-.29l.06-.06,0,0,.1-.11A1.56,1.56,0,0,0,35.4,9l.18,0V8.85l-.07,0a1.14,1.14,0,0,1-.4-.3l.32-.34h0L35.58,8V7.84s0,0-.05,0-.07.07-.1.08l-.05,0h0l-.07-.07h0l-.1-.11,0,0-.35-.38,0,0,.1-.1L35,7.06l.4.43a.1.1,0,0,0,.12,0s0-.05.07-.05v-.1c-.09,0-.33-.25-.47-.42a2.46,2.46,0,0,1,.27-.23.38.38,0,0,1,.13-.07h.07V6.46l-.18,0a.35.35,0,0,0-.13.06A2.62,2.62,0,0,0,35,6.8l0,0,0,0L34.8,7l-.19.2-.06.06-.32.35-.09-.09L34,7.4,34.37,7ZM33,8.21l-.45-.48L33,7.25l.46.48Zm.32.32,0,0-.09-.09-.05-.05h0l.45-.47.12.13,0,0,0,0Zm.73.18a.46.46,0,0,1-.28.13c-.06,0-.12,0-.31-.18l.44-.46.33.35Zm.59-1.32.32.35-.32.35-.32-.35Zm-.56.35.05.06.07.07.32.35-.07.07,0,0,0,0,0,0h0l0,0L34,8.07,34,8l-.05-.06,0,0-.09-.1-.09-.1,0,0,0,0h0l-.45-.47h0l.19-.19.5.53Zm-.19-.47-.44-.46.13-.11a.29.29,0,0,1,.18-.08c.14,0,.28.11.45.29Zm-.12-.82a.47.47,0,0,0-.29.11l-.15.13,0,0,0,0-.05.05-.06.06L33,7,33,7.06l-.06.06-.44.47-.18-.2.43-.46.06-.06.07-.07,0,0,0,0,0,0,0,0,0,0,0,0,0,0,0,0c.29-.27.46-.36.68-.36a.85.85,0,0,1,.52.19,2.1,2.1,0,0,1,.25.23l-.09.09-.1.11A.84.84,0,0,0,33.8,6.45Z"/><path class="cls-1" d="M38,7h0l.17-.17.07-.07.07-.07a1.91,1.91,0,0,1,.65-.46l.18,0V6H39a1.33,1.33,0,0,0-.79.46,2.17,2.17,0,0,0-.27-.24A1,1,0,0,0,37.32,6a1.08,1.08,0,0,0-.77.38,1.21,1.21,0,0,0-.8-.38h-.16v.18h.18a1.52,1.52,0,0,1,.65.32l0,0,0,0,0,0-.07.07h0a1.09,1.09,0,0,0-.46-.21h-.18v.16h.15c.09,0,.18,0,.36.19-.15.16-.3.34-.41.44l-.07.06,0,0v.08h0s0,0,0,0l.16.15h0l.05.06.05.06.05.06.07.07.44.47.06.06.06.07h0l0,0,0,0,0,0,0,0,.06.06,0,0h0l0,0,0,0h0l0,0c.2.18.31.24.44.24a.63.63,0,0,0,.4-.17l.18-.17h0L38,8.61l.09-.1,0,0,.18-.21h0l.05-.06.29-.31a0,0,0,0,1,.06,0l.06.06h0L38.8,8a0,0,0,0,1,0,.06l-.29.31-.06.07-.08.09-.08.09,0,0-.07.08,0,0,0,.05a1.06,1.06,0,0,1-.77.42.68.68,0,0,1-.4-.13,2.06,2.06,0,0,1-.26-.21h0l0,0-.09-.09,0,0-.09-.09,0,0,0,0,0,0-.06-.06L35.77,8h0l-.18-.17v.21l.12.16h0l.39.43a.75.75,0,0,1-.36.19l-.15,0V9l.18,0a.88.88,0,0,0,.46-.24h0l0,.05,0,0,0,0,0,0h0a1.07,1.07,0,0,1-.65.34h-.18v.16h.16a1.21,1.21,0,0,0,.8-.38,2.31,2.31,0,0,0,.27.22.86.86,0,0,0,.5.16A1.23,1.23,0,0,0,38.21,9a2.69,2.69,0,0,0,.37.31.88.88,0,0,0,.43.16h.1V9.32l-.18,0a.87.87,0,0,1-.24-.13,2.5,2.5,0,0,1-.34-.29l.06-.06,0,0,.1-.11a1.56,1.56,0,0,0,.41.32l.18,0V8.85l-.07,0a1.14,1.14,0,0,1-.4-.3L39,8.19h0L39.11,8V7.84s0,0-.05,0-.07.07-.1.08l-.05,0h0l-.07-.07h0l-.1-.11,0,0-.35-.38,0,0,.1-.1.06-.06.4.43a.1.1,0,0,0,.12,0s0-.05.07-.05v-.1c-.09,0-.33-.25-.47-.42a2.46,2.46,0,0,1,.27-.23A.38.38,0,0,1,39,6.63h.07V6.46l-.18,0a.35.35,0,0,0-.13.06,2.62,2.62,0,0,0-.28.24l0,0,0,0L38.32,7l-.19.2-.06.06-.32.35-.09-.09-.1-.11L37.89,7Zm-1.4,1.23-.45-.48.45-.48.46.48Zm.32.32,0,0-.09-.09-.05-.05h0l.45-.47.12.13,0,0,0,0Zm.73.18a.46.46,0,0,1-.28.13c-.06,0-.12,0-.31-.18l.44-.46.33.35Zm.59-1.32.32.35-.32.35-.32-.35Zm-.56.35.05.06.07.07.32.35L38,8.28l0,0,0,0,0,0h0l0,0-.33-.35L37.49,8l-.05-.06,0,0-.09-.1-.09-.1,0,0,0,0h0l-.45-.47h0l.19-.19.5.53Zm-.19-.47L37,6.81l.13-.11a.29.29,0,0,1,.18-.08c.14,0,.28.11.45.29Zm-.12-.82a.47.47,0,0,0-.29.11l-.15.13,0,0,0,0-.05.05-.06.06L36.56,7l-.07.07-.06.06L36,7.6l-.18-.2.43-.46.06-.06.07-.07,0,0,0,0,0,0,0,0,0,0,0,0,0,0,0,0c.29-.27.46-.36.68-.36a.85.85,0,0,1,.52.19,2.1,2.1,0,0,1,.25.23L38,6.67l-.1.11A.84.84,0,0,0,37.32,6.45Z"/><path class="cls-1" d="M41.48,7h0l.17-.17.07-.07.07-.07a1.91,1.91,0,0,1,.65-.46l.18,0V6h-.1a1.33,1.33,0,0,0-.79.46,2.17,2.17,0,0,0-.27-.24A1,1,0,0,0,40.85,6a1.08,1.08,0,0,0-.77.38,1.21,1.21,0,0,0-.8-.38h-.16v.18h.18a1.52,1.52,0,0,1,.65.32l0,0,0,0,0,0-.07.07h0a1.09,1.09,0,0,0-.46-.21h-.18v.16h.15c.09,0,.18,0,.36.19-.15.16-.3.34-.41.44l-.07.06,0,0v.08h0s0,0,0,0l.16.15h0l.05.06.05.06.05.06.07.07.44.47L40,8.4l.06.07h0l0,0,0,0,0,0,0,0,.06.06,0,0h0l0,0,0,0h0l0,0c.2.18.31.24.44.24a.63.63,0,0,0,.4-.17l.18-.17h0l.05-.06.09-.1,0,0,.18-.21h0l.05-.06.29-.31a0,0,0,0,1,.06,0l.06.06h0l.06.06a0,0,0,0,1,0,.06L42,8.4,42,8.47l-.08.09-.08.09,0,0-.07.08,0,0,0,.05a1.06,1.06,0,0,1-.77.42.68.68,0,0,1-.4-.13,2.06,2.06,0,0,1-.26-.21h0l0,0L40,8.82l0,0-.09-.09,0,0,0,0,0,0-.06-.06L39.29,8h0l-.18-.17v.21l.12.16h0l.39.43a.75.75,0,0,1-.36.19l-.15,0V9l.18,0a.88.88,0,0,0,.46-.24h0l0,.05,0,0,0,0,0,0h0a1.07,1.07,0,0,1-.65.34h-.18v.16h.16a1.21,1.21,0,0,0,.8-.38,2.31,2.31,0,0,0,.27.22.86.86,0,0,0,.5.16A1.23,1.23,0,0,0,41.74,9a2.69,2.69,0,0,0,.37.31.88.88,0,0,0,.43.16h.1V9.32l-.18,0a.87.87,0,0,1-.24-.13,2.5,2.5,0,0,1-.34-.29l.06-.06,0,0,.1-.11a1.56,1.56,0,0,0,.41.32l.18,0V8.85l-.07,0a1.14,1.14,0,0,1-.4-.3l.32-.34h0L42.63,8V7.84s0,0-.05,0-.07.07-.1.08l-.05,0h0l-.07-.07h0l-.1-.11,0,0-.35-.38,0,0,.1-.1L42,7.06l.4.43a.1.1,0,0,0,.12,0s0-.05.07-.05v-.1c-.09,0-.33-.25-.47-.42a2.46,2.46,0,0,1,.27-.23.38.38,0,0,1,.13-.07h.07V6.46l-.18,0a.35.35,0,0,0-.13.06A2.62,2.62,0,0,0,42,6.8l0,0,0,0L41.85,7l-.19.2-.06.06-.32.35-.09-.09-.1-.11L41.42,7Zm-1.4,1.23-.45-.48.45-.48.46.48Zm.32.32,0,0-.09-.09-.05-.05h0l.45-.47.12.13,0,0,0,0Zm.73.18a.46.46,0,0,1-.28.13c-.06,0-.12,0-.31-.18L41,8.2l.33.35Zm.59-1.32.32.35-.32.35-.32-.35Zm-.56.35.05.06.07.07.32.35-.07.07,0,0,0,0,0,0h0l0,0-.33-.35L41,8,41,7.92l0,0-.09-.1-.09-.1,0,0,0,0h0l-.45-.47h0l.19-.19.5.53ZM41,7.26l-.44-.46.13-.11a.29.29,0,0,1,.18-.08c.14,0,.28.11.45.29Zm-.12-.82a.47.47,0,0,0-.29.11l-.15.13,0,0,0,0-.05.05-.06.06L40.08,7,40,7.06,40,7.13l-.44.47-.18-.2.43-.46.06-.06.07-.07,0,0,0,0,0,0,0,0,0,0,0,0,0,0,0,0c.29-.27.46-.36.68-.36a.85.85,0,0,1,.52.19,2.1,2.1,0,0,1,.25.23l-.09.09-.1.11A.84.84,0,0,0,40.85,6.45Z"/><path class="cls-1" d="M45,7h0l.17-.17.07-.07.07-.07A1.91,1.91,0,0,1,46,6.19l.18,0V6h-.1a1.33,1.33,0,0,0-.79.46A2.17,2.17,0,0,0,45,6.22,1,1,0,0,0,44.37,6a1.08,1.08,0,0,0-.77.38,1.21,1.21,0,0,0-.8-.38h-.16v.18h.18a1.52,1.52,0,0,1,.65.32l0,0,0,0,0,0-.07.07h0a1.09,1.09,0,0,0-.46-.21h-.18v.16h.15c.09,0,.18,0,.36.19-.15.16-.3.34-.41.44l-.07.06,0,0v.08h0s0,0,0,0l.16.15h0l.05.06.05.06.05.06.07.07.44.47.06.06.06.07h0l0,0,0,0,0,0,0,0,.06.06,0,0h0l0,0,0,0h0l0,0c.2.18.31.24.44.24a.63.63,0,0,0,.4-.17l.18-.17h0L45,8.61l.09-.1,0,0,.18-.21h0l.05-.06.29-.31a0,0,0,0,1,.06,0l.06.06h0l.06.06a0,0,0,0,1,0,.06l-.29.31-.06.07-.08.09-.08.09,0,0-.07.08,0,0,0,.05a1.06,1.06,0,0,1-.77.42.68.68,0,0,1-.4-.13,2.06,2.06,0,0,1-.26-.21h0l0,0-.09-.09,0,0-.09-.09,0,0,0,0,0,0-.06-.06L42.81,8h0l-.18-.17v.21l.12.16h0l.39.43a.75.75,0,0,1-.36.19l-.15,0V9l.18,0a.88.88,0,0,0,.46-.24h0l0,.05,0,0,0,0,0,0h0a1.07,1.07,0,0,1-.65.34h-.18v.16h.16a1.21,1.21,0,0,0,.8-.38,2.31,2.31,0,0,0,.27.22.86.86,0,0,0,.5.16A1.23,1.23,0,0,0,45.26,9a2.69,2.69,0,0,0,.37.31.88.88,0,0,0,.43.16h.1V9.32l-.18,0a.87.87,0,0,1-.24-.13,2.5,2.5,0,0,1-.34-.29l.06-.06,0,0,.1-.11A1.56,1.56,0,0,0,46,9l.18,0V8.85l-.07,0a1.14,1.14,0,0,1-.4-.3L46,8.19h0L46.15,8V7.84s0,0-.05,0-.07.07-.1.08l-.05,0h0l-.07-.07h0l-.1-.11,0,0-.35-.38,0,0,.1-.1.06-.06.4.43a.1.1,0,0,0,.12,0s0-.05.07-.05v-.1c-.09,0-.33-.25-.47-.42a2.46,2.46,0,0,1,.27-.23.38.38,0,0,1,.13-.07h.07V6.46l-.18,0a.35.35,0,0,0-.13.06,2.62,2.62,0,0,0-.28.24l0,0,0,0L45.37,7l-.19.2-.06.06-.32.35-.09-.09-.1-.11L44.94,7Zm-1.4,1.23-.45-.48.45-.48.46.48Zm.32.32,0,0-.09-.09-.05-.05h0l.45-.47L44.3,8l0,0,0,0Zm.73.18a.46.46,0,0,1-.28.13c-.06,0-.12,0-.31-.18l.44-.46.33.35Zm.59-1.32.32.35-.32.35-.32-.35Zm-.56.35.05.06.07.07.32.35-.07.07,0,0,0,0,0,0h0l0,0-.33-.35L44.53,8l-.05-.06,0,0-.09-.1-.09-.1,0,0,0,0h0l-.45-.47h0l.19-.19.5.53Zm-.19-.47-.44-.46.13-.11a.29.29,0,0,1,.18-.08c.14,0,.28.11.45.29Zm-.12-.82a.47.47,0,0,0-.29.11l-.15.13,0,0,0,0-.05.05-.06.06L43.61,7l-.07.07-.06.06L43,7.6l-.18-.2.43-.46.06-.06.07-.07,0,0,0,0,0,0,0,0,0,0,0,0,0,0,0,0c.29-.27.46-.36.68-.36a.85.85,0,0,1,.52.19,2.1,2.1,0,0,1,.25.23L45,6.67l-.1.11A.84.84,0,0,0,44.37,6.45Z"/><path class="cls-1" d="M48.53,7h0l.17-.17.07-.07.07-.07a1.91,1.91,0,0,1,.65-.46l.18,0V6h-.1a1.33,1.33,0,0,0-.79.46,2.17,2.17,0,0,0-.27-.24A1,1,0,0,0,47.89,6a1.08,1.08,0,0,0-.77.38,1.21,1.21,0,0,0-.8-.38h-.16v.18h.18A1.52,1.52,0,0,1,47,6.5l0,0,0,0,0,0-.07.07h0a1.09,1.09,0,0,0-.46-.21h-.18v.16h.15c.09,0,.18,0,.36.19-.15.16-.3.34-.41.44l-.07.06,0,0v.08h0s0,0,0,0l.16.15h0l.05.06.05.06.05.06.07.07.44.47.06.06.06.07h0l0,0,0,0,0,0,0,0,.06.06,0,0h0l0,0,0,0h0l0,0c.2.18.31.24.44.24a.63.63,0,0,0,.4-.17l.18-.17h0l.05-.06.09-.1,0,0,.18-.21h0l.05-.06.29-.31a0,0,0,0,1,.06,0L49.3,8h0l.06.06a0,0,0,0,1,0,.06l-.29.31L49,8.47l-.08.09-.08.09,0,0-.07.08,0,0,0,.05a1.06,1.06,0,0,1-.77.42.68.68,0,0,1-.4-.13,2.06,2.06,0,0,1-.26-.21h0l0,0-.09-.09,0,0L47,8.7l0,0,0,0,0,0-.06-.06L46.34,8h0l-.18-.17v.21l.12.16h0l.39.43a.75.75,0,0,1-.36.19l-.15,0V9l.18,0a.88.88,0,0,0,.46-.24h0l0,.05,0,0,0,0,0,0h0a1.07,1.07,0,0,1-.65.34h-.18v.16h.16a1.21,1.21,0,0,0,.8-.38,2.31,2.31,0,0,0,.27.22.86.86,0,0,0,.5.16A1.23,1.23,0,0,0,48.78,9a2.69,2.69,0,0,0,.37.31.88.88,0,0,0,.43.16h.1V9.32l-.18,0a.87.87,0,0,1-.24-.13,2.5,2.5,0,0,1-.34-.29L49,8.8l0,0,.1-.11a1.56,1.56,0,0,0,.41.32l.18,0V8.85l-.07,0a1.14,1.14,0,0,1-.4-.3l.32-.34h0L49.67,8V7.84s0,0-.05,0-.07.07-.1.08l-.05,0h0l-.07-.07h0l-.1-.11,0,0-.35-.38,0,0,.1-.1.06-.06.4.43a.1.1,0,0,0,.12,0s0-.05.07-.05v-.1c-.09,0-.33-.25-.47-.42a2.46,2.46,0,0,1,.27-.23.38.38,0,0,1,.13-.07h.07V6.46l-.18,0a.35.35,0,0,0-.13.06,2.62,2.62,0,0,0-.28.24l0,0,0,0L48.89,7l-.19.2-.06.06-.32.35-.09-.09-.1-.11L48.46,7Zm-1.4,1.23-.45-.48.45-.48.46.48Zm.32.32,0,0-.09-.09-.05-.05h0l.45-.47.12.13,0,0,0,0Zm.73.18a.46.46,0,0,1-.28.13c-.06,0-.12,0-.31-.18L48,8.2l.33.35Zm.59-1.32.32.35-.32.35-.32-.35Zm-.56.35.05.06.07.07.32.35-.07.07,0,0,0,0,0,0h0l0,0-.33-.35L48.06,8,48,7.92l0,0-.09-.1-.09-.1,0,0,0,0h0l-.45-.47h0l.19-.19.5.53ZM48,7.26l-.44-.46.13-.11a.29.29,0,0,1,.18-.08c.14,0,.28.11.45.29Zm-.12-.82a.47.47,0,0,0-.29.11l-.15.13,0,0,0,0-.05.05-.06.06L47.13,7l-.07.07L47,7.13l-.44.47-.18-.2.43-.46.06-.06.07-.07,0,0,0,0,0,0,0,0,0,0,0,0,0,0,0,0c.29-.27.46-.36.68-.36a.85.85,0,0,1,.52.19,2.1,2.1,0,0,1,.25.23l-.09.09-.1.11A.84.84,0,0,0,47.89,6.45Z"/><path class="cls-1" d="M52.05,7h0l.17-.17.07-.07.07-.07A1.91,1.91,0,0,1,53,6.19l.18,0V6h-.1a1.33,1.33,0,0,0-.79.46A2.17,2.17,0,0,0,52,6.22,1,1,0,0,0,51.41,6a1.08,1.08,0,0,0-.77.38,1.21,1.21,0,0,0-.8-.38h-.16v.18h.18a1.52,1.52,0,0,1,.65.32l0,0,0,0,0,0-.07.07h0a1.09,1.09,0,0,0-.46-.21h-.18v.16h.15c.09,0,.18,0,.36.19-.15.16-.3.34-.41.44l-.07.06,0,0v.08h0s0,0,0,0l.16.15h0l.05.06.05.06.05.06.07.07.44.47.06.06.06.07h0l0,0,0,0,0,0,0,0,.06.06,0,0h0l0,0,0,0h0l0,0c.2.18.31.24.44.24a.63.63,0,0,0,.4-.17L52,8.68h0l.05-.06.09-.1,0,0,.18-.21h0l.05-.06.29-.31a0,0,0,0,1,.06,0l.06.06h0l.06.06a0,0,0,0,1,0,.06l-.29.31-.06.07-.08.09-.08.09,0,0-.07.08,0,0,0,.05a1.06,1.06,0,0,1-.77.42.68.68,0,0,1-.4-.13,2.06,2.06,0,0,1-.26-.21h0l0,0-.09-.09,0,0L50.5,8.7l0,0,0,0,0,0-.06-.06L49.86,8h0l-.18-.17v.21l.12.16h0l.39.43a.75.75,0,0,1-.36.19l-.15,0V9l.18,0a.88.88,0,0,0,.46-.24h0l0,.05,0,0,0,0,0,0h0a1.07,1.07,0,0,1-.65.34h-.18v.16h.16a1.21,1.21,0,0,0,.8-.38,2.31,2.31,0,0,0,.27.22.86.86,0,0,0,.5.16A1.23,1.23,0,0,0,52.31,9a2.69,2.69,0,0,0,.37.31.88.88,0,0,0,.43.16h.1V9.32l-.18,0a.87.87,0,0,1-.24-.13,2.5,2.5,0,0,1-.34-.29l.06-.06,0,0,.1-.11A1.56,1.56,0,0,0,53,9l.18,0V8.85l-.07,0a1.14,1.14,0,0,1-.4-.3L53,8.19h0L53.2,8V7.84s0,0-.05,0-.07.07-.1.08l-.05,0h0l-.07-.07h0l-.1-.11,0,0-.35-.38,0,0,.1-.1.06-.06.4.43a.1.1,0,0,0,.12,0s0-.05.07-.05v-.1c-.09,0-.33-.25-.47-.42A2.46,2.46,0,0,1,53,6.7a.38.38,0,0,1,.13-.07h.07V6.46l-.18,0a.35.35,0,0,0-.13.06,2.62,2.62,0,0,0-.28.24l0,0,0,0L52.41,7l-.19.2-.06.06-.32.35-.09-.09-.1-.11L52,7Zm-1.4,1.23-.45-.48.45-.48.46.48Zm.32.32,0,0-.09-.09-.05-.05h0l.45-.47.12.13,0,0,0,0Zm.73.18a.46.46,0,0,1-.28.13c-.06,0-.12,0-.31-.18l.44-.46.33.35Zm.59-1.32.32.35-.32.35L52,7.73Zm-.56.35.05.06.07.07.32.35-.07.07,0,0,0,0,0,0h0l0,0-.33-.35L51.58,8l-.05-.06,0,0-.09-.1-.09-.1,0,0,0,0h0l-.45-.47h0L51,6.93l.5.53Zm-.19-.47-.44-.46.13-.11a.29.29,0,0,1,.18-.08c.14,0,.28.11.45.29Zm-.12-.82a.47.47,0,0,0-.29.11L51,6.68l0,0,0,0-.05.05-.06.06L50.65,7l-.07.07-.06.06-.44.47-.18-.2.43-.46.06-.06.07-.07,0,0,0,0,0,0,0,0,0,0,0,0,0,0,0,0c.29-.27.46-.36.68-.36a.85.85,0,0,1,.52.19,2.1,2.1,0,0,1,.25.23l-.09.09-.1.11A.84.84,0,0,0,51.41,6.45Z"/><path class="cls-1" d="M55.57,7h0l.17-.17.07-.07.07-.07a1.91,1.91,0,0,1,.65-.46l.18,0V6h-.1a1.33,1.33,0,0,0-.79.46,2.17,2.17,0,0,0-.27-.24A1,1,0,0,0,54.94,6a1.08,1.08,0,0,0-.77.38,1.21,1.21,0,0,0-.8-.38H53.2v.18h.18A1.52,1.52,0,0,1,54,6.5l0,0,0,0,0,0-.07.07h0a1.09,1.09,0,0,0-.46-.21H53.2v.16h.15c.09,0,.18,0,.36.19-.15.16-.3.34-.41.44l-.07.06,0,0v.08h0s0,0,0,0l.16.15h0l.05.06.05.06.05.06.07.07.44.47.06.06.06.07h0l0,0,0,0,0,0,0,0,.06.06,0,0h0l0,0,0,0h0l0,0c.2.18.31.24.44.24a.63.63,0,0,0,.4-.17l.18-.17h0l.05-.06.09-.1,0,0,.18-.21h0l.05-.06.29-.31a0,0,0,0,1,.06,0l.06.06h0l.06.06a0,0,0,0,1,0,.06l-.29.31-.06.07L56,8.56l-.08.09,0,0-.07.08,0,0,0,.05a1.06,1.06,0,0,1-.77.42.68.68,0,0,1-.4-.13,2.06,2.06,0,0,1-.26-.21h0l0,0-.09-.09,0,0L54,8.7l0,0,0,0,0,0-.06-.06L53.38,8h0l-.18-.17v.21l.12.16h0l.39.43a.75.75,0,0,1-.36.19l-.15,0V9l.18,0a.88.88,0,0,0,.46-.24h0l0,.05,0,0,0,0,0,0h0a1.07,1.07,0,0,1-.65.34H53.2v.16h.16a1.21,1.21,0,0,0,.8-.38,2.31,2.31,0,0,0,.27.22.86.86,0,0,0,.5.16A1.23,1.23,0,0,0,55.83,9a2.69,2.69,0,0,0,.37.31.88.88,0,0,0,.43.16h.1V9.32l-.18,0a.87.87,0,0,1-.24-.13A2.5,2.5,0,0,1,56,8.87L56,8.8l0,0,.1-.11a1.56,1.56,0,0,0,.41.32l.18,0V8.85l-.07,0a1.14,1.14,0,0,1-.4-.3l.32-.34h0L56.72,8V7.84s0,0-.05,0-.07.07-.1.08l-.05,0h0l-.07-.07h0l-.1-.11,0,0-.35-.38,0,0,.1-.1.06-.06.4.43a.1.1,0,0,0,.12,0s0-.05.07-.05v-.1c-.09,0-.33-.25-.47-.42a2.46,2.46,0,0,1,.27-.23.38.38,0,0,1,.13-.07h.07V6.46l-.18,0a.35.35,0,0,0-.13.06,2.62,2.62,0,0,0-.28.24l0,0,0,0L55.94,7l-.19.2-.06.06-.32.35-.09-.09-.1-.11L55.51,7Zm-1.4,1.23-.45-.48.45-.48.46.48Zm.32.32,0,0-.09-.09-.05-.05h0l.45-.47.12.13,0,0,0,0Zm.73.18a.46.46,0,0,1-.28.13c-.06,0-.12,0-.31-.18l.44-.46.33.35Zm.59-1.32.32.35-.32.35-.32-.35Zm-.56.35.05.06.07.07.32.35-.07.07,0,0,0,0,0,0h0l0,0-.33-.35L55.1,8,55,7.92l0,0-.09-.1-.09-.1,0,0,0,0h0l-.45-.47h0l.19-.19.5.53Zm-.19-.47-.44-.46.13-.11a.29.29,0,0,1,.18-.08c.14,0,.28.11.45.29Zm-.12-.82a.47.47,0,0,0-.29.11l-.15.13,0,0,0,0-.05.05-.06.06L54.17,7l-.07.07L54,7.13l-.44.47-.18-.2.43-.46.06-.06L54,6.8l0,0,0,0,0,0,0,0,0,0,0,0,0,0,0,0c.29-.27.46-.36.68-.36a.85.85,0,0,1,.52.19,2.1,2.1,0,0,1,.25.23l-.09.09-.1.11A.84.84,0,0,0,54.94,6.45Z"/><path class="cls-1" d="M59.1,7h0l.17-.17.07-.07.07-.07a1.91,1.91,0,0,1,.65-.46l.18,0V6h-.1a1.33,1.33,0,0,0-.79.46,2.17,2.17,0,0,0-.27-.24A1,1,0,0,0,58.46,6a1.08,1.08,0,0,0-.77.38,1.21,1.21,0,0,0-.8-.38h-.16v.18h.18a1.52,1.52,0,0,1,.65.32l0,0,0,0,0,0-.07.07h0a1.09,1.09,0,0,0-.46-.21h-.18v.16h.15c.09,0,.18,0,.36.19-.15.16-.3.34-.41.44l-.07.06,0,0v.08h0s0,0,0,0l.16.15h0l.05.06.05.06.05.06.07.07.44.47.06.06.06.07h0l0,0,0,0,0,0,0,0,.06.06,0,0h0l0,0,0,0h0l0,0c.2.18.31.24.44.24a.63.63,0,0,0,.4-.17L59,8.68h0l.05-.06.09-.1,0,0,.18-.21h0l.05-.06.29-.31a0,0,0,0,1,.06,0l.06.06h0l.06.06a0,0,0,0,1,0,.06l-.29.31-.06.07-.08.09-.08.09,0,0-.07.08,0,0,0,.05a1.06,1.06,0,0,1-.77.42.68.68,0,0,1-.4-.13,2.06,2.06,0,0,1-.26-.21h0l0,0-.09-.09,0,0-.09-.09,0,0,0,0,0,0-.06-.06L56.91,8h0l-.18-.17v.21l.12.16h0l.39.43a.75.75,0,0,1-.36.19l-.15,0V9l.18,0a.88.88,0,0,0,.46-.24h0l0,.05,0,0,0,0,0,0h0a1.07,1.07,0,0,1-.65.34h-.18v.16h.16a1.21,1.21,0,0,0,.8-.38,2.31,2.31,0,0,0,.27.22.86.86,0,0,0,.5.16A1.23,1.23,0,0,0,59.35,9a2.69,2.69,0,0,0,.37.31.88.88,0,0,0,.43.16h.1V9.32l-.18,0a.87.87,0,0,1-.24-.13,2.5,2.5,0,0,1-.34-.29l.06-.06,0,0,.1-.11a1.56,1.56,0,0,0,.41.32l.18,0V8.85l-.07,0a1.14,1.14,0,0,1-.4-.3l.32-.34h0L60.24,8V7.84s0,0-.05,0-.07.07-.1.08l-.05,0h0L60,7.79h0l-.1-.11,0,0-.35-.38,0,0,.1-.1.06-.06.4.43a.1.1,0,0,0,.12,0s0-.05.07-.05v-.1c-.09,0-.33-.25-.47-.42A2.46,2.46,0,0,1,60,6.7a.38.38,0,0,1,.13-.07h.07V6.46l-.18,0a.35.35,0,0,0-.13.06,2.62,2.62,0,0,0-.28.24l0,0,0,0L59.46,7l-.19.2-.06.06-.32.35L58.8,7.5l-.1-.11L59,7ZM57.7,8.21l-.45-.48.45-.48.46.48Zm.32.32,0,0-.09-.09-.05-.05h0l.45-.47.12.13,0,0,0,0Zm.73.18a.46.46,0,0,1-.28.13c-.06,0-.12,0-.31-.18l.44-.46.33.35Zm.59-1.32.32.35-.32.35L59,7.73Zm-.56.35.05.06.07.07.32.35-.07.07,0,0,0,0,0,0h0l0,0-.33-.35L58.62,8l-.05-.06,0,0-.09-.1-.09-.1,0,0,0,0h0l-.45-.47h0L58,6.93l.5.53Zm-.19-.47-.44-.46.13-.11a.29.29,0,0,1,.18-.08c.14,0,.28.11.45.29Zm-.12-.82a.47.47,0,0,0-.29.11L58,6.68l0,0,0,0-.05.05-.06.06L57.7,7l-.07.07-.06.06-.44.47-.18-.2.43-.46.06-.06.07-.07,0,0,0,0,0,0,0,0,0,0,0,0,0,0,0,0c.29-.27.46-.36.68-.36a.85.85,0,0,1,.52.19,2.1,2.1,0,0,1,.25.23l-.09.09-.1.11A.84.84,0,0,0,58.46,6.45Z"/><path class="cls-1" d="M62.62,7h0l.17-.17.07-.07.07-.07a1.91,1.91,0,0,1,.65-.46l.18,0V6h-.1a1.33,1.33,0,0,0-.79.46,2.17,2.17,0,0,0-.27-.24A1,1,0,0,0,62,6a1.08,1.08,0,0,0-.77.38,1.21,1.21,0,0,0-.8-.38h-.16v.18h.18a1.52,1.52,0,0,1,.65.32l0,0,0,0,0,0-.07.07h0a1.09,1.09,0,0,0-.46-.21h-.18v.16h.15c.09,0,.18,0,.36.19-.15.16-.3.34-.41.44l-.07.06,0,0v.08h0s0,0,0,0l.16.15h0l.05.06.05.06.05.06.07.07.44.47.06.06.06.07h0l0,0,0,0,0,0,0,0,.06.06,0,0h0l0,0,0,0h0l0,0c.2.18.31.24.44.24a.63.63,0,0,0,.4-.17l.18-.17h0l.05-.06.09-.1,0,0,.18-.21h0L63,8.21l.29-.31a0,0,0,0,1,.06,0l.06.06h0l.06.06a0,0,0,0,1,0,.06l-.29.31-.06.07L63,8.56l-.08.09,0,0-.07.08,0,0,0,.05a1.06,1.06,0,0,1-.77.42.68.68,0,0,1-.4-.13,2.06,2.06,0,0,1-.26-.21h0l0,0-.09-.09,0,0-.09-.09,0,0,0,0,0,0-.06-.06L60.43,8h0l-.18-.17v.21l.12.16h0l.39.43a.75.75,0,0,1-.36.19l-.15,0V9l.18,0a.88.88,0,0,0,.46-.24h0l0,.05,0,0,0,0,0,0h0a1.07,1.07,0,0,1-.65.34h-.18v.16h.16a1.21,1.21,0,0,0,.8-.38,2.31,2.31,0,0,0,.27.22.86.86,0,0,0,.5.16A1.23,1.23,0,0,0,62.87,9a2.69,2.69,0,0,0,.37.31.88.88,0,0,0,.43.16h.1V9.32l-.18,0a.87.87,0,0,1-.24-.13A2.5,2.5,0,0,1,63,8.87l.06-.06,0,0,.1-.11a1.56,1.56,0,0,0,.41.32l.18,0V8.85l-.07,0a1.14,1.14,0,0,1-.4-.3l.32-.34h0L63.77,8V7.84s0,0-.05,0-.07.07-.1.08l-.05,0h0l-.07-.07h0l-.1-.11,0,0L63,7.25l0,0,.1-.1.06-.06.4.43a.1.1,0,0,0,.12,0s0-.05.07-.05v-.1c-.09,0-.33-.25-.47-.42a2.46,2.46,0,0,1,.27-.23.38.38,0,0,1,.13-.07h.07V6.46l-.18,0a.35.35,0,0,0-.13.06,2.62,2.62,0,0,0-.28.24l0,0,0,0L63,7l-.19.2-.06.06-.32.35-.09-.09-.1-.11L62.55,7Zm-1.4,1.23-.45-.48.45-.48.46.48Zm.32.32,0,0L61.4,8.4l-.05-.05h0l.45-.47.12.13,0,0,0,0Zm.73.18a.46.46,0,0,1-.28.13c-.06,0-.12,0-.31-.18l.44-.46.33.35Zm.59-1.32.32.35-.32.35-.32-.35Zm-.56.35.05.06.07.07.32.35-.07.07,0,0,0,0,0,0h0l0,0-.33-.35L62.15,8l-.05-.06,0,0L62,7.77l-.09-.1,0,0,0,0h0l-.45-.47h0l.19-.19.5.53Zm-.19-.47-.44-.46.13-.11A.29.29,0,0,1,62,6.63c.14,0,.28.11.45.29ZM62,6.45a.47.47,0,0,0-.29.11l-.15.13,0,0,0,0-.05.05-.06.06L61.22,7l-.07.07-.06.06-.44.47-.18-.2.43-.46L61,6.88,61,6.8l0,0,0,0,0,0,0,0,0,0,0,0,0,0,0,0c.29-.27.46-.36.68-.36a.85.85,0,0,1,.52.19,2.1,2.1,0,0,1,.25.23l-.09.09-.1.11A.84.84,0,0,0,62,6.45Z"/></g></g></svg>