<svg xmlns="http://www.w3.org/2000/svg" viewBox="0 0 18.43 19.03"><defs><style>.cls-1{fill:#fff;}</style></defs><title>arrow</title><g id="Layer_2" data-name="Layer 2"><g id="Layer_2-2" data-name="Layer 2"><path class="cls-1" d="M4.1.07a.25.25,0,0,0-.26,0,.25.25,0,0,0-.15.23V5a6.26,6.26,0,0,1,1.39.28V3.5A.55.55,0,0,1,5.43,3a.61.61,0,0,1,.64.13L7.5,4.57l.8-.8Z"/><path class="cls-1" d="M11.81,11.38a.55.55,0,0,1,0,.81l-1.61,1.42-.19.16-.19.17-1.12,1-.19.16-.19.17L4.1,19a.25.25,0,0,1-.26,0,.25.25,0,0,1-.15-.23V14a6.26,6.26,0,0,0,1.39-.28v1.81a.56.56,0,0,0,.35.53.57.57,0,0,0,.22,0,.63.63,0,0,0,.42-.17L7.5,14.47l.17-.18.18-.18,1-1.07a1.53,1.53,0,0,0,.18-.18l.18-.18.34-.34a1,1,0,0,0,.36-.71.77.77,0,0,0-.28-.55l-.54-.52L9,10.4l-1,1L7,10.47l1-1-1-1L6.85,8.4l-.18-.18-.09-.08c-.31-.27-.67-.59-1.06-.88L5.3,7.12A1.2,1.2,0,0,0,5.09,7a3.44,3.44,0,0,0-1.8-.56c-1.5,0-1.9,1.94-1.9,3.09s.4,3.09,1.9,3.09A3.44,3.44,0,0,0,5.09,12l.88.88a5.81,5.81,0,0,1-.74.4l-.15.07a7.67,7.67,0,0,1-.92.3c-.24,0-.8,0-.87,0C1.3,13.92,0,12.09,0,9.52S1.29,5.29,3.33,5.29h.16c.08,0,.38,0,.44,0l.66.17c.16,0,.43.14.64.21a5.81,5.81,0,0,1,.74.4l.21.13.21.15a13.34,13.34,0,0,1,1.17,1l.05,0,.14.13.18.17,1,1,.17-.16L9.67,8A.76.76,0,0,0,10,7.41a1,1,0,0,0-.36-.71l-.34-.34.93-.93,1.61,1.42a.56.56,0,0,1,.19.4.54.54,0,0,1-.18.41L9.87,9.52Z"/><path class="cls-1" d="M8.54,12.68,7.49,13.75l-2-2-.17-.17L3.67,9.93a.58.58,0,0,1,0-.82L5.16,7.62a11.05,11.05,0,0,1,1.09.89l.07.06L6,8.92a.84.84,0,0,0,0,1.2l.34.34.18.18.18.18.89.89.17.17.18.18Z"/><path class="cls-1" d="M18.43,9.52a.62.62,0,0,1-.16.41l-6.89,6.88a.6.6,0,0,1-.83,0L9,15.29l1.13-1,0,0a1.13,1.13,0,0,0,.78.32,1.09,1.09,0,0,0,.77-.32L16,10.11a.85.85,0,0,0,0-1.18L11.74,4.71a1.09,1.09,0,0,0-1.55,0l0,0L10,4.92,9.8,5.1,8.89,6l-.17.18-.18.17L7.91,7A14.52,14.52,0,0,0,6.75,6l.75-.75.17-.17.18-.18.83-.83.18-.18L9,3.75l1.52-1.52A.58.58,0,0,1,11,2.06a.54.54,0,0,1,.41.17l6.89,6.88A.62.62,0,0,1,18.43,9.52Z"/><path class="cls-1" d="M5.29,5.53Z"/></g></g></svg>