<svg xmlns="http://www.w3.org/2000/svg" viewBox="0 0 564.7 745.34"><defs><style>.cls-1,.cls-3{fill:none;}.cls-1{stroke:#fff;stroke-miterlimit:10;stroke-width:0.25px;}.cls-2{fill:#fff;}</style></defs><title>border_bottom</title><g id="Layer_2" data-name="Layer 2"><g id="design"><g id="_Group_" data-name="&lt;Group&gt;"><path class="cls-1" d="M263.44,250.43s6.11-28.68,9.55-35a12.69,12.69,0,0,1,9.56-6.74s6.67,1,9.56,6.73,9.55,35,9.55,35"/><path class="cls-2" d="M290.4,218.65a9.42,9.42,0,0,0-7.79-5.29s-5.08-.34-7.91,5.29-7.91,31.81-7.91,31.81h31.53S292.76,223.75,290.4,218.65Zm-7.8,17.83a4.11,4.11,0,1,1,3.44-4.05A3.8,3.8,0,0,1,282.61,236.47Z"/></g><path class="cls-1" d="M225.79,257.07s1-29.3,3.33-36.13a12.69,12.69,0,0,1,8.25-8.3s6.74-.18,10.58,5,15.49,32.84,15.49,32.84"/><path class="cls-2" d="M246.82,221.09a9.42,9.42,0,0,0-8.59-3.86s-5.06.55-6.87,6.58-2.27,32.7-2.27,32.7L260.14,251S250,225.71,246.82,221.09ZM242.24,240a4.11,4.11,0,1,1,2.69-4.59A3.8,3.8,0,0,1,242.24,240Z"/><path class="cls-1" d="M189.86,270.15s-4.06-29-3-36.16a12.69,12.69,0,0,1,6.68-9.6s6.6-1.35,11.29,3.06,21,29.65,21,29.65"/><path class="cls-2" d="M204.33,231.06a9.42,9.42,0,0,0-9.13-2.31s-4.89,1.42-5.63,7.68S193,269,193,269l29.63-10.78S208.3,235,204.33,231.06Zm-1.23,19.42a4.11,4.11,0,1,1,1.85-5A3.8,3.8,0,0,1,203.1,250.47Z"/><path class="cls-1" d="M156.76,289.26s-9-27.89-9.23-35.09a12.69,12.69,0,0,1,4.91-10.62s6.27-2.48,11.65,1.05,25.79,25.56,25.79,25.56"/><path class="cls-2" d="M164.22,248.25a9.42,9.42,0,0,0-9.39-.68s-4.57,2.25-4.21,8.54,9.05,31.5,9.05,31.5L187,271.84S168.82,251.49,164.22,248.25Zm2.16,19.34a4.11,4.11,0,1,1,1-5.23A3.8,3.8,0,0,1,166.38,267.59Z"/><path class="cls-1" d="M127.47,313.83s-13.75-25.9-15.18-33a12.69,12.69,0,0,1,3-11.31s5.74-3.53,11.65-1,29.83,20.69,29.83,20.69"/><path class="cls-2" d="M127.7,272.15a9.42,9.42,0,0,0-9.37,1s-4.11,3-2.66,9.14,14.38,29.45,14.38,29.45l24.15-20.27S132.79,274.55,127.7,272.15Zm5.49,18.67a4.11,4.11,0,1,1,0-5.32A3.8,3.8,0,0,1,133.19,290.82Z"/><path class="cls-1" d="M102.9,343.12S84.86,320,82.23,313.3a12.69,12.69,0,0,1,1-11.66s5-4.47,11.3-3,33,15.2,33,15.2"/><path class="cls-2" d="M95.88,302a9.42,9.42,0,0,0-9.06,2.57s-3.52,3.67-1,9.46,19.28,26.51,19.28,26.51l20.27-24.15S101.31,303.5,95.88,302Zm8.65,17.43a4.11,4.11,0,1,1-.89-5.24A3.8,3.8,0,0,1,104.53,319.46Z"/><path class="cls-1" d="M83.78,376.23S62,356.59,58.25,350.45a12.69,12.69,0,0,1-1.05-11.65s4.19-5.28,10.61-4.91,35.11,9.24,35.11,9.24"/><path class="cls-2" d="M69.74,337a9.42,9.42,0,0,0-8.48,4.1s-2.83,4.23.62,9.5,23.59,22.76,23.59,22.76L101.24,346S75.34,337.49,69.74,337Zm11.54,15.66a4.11,4.11,0,1,1-1.79-5A3.8,3.8,0,0,1,81.28,352.64Z"/><path class="cls-1" d="M70.71,412.15S45.85,396.6,41.09,391.2A12.69,12.69,0,0,1,38,379.91s3.21-5.93,9.6-6.68,36.18,3,36.18,3"/><path class="cls-2" d="M50.06,375.94a9.42,9.42,0,0,0-7.64,5.51s-2.05,4.66,2.26,9.24S71.88,409,71.88,409l10.78-29.63S55.67,375.47,50.06,375.94Zm14.09,13.42a4.09,4.09,0,0,1-7.62-2.77,4.11,4.11,0,0,1,7.62,2.77Z"/><path class="cls-1" d="M64.07,449.8s-27.18-11-32.81-15.49a12.69,12.69,0,0,1-5-10.59s2.13-6.39,8.29-8.24,36.15-3.33,36.15-3.33"/><path class="cls-2" d="M37.45,417.72a9.42,9.42,0,0,0-6.56,6.76s-1.21,4.94,3.84,8.71,30,13.31,30,13.31l5.48-31.05S42.89,416.28,37.45,417.72Zm16.2,10.77A3.8,3.8,0,0,1,49,431.3a3.54,3.54,0,1,1,4.61-2.8Z"/><path class="cls-1" d="M64.07,488s-28.68-6.11-35-9.55a12.69,12.69,0,0,1-6.74-9.56s1-6.67,6.73-9.56,35-9.55,35-9.55"/><path class="cls-2" d="M32.29,461.06A9.42,9.42,0,0,0,27,468.85s-.34,5.08,5.29,7.91,31.81,7.91,31.81,7.91V453.15S37.39,458.7,32.29,461.06Zm17.83,7.8a3.8,3.8,0,0,1-4.05,3.56,3.54,3.54,0,1,1,0-7A3.79,3.79,0,0,1,50.11,468.86Z"/><path class="cls-1" d="M70.71,525.67s-29.3-1-36.13-3.33a12.69,12.69,0,0,1-8.3-8.25s-.18-6.74,5-10.58S64.09,488,64.09,488"/><path class="cls-2" d="M34.73,504.64a9.42,9.42,0,0,0-3.86,8.59s.55,5.06,6.58,6.87,32.7,2.27,32.7,2.27l-5.48-31.05S39.34,501.42,34.73,504.64Zm18.91,4.58a3.8,3.8,0,0,1-3.37,4.21,3.54,3.54,0,1,1-1.22-6.9A3.79,3.79,0,0,1,53.64,509.22Z"/><path class="cls-1" d="M83.78,561.6s-29,4.06-36.16,3a12.69,12.69,0,0,1-9.6-6.68s-1.35-6.6,3.06-11.29,29.65-21,29.65-21"/><path class="cls-2" d="M44.69,547.13a9.42,9.42,0,0,0-2.31,9.13s1.42,4.89,7.68,5.63,32.6-3.44,32.6-3.44L71.88,528.81S48.68,543.16,44.69,547.13Zm19.42,1.23a4.11,4.11,0,1,1-5-1.85A3.8,3.8,0,0,1,64.11,548.36Z"/><path class="cls-1" d="M102.9,594.7s-27.89,9-35.09,9.23A12.69,12.69,0,0,1,57.19,599s-2.48-6.27,1.05-11.65,25.56-25.79,25.56-25.79"/><path class="cls-2" d="M61.89,587.24a9.42,9.42,0,0,0-.68,9.39s2.25,4.57,8.54,4.21,31.5-9.05,31.5-9.05L85.48,564.49S65.13,582.64,61.89,587.24Zm19.34-2.16a4.11,4.11,0,1,1-5.23-1A3.8,3.8,0,0,1,81.23,585.08Z"/><path class="cls-1" d="M127.47,624s-25.9,13.75-33,15.18a12.69,12.69,0,0,1-11.31-3s-3.53-5.74-1-11.65,20.69-29.83,20.69-29.83"/><path class="cls-2" d="M85.79,623.76a9.42,9.42,0,0,0,1,9.37s3,4.11,9.14,2.66,29.45-14.38,29.45-14.38l-20.27-24.15S88.18,618.67,85.79,623.76Zm18.67-5.49a4.11,4.11,0,1,1-5.32,0A3.8,3.8,0,0,1,104.46,618.28Z"/><path class="cls-1" d="M156.76,648.56s-23.12,18-29.82,20.67a12.69,12.69,0,0,1-11.66-1s-4.47-5-3-11.3,15.2-33,15.2-33"/><path class="cls-2" d="M115.67,655.58a9.42,9.42,0,0,0,2.57,9.06s3.67,3.52,9.46,1,26.51-19.28,26.51-19.28l-24.15-20.27S117.14,650.15,115.67,655.58Zm17.43-8.65a4.11,4.11,0,1,1-5.24.89A3.8,3.8,0,0,1,133.1,646.93Z"/><path class="cls-1" d="M189.86,667.68s-19.63,21.78-25.77,25.53a12.69,12.69,0,0,1-11.65,1.05s-5.28-4.19-4.91-10.61,9.24-35.11,9.24-35.11"/><path class="cls-2" d="M150.62,681.72a9.42,9.42,0,0,0,4.1,8.48s4.23,2.83,9.5-.62S187,666,187,666l-27.31-15.76S151.13,676.12,150.62,681.72Zm15.66-11.54a4.11,4.11,0,1,1-5,1.79A3.8,3.8,0,0,1,166.28,670.18Z"/><path class="cls-1" d="M225.79,680.75s-15.55,24.86-20.95,29.62a12.69,12.69,0,0,1-11.29,3.06s-5.93-3.21-6.68-9.6,3-36.18,3-36.18"/><path class="cls-2" d="M189.58,701.4a9.42,9.42,0,0,0,5.51,7.64s4.66,2.05,9.24-2.26,18.31-27.18,18.31-27.18L193,668.8S189.1,695.79,189.58,701.4ZM203,687.31a4.11,4.11,0,1,1-4.62,2.63A3.8,3.8,0,0,1,203,687.31Z"/><path class="cls-1" d="M263.44,687.39s-11,27.18-15.49,32.81a12.69,12.69,0,0,1-10.59,5s-6.39-2.13-8.24-8.29-3.33-36.15-3.33-36.15"/><path class="cls-2" d="M231.36,714a9.42,9.42,0,0,0,6.76,6.56s4.94,1.21,8.71-3.84,13.31-30,13.31-30l-31.05-5.48S229.92,708.57,231.36,714Zm10.77-16.2a4.11,4.11,0,1,1-4.1,3.39A3.8,3.8,0,0,1,242.13,697.81Z"/><path class="cls-1" d="M301.66,687.39s-6.11,28.68-9.55,35a12.69,12.69,0,0,1-9.56,6.74s-6.67-1-9.56-6.73-9.55-35-9.55-35"/><path class="cls-2" d="M274.7,719.17a9.42,9.42,0,0,0,7.79,5.29s5.08.34,7.91-5.29,7.91-31.81,7.91-31.81H266.79S272.34,714.07,274.7,719.17Zm7.8-17.83A4.11,4.11,0,1,1,279,705.4,3.8,3.8,0,0,1,282.49,701.35Z"/><path class="cls-1" d="M339.31,680.75s-1,29.3-3.33,36.13a12.69,12.69,0,0,1-8.25,8.3s-6.74.18-10.58-5-15.49-32.84-15.49-32.84"/><path class="cls-2" d="M318.28,716.74a9.42,9.42,0,0,0,8.59,3.86s5.06-.55,6.87-6.58,2.27-32.7,2.27-32.7L305,686.78S315.06,712.12,318.28,716.74Zm4.58-18.91a4.11,4.11,0,1,1-2.69,4.59A3.8,3.8,0,0,1,322.86,697.83Z"/><path class="cls-1" d="M375.24,667.68s4.06,29,3,36.16a12.69,12.69,0,0,1-6.68,9.6s-6.6,1.35-11.29-3.06-21-29.65-21-29.65"/><path class="cls-2" d="M360.77,706.77a9.42,9.42,0,0,0,9.13,2.31s4.89-1.42,5.63-7.68-3.44-32.6-3.44-32.6l-29.63,10.78S356.8,702.78,360.77,706.77ZM362,687.35a4.11,4.11,0,1,1-1.85,5A3.8,3.8,0,0,1,362,687.35Z"/><path class="cls-1" d="M408.34,648.56s9,27.89,9.23,35.09a12.69,12.69,0,0,1-4.91,10.62s-6.27,2.48-11.65-1.05-25.79-25.56-25.79-25.56"/><path class="cls-2" d="M400.88,689.57a9.42,9.42,0,0,0,9.39.68s4.57-2.25,4.21-8.54-9.05-31.5-9.05-31.5L378.13,666S396.28,686.33,400.88,689.57Zm-2.16-19.34a4.11,4.11,0,1,1-1,5.23A3.8,3.8,0,0,1,398.72,670.23Z"/><path class="cls-1" d="M437.63,624s13.75,25.9,15.18,33a12.69,12.69,0,0,1-3,11.31s-5.74,3.53-11.65,1-29.83-20.69-29.83-20.69"/><path class="cls-2" d="M437.4,665.67a9.42,9.42,0,0,0,9.37-1s4.11-3,2.66-9.14S435,626.12,435,626.12l-24.15,20.27S432.31,663.28,437.4,665.67ZM431.91,647a4.11,4.11,0,1,1,0,5.32A3.8,3.8,0,0,1,431.91,647Z"/><path class="cls-1" d="M462.2,594.7s18,23.12,20.67,29.82a12.69,12.69,0,0,1-1,11.66s-5,4.47-11.3,3-33-15.2-33-15.2"/><path class="cls-2" d="M469.22,635.79a9.42,9.42,0,0,0,9.06-2.57s3.52-3.67,1-9.46S460,597.25,460,597.25l-20.27,24.15S463.79,634.32,469.22,635.79Zm-8.65-17.43a4.11,4.11,0,1,1,.89,5.24A3.8,3.8,0,0,1,460.57,618.36Z"/><path class="cls-1" d="M481.31,561.6s21.78,19.63,25.53,25.77A12.69,12.69,0,0,1,507.9,599s-4.19,5.28-10.61,4.91-35.11-9.24-35.11-9.24"/><path class="cls-2" d="M495.36,600.84a9.42,9.42,0,0,0,8.48-4.1s2.83-4.23-.62-9.5-23.59-22.76-23.59-22.76l-15.76,27.31S489.76,600.33,495.36,600.84Zm-11.54-15.66a4.11,4.11,0,1,1,1.79,5A3.8,3.8,0,0,1,483.82,585.18Z"/><path class="cls-1" d="M494.39,525.67s24.86,15.55,29.62,20.95a12.69,12.69,0,0,1,3.06,11.29s-3.21,5.93-9.6,6.68-36.18-3-36.18-3"/><path class="cls-2" d="M515,561.88a9.42,9.42,0,0,0,7.64-5.51s2.05-4.66-2.26-9.24-27.18-18.31-27.18-18.31l-10.78,29.63S509.43,562.36,515,561.88Zm-14.09-13.42a4.11,4.11,0,1,1,2.63,4.62A3.8,3.8,0,0,1,500.95,548.46Z"/><path class="cls-1" d="M501,488s27.18,11,32.81,15.49a12.69,12.69,0,0,1,5,10.59s-2.13,6.39-8.29,8.24-36.15,3.33-36.15,3.33"/><path class="cls-2" d="M527.65,520.1a9.42,9.42,0,0,0,6.56-6.76s1.21-4.94-3.84-8.71-30-13.31-30-13.31l-5.48,31.05S522.21,521.54,527.65,520.1Zm-16.2-10.77a4.11,4.11,0,1,1,3.39,4.1A3.8,3.8,0,0,1,511.44,509.33Z"/><path class="cls-1" d="M501,449.8s28.68,6.11,35,9.55a12.69,12.69,0,0,1,6.74,9.56s-1,6.67-6.73,9.56S501,488,501,488"/><path class="cls-2" d="M532.81,476.76A9.42,9.42,0,0,0,538.1,469s.34-5.08-5.29-7.91S501,453.14,501,453.14v31.53S527.71,479.12,532.81,476.76ZM515,469a4.11,4.11,0,1,1,4.05,3.44A3.8,3.8,0,0,1,515,469Z"/><path class="cls-1" d="M494.39,412.15s29.3,1,36.13,3.33a12.69,12.69,0,0,1,8.3,8.25s.18,6.74-5,10.58S501,449.8,501,449.8"/><path class="cls-2" d="M530.37,433.19a9.42,9.42,0,0,0,3.86-8.59s-.55-5.06-6.58-6.87-32.7-2.27-32.7-2.27l5.48,31.05S525.76,436.4,530.37,433.19Zm-18.91-4.58a4.11,4.11,0,1,1,4.59,2.69A3.8,3.8,0,0,1,511.46,428.6Z"/><path class="cls-1" d="M481.31,376.23s29-4.06,36.16-3a12.69,12.69,0,0,1,9.6,6.68s1.35,6.6-3.06,11.29-29.65,21-29.65,21"/><path class="cls-2" d="M520.41,390.69a9.42,9.42,0,0,0,2.31-9.13s-1.42-4.89-7.68-5.63-32.6,3.44-32.6,3.44L493.22,409S516.41,394.66,520.41,390.69ZM501,389.47a4.11,4.11,0,1,1,5,1.85A3.8,3.8,0,0,1,501,389.47Z"/><path class="cls-1" d="M462.2,343.12s27.89-9,35.09-9.23a12.69,12.69,0,0,1,10.62,4.91s2.48,6.27-1.05,11.65-25.56,25.79-25.56,25.79"/><path class="cls-2" d="M503.21,350.58a9.42,9.42,0,0,0,.68-9.39s-2.25-4.57-8.54-4.21-31.5,9.05-31.5,9.05l15.76,27.31S500,355.18,503.21,350.58Zm-19.34,2.16a4.11,4.11,0,1,1,5.23,1A3.8,3.8,0,0,1,483.87,352.74Z"/><path class="cls-1" d="M437.63,313.83s25.9-13.75,33-15.18a12.69,12.69,0,0,1,11.31,3s3.53,5.74,1,11.65-20.69,29.83-20.69,29.83"/><path class="cls-2" d="M479.31,314.06a9.42,9.42,0,0,0-1-9.37s-3-4.11-9.14-2.66-29.45,14.38-29.45,14.38L460,340.57S476.92,319.15,479.31,314.06Zm-18.67,5.49a4.11,4.11,0,1,1,5.32,0A3.8,3.8,0,0,1,460.64,319.55Z"/><path class="cls-1" d="M408.34,289.26s23.12-18,29.82-20.67a12.69,12.69,0,0,1,11.66,1s4.47,5,3,11.3-15.2,33-15.2,33"/><path class="cls-2" d="M449.43,282.25a9.42,9.42,0,0,0-2.57-9.06s-3.67-3.52-9.46-1-26.51,19.28-26.51,19.28L435,311.7S448,287.67,449.43,282.25ZM432,290.89a4.11,4.11,0,1,1,5.24-.89A3.8,3.8,0,0,1,432,290.89Z"/><path class="cls-1" d="M375.24,270.15s19.63-21.78,25.77-25.53a12.69,12.69,0,0,1,11.65-1.05s5.28,4.19,4.91,10.61-9.24,35.11-9.24,35.11"/><path class="cls-2" d="M414.48,256.1a9.42,9.42,0,0,0-4.1-8.48s-4.23-2.83-9.5.62-22.76,23.59-22.76,23.59l27.31,15.76S414,261.71,414.48,256.1Zm-15.66,11.54a4.11,4.11,0,1,1,5-1.79A3.8,3.8,0,0,1,398.82,267.64Z"/><path class="cls-1" d="M339.31,257.07s15.55-24.86,20.95-29.62a12.69,12.69,0,0,1,11.29-3.06s5.93,3.21,6.68,9.6-3,36.18-3,36.18"/><path class="cls-2" d="M375.52,236.43a9.42,9.42,0,0,0-5.51-7.64s-4.66-2.05-9.24,2.26-18.31,27.18-18.31,27.18L372.08,269S376,242,375.52,236.43ZM362.1,250.51a4.11,4.11,0,1,1,4.62-2.63A3.8,3.8,0,0,1,362.1,250.51Z"/><path class="cls-1" d="M301.66,250.43s11-27.18,15.49-32.81a12.69,12.69,0,0,1,10.59-5s6.39,2.13,8.24,8.29,3.33,36.15,3.33,36.15"/><path class="cls-2" d="M333.74,223.81a9.42,9.42,0,0,0-6.76-6.56s-4.94-1.21-8.71,3.84S305,251,305,251L336,256.51S335.18,229.25,333.74,223.81ZM323,240a4.11,4.11,0,1,1,4.1-3.39A3.8,3.8,0,0,1,323,240Z"/><path class="cls-2" d="M282.55,688.48C161.48,688.48,63,590,63,468.91s98.5-219.57,219.57-219.57,219.57,98.5,219.57,219.57S403.62,688.48,282.55,688.48Zm0-436.91c-119.84,0-217.34,97.5-217.34,217.34s97.5,217.34,217.34,217.34,217.34-97.5,217.34-217.34S402.39,251.57,282.55,251.57Z"/><path class="cls-2" d="M282.55,254.44c-118.24,0-214.47,96.23-214.47,214.47s96.23,214.47,214.47,214.47S497,587.15,497,468.91,400.88,254.44,282.55,254.44ZM492.48,450.56a5.15,5.15,0,0,1-4.63,5.52,5.1,5.1,0,1,1,4.63-5.52Zm.8,18.36a5.12,5.12,0,1,1-5.17-5.08A5.1,5.1,0,0,1,493.28,468.91Zm-3.21-36.62A5.11,5.11,0,1,1,480,434.07a5.11,5.11,0,0,1,10.07-1.78Zm-4-17.91a5.08,5.08,0,0,1-9.8,2.67,5.08,5.08,0,1,1,9.8-2.67Zm-5.52-17.55a5.11,5.11,0,0,1-3,6.59,5.06,5.06,0,0,1-6.5-3,5.09,5.09,0,1,1,9.53-3.56Zm-7-16.93a5.08,5.08,0,0,1-2.41,6.77,5.22,5.22,0,0,1-6.86-2.49,5.1,5.1,0,1,1,9.27-4.28Zm-15.41-18.18a5,5,0,0,1,6.95,1.87,5.09,5.09,0,0,1-8.82,5.08A5,5,0,0,1,458.09,361.72ZM448,346.84a5.12,5.12,0,0,1,5.88,8.38,5.21,5.21,0,0,1-7.13-1.25A5.13,5.13,0,0,1,448,346.84Zm-11.23-14a5.12,5.12,0,1,1-.62,7.22A5.1,5.1,0,0,1,436.79,332.85Zm-12.47-12.92a5.16,5.16,0,0,1,7.22,0,5,5,0,0,1,0,7.22,5.1,5.1,0,0,1-7.22-7.22Zm-13.54-11.76a5.11,5.11,0,0,1,7.22-.62,5.09,5.09,0,0,1-6.5,7.84A5.12,5.12,0,0,1,410.77,308.17Zm-14.43-10.6a5.13,5.13,0,0,1,7.13-1.25,5.21,5.21,0,0,1,1.25,7.13,5.12,5.12,0,1,1-8.38-5.88Zm-15.41-9.27a5.15,5.15,0,1,1,1.87,7A5.19,5.19,0,0,1,380.92,288.3Zm-16.13-7.84a5.22,5.22,0,0,1,6.86-2.49,5.12,5.12,0,1,1-6.86,2.49ZM348.13,274a5.05,5.05,0,0,1,6.5-3,5.12,5.12,0,1,1-6.5,3Zm-17.29-4.9a5.11,5.11,0,1,1,3.65,6.24A5.11,5.11,0,0,1,330.84,269.05Zm-11.67-7.66a5.14,5.14,0,0,1,4.1,6,5.07,5.07,0,0,1-10-1.78A5.13,5.13,0,0,1,319.17,261.39Zm-18.27-2.32a5,5,0,0,1,4.63,5.52,5.11,5.11,0,0,1-5.52,4.63,5.22,5.22,0,0,1-4.63-5.52A5.09,5.09,0,0,1,300.91,259.07Zm-18.36-.8a5.08,5.08,0,1,1-5.08,5.08A5.1,5.1,0,0,1,282.55,258.27Zm-18.36.8a5,5,0,0,1,5.52,4.63,5.09,5.09,0,0,1-4.63,5.52,5.22,5.22,0,0,1-5.52-4.63A5,5,0,0,1,264.19,259.07ZM246,261.39a5.13,5.13,0,0,1,5.88,4.19,5,5,0,0,1-4.1,5.88,5.09,5.09,0,0,1-6-4.1A5.27,5.27,0,0,1,246,261.39Zm-18,4a5.21,5.21,0,0,1,6.33,3.65A5.11,5.11,0,1,1,228,265.4Zm-17.46,5.52a5.12,5.12,0,0,1,3.48,9.62,5.12,5.12,0,1,1-3.48-9.62Zm-17,7a5.12,5.12,0,0,1,4.37,9.27,5.22,5.22,0,0,1-6.86-2.5A5.11,5.11,0,0,1,193.53,278Zm-16.31,8.46a5.13,5.13,0,1,1-1.87,7A5.14,5.14,0,0,1,177.23,286.43Zm-15.5,9.89a5.12,5.12,0,1,1-1.25,7.13A5.13,5.13,0,0,1,161.72,296.32ZM147.2,307.54a5,5,0,0,1,7.13.62,5.09,5.09,0,1,1-7.84,6.5A5,5,0,0,1,147.2,307.54Zm-13.63,12.39a5.16,5.16,0,0,1,7.22,0,5,5,0,0,1,0,7.22,5.1,5.1,0,0,1-7.22-7.22Zm-12.39,13.54a5.12,5.12,0,1,1,.62,7.22A5.18,5.18,0,0,1,121.18,333.47ZM110,348.09a5.08,5.08,0,1,1,8.29,5.88,5.12,5.12,0,0,1-7,1.25A5.06,5.06,0,0,1,110,348.09Zm-9.89,15.5a5,5,0,0,1,7-1.87,5.09,5.09,0,0,1-5.08,8.82A5,5,0,0,1,100.15,363.59ZM91.6,379.9a5.22,5.22,0,0,1,6.86-2.5,5.12,5.12,0,0,1-4.37,9.27A5.11,5.11,0,0,1,91.6,379.9Zm-7,16.93a5.19,5.19,0,0,1,6.59-3,5.12,5.12,0,0,1-3.47,9.62A5.23,5.23,0,0,1,84.56,396.83ZM79,414.38a5.12,5.12,0,1,1,3.65,6.24A5.08,5.08,0,0,1,79,414.38Zm2,13.81a5.13,5.13,0,0,1,4.19,5.88,5.27,5.27,0,0,1-6,4.19,5.09,5.09,0,0,1-4.1-6A5,5,0,0,1,81,428.19Zm-2.76,17.73a5.1,5.1,0,0,1,4.63,5.52,5.15,5.15,0,0,1-5.52,4.63,5.1,5.1,0,0,1,.89-10.16ZM77,463.83A5.08,5.08,0,1,1,77,474a5.08,5.08,0,1,1,0-10.16Zm-4.28,23.43a5.09,5.09,0,0,1,4.63-5.52,5.15,5.15,0,0,1,5.52,4.63,5.1,5.1,0,0,1-4.63,5.52A5,5,0,0,1,72.71,487.27Zm2.41,18.27a5.09,5.09,0,0,1,4.1-6,5.27,5.27,0,0,1,6,4.19A5.13,5.13,0,0,1,81,509.63,5,5,0,0,1,75.11,505.53ZM79,523.44A5.12,5.12,0,1,1,85.36,527,5.07,5.07,0,0,1,79,523.44ZM84.56,541a5.23,5.23,0,0,1,3.12-6.59A5.12,5.12,0,0,1,91.15,544,5.19,5.19,0,0,1,84.56,541Zm7,16.93a5.1,5.1,0,1,1,9.27-4.28,5,5,0,0,1-2.41,6.77A5.22,5.22,0,0,1,91.6,557.93Zm15.5,18.18a5.09,5.09,0,1,1-5.08-8.82,5.09,5.09,0,0,1,5.08,8.82Zm10,14.88a5.09,5.09,0,0,1-5.79-8.38,5.12,5.12,0,0,1,7,1.25A5.05,5.05,0,0,1,117.08,591Zm11.32,14a5.12,5.12,0,1,1,.62-7.22A5.18,5.18,0,0,1,128.4,605Zm12.39,12.92a5.1,5.1,0,1,1,0-7.22A5,5,0,0,1,140.78,617.89Zm13.54,11.76a5.09,5.09,0,0,1-7.84-6.5,5.09,5.09,0,1,1,7.84,6.5Zm14.52,10.6a5.12,5.12,0,1,1-1.25-7.13A5.13,5.13,0,0,1,168.85,640.26Zm15.33,9.27a5.11,5.11,0,1,1-1.87-7A5.14,5.14,0,0,1,184.18,649.52Zm16.13,7.84a5.1,5.1,0,1,1-9.27-4.28,5.22,5.22,0,0,1,6.86-2.49A5.08,5.08,0,0,1,200.31,657.37Zm16.75,6.5a5.12,5.12,0,0,1-6.5,3,5.12,5.12,0,1,1,3.48-9.62A5.11,5.11,0,0,1,217.06,663.87Zm17.29,4.9a5.21,5.21,0,0,1-6.33,3.65,5.13,5.13,0,0,1-3.56-6.24,5.11,5.11,0,1,1,9.89,2.58ZM246,676.43a5.27,5.27,0,0,1-4.19-6,5.09,5.09,0,0,1,6-4.1,5,5,0,0,1,4.1,5.88A5.13,5.13,0,0,1,246,676.43Zm18.18,2.32a5,5,0,0,1-4.63-5.52,5.22,5.22,0,0,1,5.52-4.63,5.09,5.09,0,0,1,4.63,5.52A5,5,0,0,1,264.19,678.75Zm18.36.8a5.08,5.08,0,1,1,5.17-5.08A5.08,5.08,0,0,1,282.55,679.55Zm18.36-.8a5.09,5.09,0,0,1-5.52-4.63,5.22,5.22,0,0,1,4.63-5.52,5.11,5.11,0,0,1,5.52,4.63A5,5,0,0,1,300.91,678.75Zm18.27-2.32a5.13,5.13,0,0,1-5.88-4.19,5.07,5.07,0,1,1,10-1.78A5.14,5.14,0,0,1,319.17,676.43Zm17.91-4a5.11,5.11,0,1,1,3.65-6.24A5.11,5.11,0,0,1,337.08,672.42Zm17.55-5.52a5.05,5.05,0,0,1-6.5-3,5.09,5.09,0,1,1,6.5,3Zm17-7a5.22,5.22,0,0,1-6.86-2.5,5.1,5.1,0,1,1,6.86,2.5ZM388,651.4a5.27,5.27,0,0,1-7-1.87,5.19,5.19,0,0,1,1.87-7A5.15,5.15,0,1,1,388,651.4Zm15.5-9.89a5.12,5.12,0,1,1,1.25-7.13A5.21,5.21,0,0,1,403.46,641.51ZM418,630.28a5.09,5.09,0,1,1-6.5-7.84,5.09,5.09,0,0,1,6.5,7.84Zm13.54-12.39a5.1,5.1,0,1,1,0-7.22A5,5,0,0,1,431.53,617.89Zm-149,47.67c-108.44,0-196.65-88.21-196.65-196.65s88.21-196.65,196.65-196.65S479.2,360.47,479.2,468.91,391,665.56,282.55,665.56ZM444,604.35a5.19,5.19,0,0,1-7.22.62,5.1,5.1,0,0,1-.62-7.22,5.12,5.12,0,0,1,7.84,6.59Zm11.14-14.61a5.12,5.12,0,1,1-8.38-5.88,5.21,5.21,0,0,1,7.13-1.25A5.14,5.14,0,0,1,455.14,589.74Zm9.89-15.5a5.09,5.09,0,0,1-8.82-5.08,5.09,5.09,0,1,1,8.82,5.08Zm8.47-16.31a5.1,5.1,0,0,1-9.27-4.28,5.22,5.22,0,0,1,6.86-2.5A5.08,5.08,0,0,1,473.5,557.93Zm7-16.93a5.09,5.09,0,1,1-9.53-3.56,5.06,5.06,0,0,1,6.5-3A5.11,5.11,0,0,1,480.54,541Zm5.52-17.55a5.08,5.08,0,0,1-9.8-2.67,5.08,5.08,0,1,1,9.8,2.67Zm-2-13.81a5.07,5.07,0,0,1-4.1-5.88,5.11,5.11,0,1,1,4.1,5.88ZM487,491.9a5.1,5.1,0,1,1,.89-10.16,5.15,5.15,0,0,1,4.63,5.52A5.09,5.09,0,0,1,487,491.9Z"/><path class="cls-2" d="M282.58,732.14c-145.14,0-263.23-118.08-263.23-263.23S137.43,205.68,282.58,205.68,545.81,323.77,545.81,468.91,427.72,732.14,282.58,732.14Zm0-524.23c-143.92,0-261,117.08-261,261s117.08,261,261,261,261-117.08,261-261S426.5,207.91,282.58,207.91Z"/><path class="cls-2" d="M282.55,745.34c-152.42,0-276.42-124-276.42-276.42s124-276.43,276.42-276.43S559,316.49,559,468.91,435,745.34,282.55,745.34Zm0-543.94C135,201.4,15,321.4,15,468.91S135,736.43,282.55,736.43s267.51-120,267.51-267.51S430.05,201.4,282.55,201.4Z"/><path class="cls-2" d="M290.06,160.75c0,9-2,36.19-2,36.19H277.49s-2-27.2-2-36.19c0-7.19,7-7.79,7.31-7.79C282.86,153,290.06,153.56,290.06,160.75Z"/><circle class="cls-3" cx="282.55" cy="468.91" r="271.97"/><polygon class="cls-2" points="56.34 324.77 47.43 324.77 47.43 180.44 167.49 180.44 167.49 224.55 158.57 224.55 158.57 189.35 56.34 189.35 56.34 324.77"/><polygon class="cls-2" points="518.07 324.77 509.16 324.77 509.16 189.35 406.92 189.35 406.92 224.55 398.01 224.55 398.01 180.44 518.07 180.44 518.07 324.77"/><polygon class="cls-2" points="406.92 187.12 398.01 187.12 398.01 134.77 356.44 134.77 282.51 60.84 209.03 132.54 167.49 132.54 167.49 184.89 158.57 184.89 158.57 123.63 205.4 123.63 282.59 48.32 360.13 125.86 406.92 125.86 406.92 187.12"/><path class="cls-2" d="M288.15,198s4.21-26.84,4.63-30.81,3.81-4.76,7-3.7,5.39,3.32,3.31,7.15Z"/><path class="cls-2" d="M302.23,200.67s11-18.16,12.41-20.95,4.57-1.77,7,.51,3.71,5.05.88,6.94Z"/><path class="cls-2" d="M330.19,187.12c2.33,2.24-8.28,13-9.35,15.11s-3.76.46-5.92-2.07-3.41-5.2-1.12-6.17S327.86,184.88,330.19,187.12Z"/><path class="cls-2" d="M312,168.33c6.76,4.58-8.62,26.31-9.67,30.25s-4.74,4.06-7.87,2.38-5.14-4.42-2.36-7.88S305.23,163.75,312,168.33Z"/><path class="cls-2" d="M276.92,196.87s-4.21-26.84-4.63-30.81-3.81-4.76-7-3.7-5.39,3.32-3.31,7.15Z"/><path class="cls-2" d="M262.84,199.49s-11-18.16-12.41-20.95-4.57-1.77-7,.51-3.71,5.05-.88,6.94Z"/><path class="cls-2" d="M234.88,185.94c-2.33,2.24,8.28,13,9.35,15.11s3.76.46,5.92-2.07,3.41-5.2,1.12-6.17S237.21,183.7,234.88,185.94Z"/><path class="cls-2" d="M253.08,167.15c-6.76,4.58,8.62,26.31,9.67,30.25s4.74,4.06,7.87,2.38,5.14-4.42,2.36-7.88S259.83,162.57,253.08,167.15Z"/><path class="cls-2" d="M204.65,81.16l-27,27,22.46,0c-1.67-1.11-3.48-8.21,4-8.21,4.19,0,7.18,5.26,7.18,9.45a7.64,7.64,0,0,1-7.57,7.66.8.8,0,0,1-.45-.09v.09H156.18L204.65,68.6l31.45,31.45-6.33,6.33Z"/><path class="cls-2" d="M360,81.16l27,27-22.46,0c1.67-1.11,3.48-8.21-4-8.21-4.19,0-7.18,5.26-7.18,9.45a7.64,7.64,0,0,0,7.57,7.66.8.8,0,0,0,.45-.09v.09h47.14L360,68.6l-31.45,31.45,6.33,6.33Z"/><path class="cls-2" d="M120.94,185.18H86l-.43-1.62c-.22-.81-5.23-20.13.05-35.19,5.21-14.86,15.9-26,16.36-26.43l1.57-1.61,1.45,1.74c.45.54,11,13.34,16.21,26.2,5.32,13.22.32,34.35.1,35.24Zm-31.68-4.46h28.4c1-5.13,3.7-20.87-.26-30.7-3.8-9.44-10.95-19.19-14-23.16-3.1,3.59-10.06,12.41-13.79,23.06C85.61,161.27,88.21,175.9,89.26,180.72Z"/><path class="cls-2" d="M108.89,144.06c0,2.51-3.15,4.18-3.15,9.77s-.4,28.72-.4,28.72h-3.47s-.93-22.6-.93-28.53-2.88-7.45-2.88-10c0-4.18,2.47-7.64,5.46-7.64S108.89,139.88,108.89,144.06Z"/><path class="cls-2" d="M114.29,158.75c-.91,2-2.42,3.37-3.53,3.37a158,158,0,0,0-1.92,20.44h-2.42c.1-3.78,1.39-20.52,3.63-25.75.76-2.78,3.13-4,4.24-3.37S115.5,156.39,114.29,158.75Z"/><path class="cls-2" d="M92.81,158.75c.91,2,2.42,3.37,3.53,3.37a158,158,0,0,1,1.92,20.44h2.42c-.1-3.78-1.39-20.52-3.63-25.75-.76-2.78-3.13-4-4.24-3.37S91.6,156.39,92.81,158.75Z"/><path class="cls-2" d="M89.27,173a3.9,3.9,0,0,0,3.27,1.62c.91,2.79,2.79,6.51,3.09,11.11h2.42c-.1-2.3-2.59-13.51-3.63-15.65a3.58,3.58,0,0,0-4.24-2C89,168.32,88.06,171.55,89.27,173Z"/><path class="cls-2" d="M117.67,173a3.9,3.9,0,0,1-3.27,1.62c-.91,2.79-2.79,6.51-3.09,11.11h-2.42c.1-2.3,2.59-13.51,3.63-15.65a3.58,3.58,0,0,1,4.24-2C118,168.32,118.88,171.55,117.67,173Z"/><path class="cls-2" d="M159.18,185.34h-34.9l-.43-1.62c-.22-.81-5.23-20.13.05-35.19,5.21-14.86,15.9-26,16.36-26.43l1.57-1.61,1.45,1.74c.45.54,11,13.34,16.21,26.2,5.32,13.22.32,34.35.1,35.24Zm-31.68-4.46h28.4c1-5.13,3.7-20.87-.26-30.7-3.8-9.44-10.95-19.19-14-23.16-3.1,3.59-10.06,12.41-13.79,23.06C123.85,161.43,126.45,176.06,127.5,180.89Z"/><path class="cls-2" d="M147.13,144.22c0,2.51-3.15,4.18-3.15,9.77s-.4,28.72-.4,28.72h-3.47s-.93-22.6-.93-28.53-2.88-7.45-2.88-10c0-4.18,2.47-7.64,5.46-7.64S147.13,140,147.13,144.22Z"/><path class="cls-2" d="M152.53,158.91c-.91,2-2.42,3.37-3.53,3.37a158,158,0,0,0-1.92,20.44h-2.42c.1-3.78,1.39-20.52,3.63-25.75.76-2.78,3.13-4,4.24-3.37S153.74,156.56,152.53,158.91Z"/><path class="cls-2" d="M131.05,158.91c.91,2,2.42,3.37,3.53,3.37a158,158,0,0,1,1.92,20.44h2.42c-.1-3.78-1.39-20.52-3.63-25.75-.76-2.78-3.13-4-4.24-3.37S129.84,156.56,131.05,158.91Z"/><path class="cls-2" d="M127.51,173.14a3.9,3.9,0,0,0,3.27,1.62c.91,2.79,2.79,6.51,3.09,11.11h2.42c-.1-2.3-2.59-13.51-3.63-15.65a3.58,3.58,0,0,0-4.24-2C127.21,168.48,126.3,171.71,127.51,173.14Z"/><path class="cls-2" d="M155.91,173.14a3.9,3.9,0,0,1-3.27,1.62c-.91,2.79-2.79,6.51-3.09,11.11h-2.42c.1-2.3,2.59-13.51,3.63-15.65a3.58,3.58,0,0,1,4.24-2C156.21,168.48,157.12,171.71,155.91,173.14Z"/><path class="cls-2" d="M440.28,185.82h-34.9l-.43-1.62c-.22-.81-5.23-20.13.05-35.19,5.21-14.86,15.9-26,16.36-26.43l1.57-1.61,1.45,1.74c.45.54,11,13.34,16.21,26.2,5.32,13.22.32,34.35.1,35.24Zm-31.68-4.46H437c1-5.13,3.7-20.87-.26-30.7-3.8-9.44-10.95-19.19-14-23.16-3.1,3.59-10.06,12.41-13.79,23.06C404.95,161.9,407.55,176.53,408.6,181.36Z"/><path class="cls-2" d="M428.23,144.69c0,2.51-3.15,4.18-3.15,9.77s-.4,28.72-.4,28.72h-3.47s-.93-22.6-.93-28.53-2.88-7.45-2.88-10c0-4.18,2.47-7.64,5.46-7.64S428.23,140.52,428.23,144.69Z"/><path class="cls-2" d="M433.63,159.38c-.91,2-2.42,3.37-3.53,3.37a158,158,0,0,0-1.92,20.44h-2.42c.1-3.78,1.39-20.52,3.63-25.75.76-2.78,3.13-4,4.24-3.37S434.84,157,433.63,159.38Z"/><path class="cls-2" d="M412.15,159.38c.91,2,2.42,3.37,3.53,3.37a158,158,0,0,1,1.92,20.44H420c-.1-3.78-1.39-20.52-3.63-25.75-.76-2.78-3.13-4-4.24-3.37S410.94,157,412.15,159.38Z"/><path class="cls-2" d="M408.61,173.62a3.9,3.9,0,0,0,3.27,1.62c.91,2.79,2.79,6.51,3.09,11.11h2.42c-.1-2.3-2.59-13.51-3.63-15.65a3.58,3.58,0,0,0-4.24-2C408.31,169,407.4,172.19,408.61,173.62Z"/><path class="cls-2" d="M437,173.62a3.9,3.9,0,0,1-3.27,1.62c-.91,2.79-2.79,6.51-3.09,11.11h-2.42c.1-2.3,2.59-13.51,3.63-15.65a3.58,3.58,0,0,1,4.24-2C437.31,169,438.22,172.19,437,173.62Z"/><path class="cls-2" d="M478.52,186h-34.9l-.43-1.62c-.22-.81-5.23-20.13.05-35.19,5.21-14.86,15.9-26,16.36-26.43l1.57-1.61,1.45,1.74c.45.54,11,13.34,16.21,26.2,5.32,13.22.32,34.35.1,35.24Zm-31.68-4.46h28.4c1-5.13,3.7-20.87-.26-30.7-3.8-9.44-10.95-19.19-14-23.16-3.1,3.59-10.06,12.41-13.79,23.06C443.19,162.07,445.79,176.7,446.84,181.52Z"/><path class="cls-2" d="M466.47,144.86c0,2.51-3.15,4.18-3.15,9.77s-.4,28.72-.4,28.72h-3.47s-.93-22.6-.93-28.53-2.88-7.45-2.88-10c0-4.18,2.47-7.64,5.46-7.64S466.47,140.68,466.47,144.86Z"/><path class="cls-2" d="M471.87,159.54c-.91,2-2.42,3.37-3.53,3.37a158,158,0,0,0-1.92,20.44H464c.1-3.78,1.39-20.52,3.63-25.75.76-2.78,3.13-4,4.24-3.37S473.08,157.19,471.87,159.54Z"/><path class="cls-2" d="M450.39,159.54c.91,2,2.42,3.37,3.53,3.37a158,158,0,0,1,1.92,20.44h2.42c-.1-3.78-1.39-20.52-3.63-25.75-.76-2.78-3.13-4-4.24-3.37S449.18,157.19,450.39,159.54Z"/><path class="cls-2" d="M446.85,173.78a3.9,3.9,0,0,0,3.27,1.62c.91,2.79,2.79,6.51,3.09,11.11h2.42c-.1-2.3-2.59-13.51-3.63-15.65a3.58,3.58,0,0,0-4.24-2C446.55,169.12,445.64,172.35,446.85,173.78Z"/><path class="cls-2" d="M475.25,173.78A3.9,3.9,0,0,1,472,175.4c-.91,2.79-2.79,6.51-3.09,11.11h-2.42c.1-2.3,2.59-13.51,3.63-15.65a3.58,3.58,0,0,1,4.24-2C475.55,169.12,476.46,172.35,475.25,173.78Z"/><path class="cls-2" d="M516.76,186.14h-34.9l-.43-1.62c-.22-.81-5.23-20.13.05-35.19,5.21-14.86,15.9-26,16.36-26.43l1.57-1.61,1.45,1.74c.45.54,11,13.34,16.21,26.2,5.32,13.22.32,34.35.1,35.24Zm-31.68-4.46h28.4c1-5.13,3.7-20.87-.26-30.7-3.8-9.44-10.95-19.19-14-23.16-3.1,3.59-10.06,12.41-13.79,23.06C481.43,162.23,484,176.86,485.08,181.69Z"/><path class="cls-2" d="M504.71,145c0,2.51-3.15,4.18-3.15,9.77s-.4,28.72-.4,28.72h-3.47s-.93-22.6-.93-28.53-2.88-7.45-2.88-10c0-4.18,2.47-7.64,5.46-7.64S504.71,140.84,504.71,145Z"/><path class="cls-2" d="M510.11,159.71c-.91,2-2.42,3.37-3.53,3.37a158,158,0,0,0-1.92,20.44h-2.42c.1-3.78,1.39-20.52,3.63-25.75.76-2.78,3.13-4,4.24-3.37S511.32,157.36,510.11,159.71Z"/><path class="cls-2" d="M488.63,159.71c.91,2,2.42,3.37,3.53,3.37a158,158,0,0,1,1.92,20.44h2.42c-.1-3.78-1.39-20.52-3.63-25.75-.76-2.78-3.13-4-4.24-3.37S487.42,157.36,488.63,159.71Z"/><path class="cls-2" d="M485.09,173.94a3.9,3.9,0,0,0,3.27,1.62c.91,2.79,2.79,6.51,3.09,11.11h2.42c-.1-2.3-2.59-13.51-3.63-15.65a3.58,3.58,0,0,0-4.24-2C484.79,169.28,483.88,172.51,485.09,173.94Z"/><path class="cls-2" d="M513.49,173.94a3.9,3.9,0,0,1-3.27,1.62c-.91,2.79-2.79,6.51-3.09,11.11h-2.42c.1-2.3,2.59-13.51,3.63-15.65a3.58,3.58,0,0,1,4.24-2C513.79,169.28,514.7,172.51,513.49,173.94Z"/><path class="cls-1" d="M36.17,33.79"/><path class="cls-2" d="M187.12,31.59v8.64H181V36H27.09c-4.9,3.39-8,9.45-8.38,16.48s2.23,13.37,6.77,17a17.08,17.08,0,0,0,13.19,3.83,17.49,17.49,0,0,0,12-7.31,15.6,15.6,0,0,0-2.58-21,10.36,10.36,0,0,0-7.84-2.23,10.53,10.53,0,0,0-7.13,4.37,7.46,7.46,0,0,0-1.16,5,7.27,7.27,0,0,1,4.19-1.25c3.83,0,7,2.67,7,6.06,0,3.21-3,5.88-6.77,6h-.18a9.86,9.86,0,0,1-1.69-.18c-.36-.09-.71-.18-1-.27a7.19,7.19,0,0,1-3.12-2.23,7.4,7.4,0,0,1-1.16-1.6c-2-3.83-2.58-10.16.27-14.08a14.85,14.85,0,0,1,10.25-6.15,14,14,0,0,1,11.14,3.12,20.16,20.16,0,0,1,3.47,27.09,22,22,0,0,1-15.15,9.09,14.74,14.74,0,0,1-2.85.27,21.6,21.6,0,0,1-13.63-5c-5.7-4.54-8.82-12.3-8.47-20.67A26.87,26.87,0,0,1,20.58,36H19.25a42.59,42.59,0,0,0-7.48,24.15C11.85,69.72,15.5,77,22.37,81.4c9.45,6.15,24.95,3.39,34.13-1.16,6.59-5,6.24-15.5,6.24-17.11-.09-5.79-5.17-20.94-5.17-20.94l14.08-.53A103.56,103.56,0,0,1,72.17,54c2.85-.27,6.06-.62,8.91-.71.27-6.59.09-11.85.09-11.85S100.6,40.41,107,41h51.41c3.12,0,5.7,2.94,5.7,6.5s-2.58,6.59-5.7,6.59-4.87-1.34-5.14-3.75,2.18-3.17-.3-4.81-44.2.8-51.86,1.25C91.51,47.36,66.47,73.29,69.5,75s12.92-6.86,21.3-10.16c12.56-5,27.53-9,41.88-8.29v.09c3,.18,5.35,3,5.35,6.5s-2.49,6.5-5.7,6.5-6.5-.18-6.58-3.74c-.07-2.67,2.71-3.16,1.72-4.45s-3.95-.48-5.62-.38C103.28,62.17,90,68.73,78.06,75.52A169.6,169.6,0,0,1,62.37,83c-8.64,3.83-16.22,7.22-23.79,7.22-7.13,0-13.45-1.69-18.62-5.08-8-5.17-12.47-14-12.65-24.86A46,46,0,0,1,14.08,36H4.46s.09,69.49,0,74.22c0,.39-.12,3.77,1.66,3.75,3.07,0,1.62-5.61,5.24-5.82,2.78-.16,4.72,3.59,4.72,6.71s-1.9,5.79-6.89,5.79S0,118.2,0,115.08V31.59Z"/><path class="cls-1" d="M528.53,34.5"/><path class="cls-2" d="M377.58,32.3v8.64h6.15V36.76H537.62c4.9,3.39,8,9.45,8.38,16.48s-2.23,13.37-6.77,17A17.08,17.08,0,0,1,526,74.09a17.49,17.49,0,0,1-12-7.31,15.6,15.6,0,0,1,2.58-21,10.36,10.36,0,0,1,7.84-2.23,10.53,10.53,0,0,1,7.13,4.37,7.46,7.46,0,0,1,1.16,5,7.27,7.27,0,0,0-4.19-1.25c-3.83,0-7,2.67-7,6.06,0,3.21,3,5.88,6.77,6h.18a9.86,9.86,0,0,0,1.69-.18c.36-.09.71-.18,1-.27A7.19,7.19,0,0,0,534.32,61a7.4,7.4,0,0,0,1.16-1.6c2-3.83,2.58-10.16-.27-14.08A14.85,14.85,0,0,0,525,39.16a14,14,0,0,0-11.14,3.12,20.16,20.16,0,0,0-3.47,27.09,22,22,0,0,0,15.15,9.09,14.74,14.74,0,0,0,2.85.27,21.6,21.6,0,0,0,13.63-5c5.7-4.54,8.82-12.3,8.47-20.67a26.87,26.87,0,0,0-6.33-16.31h1.34a42.59,42.59,0,0,1,7.48,24.15c-.09,9.53-3.74,16.84-10.6,21.21-9.45,6.15-24.95,3.39-34.13-1.16-6.59-5-6.24-15.5-6.24-17.11.09-5.79,5.17-20.94,5.17-20.94l-14.08-.53a103.56,103.56,0,0,0-.53,12.39c-2.85-.27-6.06-.62-8.91-.71-.27-6.59-.09-11.85-.09-11.85s-19.42-1.07-25.84-.45H406.28c-3.12,0-5.7,2.94-5.7,6.5s2.58,6.59,5.7,6.59,4.87-1.34,5.14-3.75-2.18-3.17.3-4.81,44.2.8,51.86,1.25c9.62.53,34.66,26.46,31.63,28.16s-12.92-6.86-21.3-10.16c-12.56-5-27.53-9-41.88-8.29v.09c-3,.18-5.35,3-5.35,6.5s2.49,6.5,5.7,6.5,6.5-.18,6.58-3.74c.07-2.67-2.71-3.16-1.72-4.45s3.95-.48,5.62-.38c18.56,1.11,31.84,7.67,43.78,14.45a169.6,169.6,0,0,0,15.68,7.48c8.64,3.83,16.22,7.22,23.79,7.22,7.13,0,13.45-1.69,18.62-5.08,8-5.17,12.47-14,12.65-24.86a46,46,0,0,0-6.77-24.24h9.62s-.09,69.49,0,74.22c0,.39.12,3.77-1.66,3.75-3.07,0-1.62-5.61-5.24-5.82-2.78-.16-4.72,3.59-4.72,6.71s1.9,5.79,6.89,5.79,9.18-2.49,9.18-5.61V32.3Z"/><path class="cls-2" d="M290.45,26.55a26.37,26.37,0,0,1-5.61,16.26s.29,2.68-2.1,2.68-2.1-2.68-2.1-2.68A26.37,26.37,0,0,1,275,26.55h0C275,22.13,278.45,0,282.75,0s7.7,22.13,7.7,26.55Z"/><path class="cls-2" d="M77.15,202.06a21.36,21.36,0,0,1,6.1,12.52s1.7,1.37.33,2.73-2.73-.33-2.73-.33a21.36,21.36,0,0,1-12.52-6.1h0c-2.53-2.53-13.25-17.16-10.79-19.62s17.09,8.26,19.62,10.79Z"/><path class="cls-2" d="M88.49,206.59a21.69,21.69,0,0,1-2.19,9s0,1.5-.76,1.47-.65-1.52-.65-1.52a21.69,21.69,0,0,1-1.58-9.15h0c.08-2.47,1.65-14.8,3.1-14.75s2.17,12.46,2.09,14.93Z"/><path class="cls-2" d="M72.86,223a21.69,21.69,0,0,0,9-2.19s1.5,0,1.47-.76-1.52-.65-1.52-.65a21.69,21.69,0,0,0-9.15-1.58h0c-2.47.08-14.8,1.65-14.75,3.1s12.46,2.17,14.93,2.09Z"/><path class="cls-2" d="M302.12,40.17a21.28,21.28,0,0,1-10.39,9.33s-.84,2-2.55,1.07-.45-2.73-.45-2.73a21.28,21.28,0,0,1,2.36-13.76h0c1.73-3.14,12.85-17.5,15.92-15.8S303.85,37,302.12,40.17Z"/><path class="cls-2" d="M308.94,51.78a16.19,16.19,0,0,1-10.33,4.38,1.49,1.49,0,1,1-2-2.14,16.19,16.19,0,0,1,4.9-10.1h0c2.07-2,14.09-10.08,16.17-7.89S311,49.82,308.94,51.78Z"/><path class="cls-2" d="M311.79,63a10.86,10.86,0,0,1-8.3.6,1.24,1.24,0,1,1-1.15-2.2,10.86,10.86,0,0,1,5.21-6.49h0c1.84-1,12-4,13.15-1.74s-7.08,8.86-8.91,9.83Z"/><path class="cls-2" d="M261.21,40.17a21.28,21.28,0,0,0,10.39,9.33s.84,2,2.55,1.07.45-2.73.45-2.73a21.28,21.28,0,0,0-2.36-13.76h0c-1.73-3.14-12.85-17.5-15.92-15.8s3.16,18.76,4.89,21.89Z"/><path class="cls-2" d="M254.39,51.78a16.19,16.19,0,0,0,10.33,4.38,1.49,1.49,0,1,0,2-2.14,16.19,16.19,0,0,0-4.9-10.1h0c-2.07-2-14.09-10.08-16.17-7.89s6.64,13.78,8.71,15.74Z"/><path class="cls-2" d="M251.54,63a10.86,10.86,0,0,0,8.3.6,1.24,1.24,0,1,0,1.15-2.2,10.86,10.86,0,0,0-5.21-6.49h0c-1.84-1-12-4-13.15-1.74s7.08,8.86,8.91,9.83Z"/><polygon class="cls-2" points="89.43 277.5 84.97 277.5 84.97 218.22 162.88 218.22 162.88 222.68 89.43 222.68 89.43 277.5"/><rect class="cls-2" x="96.29" y="188.17" width="11.16" height="32.28"/><rect class="cls-2" x="65.06" y="220.62" width="11.16" height="32.28" transform="translate(-166.11 307.4) rotate(-90)"/><path class="cls-2" d="M91.17,266.75V224.24l60.62-.41-7.64,4.24c-.17.1-17.28,9.61-27.56,17.69C104.95,254.92,95,263.5,94.85,263.59Zm4.46-38.08v28.42c4-3.35,10.76-9,18.21-14.83a212.26,212.26,0,0,1,20.84-13.86Z"/><path class="cls-2" d="M487.18,203.24a21.36,21.36,0,0,0-6.1,12.52s-1.7,1.37-.33,2.73,2.73-.33,2.73-.33a21.36,21.36,0,0,0,12.52-6.1h0c2.53-2.53,13.25-17.16,10.79-19.62s-17.09,8.26-19.62,10.79Z"/><path class="cls-2" d="M475.84,207.77a21.69,21.69,0,0,0,2.19,9s0,1.5.76,1.47.65-1.52.65-1.52A21.69,21.69,0,0,0,481,207.6h0c-.08-2.47-1.65-14.8-3.1-14.75s-2.17,12.46-2.09,14.93Z"/><path class="cls-2" d="M491.47,224.23a21.69,21.69,0,0,1-9-2.19s-1.5,0-1.47-.76,1.52-.65,1.52-.65a21.69,21.69,0,0,1,9.15-1.58h0c2.47.08,14.8,1.65,14.75,3.1s-12.46,2.17-14.93,2.09Z"/><polygon class="cls-2" points="479.36 278.68 474.9 278.68 474.9 223.86 401.45 223.86 401.45 219.4 479.36 219.4 479.36 278.68"/><rect class="cls-2" x="456.87" y="189.35" width="11.16" height="32.28" transform="translate(924.91 410.99) rotate(-180)"/><rect class="cls-2" x="488.1" y="221.8" width="11.16" height="32.28" transform="translate(255.75 731.62) rotate(-90)"/><path class="cls-2" d="M472.75,265.89l-3.68-3.16c-.09-.08-9.29-8-20-16.42-9.45-7.43-25.2-16.18-25.36-16.27l-7.64-4.23,56.7.37Zm-39.59-35.52a191.28,191.28,0,0,1,18.65,12.44c6.69,5.26,12.79,10.31,16.49,13.42V230.61Z"/><path class="cls-2" d="M40.81,179.05V347.91H34.75V332c-4.63-.89-15.33-3.39-23.26-9.18A33.79,33.79,0,0,1,17,318.06a59.82,59.82,0,0,0,17.73,6.59v-2l-2-.53a79.41,79.41,0,0,1-10.07-3.56l-4-1.78,1.43-.71A72.88,72.88,0,0,1,34.75,311v-1.78C29.4,310.39,21.21,313,15.24,317c-.71.53-1.52,1.07-2.32,1.78A30.53,30.53,0,0,0,10,321.71a11.69,11.69,0,0,0-2.14,3.83c-.09.45,2.14-.27,2.76-.27,2.94,0,5.17,2.67,5.44,5.79.27,3.92-6,6.77-8.2,6.77a5.67,5.67,0,0,1-4.19-1.6c-3.56-3.21-2.23-9.36-1-13.72A18.91,18.91,0,0,1,5.44,317,22.75,22.75,0,0,1,10,312.27c8-6.59,19.87-9.36,24.77-10.25v-.71c-4.63-.89-15.33-3.39-23.26-9.18A33.79,33.79,0,0,1,17,287.41,59.82,59.82,0,0,0,34.75,294v-2l-2-.53a79.41,79.41,0,0,1-10.07-3.56l-4-1.78,1.43-.71a72.88,72.88,0,0,1,14.61-5.08v-1.78c-5.35,1.16-13.54,3.74-19.51,7.75-.71.53-1.52,1.07-2.32,1.78A30.53,30.53,0,0,0,10,291.06a11.69,11.69,0,0,0-2.14,3.83c-.09.45,2.14-.27,2.76-.27,2.94,0,5.17,2.67,5.44,5.79.27,3.92-6,6.77-8.2,6.77a5.67,5.67,0,0,1-4.19-1.6c-3.56-3.21-2.23-9.36-1-13.72a18.91,18.91,0,0,1,2.76-5.52A22.76,22.76,0,0,1,10,281.61c8-6.59,19.87-9.36,24.77-10.25v-.71c-4.63-.89-15.33-3.39-23.26-9.18A33.79,33.79,0,0,1,17,256.75a59.82,59.82,0,0,0,17.73,6.59v-2l-2-.53a79.41,79.41,0,0,1-10.07-3.56l-4-1.78,1.43-.71a72.88,72.88,0,0,1,14.61-5.08v-1.78c-5.35,1.16-13.54,3.74-19.51,7.75-.71.53-1.52,1.07-2.32,1.78A30.53,30.53,0,0,0,10,260.41a11.69,11.69,0,0,0-2.14,3.83c-.09.45,2.14-.27,2.76-.27,2.94,0,5.17,2.67,5.44,5.79.27,3.92-6,6.77-8.2,6.77a5.67,5.67,0,0,1-4.19-1.6c-3.56-3.21-2.23-9.36-1-13.72a18.91,18.91,0,0,1,2.76-5.52A22.76,22.76,0,0,1,10,251c8-6.59,19.87-9.36,24.77-10.25V240c-4.63-.89-15.33-3.39-23.26-9.18A33.82,33.82,0,0,1,17,226.1a59.81,59.81,0,0,0,17.73,6.59v-2l-2-.53a79.41,79.41,0,0,1-10.07-3.56l-4-1.78,1.43-.71a72.88,72.88,0,0,1,14.61-5.08v-1.78C29.4,218.44,21.21,221,15.24,225c-.71.53-1.52,1.07-2.32,1.78A30.53,30.53,0,0,0,10,229.75a11.69,11.69,0,0,0-2.14,3.83c-.09.45,2.14-.27,2.76-.27,2.94,0,5.17,2.67,5.44,5.79.27,3.92-6,6.77-8.2,6.77a5.67,5.67,0,0,1-4.19-1.6c-3.56-3.21-2.23-9.36-1-13.72A18.91,18.91,0,0,1,5.44,225,22.76,22.76,0,0,1,10,220.31c8-6.59,19.87-9.36,24.77-10.25v-.71c-4.63-.89-15.33-3.39-23.26-9.18A33.84,33.84,0,0,1,17,195.45,59.81,59.81,0,0,0,34.75,202v-2l-2-.53A79.41,79.41,0,0,1,22.72,196l-4-1.78,1.43-.71a72.88,72.88,0,0,1,14.61-5.08v-1.78c-5.35,1.16-13.54,3.74-19.51,7.75-.71.53-1.52,1.07-2.32,1.78A30.47,30.47,0,0,0,10,199.1a11.69,11.69,0,0,0-2.14,3.83c-.09.45,2.14-.27,2.76-.27,2.94,0,5.17,2.67,5.44,5.79.27,3.92-6,6.77-8.2,6.77a5.67,5.67,0,0,1-4.19-1.6c-3.56-3.21-2.23-9.36-1-13.72a18.91,18.91,0,0,1,2.76-5.52A22.76,22.76,0,0,1,10,189.66c.09-.09.09-.09.18-.09-1-6.24-2.23-18.71.18-28.42A23.78,23.78,0,0,1,12.56,155,13,13,0,0,1,16,150.63c3-2.41,8.47-5.79,12.21-2.67a11.31,11.31,0,0,1,3.56,8.55c0,4.28-1.43,6.24-4.63,6.86-2.58.45-5.44-1.43-6.42-4.63-.18-.71-.36-3.12-.62-3.12a9.59,9.59,0,0,0-2.41,3.3,39.6,39.6,0,0,0-1.34,3.92c-.27,1.07-.45,2-.62,2.94-1.07,6.68-.18,14,.8,19.6a71.12,71.12,0,0,1,18.18-6C36,179.23,40.81,179.05,40.81,179.05Z"/><path class="cls-2" d="M525,179.05V347.91H531V332c4.63-.89,15.33-3.39,23.26-9.18a33.79,33.79,0,0,0-5.52-4.72A59.82,59.82,0,0,1,531,324.65v-2l2-.53a79.41,79.41,0,0,0,10.07-3.56l4-1.78-1.43-.71A72.88,72.88,0,0,0,531,311v-1.78c5.35,1.16,13.54,3.74,19.51,7.75.71.53,1.52,1.07,2.32,1.78a30.53,30.53,0,0,1,2.94,2.94,11.69,11.69,0,0,1,2.14,3.83c.09.45-2.14-.27-2.76-.27-2.94,0-5.17,2.67-5.44,5.79-.27,3.92,6,6.77,8.2,6.77a5.67,5.67,0,0,0,4.19-1.6c3.56-3.21,2.23-9.36,1-13.72a18.91,18.91,0,0,0-2.76-5.52,22.75,22.75,0,0,0-4.54-4.72c-8-6.59-19.87-9.36-24.77-10.25v-.71c4.63-.89,15.33-3.39,23.26-9.18a33.79,33.79,0,0,0-5.52-4.72A59.82,59.82,0,0,1,531,294v-2l2-.53a79.41,79.41,0,0,0,10.07-3.56l4-1.78-1.43-.71A72.88,72.88,0,0,0,531,280.37v-1.78c5.35,1.16,13.54,3.74,19.51,7.75.71.53,1.52,1.07,2.32,1.78a30.53,30.53,0,0,1,2.94,2.94,11.69,11.69,0,0,1,2.14,3.83c.09.45-2.14-.27-2.76-.27-2.94,0-5.17,2.67-5.44,5.79-.27,3.92,6,6.77,8.2,6.77a5.67,5.67,0,0,0,4.19-1.6c3.56-3.21,2.23-9.36,1-13.72a18.91,18.91,0,0,0-2.76-5.52,22.76,22.76,0,0,0-4.54-4.72c-8-6.59-19.87-9.36-24.77-10.25v-.71c4.63-.89,15.33-3.39,23.26-9.18a33.79,33.79,0,0,0-5.52-4.72A59.82,59.82,0,0,1,531,263.35v-2l2-.53a79.41,79.41,0,0,0,10.07-3.56l4-1.78-1.43-.71A72.88,72.88,0,0,0,531,249.71v-1.78c5.35,1.16,13.54,3.74,19.51,7.75.71.53,1.52,1.07,2.32,1.78a30.53,30.53,0,0,1,2.94,2.94,11.69,11.69,0,0,1,2.14,3.83c.09.45-2.14-.27-2.76-.27-2.94,0-5.17,2.67-5.44,5.79-.27,3.92,6,6.77,8.2,6.77a5.67,5.67,0,0,0,4.19-1.6c3.56-3.21,2.23-9.36,1-13.72a18.91,18.91,0,0,0-2.76-5.52A22.76,22.76,0,0,0,555.8,251c-8-6.59-19.87-9.36-24.77-10.25V240c4.63-.89,15.33-3.39,23.26-9.18a33.82,33.82,0,0,0-5.52-4.72A59.81,59.81,0,0,1,531,232.7v-2l2-.53a79.41,79.41,0,0,0,10.07-3.56l4-1.78-1.43-.71A72.88,72.88,0,0,0,531,219.06v-1.78c5.35,1.16,13.54,3.74,19.51,7.75.71.53,1.52,1.07,2.32,1.78a30.53,30.53,0,0,1,2.94,2.94,11.69,11.69,0,0,1,2.14,3.83c.09.45-2.14-.27-2.76-.27-2.94,0-5.17,2.67-5.44,5.79-.27,3.92,6,6.77,8.2,6.77a5.67,5.67,0,0,0,4.19-1.6c3.56-3.21,2.23-9.36,1-13.72a18.91,18.91,0,0,0-2.76-5.52,22.76,22.76,0,0,0-4.54-4.72c-8-6.59-19.87-9.36-24.77-10.25v-.71c4.63-.89,15.33-3.39,23.26-9.18a33.84,33.84,0,0,0-5.52-4.72A59.81,59.81,0,0,1,531,202v-2l2-.53A79.41,79.41,0,0,0,543.06,196l4-1.78-1.43-.71A72.88,72.88,0,0,0,531,188.41v-1.78c5.35,1.16,13.54,3.74,19.51,7.75.71.53,1.52,1.07,2.32,1.78a30.47,30.47,0,0,1,2.94,2.94,11.69,11.69,0,0,1,2.14,3.83c.09.45-2.14-.27-2.76-.27-2.94,0-5.17,2.67-5.44,5.79-.27,3.92,6,6.77,8.2,6.77a5.67,5.67,0,0,0,4.19-1.6c3.56-3.21,2.23-9.36,1-13.72a18.91,18.91,0,0,0-2.76-5.52,22.76,22.76,0,0,0-4.54-4.72c-.09-.09-.09-.09-.18-.09,1-6.24,2.23-18.71-.18-28.42a23.78,23.78,0,0,0-2.23-6.15,13,13,0,0,0-3.47-4.37c-3-2.41-8.47-5.79-12.21-2.67a11.31,11.31,0,0,0-3.56,8.55c0,4.28,1.43,6.24,4.63,6.86,2.58.45,5.44-1.43,6.42-4.63.18-.71.36-3.12.62-3.12a9.59,9.59,0,0,1,2.41,3.3,39.6,39.6,0,0,1,1.34,3.92c.27,1.07.45,2,.62,2.94,1.07,6.68.18,14-.8,19.6a71.12,71.12,0,0,0-18.18-6C529.78,179.23,525,179.05,525,179.05Z"/><path class="cls-2" d="M82.7,184.91H47.8l-.43-1.62c-.22-.81-5.23-20.13.05-35.19,5.21-14.86,15.9-26,16.36-26.43l1.57-1.61,1.45,1.74c.45.54,11,13.34,16.21,26.2,5.32,13.22.32,34.35.1,35.24ZM51,180.46h28.4c1-5.13,3.7-20.87-.26-30.7-3.8-9.44-10.95-19.19-14-23.16C62,130.18,55.07,139,51.34,149.66,47.37,161,50,175.63,51,180.46Z"/><path class="cls-2" d="M70.65,143.79c0,2.51-3.15,4.18-3.15,9.77s-.4,28.72-.4,28.72H63.63s-.93-22.6-.93-28.53-2.88-7.45-2.88-10c0-4.18,2.47-7.64,5.46-7.64S70.65,139.61,70.65,143.79Z"/><path class="cls-2" d="M76,158.48c-.91,2-2.42,3.37-3.53,3.37a158,158,0,0,0-1.92,20.44H68.18c.1-3.78,1.39-20.52,3.63-25.75.76-2.78,3.13-4,4.24-3.37S77.26,156.13,76,158.48Z"/><path class="cls-2" d="M54.57,158.48c.91,2,2.42,3.37,3.53,3.37A158,158,0,0,1,60,182.29h2.42c-.1-3.78-1.39-20.52-3.63-25.75-.76-2.78-3.13-4-4.24-3.37S53.36,156.13,54.57,158.48Z"/><path class="cls-2" d="M51,172.71a3.9,3.9,0,0,0,3.27,1.62c.91,2.79,2.79,6.51,3.09,11.11h2.42c-.1-2.3-2.59-13.51-3.63-15.65a3.58,3.58,0,0,0-4.24-2C50.73,168.05,49.82,171.28,51,172.71Z"/><path class="cls-2" d="M79.43,172.71a3.9,3.9,0,0,1-3.27,1.62c-.91,2.79-2.79,6.51-3.09,11.11H70.65c.1-2.3,2.59-13.51,3.63-15.65a3.58,3.58,0,0,1,4.24-2C79.73,168.05,80.64,171.28,79.43,172.71Z"/></g></g></svg>