<svg xmlns="http://www.w3.org/2000/svg" viewBox="0 0 807.75 745.16"><defs><style>.cls-1,.cls-3{fill:none;}.cls-1{stroke:#fff;stroke-miterlimit:10;stroke-width:0.25px;}.cls-2{fill:#fff;}</style></defs><title>banner-circle</title><g id="Layer_2" data-name="Layer 2"><g id="design"><g id="_Group_" data-name="&lt;Group&gt;"><path class="cls-1" d="M379.45,112.52s7.82-36.66,12.21-44.74a16.22,16.22,0,0,1,12.22-8.61s8.52,1.27,12.22,8.61,12.21,44.78,12.21,44.78"/><path class="cls-2" d="M413.92,71.89c-3-6.53-10-6.76-10-6.76s-6.49-.43-10.11,6.76-10.11,40.66-10.11,40.66H424S416.93,78.42,413.92,71.89ZM404,94.68c-2.5,0-4.55-2.24-4.55-5.18s2.05-5.18,4.55-5.18,4.4,2.24,4.4,5.18S406.3,94.68,404,94.68Z"/></g><path class="cls-1" d="M331.32,121s1.33-37.46,4.26-46.18a16.22,16.22,0,0,1,10.54-10.6s8.61-.23,13.53,6.36,19.8,42,19.8,42"/><path class="cls-2" d="M358.21,75c-4.11-5.9-11-4.93-11-4.93s-6.47.7-8.79,8.42-2.9,41.8-2.9,41.8l39.69-7S362.32,80.91,358.21,75Zm-5.86,24.17c-2.46.43-4.87-1.42-5.38-4.31s1.12-5.46,3.58-5.89,4.73,1.45,5.24,4.34S354.67,98.78,352.36,99.18Z"/><path class="cls-1" d="M285.4,137.72s-5.19-37.12-3.83-46.22a16.22,16.22,0,0,1,8.54-12.27s8.44-1.73,14.43,3.91S331.33,121,331.33,121"/><path class="cls-2" d="M303.89,87.75c-5.07-5.1-11.67-2.95-11.67-2.95S286,86.62,285,94.62s4.4,41.67,4.4,41.67L327.3,122.5S309,92.85,303.89,87.75Zm-1.57,24.82c-2.34.85-5-.55-6-3.31s.16-5.57,2.5-6.42,4.9.6,5.91,3.36S304.53,111.77,302.32,112.58Z"/><path class="cls-1" d="M243.08,162.16s-11.56-35.66-11.79-44.85a16.22,16.22,0,0,1,6.28-13.57s8-3.16,14.89,1.35,33,32.67,33,32.67"/><path class="cls-2" d="M252.62,109.74c-5.88-4.14-12-.87-12-.87s-5.84,2.87-5.38,10.91S246.8,160,246.8,160l34.9-20.15S258.49,113.88,252.62,109.74Zm2.76,24.72c-2.16,1.25-5.06.33-6.53-2.21s-.81-5.51,1.35-6.76,4.94-.26,6.4,2.28S257.41,133.28,255.38,134.45Z"/><path class="cls-1" d="M205.64,193.57s-17.58-33.11-19.4-42.12A16.22,16.22,0,0,1,190.07,137s7.34-4.51,14.89-1.26,38.14,26.45,38.14,26.45"/><path class="cls-2" d="M205.93,140.29c-6.51-3.06-12,1.22-12,1.22s-5.25,3.84-3.4,11.68,18.39,37.65,18.39,37.65l30.88-25.91S212.44,143.35,205.93,140.29Zm7,23.86c-1.91,1.6-4.93,1.21-6.81-1s-1.76-5.29.16-6.89,4.82-1.11,6.7,1.14S214.75,162.64,212.95,164.15Z"/><path class="cls-1" d="M174.23,231s-23.06-29.55-26.42-38.11a16.22,16.22,0,0,1,1.26-14.9s6.45-5.71,14.45-3.83,42.15,19.43,42.15,19.43"/><path class="cls-2" d="M165.26,178.48c-6.94-1.88-11.58,3.29-11.58,3.29s-4.5,4.7-1.32,12.09S177,227.74,177,227.74l25.91-30.88S172.21,180.36,165.26,178.48Zm11.05,22.28c-1.6,1.91-4.64,2-6.89.16s-2.65-4.9-1-6.81,4.55-1.93,6.8,0S177.83,199,176.32,200.76Z"/><path class="cls-1" d="M149.8,273.32s-27.84-25.1-32.64-32.95a16.22,16.22,0,0,1-1.35-14.89s5.36-6.75,13.57-6.28S174.26,231,174.26,231"/><path class="cls-2" d="M131.85,223.16c-7.16-.65-10.84,5.25-10.84,5.25s-3.62,5.41.8,12.14S152,269.63,152,269.63l20.15-34.9S139,223.81,131.85,223.16Zm14.75,20c-1.25,2.16-4.22,2.82-6.76,1.35s-3.46-4.37-2.21-6.53,4.15-2.69,6.69-1.22S147.77,241.15,146.6,243.18Z"/><path class="cls-1" d="M133.08,319.24s-31.78-19.88-37.87-26.78A16.22,16.22,0,0,1,91.3,278s4.1-7.57,12.27-8.54,46.25,3.84,46.25,3.84"/><path class="cls-2" d="M106.69,273c-7.17.6-9.76,7-9.76,7s-2.63,6,2.89,11.82,34.75,23.41,34.75,23.41l13.78-37.87S113.86,272.35,106.69,273Zm18,17.16c-.85,2.34-3.66,3.51-6.42,2.5s-4.17-3.7-3.31-6,3.62-3.37,6.37-2.37S125.5,287.91,124.7,290.11Z"/><path class="cls-1" d="M124.6,367.37s-34.75-14.06-41.94-19.8A16.22,16.22,0,0,1,76.3,334S79,325.87,86.9,323.5s46.22-4.25,46.22-4.25"/><path class="cls-2" d="M90.57,326.37c-7,1.84-8.39,8.64-8.39,8.64s-1.55,6.32,4.9,11.14,38.29,17,38.29,17l7-39.69S97.52,324.53,90.57,326.37Zm20.71,13.77c-.43,2.46-3,4.09-5.89,3.58s-4.74-2.92-4.31-5.38,3-3.95,5.87-3.44S111.69,337.83,111.28,340.14Z"/><path class="cls-1" d="M124.6,416.24S87.94,408.42,79.86,404a16.22,16.22,0,0,1-8.61-12.22s1.27-8.52,8.61-12.22,44.78-12.21,44.78-12.21"/><path class="cls-2" d="M84,381.77c-6.53,3-6.76,10-6.76,10s-.43,6.49,6.76,10.11S124.63,412,124.63,412v-40.3S90.5,378.75,84,381.77Zm22.79,10c0,2.5-2.24,4.55-5.18,4.55s-5.18-2.05-5.18-4.55,2.24-4.4,5.18-4.4S106.76,389.38,106.76,391.73Z"/><path class="cls-1" d="M133.08,464.36S95.63,463,86.9,460.11a16.22,16.22,0,0,1-10.6-10.54S76.06,441,82.65,436s42-19.8,42-19.8"/><path class="cls-2" d="M87.09,437.47c-5.9,4.11-4.93,11-4.93,11s.7,6.47,8.42,8.79,41.8,2.9,41.8,2.9l-7-39.69S93,433.37,87.09,437.47Zm24.17,5.86c.43,2.46-1.42,4.87-4.31,5.38s-5.46-1.12-5.89-3.58,1.45-4.73,4.34-5.24S110.85,441,111.26,443.33Z"/><path class="cls-1" d="M149.8,510.28s-37.12,5.19-46.22,3.83a16.22,16.22,0,0,1-12.27-8.54s-1.73-8.44,3.91-14.43,37.9-26.79,37.9-26.79"/><path class="cls-2" d="M99.83,491.79c-5.1,5.07-2.95,11.67-2.95,11.67s1.81,6.25,9.81,7.19,41.67-4.4,41.67-4.4l-13.78-37.87S104.93,486.72,99.83,491.79Zm24.82,1.57c.85,2.34-.55,5-3.31,6s-5.57-.16-6.42-2.5.6-4.9,3.36-5.91S123.85,491.15,124.65,493.36Z"/><path class="cls-1" d="M174.23,552.6s-35.66,11.56-44.85,11.79a16.22,16.22,0,0,1-13.57-6.28s-3.16-8,1.35-14.89,32.67-33,32.67-33"/><path class="cls-2" d="M121.81,543.07c-4.14,5.88-.87,12-.87,12s2.87,5.84,10.91,5.38,40.27-11.57,40.27-11.57L152,514S126,537.19,121.81,543.07Zm24.72-2.76c1.25,2.16.33,5.06-2.21,6.53s-5.51.81-6.76-1.35-.26-4.94,2.28-6.4S145.35,538.27,146.53,540.3Z"/><path class="cls-1" d="M205.64,590s-33.11,17.58-42.12,19.4a16.22,16.22,0,0,1-14.45-3.83s-4.51-7.34-1.26-14.89,26.45-38.14,26.45-38.14"/><path class="cls-2" d="M152.36,589.75c-3.06,6.51,1.22,12,1.22,12s3.84,5.25,11.68,3.4,37.65-18.39,37.65-18.39L177,555.87S155.42,583.24,152.36,589.75Zm23.86-7c1.6,1.91,1.21,4.93-1,6.81s-5.29,1.76-6.89-.16-1.11-4.82,1.14-6.7S174.72,580.94,176.22,582.74Z"/><path class="cls-1" d="M243.08,621.45S213.53,644.51,205,647.88a16.22,16.22,0,0,1-14.9-1.26s-5.71-6.45-3.83-14.45S205.66,590,205.66,590"/><path class="cls-2" d="M190.56,630.42c-1.88,6.94,3.29,11.58,3.29,11.58s4.7,4.5,12.09,1.32,33.88-24.65,33.88-24.65l-30.88-25.91S192.44,623.48,190.56,630.42Zm22.28-11.05c1.91,1.6,2,4.64.16,6.89s-4.9,2.65-6.81,1-1.93-4.55,0-6.8S211,617.86,212.84,619.37Z"/><path class="cls-1" d="M285.4,645.89s-25.1,27.84-32.95,32.64a16.22,16.22,0,0,1-14.89,1.35s-6.75-5.36-6.28-13.57,11.81-44.88,11.81-44.88"/><path class="cls-2" d="M235.23,663.84c-.65,7.16,5.25,10.84,5.25,10.84s5.41,3.62,12.14-.8,29.09-30.16,29.09-30.16l-34.9-20.15S235.88,656.67,235.23,663.84Zm20-14.75c2.16,1.25,2.82,4.22,1.35,6.76s-4.37,3.46-6.53,2.21-2.69-4.15-1.22-6.69S253.22,647.91,255.26,649.08Z"/><path class="cls-1" d="M331.32,662.6s-19.88,31.78-26.78,37.87a16.22,16.22,0,0,1-14.43,3.91s-7.57-4.1-8.54-12.27,3.84-46.25,3.84-46.25"/><path class="cls-2" d="M285,689c.6,7.17,7,9.76,7,9.76s6,2.63,11.82-2.89,23.41-34.75,23.41-34.75l-37.87-13.78S284.43,681.82,285,689Zm17.16-18c2.34.85,3.51,3.66,2.5,6.42s-3.7,4.17-6,3.31-3.37-3.62-2.37-6.37S300,670.18,302.19,671Z"/><path class="cls-1" d="M379.45,671.08s-14.06,34.75-19.8,41.94a16.22,16.22,0,0,1-13.53,6.36s-8.17-2.73-10.54-10.6-4.25-46.22-4.25-46.22"/><path class="cls-2" d="M338.44,705.11c1.84,7,8.64,8.39,8.64,8.39s6.32,1.55,11.14-4.9,17-38.29,17-38.29l-39.69-7S336.6,698.16,338.44,705.11Zm13.77-20.71c2.46.43,4.09,3,3.58,5.89s-2.92,4.74-5.38,4.31-3.95-3-3.44-5.87S349.9,684,352.21,684.4Z"/><path class="cls-1" d="M428.31,671.08s-7.82,36.66-12.21,44.74a16.22,16.22,0,0,1-12.22,8.61s-8.52-1.27-12.22-8.61-12.21-44.78-12.21-44.78"/><path class="cls-2" d="M393.84,711.71c3,6.53,10,6.76,10,6.76s6.49.43,10.11-6.76S424,671.06,424,671.06h-40.3S390.82,705.19,393.84,711.71Zm10-22.79c2.5,0,4.55,2.24,4.55,5.18s-2.05,5.18-4.55,5.18-4.4-2.24-4.4-5.18S401.46,688.93,403.81,688.93Z"/><path class="cls-1" d="M476.44,662.6s-1.33,37.46-4.26,46.18a16.22,16.22,0,0,1-10.54,10.6s-8.61.23-13.53-6.36-19.8-42-19.8-42"/><path class="cls-2" d="M449.55,708.6c4.11,5.9,11,4.93,11,4.93s6.47-.7,8.79-8.42,2.9-41.8,2.9-41.8l-39.69,7S445.44,702.69,449.55,708.6Zm5.86-24.17c2.46-.43,4.87,1.42,5.38,4.31s-1.12,5.46-3.58,5.89-4.73-1.45-5.24-4.34S453.09,684.83,455.4,684.43Z"/><path class="cls-1" d="M522.36,645.89s5.19,37.12,3.83,46.22a16.22,16.22,0,0,1-8.54,12.27s-8.44,1.73-14.43-3.91-26.79-37.9-26.79-37.9"/><path class="cls-2" d="M503.86,695.85c5.07,5.1,11.67,2.95,11.67,2.95s6.25-1.81,7.19-9.81-4.4-41.67-4.4-41.67l-37.87,13.78S498.8,690.75,503.86,695.85ZM505.43,671c2.34-.85,5,.55,6,3.31s-.16,5.57-2.5,6.42-4.9-.6-5.91-3.36S503.23,671.84,505.43,671Z"/><path class="cls-1" d="M564.68,621.45s11.56,35.66,11.79,44.85a16.22,16.22,0,0,1-6.28,13.57s-8,3.16-14.89-1.35-33-32.67-33-32.67"/><path class="cls-2" d="M555.14,673.87c5.88,4.14,12,.87,12,.87s5.84-2.87,5.38-10.91S561,623.57,561,623.57l-34.9,20.15S549.27,669.73,555.14,673.87Zm-2.76-24.72c2.16-1.25,5.06-.33,6.53,2.21s.81,5.51-1.35,6.76-4.94.26-6.4-2.28S550.35,650.33,552.38,649.16Z"/><path class="cls-1" d="M602.12,590s17.58,33.11,19.4,42.12a16.22,16.22,0,0,1-3.83,14.45s-7.34,4.51-14.89,1.26-38.14-26.45-38.14-26.45"/><path class="cls-2" d="M601.83,643.32c6.51,3.06,12-1.22,12-1.22s5.25-3.84,3.4-11.68-18.39-37.65-18.39-37.65l-30.88,25.91S595.32,640.26,601.83,643.32Zm-7-23.86c1.91-1.6,4.93-1.21,6.81,1s1.76,5.29-.16,6.89-4.82,1.11-6.7-1.14S593,621,594.81,619.46Z"/><path class="cls-1" d="M633.53,552.6s23.06,29.55,26.42,38.11a16.22,16.22,0,0,1-1.26,14.9s-6.45,5.71-14.45,3.83S602.09,590,602.09,590"/><path class="cls-2" d="M642.49,605.13c6.94,1.88,11.58-3.29,11.58-3.29s4.5-4.7,1.32-12.09-24.65-33.88-24.65-33.88l-25.91,30.88S635.55,603.24,642.49,605.13Zm-11.05-22.28c1.6-1.91,4.64-2,6.89-.16s2.65,4.9,1,6.81-4.55,1.93-6.8,0S629.93,584.64,631.44,582.85Z"/><path class="cls-1" d="M658,510.28s27.84,25.1,32.64,32.95A16.22,16.22,0,0,1,692,558.12s-5.36,6.75-13.57,6.28-44.88-11.81-44.88-11.81"/><path class="cls-2" d="M675.91,560.45c7.16.65,10.84-5.25,10.84-5.25s3.62-5.41-.8-12.14S655.8,514,655.8,514l-20.15,34.9S668.75,559.8,675.91,560.45Zm-14.75-20c1.25-2.16,4.22-2.82,6.76-1.35s3.46,4.37,2.21,6.53-4.15,2.69-6.69,1.22S660,542.46,661.16,540.43Z"/><path class="cls-1" d="M674.67,464.36s31.78,19.88,37.87,26.78a16.22,16.22,0,0,1,3.91,14.43s-4.1,7.57-12.27,8.54-46.25-3.84-46.25-3.84"/><path class="cls-2" d="M701.07,510.65c7.17-.6,9.76-7,9.76-7s2.63-6-2.89-11.82-34.75-23.41-34.75-23.41L659.4,506.25S693.9,511.26,701.07,510.65Zm-18-17.16c.85-2.34,3.66-3.51,6.42-2.5s4.17,3.7,3.31,6-3.62,3.37-6.37,2.37S682.26,495.7,683.06,493.49Z"/><path class="cls-1" d="M683.16,416.24S717.91,430.3,725.1,436a16.22,16.22,0,0,1,6.36,13.53s-2.73,8.17-10.6,10.54-46.22,4.25-46.22,4.25"/><path class="cls-2" d="M717.19,457.24c7-1.84,8.39-8.64,8.39-8.64s1.55-6.32-4.9-11.14-38.29-17-38.29-17l-7,39.69S710.24,459.08,717.19,457.24Zm-20.71-13.77c.43-2.46,3-4.09,5.89-3.58s4.74,2.92,4.31,5.38-3,3.95-5.87,3.44S696.07,445.78,696.48,443.47Z"/><path class="cls-1" d="M683.16,367.37s36.66,7.82,44.74,12.21a16.22,16.22,0,0,1,8.61,12.22s-1.27,8.52-8.61,12.22-44.78,12.21-44.78,12.21"/><path class="cls-2" d="M723.79,401.84c6.53-3,6.76-10,6.76-10s.43-6.49-6.76-10.11-40.66-10.11-40.66-10.11V412S717.26,404.86,723.79,401.84Zm-22.79-10c0-2.5,2.24-4.55,5.18-4.55s5.18,2.05,5.18,4.55-2.24,4.4-5.18,4.4S701,394.22,701,391.88Z"/><path class="cls-1" d="M674.67,319.24s37.46,1.33,46.18,4.26A16.22,16.22,0,0,1,731.46,334s.23,8.61-6.36,13.53-42,19.8-42,19.8"/><path class="cls-2" d="M720.67,346.14c5.9-4.11,4.93-11,4.93-11s-.7-6.47-8.42-8.79-41.8-2.9-41.8-2.9l7,39.69S714.77,350.24,720.67,346.14Zm-24.17-5.86c-.43-2.46,1.42-4.87,4.31-5.38s5.46,1.12,5.89,3.58-1.45,4.73-4.34,5.24S696.91,342.59,696.5,340.28Z"/><path class="cls-1" d="M658,273.32s37.12-5.19,46.22-3.83A16.22,16.22,0,0,1,716.45,278s1.73,8.44-3.91,14.43-37.9,26.79-37.9,26.79"/><path class="cls-2" d="M707.93,291.82c5.1-5.07,2.95-11.67,2.95-11.67s-1.81-6.25-9.81-7.19-41.67,4.4-41.67,4.4l13.78,37.87S702.83,296.89,707.93,291.82Zm-24.82-1.57c-.85-2.34.55-5,3.31-6s5.57.16,6.42,2.5-.6,4.9-3.36,5.91S683.91,292.46,683.11,290.25Z"/><path class="cls-1" d="M633.53,231s35.66-11.56,44.85-11.79A16.22,16.22,0,0,1,692,225.49s3.16,8-1.35,14.89-32.67,33-32.67,33"/><path class="cls-2" d="M685.95,240.54c4.14-5.88.87-12,.87-12s-2.87-5.84-10.91-5.38-40.27,11.57-40.27,11.57l20.15,34.9S681.81,246.42,685.95,240.54Zm-24.72,2.76c-1.25-2.16-.33-5.06,2.21-6.53s5.51-.81,6.76,1.35.26,4.94-2.28,6.4S662.41,245.34,661.23,243.3Z"/><path class="cls-1" d="M602.12,193.57s33.11-17.58,42.12-19.4A16.22,16.22,0,0,1,658.69,178s4.51,7.34,1.26,14.89S633.5,231,633.5,231"/><path class="cls-2" d="M655.4,193.86c3.06-6.51-1.22-12-1.22-12s-3.84-5.25-11.68-3.4-37.65,18.39-37.65,18.39l25.91,30.88S652.34,200.37,655.4,193.86Zm-23.86,7c-1.6-1.91-1.21-4.93,1-6.81s5.29-1.76,6.89.16,1.11,4.82-1.14,6.7S633,202.67,631.53,200.87Z"/><path class="cls-1" d="M564.68,162.16s29.55-23.06,38.11-26.42a16.22,16.22,0,0,1,14.9,1.26s5.71,6.45,3.83,14.45-19.43,42.15-19.43,42.15"/><path class="cls-2" d="M617.2,153.19c1.88-6.94-3.29-11.58-3.29-11.58s-4.7-4.5-12.09-1.32-33.88,24.65-33.88,24.65l30.88,25.91S615.32,160.13,617.2,153.19Zm-22.28,11.05c-1.91-1.6-2-4.64-.16-6.89s4.9-2.65,6.81-1,1.93,4.55,0,6.8S596.72,165.75,594.92,164.24Z"/><path class="cls-1" d="M522.36,137.72s25.1-27.84,32.95-32.64a16.22,16.22,0,0,1,14.89-1.35s6.75,5.36,6.28,13.57-11.81,44.88-11.81,44.88"/><path class="cls-2" d="M572.53,119.77c.65-7.16-5.25-10.84-5.25-10.84s-5.41-3.62-12.14.8-29.09,30.16-29.09,30.16L561,160S571.88,126.93,572.53,119.77Zm-20,14.75c-2.16-1.25-2.82-4.22-1.35-6.76s4.37-3.46,6.53-2.21,2.69,4.15,1.22,6.69S554.54,135.7,552.5,134.52Z"/><path class="cls-1" d="M476.44,121s19.88-31.78,26.78-37.87a16.22,16.22,0,0,1,14.43-3.91s7.57,4.1,8.54,12.27-3.84,46.25-3.84,46.25"/><path class="cls-2" d="M522.73,94.62c-.6-7.17-7-9.76-7-9.76s-6-2.63-11.82,2.89-23.41,34.75-23.41,34.75l37.87,13.78S523.33,101.78,522.73,94.62Zm-17.16,18c-2.34-.85-3.51-3.66-2.5-6.42s3.7-4.17,6-3.31,3.37,3.62,2.37,6.37S507.77,113.43,505.57,112.62Z"/><path class="cls-1" d="M428.31,112.52s14.06-34.75,19.8-41.94a16.22,16.22,0,0,1,13.53-6.36s8.17,2.73,10.54,10.6S476.43,121,476.43,121"/><path class="cls-2" d="M469.32,78.5c-1.84-7-8.64-8.39-8.64-8.39s-6.32-1.55-11.14,4.9-17,38.29-17,38.29l39.69,7S471.16,85.45,469.32,78.5ZM455.54,99.21c-2.46-.43-4.09-3-3.58-5.89s2.92-4.74,5.38-4.31,3.95,3,3.44,5.87S457.86,99.62,455.54,99.21Z"/><path class="cls-2" d="M403.88,672.48c-154.76,0-280.67-125.91-280.67-280.67S249.11,111.13,403.88,111.13,684.55,237,684.55,391.81,558.64,672.48,403.88,672.48Zm0-558.5c-153.19,0-277.82,124.64-277.82,277.83S250.68,669.63,403.88,669.63,681.71,545,681.71,391.81,557.07,114,403.88,114Z"/><path class="cls-2" d="M403.88,117.64c-151.15,0-274.16,123-274.16,274.16S252.73,666,403.88,666,678,543,678,391.8,555.14,117.64,403.88,117.64Zm268.35,250.7a6.59,6.59,0,0,1-5.92,7.06,6.52,6.52,0,1,1,5.92-7.06Zm1,23.46a6.55,6.55,0,1,1-6.61-6.49A6.51,6.51,0,0,1,673.26,391.8ZM669.16,345a6.54,6.54,0,1,1-12.87,2.28A6.54,6.54,0,0,1,669.16,345ZM664,322.1a6.49,6.49,0,0,1-12.53,3.42A6.49,6.49,0,1,1,664,322.1ZM657,299.66a6.54,6.54,0,0,1-3.87,8.43,6.46,6.46,0,0,1-8.32-3.87A6.51,6.51,0,1,1,657,299.66ZM648,278a6.49,6.49,0,0,1-3.08,8.66,6.67,6.67,0,0,1-8.77-3.19A6.52,6.52,0,0,1,648,278Zm-19.7-23.24a6.43,6.43,0,0,1,8.88,2.39,6.51,6.51,0,0,1-11.28,6.49A6.43,6.43,0,0,1,628.27,254.78Zm-12.87-19a6.54,6.54,0,1,1,7.52,10.71,6.66,6.66,0,0,1-9.11-1.59A6.55,6.55,0,0,1,615.4,235.76ZM601,217.88a6.55,6.55,0,1,1-.8,9.23A6.52,6.52,0,0,1,601,217.88ZM585.1,201.36a6.6,6.6,0,0,1,9.23,0,6.4,6.4,0,0,1,0,9.23,6.52,6.52,0,1,1-9.23-9.23Zm-17.31-15a6.53,6.53,0,0,1,9.23-.8,6.51,6.51,0,0,1-8.32,10A6.54,6.54,0,0,1,567.78,186.32Zm-18.45-13.55a6.56,6.56,0,0,1,9.11-1.59,6.66,6.66,0,0,1,1.59,9.11,6.54,6.54,0,1,1-10.71-7.52Zm-19.7-11.85a6.58,6.58,0,1,1,2.39,9A6.64,6.64,0,0,1,529.63,160.92ZM509,150.9a6.67,6.67,0,0,1,8.77-3.19A6.55,6.55,0,1,1,509,150.9Zm-21.3-8.31a6.46,6.46,0,0,1,8.31-3.87,6.54,6.54,0,1,1-8.31,3.87Zm-22.1-6.26a6.53,6.53,0,1,1,4.67,8A6.54,6.54,0,0,1,465.61,136.32Zm-14.92-9.8a6.57,6.57,0,0,1,5.24,7.63,6.48,6.48,0,0,1-12.76-2.28A6.56,6.56,0,0,1,450.69,126.53Zm-23.35-3a6.38,6.38,0,0,1,5.92,7.06,6.53,6.53,0,0,1-7.06,5.92,6.67,6.67,0,0,1-5.92-7.06A6.5,6.5,0,0,1,427.34,123.57Zm-23.46-1a6.49,6.49,0,1,1-6.49,6.49A6.51,6.51,0,0,1,403.88,122.54Zm-23.46,1a6.38,6.38,0,0,1,7.06,5.92,6.5,6.5,0,0,1-5.92,7.06,6.67,6.67,0,0,1-7.06-5.92A6.45,6.45,0,0,1,380.42,123.57Zm-23.24,3a6.56,6.56,0,0,1,7.52,5.35,6.4,6.4,0,0,1-5.24,7.52,6.51,6.51,0,0,1-7.63-5.24A6.74,6.74,0,0,1,357.18,126.53Zm-23,5.13a6.66,6.66,0,0,1,8.09,4.67,6.53,6.53,0,1,1-8.09-4.67Zm-22.33,7.06a6.54,6.54,0,0,1,4.44,12.3,6.54,6.54,0,1,1-4.44-12.3Zm-21.75,9a6.55,6.55,0,0,1,5.58,11.85,6.67,6.67,0,0,1-8.77-3.19A6.54,6.54,0,0,1,290.09,147.71Zm-20.84,10.82a6.56,6.56,0,1,1-2.39,9A6.58,6.58,0,0,1,269.25,158.53Zm-19.82,12.64a6.54,6.54,0,1,1-1.59,9.11A6.56,6.56,0,0,1,249.43,171.18Zm-18.57,14.35a6.38,6.38,0,0,1,9.11.8,6.51,6.51,0,1,1-10,8.32A6.4,6.4,0,0,1,230.86,185.53Zm-17.43,15.83a6.6,6.6,0,0,1,9.23,0,6.4,6.4,0,0,1,0,9.23,6.52,6.52,0,1,1-9.23-9.23ZM197.6,218.67a6.55,6.55,0,1,1,.8,9.23A6.62,6.62,0,0,1,197.6,218.67Zm-14.24,18.68A6.49,6.49,0,1,1,194,244.87a6.54,6.54,0,0,1-9,1.59A6.47,6.47,0,0,1,183.37,237.35Zm-12.64,19.82a6.41,6.41,0,0,1,8.88-2.39,6.51,6.51,0,0,1-6.49,11.28A6.43,6.43,0,0,1,170.72,257.17ZM159.79,278a6.67,6.67,0,0,1,8.77-3.19A6.55,6.55,0,0,1,163,286.67,6.54,6.54,0,0,1,159.79,278Zm-9,21.64a6.63,6.63,0,0,1,8.43-3.87,6.54,6.54,0,0,1-4.44,12.3A6.69,6.69,0,0,1,150.79,299.66Zm-7.06,22.44a6.55,6.55,0,1,1,4.67,8A6.5,6.5,0,0,1,143.73,322.1Zm2.51,17.65a6.56,6.56,0,0,1,5.35,7.52,6.74,6.74,0,0,1-7.63,5.35,6.51,6.51,0,0,1-5.24-7.63A6.4,6.4,0,0,1,146.23,339.75Zm-3.53,22.67a6.52,6.52,0,0,1,5.92,7.06,6.59,6.59,0,0,1-7.06,5.92,6.52,6.52,0,0,1,1.14-13Zm-1.59,22.89a6.49,6.49,0,0,1,0,13,6.49,6.49,0,0,1,0-13Zm-5.47,30a6.5,6.5,0,0,1,5.92-7.06,6.58,6.58,0,0,1,7.06,5.92,6.52,6.52,0,0,1-5.92,7.06A6.44,6.44,0,0,1,135.64,415.27Zm3.07,23.35A6.51,6.51,0,0,1,144,431a6.74,6.74,0,0,1,7.63,5.35,6.56,6.56,0,0,1-5.35,7.52A6.4,6.4,0,0,1,138.72,438.62Zm5,22.89a6.55,6.55,0,1,1,8.09,4.56A6.49,6.49,0,0,1,143.73,461.51ZM150.79,484a6.69,6.69,0,0,1,4-8.43,6.54,6.54,0,0,1,4.44,12.3A6.63,6.63,0,0,1,150.79,484Zm9,21.64a6.52,6.52,0,1,1,11.85-5.47,6.45,6.45,0,0,1-3.08,8.66A6.67,6.67,0,0,1,159.79,505.59Zm19.82,23.24a6.51,6.51,0,1,1-6.49-11.28,6.51,6.51,0,0,1,6.49,11.28Zm12.76,19a6.51,6.51,0,0,1-7.4-10.71,6.54,6.54,0,0,1,9,1.59A6.46,6.46,0,0,1,192.36,547.85Zm14.47,17.88a6.55,6.55,0,1,1,.8-9.23A6.62,6.62,0,0,1,206.83,565.73Zm15.83,16.52a6.52,6.52,0,1,1,0-9.23A6.4,6.4,0,0,1,222.66,582.25Zm17.31,15A6.51,6.51,0,0,1,230,589a6.51,6.51,0,1,1,10,8.31Zm18.57,13.55a6.54,6.54,0,1,1-1.59-9.11A6.55,6.55,0,0,1,258.54,610.84Zm19.59,11.85a6.53,6.53,0,1,1-2.39-9A6.58,6.58,0,0,1,278.13,622.68Zm20.62,10a6.52,6.52,0,1,1-11.85-5.47,6.67,6.67,0,0,1,8.77-3.19A6.49,6.49,0,0,1,298.75,632.71ZM320.16,641a6.55,6.55,0,0,1-8.31,3.87,6.54,6.54,0,1,1,4.44-12.3A6.54,6.54,0,0,1,320.16,641Zm22.1,6.26a6.66,6.66,0,0,1-8.09,4.67,6.56,6.56,0,0,1-4.56-8,6.53,6.53,0,1,1,12.64,3.3Zm14.92,9.8a6.74,6.74,0,0,1-5.35-7.63,6.51,6.51,0,0,1,7.63-5.24,6.4,6.4,0,0,1,5.24,7.52A6.56,6.56,0,0,1,357.18,657.08Zm23.24,3a6.45,6.45,0,0,1-5.92-7.06,6.67,6.67,0,0,1,7.06-5.92,6.51,6.51,0,0,1,5.92,7.06A6.38,6.38,0,0,1,380.42,660Zm23.46,1a6.49,6.49,0,1,1,6.61-6.49A6.49,6.49,0,0,1,403.88,661.07Zm23.46-1a6.5,6.5,0,0,1-7.06-5.92,6.67,6.67,0,0,1,5.92-7.06,6.53,6.53,0,0,1,7.06,5.92A6.38,6.38,0,0,1,427.34,660Zm23.35-3a6.56,6.56,0,0,1-7.52-5.35,6.48,6.48,0,1,1,12.76-2.28A6.57,6.57,0,0,1,450.69,657.08ZM473.59,652a6.53,6.53,0,1,1,4.67-8A6.54,6.54,0,0,1,473.59,652ZM496,644.89a6.46,6.46,0,0,1-8.31-3.87,6.51,6.51,0,1,1,8.31,3.87Zm21.76-9a6.67,6.67,0,0,1-8.77-3.19,6.52,6.52,0,1,1,8.77,3.19Zm20.84-10.82a6.74,6.74,0,0,1-9-2.39,6.64,6.64,0,0,1,2.39-9,6.58,6.58,0,0,1,6.61,11.39Zm19.82-12.64a6.54,6.54,0,1,1,1.59-9.11A6.66,6.66,0,0,1,558.44,612.43ZM577,598.08a6.51,6.51,0,1,1-8.32-10,6.51,6.51,0,0,1,8.32,10Zm17.31-15.83a6.52,6.52,0,1,1,0-9.23A6.4,6.4,0,0,1,594.32,582.25ZM403.88,643.19c-138.62,0-251.38-112.76-251.38-251.38S265.26,140.42,403.88,140.42,655.26,253.18,655.26,391.8,542.5,643.19,403.88,643.19Zm206.39-78.25a6.63,6.63,0,0,1-9.23.8,6.52,6.52,0,0,1-.8-9.23,6.55,6.55,0,0,1,10,8.43Zm14.24-18.68a6.54,6.54,0,1,1-10.71-7.52,6.66,6.66,0,0,1,9.11-1.59A6.57,6.57,0,0,1,624.51,546.25Zm12.64-19.82a6.51,6.51,0,0,1-11.28-6.49,6.51,6.51,0,1,1,11.28,6.49ZM648,505.59a6.52,6.52,0,0,1-11.85-5.47,6.67,6.67,0,0,1,8.77-3.19A6.49,6.49,0,0,1,648,505.59ZM657,484a6.51,6.51,0,1,1-12.19-4.56,6.46,6.46,0,0,1,8.32-3.87A6.54,6.54,0,0,1,657,484ZM664,461.51a6.49,6.49,0,0,1-12.53-3.42A6.49,6.49,0,1,1,664,461.51Zm-2.51-17.65a6.48,6.48,0,0,1-5.24-7.52,6.54,6.54,0,1,1,5.24,7.52Zm3.64-22.67a6.52,6.52,0,1,1,1.14-13,6.59,6.59,0,0,1,5.92,7.06A6.5,6.5,0,0,1,665.17,421.19Z"/><path class="cls-2" d="M403.92,728.29c-185.54,0-336.48-150.95-336.48-336.48S218.38,55.32,403.92,55.32,740.4,206.26,740.4,391.81,589.46,728.29,403.92,728.29Zm0-670.12c-184,0-333.64,149.67-333.64,333.64S219.95,725.44,403.92,725.44,737.56,575.77,737.56,391.81,587.89,58.16,403.92,58.16Z"/><path class="cls-2" d="M403.88,745.16C209,745.16,50.52,586.65,50.52,391.81S209,38.45,403.88,38.45,757.23,197,757.23,391.81,598.72,745.16,403.88,745.16Zm0-695.32c-188.56,0-342,153.41-342,342s153.41,342,342,342,342-153.41,342-342S592.43,49.84,403.88,49.84Z"/><circle class="cls-3" cx="403.88" cy="391.8" r="347.66"/><path class="cls-2" d="M10,382c11.49,0,46.26,2.62,46.26,2.62V398S21.45,400.64,10,400.64c-9.19,0-10-9-10-9.34C0,391.16.77,382,10,382Z"/><path class="cls-2" d="M57.63,384.39s-34.3-5.39-39.39-5.91-6.08-4.87-4.73-8.89,4.25-6.89,9.13-4.24Z"/><path class="cls-2" d="M61,366.39s-23.21-14-26.78-15.86-2.26-5.84.66-8.91,6.46-4.75,8.87-1.13Z"/><path class="cls-2" d="M43.66,330.66c2.86-3,16.68,10.59,19.32,12s.58,4.81-2.64,7.56-6.65,4.35-7.88,1.43S40.8,333.64,43.66,330.66Z"/><path class="cls-2" d="M19.65,353.92c5.85-8.64,33.64,11,38.67,12.36s5.19,6.06,3,10.07-5.65,6.57-10.07,3S13.8,362.55,19.65,353.92Z"/><path class="cls-2" d="M56.12,398.75s-34.3,5.39-39.39,5.91-6.08,4.87-4.73,8.89,4.25,6.89,9.13,4.24Z"/><path class="cls-2" d="M59.48,416.75s-23.21,14-26.78,15.86-2.26,5.84.66,8.91,6.46,4.75,8.87,1.13Z"/><path class="cls-2" d="M42.15,452.48c2.86,3,16.68-10.59,19.32-12s.58-4.81-2.64-7.56-6.65-4.35-7.88-1.43S39.29,449.51,42.15,452.48Z"/><path class="cls-2" d="M18.14,429.22c5.85,8.64,33.64-11,38.67-12.36s5.19-6.06,3-10.07-5.65-6.57-10.07-3S12.29,420.59,18.14,429.22Z"/><path class="cls-2" d="M395.91,27.09a23.91,23.91,0,0,0,7,16.59,2.63,2.63,0,1,0,5.27,0,23.91,23.91,0,0,0,7-16.59h0C415.26,22.58,411,0,405.58,0s-9.68,22.58-9.68,27.09Z"/><path class="cls-2" d="M383.76,33.18c1.42,4.27,4.71,8.52,9.34,12.09a2.73,2.73,0,0,0,2.67,2.06c2.31.14,1.38-1.82,1.38-1.82,2.4-3.15,2.93-7.18,1.51-11.44h0c-1.06-3.2-9.68-19.41-13.84-19.66S382.7,30,383.76,33.18Z"/><path class="cls-2" d="M377.84,39.1A24.17,24.17,0,0,0,390,42.64a2.24,2.24,0,0,0,2.68.1c1.36-1-.28-1.83-.28-1.83a12.17,12.17,0,0,0-5.79-8.18h0c-2.44-1.59-16.63-8.16-19.08-6.39s7.84,11.16,10.28,12.75Z"/><path class="cls-2" d="M427.19,33.55c-1.65,4.18-5.17,8.25-10,11.55A2.73,2.73,0,0,1,414.4,47c-2.31,0-1.28-1.89-1.28-1.89-2.22-3.28-2.53-7.33-.87-11.51h0c1.24-3.13,10.76-18.84,14.92-18.85s1.26,15.67,0,18.8Z"/><path class="cls-2" d="M434.61,39.1a24.17,24.17,0,0,1-12.2,3.55,2.24,2.24,0,0,1-2.68.1c-1.36-1,.28-1.83.28-1.83a12.17,12.17,0,0,1,5.79-8.18h0c2.44-1.59,16.63-8.16,19.08-6.39S437,37.5,434.61,39.1Z"/><path class="cls-2" d="M797.8,401.65c-11.49,0-46.26-2.62-46.26-2.62V385.59S786.31,383,797.8,383c9.19,0,10,9,10,9.34C807.75,392.45,807,401.65,797.8,401.65Z"/><path class="cls-2" d="M750.12,399.22s34.3,5.39,39.39,5.91,6.08,4.87,4.73,8.89-4.25,6.89-9.13,4.24Z"/><path class="cls-2" d="M746.76,417.22s23.21,14,26.78,15.86,2.26,5.84-.66,8.91-6.46,4.75-8.87,1.13Z"/><path class="cls-2" d="M764.09,452.95c-2.86,3-16.68-10.59-19.32-12s-.58-4.81,2.64-7.56,6.65-4.35,7.88-1.43S767,450,764.09,452.95Z"/><path class="cls-2" d="M788.11,429.69c-5.85,8.64-33.64-11-38.67-12.36s-5.19-6.06-3-10.07,5.65-6.57,10.07-3S794,421.05,788.11,429.69Z"/><path class="cls-2" d="M751.63,384.86s34.3-5.39,39.39-5.91,6.08-4.87,4.73-8.89-4.25-6.89-9.13-4.24Z"/><path class="cls-2" d="M748.27,366.86s23.21-14,26.78-15.86,2.26-5.84-.66-8.91-6.46-4.75-8.87-1.13Z"/><path class="cls-2" d="M765.6,331.12c-2.86-3-16.68,10.59-19.32,12s-.58,4.81,2.64,7.56,6.65,4.35,7.88,1.43S768.46,334.1,765.6,331.12Z"/><path class="cls-2" d="M789.62,354.38c-5.85-8.64-33.64,11-38.67,12.36s-5.19,6.06-3,10.07,5.65,6.57,10.07,3S795.47,363,789.62,354.38Z"/></g></g></svg>