<svg xmlns="http://www.w3.org/2000/svg" viewBox="0 0 1048.6 155.79"><defs><style>.cls-1{fill:#fff;}</style></defs><title>border_top</title><g id="Layer_2" data-name="Layer 2"><g id="design"><path class="cls-1" d="M666,72.37a26.93,26.93,0,0,0,6.74-6.91,26,26,0,0,0,3.62-20.23c-4.44-18.91-26-31.08-47.85-27.3A44.54,44.54,0,0,0,600.4,35a52.1,52.1,0,0,0-5.92-16.44A37.08,37.08,0,0,0,543.33,5.28,31.5,31.5,0,0,0,532.65,48a25.77,25.77,0,0,0,15.62,11.84,24.32,24.32,0,0,0,19.08-3,21.5,21.5,0,0,0,7.4-29.27l-7.07,4.11A13.59,13.59,0,0,1,563.23,50a17.1,17.1,0,0,1-13,1.81,16.73,16.73,0,0,1-10.52-8.06,23.1,23.1,0,0,1,7.89-31.41,28.3,28.3,0,0,1,21.87-3.29,28.81,28.81,0,0,1,17.93,13.65,38.79,38.79,0,0,1,4.11,28.78,1.48,1.48,0,0,0-.16.82,36.62,36.62,0,0,1-13.48,20.06H467.52C452.56,61,448.28,39.48,458,22.71A29.57,29.57,0,0,1,476.08,9.06a27.81,27.81,0,0,1,21.87,3.29c10.69,6.41,14.14,20.56,7.89,31.41a17.48,17.48,0,0,1-10.69,8.06A16.69,16.69,0,0,1,482.32,50a13.52,13.52,0,0,1-4.61-18.25l-7.07-4.11A21.5,21.5,0,0,0,478,56.91a24.72,24.72,0,0,0,19.24,3A25.77,25.77,0,0,0,512.91,48c8.55-14.8,3.78-34-10.69-42.76A37.22,37.22,0,0,0,450.91,18.6a50.8,50.8,0,0,0-6.08,17.1,45.12,45.12,0,0,0-28.78-17.76c-21.87-3.78-43.25,8.39-47.85,27.3A25.39,25.39,0,0,0,372,65.47a24.53,24.53,0,0,0,6.74,6.91H0V84.71H1042.27V72.37ZM424.27,46.72c-3.29-4.93-9-8.39-15.46-9.54-10.2-1.81-20.23,4.11-22.36,13l7.89,2c1.15-4.77,7.24-7.89,13.16-6.91a15.5,15.5,0,0,1,9.87,6.08,10.48,10.48,0,0,1,1.48,7.56c-2.14,8.72-12.5,14.31-23,12.5-7.24-1.32-13.48-5.1-17.1-10.52A17.26,17.26,0,0,1,376.26,47c3.45-14.64,20.89-24,38.48-21a38.09,38.09,0,0,1,25.49,17.27c5.92,9,8.22,19.73,5.92,29.11H419.83a22,22,0,0,0,6.91-11.51A18,18,0,0,0,424.27,46.72Zm165.6,25.65c.16-.16.16-.16.16-.33-.16.16-.16.33,0,.33Zm8.55,0a33,33,0,0,1,.49-16.94,12.1,12.1,0,0,1,.66-2.3,45.49,45.49,0,0,1,4.77-9.87c6.25-9.37,15.29-15.46,25.49-17.27,17.76-3,35,6.41,38.48,21a17.26,17.26,0,0,1-2.47,13.81c-3.62,5.43-9.7,9.21-17.1,10.52-10.52,1.81-20.89-3.78-22.86-12.5a9.77,9.77,0,0,1,1.32-7.56,15.46,15.46,0,0,1,10-6.08c5.76-1.15,11.84,2.14,13,6.91l7.89-2c-2.14-8.88-12-14.8-22.36-13a23.17,23.17,0,0,0-15.29,9.54,18.12,18.12,0,0,0-2.63,14.14,21.69,21.69,0,0,0,7.07,11.51Z"/><path class="cls-1" d="M102.87,114.73h0c.9-.94,1.83-1.9,2.78-2.86l1.19-1.22,1.19-1.2c4.89-4.79,9.32-7.36,10.69-7.6.8-.17,3-.43,3-.43V98.48l-1.61.14c-4.51.36-8.17,3-13,7.64a35.76,35.76,0,0,0-4.4-4A16.76,16.76,0,0,0,92.4,98.57c-4.31,0-7.61,1.59-12.7,6.22-4.45-3.88-8.17-6.14-13.21-6.23h-.3c-.34,0-2.36-.08-2.36-.08v2.94s2,0,3,.12a24.92,24.92,0,0,1,10.73,5.29l-.32.32-.68.67q-.37.35-.73.73l-1.2,1.2-.21.22a18,18,0,0,0-7.51-3.53l-3-.15v2.6l1.69,0a4.75,4.75,0,0,1,.81,0c1.46,0,2.91.58,6,3.19-2.39,2.57-4.87,5.55-6.82,7.29-.42.37-.81.68-1.08,1a3.47,3.47,0,0,0-.63.6v1.26a1.16,1.16,0,0,0,0,.16c0,.22.1.17.27.32l2.66,2.51s0,0,0,0l.88,1,.86.93.88,1,1.1,1.2c2.26,2.48,4.67,5.07,7.24,7.75l1,1.05c.35.37.71.73,1.07,1.09l.06.07.63.64.59.59c.2.2.38.39.57.57s.36.36.53.53c.35.32.66.65,1,1,.16.15.32.29.47.44l.21.21.22.2.36.35.35.32.06,0,.29.25c3.24,2.91,5.11,3.88,7.26,3.88a10.3,10.3,0,0,0,6.53-2.77,31.12,31.12,0,0,0,2.88-2.77h0l.16-.19.9-1c.51-.56,1-1.12,1.52-1.7l.41-.47,3-3.39,0,0,.88-1c1.55-1.7,3.15-3.42,4.76-5.13a.74.74,0,0,1,1.07,0l1,1s0,0,0,0l1,1.07a.74.74,0,0,1,0,1q-2.42,2.57-4.8,5.17l-1,1.17-1.34,1.49c-.44.5-.88,1-1.31,1.48l-.43.49-1.23,1.39-.61.7-.8.87c-4,4.22-7.74,7-12.71,7a11.25,11.25,0,0,1-6.62-2.16,33.9,33.9,0,0,1-4.32-3.5l-.19-.19-.27-.24-.28-.25c-.45-.43-.94-.88-1.46-1.41l-.54-.53c-.45-.44-.92-.92-1.43-1.43-.2-.2-.41-.39-.6-.6l-.59-.61-.59-.61-1-1c-2.6-2.71-5.05-5.38-7.68-8.24l-.09-.08-3-2.86v3.41s1.88,2.43,2,2.6l0,0c2.7,2.94,4.09,4.6,6.47,7.1-3.11,2.55-4.67,2.88-6,3.17a19.4,19.4,0,0,1-2.5.44v2.82l3-.3c1.89-.19,4.34-1.23,7.57-4h0l0,.06a1.07,1.07,0,0,1,.16.16c.29.28.56.56.81.82l.76.75.71.71.34.32.15.16a2.15,2.15,0,0,1,.16.16c-4.33,3.75-7.19,5.49-10.72,5.64l-3,.07v2.57l1.37,0a12.06,12.06,0,0,0,1.32,0c5-.09,8.72-2.34,13.16-6.22a38,38,0,0,0,4.46,3.57,14.17,14.17,0,0,0,8.26,2.66c6.22,0,10.75-3.57,14.66-7.7a44.19,44.19,0,0,0,6,5,14.39,14.39,0,0,0,7,2.61l1.6.13v-2.55l-3-.5a14.28,14.28,0,0,1-4-2.16,41.16,41.16,0,0,1-5.67-4.77l.93-1,.42-.48c.53-.61,1.07-1.2,1.61-1.82,3.07,3,5.06,4.53,6.73,5.26l3,.74v-3l-1.15-.27c-1.33-.31-3.28-1.77-6.57-5,1.7-1.88,3.44-3.75,5.19-5.61l.06,0,.12-.12c.36-.35,1.32-1.3,2.35-2.14V129c-.5-.47-.59-.5-.86-.44-.54.13-1.15,1.1-1.67,1.36-.13.06-.57-.21-.85-.41l-.22-.16a12.69,12.69,0,0,1-1.11-1.23,2.45,2.45,0,0,0-.17-.17,0,0,0,0,0,0,0c-.63-.64-1.09-1.14-1.69-1.77l-.54-.57c-2-2.09-3.94-4.18-5.82-6.26l.59-.63c.52-.54,1.05-1.08,1.59-1.62.31-.32.63-.65.94-1,2.05,2.26,5.49,5.91,6.6,7a1.58,1.58,0,0,0,2.05.29c.41-.23.71-.85,1.17-.85v-1.62c-1.55.42-5.46-4.16-7.74-6.89a40.37,40.37,0,0,1,4.39-3.83,6.28,6.28,0,0,1,2.2-1.15l1.15-.15v-2.6a24,24,0,0,0-3,.5,5.79,5.79,0,0,0-2.11,1,43.11,43.11,0,0,0-4.62,4l-.65.63-.46.45c-.64.63-1.32,1.32-2.06,2.09-1.09,1.1-2.14,2.19-3.16,3.28-.32.34-.64.66-.94,1-1.89,2-3.67,3.94-5.27,5.69-.46-.51-.93-1-1.4-1.52s-1.08-1.18-1.62-1.78c1.81-2,3.53-3.83,5.33-5.74C102.12,115.5,102.49,115.12,102.87,114.73ZM79.85,135c-2.6-2.71-5-5.36-7.33-7.87,2.29-2.51,4.74-5.16,7.33-7.88,2.82,2.83,5.34,5.5,7.53,7.87C85.19,129.5,82.68,132.19,79.85,135Zm5.21,5.27-.67-.66-1.53-1.52c-.27-.29-.56-.57-.86-.87h0l-.08-.08c2.79-2.8,5.29-5.46,7.47-7.81l1.92,2.11.67.74c.14.14.28.29.41.44C89.73,135.51,87.36,138,85.06,140.28Zm12,2.94a7.54,7.54,0,0,1-4.65,2.1c-.94,0-2-.25-5.16-3,2.24-2.26,4.56-4.69,7.17-7.5,1.81,2,3.53,3.86,5.35,5.77A27.73,27.73,0,0,1,97,143.23Zm9.67-21.78q2.57,2.83,5.29,5.69c-1.81,1.9-3.58,3.81-5.29,5.69-1.88-2-3.66-3.94-5.26-5.69C103.06,125.38,104.84,123.44,106.72,121.45Zm-9.25,5.72.88,1,1.1,1.19c1.6,1.76,3.38,3.71,5.27,5.7l-1.08,1.2c-.17.2-.35.41-.53.6s-.17.2-.27.3l-.25.3-.23.24-.2.23-.39.46c-1.8-1.9-3.53-3.77-5.35-5.75l-1.33-1.48c-.31-.32-.6-.66-.9-1l-.66-.73L92,127.78l-1.52-1.65c-.15-.16-.3-.34-.46-.5l-.46-.52-.16-.17c-2.18-2.35-4.68-5-7.47-7.81a.27.27,0,0,1,.08-.08c1.19-1.22,2.19-2.21,3.06-3.06,2.55,2.55,5.2,5.33,8.26,8.65Zm-3.06-7.72c-2.61-2.8-4.92-5.23-7.17-7.48a24.26,24.26,0,0,1,2.18-1.77c1.58-1.14,2.34-1.24,3-1.24,2.35,0,4.68,1.85,7.37,4.73C97.95,115.59,96.22,117.47,94.41,119.45ZM92.4,106a7.72,7.72,0,0,0-4.72,1.8,32.67,32.67,0,0,0-2.55,2.09l-.54.49-.51.47-.9.86-1,.95c-.7.7-1.47,1.46-2.34,2.35-.37.37-.74.75-1.1,1.14l-1,1.05c-2.57,2.68-5,5.28-7.24,7.75l-3-3.29c2.4-2.62,4.66-5.06,7-7.54l1-1,1.19-1.22.59-.61.57-.57c.19-.19.36-.37.53-.53l.52-.51.72-.71.66-.64c.14-.15.29-.28.43-.41l.46-.44c4.8-4.45,7.57-5.9,11.2-5.9a13.91,13.91,0,0,1,8.48,3.08,34.5,34.5,0,0,1,4.07,3.72l-1.43,1.43c-.58.6-1.15,1.17-1.69,1.76C99.07,108.58,96.06,106,92.4,106Z"/><path class="cls-1" d="M44.94,114.73h0c.9-.94,1.83-1.9,2.78-2.86l1.19-1.22,1.19-1.2c4.89-4.79,9.32-7.36,10.69-7.6.8-.17,3-.43,3-.43V98.48l-1.61.14c-4.51.36-8.17,3-13,7.64a35.76,35.76,0,0,0-4.4-4,16.76,16.76,0,0,0-10.25-3.67c-4.31,0-7.61,1.59-12.7,6.22-4.45-3.88-8.17-6.14-13.21-6.23h-.3c-.34,0-2.36-.08-2.36-.08v2.94s2,0,3,.12a24.92,24.92,0,0,1,10.73,5.29l-.32.32-.68.67q-.37.35-.73.73l-1.2,1.2-.21.22a18,18,0,0,0-7.51-3.53l-3-.15v2.6l1.69,0a4.75,4.75,0,0,1,.81,0c1.46,0,2.91.58,6,3.19-2.39,2.57-4.87,5.55-6.82,7.29-.42.37-.81.68-1.08,1a3.47,3.47,0,0,0-.63.6v1.26a1.16,1.16,0,0,0,0,.16c0,.22.1.17.27.32l2.66,2.51s0,0,0,0l.88,1,.86.93.88,1,1.1,1.2c2.26,2.48,4.67,5.07,7.24,7.75l1,1.05c.35.37.71.73,1.07,1.09l.06.07.63.64.59.59c.2.2.38.39.57.57s.36.36.53.53c.35.32.66.65,1,1,.16.15.32.29.47.44l.21.21.22.2.36.35.35.32.06,0,.29.25c3.24,2.91,5.11,3.88,7.26,3.88A10.3,10.3,0,0,0,41,145.52a31.12,31.12,0,0,0,2.88-2.77h0l.16-.19.9-1c.51-.56,1-1.12,1.52-1.7l.41-.47,3-3.39,0,0,.88-1c1.55-1.7,3.15-3.42,4.76-5.13a.74.74,0,0,1,1.07,0l1,1a.09.09,0,0,0,0,0l1,1.08a.74.74,0,0,1,0,1q-2.42,2.57-4.8,5.17l-1,1.17-1.34,1.49c-.44.5-.88,1-1.31,1.48l-.43.49-1.23,1.39-.61.7-.8.87c-4,4.22-7.74,7-12.71,7a11.25,11.25,0,0,1-6.62-2.16,33.9,33.9,0,0,1-4.32-3.5l-.19-.19-.27-.24-.28-.25c-.45-.43-.94-.88-1.46-1.41l-.54-.53c-.45-.44-.92-.92-1.43-1.43-.2-.2-.41-.39-.6-.6l-.59-.61-.59-.61-1-1c-2.6-2.71-5.05-5.38-7.68-8.24l-.09-.08-3-2.86v3.41s1.88,2.43,2,2.6l0,0c2.7,2.94,4.09,4.6,6.47,7.1-3.11,2.55-4.67,2.88-6,3.17a19.4,19.4,0,0,1-2.5.44v2.82l3-.3c1.89-.19,4.34-1.23,7.57-4h0l0,.06a1.07,1.07,0,0,1,.16.16c.29.28.56.56.81.82l.76.75.71.71.34.32.15.16a2.15,2.15,0,0,1,.16.16c-4.33,3.75-7.19,5.49-10.72,5.64l-3,.07v2.57l1.37,0a12.06,12.06,0,0,0,1.32,0c5-.09,8.72-2.34,13.16-6.22a38,38,0,0,0,4.46,3.57,14.17,14.17,0,0,0,8.26,2.66c6.22,0,10.75-3.57,14.66-7.7a44.19,44.19,0,0,0,6,5,14.39,14.39,0,0,0,7,2.61l1.6.13v-2.55l-3-.5a14.28,14.28,0,0,1-4-2.16,41.16,41.16,0,0,1-5.67-4.77l.93-1,.42-.48c.53-.61,1.07-1.2,1.61-1.82,3.07,3,5.06,4.53,6.73,5.26l3,.74v-3l-1.15-.27c-1.33-.31-3.28-1.77-6.57-5,1.7-1.88,3.44-3.75,5.19-5.61l.06,0,.12-.12c.36-.35,1.32-1.3,2.35-2.14V129c-.5-.47-.59-.5-.86-.44-.54.13-1.15,1.1-1.67,1.36-.13.06-.57-.21-.85-.41l-.22-.16a12.69,12.69,0,0,1-1.11-1.23,2.45,2.45,0,0,0-.17-.17,0,0,0,0,0,0,0c-.63-.64-1.09-1.14-1.69-1.77l-.54-.57c-2-2.09-3.94-4.18-5.82-6.26l.59-.63c.52-.54,1.05-1.08,1.59-1.62.31-.32.63-.65.94-1,2.05,2.26,5.49,5.91,6.6,7a1.58,1.58,0,0,0,2.05.29c.41-.23.71-.85,1.17-.85v-1.62c-1.55.42-5.46-4.16-7.74-6.89a40.37,40.37,0,0,1,4.39-3.83,6.28,6.28,0,0,1,2.2-1.15l1.15-.15v-2.6a24,24,0,0,0-3,.5,5.79,5.79,0,0,0-2.11,1,43.11,43.11,0,0,0-4.62,4l-.65.63-.46.45c-.64.63-1.32,1.32-2.06,2.09-1.09,1.1-2.14,2.19-3.16,3.28-.32.34-.64.66-.94,1-1.89,2-3.67,3.94-5.27,5.69-.46-.51-.93-1-1.4-1.52s-1.08-1.18-1.62-1.78c1.81-2,3.53-3.83,5.33-5.74C44.19,115.5,44.56,115.12,44.94,114.73ZM21.92,135c-2.6-2.71-5-5.36-7.33-7.87,2.29-2.51,4.74-5.16,7.33-7.88,2.82,2.83,5.34,5.5,7.53,7.87C27.26,129.5,24.75,132.19,21.92,135Zm5.21,5.27-.67-.66-1.53-1.52c-.27-.29-.56-.57-.86-.87h0l-.08-.08c2.79-2.8,5.29-5.46,7.47-7.81l1.92,2.11.67.74c.14.14.28.29.41.44C31.8,135.51,29.43,138,27.13,140.28Zm12,2.94a7.54,7.54,0,0,1-4.65,2.1c-.94,0-2-.25-5.16-3,2.24-2.26,4.56-4.69,7.17-7.5,1.81,2,3.53,3.86,5.35,5.77A27.73,27.73,0,0,1,39.11,143.23Zm9.67-21.78q2.57,2.83,5.29,5.69c-1.81,1.9-3.58,3.81-5.29,5.69-1.88-2-3.66-3.94-5.26-5.69C45.13,125.38,46.91,123.44,48.79,121.45Zm-9.25,5.72.88,1,1.1,1.19c1.6,1.76,3.38,3.71,5.27,5.7l-1.08,1.2c-.17.2-.35.41-.53.6s-.17.2-.27.3l-.25.3-.23.24-.2.23-.39.46c-1.8-1.9-3.53-3.77-5.35-5.75l-1.33-1.48c-.31-.32-.6-.66-.9-1l-.66-.73-1.52-1.67-1.52-1.65c-.15-.16-.3-.34-.46-.5l-.46-.52-.16-.17c-2.18-2.35-4.68-5-7.47-7.81a.27.27,0,0,1,.08-.08c1.19-1.22,2.19-2.21,3.06-3.06,2.55,2.55,5.2,5.33,8.26,8.65Zm-3.06-7.72c-2.61-2.8-4.92-5.23-7.17-7.48a24.26,24.26,0,0,1,2.18-1.77c1.58-1.14,2.34-1.24,3-1.24,2.35,0,4.68,1.85,7.37,4.73C40,115.59,38.29,117.47,36.48,119.45Zm-2-13.46a7.72,7.72,0,0,0-4.72,1.8,32.67,32.67,0,0,0-2.55,2.09l-.54.49-.51.47-.9.86-1,.95c-.7.7-1.47,1.46-2.34,2.35-.37.37-.74.75-1.1,1.14l-1,1.05c-2.57,2.68-5,5.28-7.24,7.75l-3-3.29c2.4-2.62,4.66-5.06,7-7.54l1-1,1.19-1.22.59-.61.57-.57c.19-.19.36-.37.53-.53l.52-.51.72-.71.66-.64c.14-.15.29-.28.43-.41l.46-.44c4.8-4.45,7.57-5.9,11.2-5.9a13.91,13.91,0,0,1,8.48,3.08A34.5,34.5,0,0,1,47,108.34l-1.43,1.43c-.58.6-1.15,1.17-1.69,1.76C41.14,108.58,38.13,106,34.47,106Z"/><path class="cls-1" d="M160.8,114.73h0c.9-.94,1.83-1.9,2.78-2.86l1.19-1.22,1.19-1.2c4.89-4.79,9.32-7.36,10.69-7.6.8-.17,3-.43,3-.43V98.48l-1.61.14c-4.51.36-8.17,3-13,7.64a35.76,35.76,0,0,0-4.4-4,16.76,16.76,0,0,0-10.25-3.67c-4.31,0-7.61,1.59-12.7,6.22-4.45-3.88-8.17-6.14-13.21-6.23h-.3c-.34,0-2.36-.08-2.36-.08v2.94s2,0,3,.12a24.92,24.92,0,0,1,10.73,5.29l-.32.32-.68.67q-.37.35-.73.73l-1.2,1.2-.21.22a18,18,0,0,0-7.51-3.53l-3-.15v2.6l1.69,0a4.75,4.75,0,0,1,.81,0c1.46,0,2.91.58,6,3.19-2.39,2.57-4.87,5.55-6.82,7.29-.42.37-.81.68-1.08,1a3.47,3.47,0,0,0-.63.6v1.26a1.16,1.16,0,0,0,0,.16c0,.22.1.17.27.32l2.66,2.51a0,0,0,0,1,0,0c.31.32.6.65.89,1l.86.93.88,1,1.1,1.2c2.26,2.48,4.67,5.07,7.24,7.75l1,1.05c.35.37.71.73,1.07,1.09l.06.07.63.64.59.59c.2.2.38.39.57.57s.36.36.53.53c.35.32.66.65,1,1,.16.15.32.29.47.44l.21.21.22.2.36.35.35.32.06,0,.29.25c3.24,2.91,5.11,3.88,7.26,3.88a10.3,10.3,0,0,0,6.53-2.77,31.12,31.12,0,0,0,2.88-2.77h0l.16-.19.9-1c.51-.56,1-1.12,1.52-1.7l.41-.47,3-3.39,0,0,.88-1c1.55-1.7,3.15-3.42,4.76-5.13a.74.74,0,0,1,1.07,0l1,1s0,0,0,0l1,1.07a.74.74,0,0,1,0,1q-2.42,2.57-4.8,5.17l-1,1.17-1.34,1.49c-.44.5-.88,1-1.31,1.48l-.43.49-1.23,1.39-.61.7-.8.87c-4,4.22-7.74,7-12.71,7a11.25,11.25,0,0,1-6.62-2.16,33.9,33.9,0,0,1-4.32-3.5l-.19-.19-.27-.24-.28-.25c-.45-.43-.94-.88-1.46-1.41l-.54-.53c-.45-.44-.92-.92-1.43-1.43-.2-.2-.41-.39-.6-.6l-.59-.61-.59-.61-1-1c-2.6-2.71-5.05-5.38-7.68-8.24l-.09-.08-3-2.86v3.41s1.88,2.43,2,2.6l0,0c2.7,2.94,4.09,4.6,6.47,7.1-3.11,2.55-4.67,2.88-6,3.17a19.4,19.4,0,0,1-2.5.44v2.82l3-.3c1.89-.19,4.34-1.23,7.57-4h0l0,.06a1.07,1.07,0,0,1,.16.16c.29.28.56.56.81.82l.76.75.71.71.34.32.15.16a2.15,2.15,0,0,1,.16.16c-4.33,3.75-7.19,5.49-10.72,5.64l-3,.07v2.57l1.37,0a12.06,12.06,0,0,0,1.32,0c5-.09,8.72-2.34,13.16-6.22a38,38,0,0,0,4.46,3.57,14.17,14.17,0,0,0,8.26,2.66c6.22,0,10.75-3.57,14.66-7.7a44.19,44.19,0,0,0,6,5,14.39,14.39,0,0,0,7,2.61l1.6.13v-2.55l-3-.5a14.28,14.28,0,0,1-4-2.16,41.16,41.16,0,0,1-5.67-4.77l.93-1,.42-.48c.53-.61,1.07-1.2,1.61-1.82,3.07,3,5.06,4.53,6.73,5.26l3,.74v-3l-1.15-.27c-1.33-.31-3.28-1.77-6.57-5,1.7-1.88,3.44-3.75,5.19-5.61l.06,0,.12-.12c.36-.35,1.32-1.3,2.35-2.14V129c-.5-.47-.59-.5-.86-.44-.54.13-1.15,1.1-1.67,1.36-.13.06-.57-.21-.85-.41l-.22-.16a12.69,12.69,0,0,1-1.11-1.23,2.45,2.45,0,0,0-.17-.17,0,0,0,0,0,0,0c-.63-.64-1.09-1.14-1.69-1.77l-.54-.57c-2-2.09-3.94-4.18-5.82-6.26l.59-.63c.52-.54,1.05-1.08,1.59-1.62.31-.32.63-.65.94-1,2.05,2.26,5.49,5.91,6.6,7a1.58,1.58,0,0,0,2.05.29c.41-.23.71-.85,1.17-.85v-1.62c-1.55.42-5.46-4.16-7.74-6.89a40.37,40.37,0,0,1,4.39-3.83,6.28,6.28,0,0,1,2.2-1.15l1.15-.15v-2.6a24,24,0,0,0-3,.5,5.79,5.79,0,0,0-2.11,1,43.11,43.11,0,0,0-4.62,4l-.65.63-.46.45c-.64.63-1.32,1.32-2.06,2.09-1.09,1.1-2.14,2.19-3.16,3.28-.32.34-.64.66-.94,1-1.89,2-3.67,3.94-5.27,5.69-.46-.51-.93-1-1.4-1.52s-1.08-1.18-1.62-1.78c1.81-2,3.53-3.83,5.33-5.74C160,115.5,160.42,115.12,160.8,114.73Zm-23,20.29c-2.6-2.71-5-5.36-7.33-7.87,2.29-2.51,4.74-5.16,7.33-7.88,2.82,2.83,5.34,5.5,7.53,7.87C143.12,129.5,140.61,132.19,137.78,135Zm5.21,5.27-.67-.66-1.53-1.52c-.27-.29-.56-.57-.86-.87h0l-.08-.08c2.79-2.8,5.29-5.46,7.47-7.81l1.92,2.11.67.74c.14.14.28.29.41.44C147.66,135.51,145.29,138,143,140.28Zm12,2.94a7.54,7.54,0,0,1-4.65,2.1c-.94,0-2-.25-5.16-3,2.24-2.26,4.56-4.69,7.17-7.5,1.81,2,3.53,3.86,5.35,5.77A27.73,27.73,0,0,1,155,143.23Zm9.67-21.78q2.57,2.83,5.29,5.69c-1.81,1.9-3.58,3.81-5.29,5.69-1.88-2-3.66-3.94-5.26-5.69C161,125.38,162.77,123.44,164.65,121.45Zm-9.25,5.72.88,1,1.1,1.19c1.6,1.76,3.38,3.71,5.27,5.7l-1.08,1.2c-.17.2-.35.41-.53.6s-.17.2-.27.3l-.25.3-.23.24-.2.23-.39.46c-1.8-1.9-3.53-3.77-5.35-5.75L153,131.15c-.31-.32-.6-.66-.9-1l-.66-.73-1.52-1.67-1.52-1.65c-.15-.16-.3-.34-.46-.5l-.46-.52-.16-.17c-2.18-2.35-4.68-5-7.47-7.81a.27.27,0,0,1,.08-.08c1.19-1.22,2.19-2.21,3.06-3.06,2.55,2.55,5.2,5.33,8.26,8.65Zm-3.06-7.72c-2.61-2.8-4.92-5.23-7.17-7.48a24.26,24.26,0,0,1,2.18-1.77c1.58-1.14,2.34-1.24,3-1.24,2.35,0,4.68,1.85,7.37,4.73C155.88,115.59,154.15,117.47,152.34,119.45Zm-2-13.46a7.72,7.72,0,0,0-4.72,1.8,32.67,32.67,0,0,0-2.55,2.09l-.54.49-.51.47-.9.86-1,.95c-.7.7-1.47,1.46-2.34,2.35-.37.37-.74.75-1.1,1.14l-1,1.05c-2.57,2.68-5,5.28-7.24,7.75l-3-3.29c2.4-2.62,4.66-5.06,7-7.54l1-1,1.19-1.22.59-.61.57-.57c.19-.19.36-.37.53-.53l.52-.51.72-.71.66-.64c.14-.15.29-.28.43-.41l.46-.44c4.8-4.45,7.57-5.9,11.2-5.9a13.91,13.91,0,0,1,8.48,3.08,34.5,34.5,0,0,1,4.07,3.72l-1.43,1.43c-.58.6-1.15,1.17-1.69,1.76C157,108.58,154,106,150.33,106Z"/><path class="cls-1" d="M218.73,114.73h0c.9-.94,1.83-1.9,2.78-2.86l1.19-1.22,1.19-1.2c4.89-4.79,9.32-7.36,10.69-7.6.8-.17,3-.43,3-.43V98.48l-1.61.14c-4.51.36-8.17,3-13,7.64a35.76,35.76,0,0,0-4.4-4,16.76,16.76,0,0,0-10.25-3.67c-4.31,0-7.61,1.59-12.7,6.22-4.45-3.88-8.17-6.14-13.21-6.23h-.3c-.34,0-2.36-.08-2.36-.08v2.94s2,0,3,.12a24.92,24.92,0,0,1,10.73,5.29l-.32.32-.68.67q-.36.35-.73.73l-1.2,1.2-.21.22a18,18,0,0,0-7.51-3.53l-3-.15v2.6l1.69,0a4.75,4.75,0,0,1,.81,0c1.46,0,2.91.58,6,3.19-2.39,2.57-4.87,5.55-6.82,7.29-.42.37-.81.68-1.08,1a3.47,3.47,0,0,0-.63.6v1.26a1.16,1.16,0,0,0,0,.16c0,.22.1.17.27.32l2.66,2.51s0,0,0,0l.88,1,.86.93.88,1,1.1,1.2c2.26,2.48,4.67,5.07,7.24,7.75l1,1.05c.35.37.71.73,1.07,1.09l.06.07.63.64.59.59c.2.2.38.39.57.57s.36.36.53.53c.35.32.66.65,1,1,.16.15.32.29.47.44l.21.21.22.2.36.35.35.32.06,0,.29.25c3.24,2.91,5.11,3.88,7.26,3.88a10.3,10.3,0,0,0,6.53-2.77,31.12,31.12,0,0,0,2.88-2.77h0l.16-.19.9-1c.51-.56,1-1.12,1.52-1.7l.41-.47,3-3.39,0,0,.88-1c1.55-1.7,3.15-3.42,4.76-5.13a.74.74,0,0,1,1.07,0l1,1s0,0,0,0l1,1.07a.74.74,0,0,1,0,1q-2.42,2.57-4.8,5.17l-1,1.17-1.34,1.49c-.44.5-.88,1-1.31,1.48l-.43.49-1.23,1.39-.61.7-.8.87c-4,4.22-7.74,7-12.71,7a11.25,11.25,0,0,1-6.62-2.16,33.9,33.9,0,0,1-4.32-3.5l-.19-.19-.27-.24-.28-.25c-.45-.43-.94-.88-1.46-1.41l-.54-.53c-.45-.44-.92-.92-1.43-1.43-.2-.2-.41-.39-.6-.6l-.59-.61-.59-.61-1-1c-2.6-2.71-5.05-5.38-7.68-8.24l-.09-.08-3-2.86v3.41s1.88,2.43,2,2.6l0,0c2.7,2.94,4.09,4.6,6.47,7.1-3.11,2.55-4.67,2.88-6,3.17a19.4,19.4,0,0,1-2.5.44v2.82l3-.3c1.89-.19,4.34-1.23,7.57-4h0l0,.06a1.07,1.07,0,0,1,.16.16c.29.28.56.56.81.82l.76.75.71.71.34.32.15.16a2.15,2.15,0,0,1,.16.16c-4.33,3.75-7.19,5.49-10.72,5.64l-3,.07v2.57l1.37,0a12.06,12.06,0,0,0,1.32,0c5-.09,8.72-2.34,13.16-6.22a38,38,0,0,0,4.46,3.57,14.17,14.17,0,0,0,8.26,2.66c6.22,0,10.75-3.57,14.66-7.7a44.19,44.19,0,0,0,6,5,14.39,14.39,0,0,0,7,2.61l1.6.13v-2.55l-3-.5a14.28,14.28,0,0,1-4-2.16,41.16,41.16,0,0,1-5.67-4.77l.93-1,.42-.48c.53-.61,1.07-1.2,1.61-1.82,3.07,3,5.06,4.53,6.73,5.26l3,.74v-3l-1.15-.27c-1.33-.31-3.28-1.77-6.57-5,1.7-1.88,3.44-3.75,5.19-5.61l.06,0,.12-.12c.36-.35,1.32-1.3,2.35-2.14V129c-.5-.47-.59-.5-.86-.44-.54.13-1.15,1.1-1.67,1.36-.13.06-.57-.21-.85-.41l-.22-.16a12.69,12.69,0,0,1-1.11-1.23,2.45,2.45,0,0,0-.17-.17,0,0,0,0,0,0,0c-.63-.64-1.09-1.14-1.69-1.77l-.54-.57c-2-2.09-3.94-4.18-5.82-6.26l.59-.63c.52-.54,1.05-1.08,1.59-1.62.31-.32.63-.65.94-1,2.05,2.26,5.49,5.91,6.6,7a1.58,1.58,0,0,0,2.05.29c.41-.23.71-.85,1.17-.85v-1.62c-1.55.42-5.46-4.16-7.74-6.89a40.37,40.37,0,0,1,4.39-3.83,6.28,6.28,0,0,1,2.2-1.15l1.15-.15v-2.6a24,24,0,0,0-3,.5,5.79,5.79,0,0,0-2.11,1,43.11,43.11,0,0,0-4.62,4l-.65.63-.46.45c-.64.63-1.32,1.32-2.06,2.09-1.09,1.1-2.14,2.19-3.16,3.28-.32.34-.64.66-.94,1-1.89,2-3.67,3.94-5.27,5.69-.46-.51-.93-1-1.4-1.52s-1.08-1.18-1.62-1.78c1.81-2,3.53-3.83,5.33-5.74C218,115.5,218.35,115.12,218.73,114.73Zm-23,20.29c-2.6-2.71-5-5.36-7.33-7.87,2.29-2.51,4.74-5.16,7.33-7.88,2.82,2.83,5.34,5.5,7.53,7.87C201.05,129.5,198.54,132.19,195.71,135Zm5.21,5.27-.67-.66-1.53-1.52c-.27-.29-.56-.57-.86-.87h0l-.08-.08c2.79-2.8,5.29-5.46,7.47-7.81l1.92,2.11.67.74c.14.14.28.29.41.44C205.59,135.51,203.22,138,200.93,140.28Zm12,2.94a7.54,7.54,0,0,1-4.65,2.1c-.94,0-2-.25-5.16-3,2.24-2.26,4.56-4.69,7.17-7.5,1.81,2,3.53,3.86,5.35,5.77A27.73,27.73,0,0,1,212.91,143.23Zm9.67-21.78q2.57,2.83,5.29,5.69c-1.81,1.9-3.58,3.81-5.29,5.69-1.88-2-3.66-3.94-5.26-5.69C218.92,125.38,220.7,123.44,222.58,121.45Zm-9.25,5.72.88,1,1.1,1.19c1.6,1.76,3.38,3.71,5.27,5.7l-1.08,1.2c-.17.2-.35.41-.53.6s-.17.2-.27.3l-.25.3-.23.24-.2.23-.39.46c-1.8-1.9-3.53-3.77-5.35-5.75l-1.33-1.48c-.31-.32-.6-.66-.9-1l-.66-.73-1.52-1.67-1.52-1.65c-.15-.16-.3-.34-.46-.5l-.46-.52-.16-.17c-2.18-2.35-4.68-5-7.47-7.81a.27.27,0,0,1,.08-.08c1.19-1.22,2.19-2.21,3.06-3.06,2.55,2.55,5.2,5.33,8.26,8.65Zm-3.06-7.72c-2.61-2.8-4.92-5.23-7.17-7.48a24.26,24.26,0,0,1,2.18-1.77c1.58-1.14,2.34-1.24,3-1.24,2.35,0,4.68,1.85,7.37,4.73C213.81,115.59,212.08,117.47,210.28,119.45Zm-2-13.46a7.72,7.72,0,0,0-4.72,1.8,32.67,32.67,0,0,0-2.55,2.09l-.54.49-.51.47-.9.86-1,.95c-.7.7-1.47,1.46-2.34,2.35-.37.37-.74.75-1.1,1.14l-1,1.05c-2.57,2.68-5,5.28-7.24,7.75l-3-3.29c2.4-2.62,4.66-5.06,7-7.54l1-1,1.19-1.22.59-.61.57-.57c.19-.19.36-.37.53-.53l.52-.51.72-.71.66-.64c.14-.15.29-.28.43-.41l.46-.44c4.8-4.45,7.57-5.9,11.2-5.9a13.91,13.91,0,0,1,8.48,3.08,34.5,34.5,0,0,1,4.07,3.72l-1.43,1.43c-.58.6-1.15,1.17-1.69,1.76C214.93,108.58,211.92,106,208.26,106Z"/><path class="cls-1" d="M276.66,114.73h0c.9-.94,1.83-1.9,2.78-2.86l1.19-1.22,1.19-1.2c4.89-4.79,9.32-7.36,10.69-7.6.8-.17,3-.43,3-.43V98.48l-1.61.14c-4.51.36-8.17,3-13,7.64a35.76,35.76,0,0,0-4.4-4,16.76,16.76,0,0,0-10.25-3.67c-4.31,0-7.61,1.59-12.7,6.22-4.45-3.88-8.17-6.14-13.21-6.23H240c-.34,0-2.36-.08-2.36-.08v2.94s2,0,3,.12a24.92,24.92,0,0,1,10.73,5.29l-.32.32-.68.67q-.37.35-.73.73l-1.2,1.2-.21.22a18,18,0,0,0-7.51-3.53l-3-.15v2.6l1.69,0a4.75,4.75,0,0,1,.81,0c1.46,0,2.91.58,6,3.19-2.39,2.57-4.87,5.55-6.82,7.29-.42.37-.81.68-1.08,1a3.47,3.47,0,0,0-.63.6v1.26a1.16,1.16,0,0,0,0,.16c0,.22.1.17.27.32l2.66,2.51s0,0,0,0l.88,1,.86.93.88,1,1.1,1.2c2.26,2.48,4.67,5.07,7.24,7.75l1,1.05c.35.37.71.73,1.07,1.09l.06.07.63.64.59.59c.2.2.38.39.57.57s.36.36.53.53c.35.32.66.65,1,1,.16.15.32.29.47.44l.21.21.22.2.36.35.35.32.06,0,.29.25c3.24,2.91,5.11,3.88,7.26,3.88a10.3,10.3,0,0,0,6.53-2.77,31.12,31.12,0,0,0,2.88-2.77h0l.16-.19.9-1c.51-.56,1-1.12,1.52-1.7l.41-.47,3-3.39,0,0,.88-1c1.55-1.7,3.15-3.42,4.76-5.13a.74.74,0,0,1,1.07,0l1,1a.09.09,0,0,0,0,0l1,1.08a.74.74,0,0,1,0,1q-2.42,2.57-4.8,5.17l-1,1.17-1.34,1.49c-.44.5-.88,1-1.31,1.48l-.43.49-1.23,1.39-.61.7-.8.87c-4,4.22-7.74,7-12.71,7a11.25,11.25,0,0,1-6.62-2.16,33.9,33.9,0,0,1-4.32-3.5l-.19-.19-.27-.24-.28-.25c-.45-.43-.94-.88-1.46-1.41l-.54-.53c-.45-.44-.92-.92-1.43-1.43-.2-.2-.41-.39-.6-.6l-.59-.61-.59-.61-1-1c-2.6-2.71-5.05-5.38-7.68-8.24l-.09-.08-3-2.86v3.41s1.88,2.43,2,2.6l0,0c2.7,2.94,4.09,4.6,6.47,7.1-3.11,2.55-4.67,2.88-6,3.17a19.4,19.4,0,0,1-2.5.44v2.82l3-.3c1.89-.19,4.34-1.23,7.57-4h0l0,.06a1.07,1.07,0,0,1,.16.16c.29.28.56.56.81.82l.76.75.71.71.34.32.15.16a2.15,2.15,0,0,1,.16.16c-4.33,3.75-7.19,5.49-10.72,5.64l-3,.07v2.57l1.37,0a12.06,12.06,0,0,0,1.32,0c5-.09,8.72-2.34,13.16-6.22a38,38,0,0,0,4.46,3.57,14.17,14.17,0,0,0,8.26,2.66c6.22,0,10.75-3.57,14.66-7.7a44.19,44.19,0,0,0,6,5,14.39,14.39,0,0,0,7,2.61l1.6.13v-2.55l-3-.5a14.28,14.28,0,0,1-4-2.16,41.16,41.16,0,0,1-5.67-4.77l.93-1,.42-.48c.53-.61,1.07-1.2,1.61-1.82,3.07,3,5.06,4.53,6.73,5.26l3,.74v-3l-1.15-.27c-1.33-.31-3.28-1.77-6.57-5,1.7-1.88,3.44-3.75,5.19-5.61l.06,0,.12-.12c.36-.35,1.32-1.3,2.35-2.14V129c-.5-.47-.59-.5-.86-.44-.54.13-1.15,1.1-1.67,1.36-.13.06-.57-.21-.85-.41l-.22-.16a12.69,12.69,0,0,1-1.11-1.23,2.45,2.45,0,0,0-.17-.17,0,0,0,0,0,0,0c-.63-.64-1.09-1.14-1.69-1.77l-.54-.57c-2-2.09-3.94-4.18-5.82-6.26l.59-.63c.52-.54,1.05-1.08,1.59-1.62.31-.32.63-.65.94-1,2.05,2.26,5.49,5.91,6.6,7a1.58,1.58,0,0,0,2.05.29c.41-.23.71-.85,1.17-.85v-1.62c-1.55.42-5.46-4.16-7.74-6.89a40.37,40.37,0,0,1,4.39-3.83,6.28,6.28,0,0,1,2.2-1.15l1.15-.15v-2.6a24,24,0,0,0-3,.5,5.79,5.79,0,0,0-2.11,1,43.11,43.11,0,0,0-4.62,4l-.65.63-.46.45c-.64.63-1.32,1.32-2.06,2.09-1.09,1.1-2.14,2.19-3.16,3.28-.32.34-.64.66-.94,1-1.89,2-3.67,3.94-5.27,5.69-.46-.51-.93-1-1.4-1.52s-1.08-1.18-1.62-1.78c1.81-2,3.53-3.83,5.33-5.74C275.91,115.5,276.28,115.12,276.66,114.73Zm-23,20.29c-2.6-2.71-5-5.36-7.33-7.87,2.29-2.51,4.74-5.16,7.33-7.88,2.82,2.83,5.34,5.5,7.53,7.87C259,129.5,256.47,132.19,253.64,135Zm5.21,5.27-.67-.66-1.53-1.52c-.27-.29-.56-.57-.86-.87h0l-.08-.08c2.79-2.8,5.29-5.46,7.47-7.81l1.92,2.11.67.74c.14.14.28.29.41.44C263.52,135.51,261.15,138,258.86,140.28Zm12,2.94a7.54,7.54,0,0,1-4.65,2.1c-.94,0-2-.25-5.16-3,2.24-2.26,4.56-4.69,7.17-7.5,1.81,2,3.53,3.86,5.35,5.77A27.73,27.73,0,0,1,270.84,143.23Zm9.67-21.78q2.57,2.83,5.29,5.69c-1.81,1.9-3.58,3.81-5.29,5.69-1.88-2-3.66-3.94-5.26-5.69C276.85,125.38,278.63,123.44,280.51,121.45Zm-9.25,5.72.88,1,1.1,1.19c1.6,1.76,3.38,3.71,5.27,5.7l-1.08,1.2c-.17.2-.35.41-.53.6s-.17.2-.27.3l-.25.3-.23.24-.2.23-.39.46c-1.8-1.9-3.53-3.77-5.35-5.75l-1.33-1.48c-.31-.32-.6-.66-.9-1l-.66-.73-1.52-1.67-1.52-1.65c-.15-.16-.3-.34-.46-.5l-.46-.52-.16-.17c-2.18-2.35-4.68-5-7.47-7.81a.27.27,0,0,1,.08-.08c1.19-1.22,2.19-2.21,3.06-3.06,2.55,2.55,5.2,5.33,8.26,8.65Zm-3.06-7.72c-2.61-2.8-4.92-5.23-7.17-7.48a24.26,24.26,0,0,1,2.18-1.77c1.58-1.14,2.34-1.24,3-1.24,2.35,0,4.68,1.85,7.37,4.73C271.74,115.59,270,117.47,268.21,119.45Zm-2-13.46a7.72,7.72,0,0,0-4.72,1.8,32.67,32.67,0,0,0-2.55,2.09l-.54.49-.51.47-.9.86-1,.95c-.7.7-1.47,1.46-2.34,2.35-.37.37-.74.75-1.1,1.14l-1,1.05c-2.57,2.68-5,5.28-7.24,7.75l-3-3.29c2.4-2.62,4.66-5.06,7-7.54l1-1,1.19-1.22.59-.61.57-.57c.19-.19.36-.37.53-.53l.52-.51.72-.71.66-.64c.14-.15.29-.28.43-.41l.46-.44c4.8-4.45,7.57-5.9,11.2-5.9a13.91,13.91,0,0,1,8.48,3.08,34.5,34.5,0,0,1,4.07,3.72l-1.43,1.43c-.58.6-1.15,1.17-1.69,1.76C272.86,108.58,269.85,106,266.19,106Z"/><path class="cls-1" d="M334.59,114.73h0c.9-.94,1.83-1.9,2.78-2.86l1.19-1.22,1.19-1.2c4.89-4.79,9.32-7.36,10.69-7.6.8-.17,3-.43,3-.43V98.48l-1.61.14c-4.51.36-8.17,3-13,7.64a35.76,35.76,0,0,0-4.4-4,16.76,16.76,0,0,0-10.25-3.67c-4.31,0-7.61,1.59-12.7,6.22-4.45-3.88-8.17-6.14-13.21-6.23h-.3c-.34,0-2.36-.08-2.36-.08v2.94s2,0,3,.12a24.92,24.92,0,0,1,10.73,5.29l-.32.32-.68.67q-.37.35-.73.73l-1.2,1.2-.21.22a18,18,0,0,0-7.51-3.53l-3-.15v2.6l1.69,0a4.75,4.75,0,0,1,.81,0c1.46,0,2.91.58,6,3.19-2.39,2.57-4.87,5.55-6.82,7.29-.42.37-.81.68-1.08,1a3.47,3.47,0,0,0-.63.6v1.26a1.16,1.16,0,0,0,0,.16c0,.22.1.17.27.32l2.66,2.51s0,0,0,0l.88,1,.86.93.88,1,1.1,1.2c2.26,2.48,4.67,5.07,7.24,7.75l1,1.05c.35.37.71.73,1.07,1.09l.06.07.63.64.59.59c.2.2.38.39.57.57s.36.36.53.53c.35.32.66.65,1,1,.16.15.32.29.47.44l.21.21.22.2.36.35.35.32.06,0,.29.25c3.24,2.91,5.11,3.88,7.26,3.88a10.3,10.3,0,0,0,6.53-2.77,31.12,31.12,0,0,0,2.88-2.77h0l.16-.19.9-1c.51-.56,1-1.12,1.52-1.7l.41-.47,3-3.39,0,0,.88-1c1.55-1.7,3.15-3.42,4.76-5.13a.74.74,0,0,1,1.07,0l1,1s0,0,0,0l1,1.07a.74.74,0,0,1,0,1q-2.42,2.57-4.8,5.17l-1,1.17-1.34,1.49c-.44.5-.88,1-1.31,1.48l-.43.49-1.23,1.39-.61.7-.8.87c-4,4.22-7.74,7-12.71,7a11.25,11.25,0,0,1-6.62-2.16,33.9,33.9,0,0,1-4.32-3.5l-.19-.19-.27-.24-.28-.25c-.45-.43-.94-.88-1.46-1.41l-.54-.53c-.45-.44-.92-.92-1.43-1.43-.2-.2-.41-.39-.6-.6l-.59-.61-.59-.61-1-1c-2.6-2.71-5.05-5.38-7.68-8.24l-.09-.08-3-2.86v3.41s1.88,2.43,2,2.6l0,0c2.7,2.94,4.09,4.6,6.47,7.1-3.11,2.55-4.67,2.88-6,3.17a19.4,19.4,0,0,1-2.5.44v2.82l3-.3c1.89-.19,4.34-1.23,7.57-4h0l0,.06a1.07,1.07,0,0,1,.16.16c.29.28.56.56.81.82l.76.75.71.71.34.32.15.16a2.15,2.15,0,0,1,.16.16c-4.33,3.75-7.19,5.49-10.72,5.64l-3,.07v2.57l1.37,0a12.06,12.06,0,0,0,1.32,0c5-.09,8.72-2.34,13.16-6.22a38,38,0,0,0,4.46,3.57,14.17,14.17,0,0,0,8.26,2.66c6.22,0,10.75-3.57,14.66-7.7a44.19,44.19,0,0,0,6,5,14.39,14.39,0,0,0,7,2.61l1.6.13v-2.55l-3-.5a14.28,14.28,0,0,1-4-2.16,41.16,41.16,0,0,1-5.67-4.77l.93-1,.42-.48c.53-.61,1.07-1.2,1.61-1.82,3.07,3,5.06,4.53,6.73,5.26l3,.74v-3l-1.15-.27c-1.33-.31-3.28-1.77-6.57-5,1.7-1.88,3.44-3.75,5.19-5.61l.06,0,.12-.12c.36-.35,1.32-1.3,2.35-2.14V129c-.5-.47-.59-.5-.86-.44-.54.13-1.15,1.1-1.67,1.36-.13.06-.57-.21-.85-.41l-.22-.16a12.69,12.69,0,0,1-1.11-1.23,2.45,2.45,0,0,0-.17-.17,0,0,0,0,0,0,0c-.63-.64-1.09-1.14-1.69-1.77l-.54-.57c-2-2.09-3.94-4.18-5.82-6.26l.59-.63c.52-.54,1.05-1.08,1.59-1.62.31-.32.63-.65.94-1,2.05,2.26,5.49,5.91,6.6,7a1.58,1.58,0,0,0,2.05.29c.41-.23.71-.85,1.17-.85v-1.62c-1.55.42-5.46-4.16-7.74-6.89a40.37,40.37,0,0,1,4.39-3.83,6.28,6.28,0,0,1,2.2-1.15l1.15-.15v-2.6a24,24,0,0,0-3,.5,5.79,5.79,0,0,0-2.11,1,43.11,43.11,0,0,0-4.62,4l-.65.63-.46.45c-.64.63-1.32,1.32-2.06,2.09-1.09,1.1-2.14,2.19-3.16,3.28-.32.34-.64.66-.94,1-1.89,2-3.67,3.94-5.27,5.69-.46-.51-.93-1-1.4-1.52s-1.08-1.18-1.62-1.78c1.81-2,3.53-3.83,5.33-5.74C333.84,115.5,334.21,115.12,334.59,114.73Zm-23,20.29c-2.6-2.71-5-5.36-7.33-7.87,2.29-2.51,4.74-5.16,7.33-7.88,2.82,2.83,5.34,5.5,7.53,7.87C316.91,129.5,314.4,132.19,311.57,135Zm5.21,5.27-.67-.66-1.53-1.52c-.27-.29-.56-.57-.86-.87h0l-.08-.08c2.79-2.8,5.29-5.46,7.47-7.81l1.92,2.11.67.74c.14.14.28.29.41.44C321.46,135.51,319.08,138,316.79,140.28Zm12,2.94a7.54,7.54,0,0,1-4.65,2.1c-.94,0-2-.25-5.16-3,2.24-2.26,4.56-4.69,7.17-7.5,1.81,2,3.53,3.86,5.35,5.77A27.73,27.73,0,0,1,328.77,143.23Zm9.67-21.78q2.57,2.83,5.29,5.69c-1.81,1.9-3.58,3.81-5.29,5.69-1.88-2-3.66-3.94-5.26-5.69C334.78,125.38,336.56,123.44,338.44,121.45Zm-9.25,5.72.88,1,1.1,1.19c1.6,1.76,3.38,3.71,5.27,5.7l-1.08,1.2c-.17.2-.35.41-.53.6s-.17.2-.27.3l-.25.3-.23.24-.2.23-.39.46c-1.8-1.9-3.53-3.77-5.35-5.75l-1.33-1.48c-.31-.32-.6-.66-.9-1l-.66-.73-1.52-1.67-1.52-1.65c-.15-.16-.3-.34-.46-.5l-.46-.52-.16-.17c-2.18-2.35-4.68-5-7.47-7.81a.27.27,0,0,1,.08-.08c1.19-1.22,2.19-2.21,3.06-3.06,2.55,2.55,5.2,5.33,8.26,8.65Zm-3.06-7.72c-2.61-2.8-4.92-5.23-7.17-7.48a24.26,24.26,0,0,1,2.18-1.77c1.58-1.14,2.34-1.24,3-1.24,2.35,0,4.68,1.85,7.37,4.73C329.67,115.59,327.94,117.47,326.14,119.45Zm-2-13.46a7.72,7.72,0,0,0-4.72,1.8,32.67,32.67,0,0,0-2.55,2.09l-.54.49-.51.47-.9.86-1,.95c-.7.7-1.47,1.46-2.34,2.35-.37.37-.74.75-1.1,1.14l-1,1.05c-2.57,2.68-5,5.28-7.24,7.75l-3-3.29c2.4-2.62,4.66-5.06,7-7.54l1-1,1.19-1.22.59-.61.57-.57c.19-.19.36-.37.53-.53l.52-.51.72-.71.66-.64c.14-.15.29-.28.43-.41l.46-.44c4.8-4.45,7.57-5.9,11.2-5.9a13.91,13.91,0,0,1,8.48,3.08,34.5,34.5,0,0,1,4.07,3.72l-1.43,1.43c-.58.6-1.15,1.17-1.69,1.76C330.79,108.58,327.78,106,324.12,106Z"/><path class="cls-1" d="M392.52,114.73h0c.9-.94,1.83-1.9,2.78-2.86l1.19-1.22,1.19-1.2c4.89-4.79,9.32-7.36,10.69-7.6.8-.17,3-.43,3-.43V98.48l-1.61.14c-4.51.36-8.17,3-13,7.64a35.76,35.76,0,0,0-4.4-4,16.76,16.76,0,0,0-10.25-3.67c-4.31,0-7.61,1.59-12.7,6.22-4.45-3.88-8.17-6.14-13.21-6.23h-.3c-.34,0-2.36-.08-2.36-.08v2.94s2,0,3,.12a24.92,24.92,0,0,1,10.73,5.29l-.32.32-.68.67q-.37.35-.73.73l-1.2,1.2L364,110a18,18,0,0,0-7.51-3.53l-3-.15v2.6l1.69,0a4.75,4.75,0,0,1,.81,0c1.46,0,2.91.58,6,3.19-2.39,2.57-4.87,5.55-6.82,7.29-.42.37-.81.68-1.08,1a3.47,3.47,0,0,0-.63.6v1.26a1.16,1.16,0,0,0,0,.16c0,.22.1.17.27.32l2.66,2.51a0,0,0,0,1,0,0c.31.32.6.65.89,1l.86.93.88,1,1.1,1.2c2.26,2.48,4.67,5.07,7.24,7.75l1,1.05c.35.37.71.73,1.07,1.09l.06.07.63.64.59.59c.2.2.38.39.57.57s.36.36.53.53c.35.32.66.65,1,1,.16.15.32.29.47.44l.21.21.22.2.36.35.35.32.06,0,.29.25c3.24,2.91,5.11,3.88,7.26,3.88a10.3,10.3,0,0,0,6.53-2.77,31.12,31.12,0,0,0,2.88-2.77h0l.16-.19.9-1c.51-.56,1-1.12,1.52-1.7l.41-.47,3-3.39,0,0,.88-1c1.55-1.7,3.15-3.42,4.76-5.13a.74.74,0,0,1,1.07,0l1,1s0,0,0,0l1,1.07a.74.74,0,0,1,0,1q-2.42,2.57-4.8,5.17l-1,1.17-1.34,1.49c-.44.5-.88,1-1.31,1.48l-.43.49-1.23,1.39-.61.7-.8.87c-4,4.22-7.74,7-12.71,7a11.25,11.25,0,0,1-6.62-2.16,33.9,33.9,0,0,1-4.32-3.5l-.19-.19-.27-.24-.28-.25c-.45-.43-.94-.88-1.46-1.41l-.54-.53c-.45-.44-.92-.92-1.43-1.43-.2-.2-.41-.39-.6-.6l-.59-.61-.59-.61-1-1c-2.6-2.71-5.05-5.38-7.68-8.24l-.09-.08-3-2.86v3.41s1.88,2.43,2,2.6l0,0c2.7,2.94,4.09,4.6,6.47,7.1-3.11,2.55-4.67,2.88-6,3.17a19.4,19.4,0,0,1-2.5.44v2.82l3-.3c1.89-.19,4.34-1.23,7.57-4h0l0,.06a1.07,1.07,0,0,1,.16.16c.29.28.56.56.81.82l.76.75.71.71.34.32.15.16a2.15,2.15,0,0,1,.16.16c-4.33,3.75-7.19,5.49-10.72,5.64l-3,.07v2.57l1.37,0a12.06,12.06,0,0,0,1.32,0c5-.09,8.72-2.34,13.16-6.22a38,38,0,0,0,4.46,3.57,14.17,14.17,0,0,0,8.26,2.66c6.22,0,10.75-3.57,14.66-7.7a44.19,44.19,0,0,0,6,5,14.39,14.39,0,0,0,7,2.61l1.6.13v-2.55l-3-.5a14.28,14.28,0,0,1-4-2.16,41.16,41.16,0,0,1-5.67-4.77l.93-1,.42-.48c.53-.61,1.07-1.2,1.61-1.82,3.07,3,5.06,4.53,6.73,5.26l3,.74v-3l-1.15-.27c-1.33-.31-3.28-1.77-6.57-5,1.7-1.88,3.44-3.75,5.19-5.61l.06,0,.12-.12c.36-.35,1.32-1.3,2.35-2.14V129c-.5-.47-.59-.5-.86-.44-.54.13-1.15,1.1-1.67,1.36-.13.06-.57-.21-.85-.41l-.22-.16a12.69,12.69,0,0,1-1.11-1.23,2.45,2.45,0,0,0-.17-.17,0,0,0,0,0,0,0c-.63-.64-1.09-1.14-1.69-1.77l-.54-.57c-2-2.09-3.94-4.18-5.82-6.26l.59-.63c.52-.54,1.05-1.08,1.59-1.62.31-.32.63-.65.94-1,2.05,2.26,5.49,5.91,6.6,7a1.58,1.58,0,0,0,2.05.29c.41-.23.71-.85,1.17-.85v-1.62c-1.55.42-5.46-4.16-7.74-6.89A40.37,40.37,0,0,1,408,110.2a6.28,6.28,0,0,1,2.2-1.15l1.15-.15v-2.6a24,24,0,0,0-3,.5,5.79,5.79,0,0,0-2.11,1,43.11,43.11,0,0,0-4.62,4l-.65.63-.46.45c-.64.63-1.32,1.32-2.06,2.09-1.09,1.1-2.14,2.19-3.16,3.28-.32.34-.64.66-.94,1-1.89,2-3.67,3.94-5.27,5.69-.46-.51-.93-1-1.4-1.52s-1.08-1.18-1.62-1.78c1.81-2,3.53-3.83,5.33-5.74C391.77,115.5,392.14,115.12,392.52,114.73ZM369.5,135c-2.6-2.71-5-5.36-7.33-7.87,2.29-2.51,4.74-5.16,7.33-7.88,2.82,2.83,5.34,5.5,7.53,7.87C374.84,129.5,372.33,132.19,369.5,135Zm5.21,5.27-.67-.66-1.53-1.52c-.27-.29-.56-.57-.86-.87h0l-.08-.08c2.79-2.8,5.29-5.46,7.47-7.81l1.92,2.11.67.74c.14.14.28.29.41.44C379.39,135.51,377,138,374.72,140.28Zm12,2.94a7.54,7.54,0,0,1-4.65,2.1c-.94,0-2-.25-5.16-3,2.24-2.26,4.56-4.69,7.17-7.5,1.81,2,3.53,3.86,5.35,5.77A27.73,27.73,0,0,1,386.7,143.23Zm9.67-21.78q2.57,2.83,5.29,5.69c-1.81,1.9-3.58,3.81-5.29,5.69-1.88-2-3.66-3.94-5.26-5.69C392.71,125.38,394.49,123.44,396.37,121.45Zm-9.25,5.72.88,1,1.1,1.19c1.6,1.76,3.38,3.71,5.27,5.7l-1.08,1.2c-.17.2-.35.41-.53.6s-.17.2-.27.3l-.25.3-.23.24-.2.23-.39.46c-1.8-1.9-3.53-3.77-5.35-5.75l-1.33-1.48c-.31-.32-.6-.66-.9-1l-.66-.73-1.52-1.67-1.52-1.65c-.15-.16-.3-.34-.46-.5l-.46-.52-.16-.17c-2.18-2.35-4.68-5-7.47-7.81a.27.27,0,0,1,.08-.08c1.19-1.22,2.19-2.21,3.06-3.06,2.55,2.55,5.2,5.33,8.26,8.65Zm-3.06-7.72c-2.61-2.8-4.92-5.23-7.17-7.48a24.26,24.26,0,0,1,2.18-1.77c1.58-1.14,2.34-1.24,3-1.24,2.35,0,4.68,1.85,7.37,4.73C387.6,115.59,385.87,117.47,384.07,119.45Zm-2-13.46a7.72,7.72,0,0,0-4.72,1.8,32.67,32.67,0,0,0-2.55,2.09l-.54.49-.51.47-.9.86-1,.95c-.7.7-1.47,1.46-2.34,2.35-.37.37-.74.75-1.1,1.14l-1,1.05c-2.57,2.68-5,5.28-7.24,7.75l-3-3.29c2.4-2.62,4.66-5.06,7-7.54l1-1,1.19-1.22.59-.61.57-.57c.19-.19.36-.37.53-.53l.52-.51.72-.71.66-.64c.14-.15.29-.28.43-.41l.46-.44c4.8-4.45,7.57-5.9,11.2-5.9a13.91,13.91,0,0,1,8.48,3.08,34.5,34.5,0,0,1,4.07,3.72l-1.43,1.43c-.58.6-1.15,1.17-1.69,1.76C388.72,108.58,385.71,106,382.05,106Z"/><path class="cls-1" d="M450.45,114.73h0c.9-.94,1.83-1.9,2.78-2.86l1.19-1.22,1.19-1.2c4.89-4.79,9.32-7.36,10.69-7.6.8-.17,3-.43,3-.43V98.48l-1.61.14c-4.51.36-8.17,3-13,7.64a35.76,35.76,0,0,0-4.4-4A16.76,16.76,0,0,0,440,98.57c-4.31,0-7.61,1.59-12.7,6.22-4.45-3.88-8.17-6.14-13.21-6.23h-.3c-.34,0-2.36-.08-2.36-.08v2.94s2,0,3,.12a24.92,24.92,0,0,1,10.73,5.29l-.32.32-.68.67q-.37.35-.73.73l-1.2,1.2L422,110a18,18,0,0,0-7.51-3.53l-3-.15v2.6l1.69,0a4.75,4.75,0,0,1,.81,0c1.46,0,2.91.58,6,3.19-2.39,2.57-4.87,5.55-6.82,7.29-.42.37-.81.68-1.08,1a3.47,3.47,0,0,0-.63.6v1.26a1.16,1.16,0,0,0,0,.16c0,.22.1.17.27.32l2.66,2.51s0,0,0,0l.88,1,.86.93.88,1,1.1,1.2c2.26,2.48,4.67,5.07,7.24,7.75l1,1.05c.35.37.71.73,1.07,1.09l.06.07.63.64.59.59c.2.2.38.39.57.57s.36.36.53.53c.35.32.66.65,1,1,.16.15.32.29.47.44l.21.21.22.2.36.35.35.32.06,0,.29.25c3.24,2.91,5.11,3.88,7.26,3.88a10.3,10.3,0,0,0,6.53-2.77,31.12,31.12,0,0,0,2.88-2.77h0l.16-.19.9-1c.51-.56,1-1.12,1.52-1.7l.41-.47,3-3.39,0,0,.88-1c1.55-1.7,3.15-3.42,4.76-5.13a.74.74,0,0,1,1.07,0l1,1a.09.09,0,0,0,0,0l1,1.08a.74.74,0,0,1,0,1q-2.42,2.57-4.8,5.17l-1,1.17-1.34,1.49c-.44.5-.88,1-1.31,1.48l-.43.49-1.23,1.39-.61.7-.8.87c-4,4.22-7.74,7-12.71,7a11.25,11.25,0,0,1-6.62-2.16,33.9,33.9,0,0,1-4.32-3.5l-.19-.19-.27-.24-.28-.25c-.45-.43-.94-.88-1.46-1.41l-.54-.53c-.45-.44-.92-.92-1.43-1.43-.2-.2-.41-.39-.6-.6l-.59-.61-.59-.61-1-1c-2.6-2.71-5.05-5.38-7.68-8.24l-.09-.08-3-2.86v3.41s1.88,2.43,2,2.6l0,0c2.7,2.94,4.09,4.6,6.47,7.1-3.11,2.55-4.67,2.88-6,3.17a19.4,19.4,0,0,1-2.5.44v2.82l3-.3c1.89-.19,4.34-1.23,7.57-4h0l0,.06a1.07,1.07,0,0,1,.16.16c.29.28.56.56.81.82l.76.75.71.71.34.32.15.16a2.15,2.15,0,0,1,.16.16c-4.33,3.75-7.19,5.49-10.72,5.64l-3,.07v2.57l1.37,0a12.06,12.06,0,0,0,1.32,0c5-.09,8.72-2.34,13.16-6.22a38,38,0,0,0,4.46,3.57,14.17,14.17,0,0,0,8.26,2.66c6.22,0,10.75-3.57,14.66-7.7a44.19,44.19,0,0,0,6,5,14.39,14.39,0,0,0,7,2.61l1.6.13v-2.55l-3-.5a14.28,14.28,0,0,1-4-2.16,41.16,41.16,0,0,1-5.67-4.77l.93-1,.42-.48c.53-.61,1.07-1.2,1.61-1.82,3.07,3,5.06,4.53,6.73,5.26l3,.74v-3l-1.15-.27c-1.33-.31-3.28-1.77-6.57-5,1.7-1.88,3.44-3.75,5.19-5.61l.06,0,.12-.12c.36-.35,1.32-1.3,2.35-2.14V129c-.5-.47-.59-.5-.86-.44-.54.13-1.15,1.1-1.67,1.36-.13.06-.57-.21-.85-.41l-.22-.16a12.69,12.69,0,0,1-1.11-1.23,2.45,2.45,0,0,0-.17-.17,0,0,0,0,0,0,0c-.63-.64-1.09-1.14-1.69-1.77l-.54-.57c-2-2.09-3.94-4.18-5.82-6.26l.59-.63c.52-.54,1.05-1.08,1.59-1.62.31-.32.63-.65.94-1,2.05,2.26,5.49,5.91,6.6,7a1.58,1.58,0,0,0,2.05.29c.41-.23.71-.85,1.17-.85v-1.62c-1.55.42-5.46-4.16-7.74-6.89a40.37,40.37,0,0,1,4.39-3.83,6.28,6.28,0,0,1,2.2-1.15l1.15-.15v-2.6a24,24,0,0,0-3,.5,5.79,5.79,0,0,0-2.11,1,43.11,43.11,0,0,0-4.62,4l-.65.63-.46.45c-.64.63-1.32,1.32-2.06,2.09-1.09,1.1-2.14,2.19-3.16,3.28-.32.34-.64.66-.94,1-1.89,2-3.67,3.94-5.27,5.69-.46-.51-.93-1-1.4-1.52s-1.08-1.18-1.62-1.78c1.81-2,3.53-3.83,5.33-5.74C449.7,115.5,450.07,115.12,450.45,114.73Zm-23,20.29c-2.6-2.71-5-5.36-7.33-7.87,2.29-2.51,4.74-5.16,7.33-7.88,2.82,2.83,5.34,5.5,7.53,7.87C432.77,129.5,430.26,132.19,427.43,135Zm5.21,5.27-.67-.66-1.53-1.52c-.27-.29-.56-.57-.86-.87h0l-.08-.08c2.79-2.8,5.29-5.46,7.47-7.81l1.92,2.11.67.74c.14.14.28.29.41.44C437.32,135.51,434.94,138,432.65,140.28Zm12,2.94a7.54,7.54,0,0,1-4.65,2.1c-.94,0-2-.25-5.16-3,2.24-2.26,4.56-4.69,7.17-7.5,1.81,2,3.53,3.86,5.35,5.77A27.73,27.73,0,0,1,444.63,143.23Zm9.67-21.78q2.57,2.83,5.29,5.69c-1.81,1.9-3.58,3.81-5.29,5.69-1.88-2-3.66-3.94-5.26-5.69C450.64,125.38,452.42,123.44,454.3,121.45Zm-9.25,5.72.88,1,1.1,1.19c1.6,1.76,3.38,3.71,5.27,5.7l-1.08,1.2c-.17.2-.35.41-.53.6s-.17.2-.27.3l-.25.3-.23.24-.2.23-.39.46c-1.8-1.9-3.53-3.77-5.35-5.75l-1.33-1.48c-.31-.32-.6-.66-.9-1l-.66-.73-1.52-1.67-1.52-1.65c-.15-.16-.3-.34-.46-.5l-.46-.52-.16-.17c-2.18-2.35-4.68-5-7.47-7.81a.27.27,0,0,1,.08-.08c1.19-1.22,2.19-2.21,3.06-3.06,2.55,2.55,5.2,5.33,8.26,8.65ZM442,119.45c-2.61-2.8-4.92-5.23-7.17-7.48A24.26,24.26,0,0,1,437,110.2c1.58-1.14,2.34-1.24,3-1.24,2.35,0,4.68,1.85,7.37,4.73C445.53,115.59,443.8,117.47,442,119.45ZM440,106a7.72,7.72,0,0,0-4.72,1.8,32.67,32.67,0,0,0-2.55,2.09l-.54.49-.51.47-.9.86-1,.95c-.7.7-1.47,1.46-2.34,2.35-.37.37-.74.75-1.1,1.14l-1,1.05c-2.57,2.68-5,5.28-7.24,7.75l-3-3.29c2.4-2.62,4.66-5.06,7-7.54l1-1,1.19-1.22.59-.61.57-.57c.19-.19.36-.37.53-.53l.52-.51.72-.71.66-.64c.14-.15.29-.28.43-.41l.46-.44c4.8-4.45,7.57-5.9,11.2-5.9a13.91,13.91,0,0,1,8.48,3.08,34.5,34.5,0,0,1,4.07,3.72l-1.43,1.43c-.58.6-1.15,1.17-1.69,1.76C446.65,108.58,443.64,106,440,106Z"/><path class="cls-1" d="M508.39,114.73h0c.9-.94,1.83-1.9,2.78-2.86l1.19-1.22,1.19-1.2c4.89-4.79,9.32-7.36,10.69-7.6.8-.17,3-.43,3-.43V98.48l-1.61.14c-4.51.36-8.17,3-13,7.64a35.76,35.76,0,0,0-4.4-4,16.76,16.76,0,0,0-10.25-3.67c-4.31,0-7.61,1.59-12.7,6.22-4.45-3.88-8.17-6.14-13.21-6.23h-.3c-.34,0-2.36-.08-2.36-.08v2.94s2,0,3,.12A24.92,24.92,0,0,1,483,106.84l-.32.32-.68.67q-.37.35-.73.73l-1.2,1.2-.21.22a18,18,0,0,0-7.51-3.53l-3-.15v2.6l1.69,0a4.75,4.75,0,0,1,.81,0c1.46,0,2.91.58,6,3.19-2.39,2.57-4.87,5.55-6.82,7.29-.42.37-.81.68-1.08,1a3.47,3.47,0,0,0-.63.6v1.26a1.16,1.16,0,0,0,0,.16c0,.22.1.17.27.32l2.66,2.51s0,0,0,0l.88,1,.86.93.88,1,1.1,1.2c2.26,2.48,4.67,5.07,7.24,7.75l1,1.05c.35.37.71.73,1.07,1.09l.06.07.63.64.59.59c.2.2.38.39.57.57s.36.36.53.53c.35.32.66.65,1,1,.16.15.32.29.47.44l.21.21.22.2.36.35.35.32.06,0,.29.25c3.24,2.91,5.11,3.88,7.26,3.88a10.3,10.3,0,0,0,6.53-2.77,31.12,31.12,0,0,0,2.88-2.77h0l.16-.19.9-1c.51-.56,1-1.12,1.52-1.7l.41-.47,3-3.39,0,0,.88-1c1.55-1.7,3.15-3.42,4.76-5.13a.74.74,0,0,1,1.07,0l1,1s0,0,0,0l1,1.07a.74.74,0,0,1,0,1q-2.42,2.57-4.8,5.17l-1,1.17L515,140.84c-.44.5-.88,1-1.31,1.48l-.43.49L512,144.2l-.61.7-.8.87c-4,4.22-7.74,7-12.71,7a11.25,11.25,0,0,1-6.62-2.16,33.9,33.9,0,0,1-4.32-3.5l-.19-.19-.27-.24-.28-.25c-.45-.43-.94-.88-1.46-1.41l-.54-.53c-.45-.44-.92-.92-1.43-1.43-.2-.2-.41-.39-.6-.6l-.59-.61-.59-.61-1-1c-2.6-2.71-5.05-5.38-7.68-8.24l-.09-.08-3-2.86v3.41s1.88,2.43,2,2.6l0,0c2.7,2.94,4.09,4.6,6.47,7.1-3.11,2.55-4.67,2.88-6,3.17a19.4,19.4,0,0,1-2.5.44v2.82l3-.3c1.89-.19,4.34-1.23,7.57-4h0l0,.06a1.07,1.07,0,0,1,.16.16c.29.28.56.56.81.82l.76.75.71.71.34.32.15.16a2.15,2.15,0,0,1,.16.16c-4.33,3.75-7.19,5.49-10.72,5.64l-3,.07v2.57l1.37,0a12.06,12.06,0,0,0,1.32,0c5-.09,8.72-2.34,13.16-6.22a38,38,0,0,0,4.46,3.57,14.17,14.17,0,0,0,8.26,2.66c6.22,0,10.75-3.57,14.66-7.7a44.19,44.19,0,0,0,6,5,14.39,14.39,0,0,0,7,2.61l1.6.13v-2.55l-3-.5a14.28,14.28,0,0,1-4-2.16,41.16,41.16,0,0,1-5.67-4.77l.93-1,.42-.48c.53-.61,1.07-1.2,1.61-1.82,3.07,3,5.06,4.53,6.73,5.26l3,.74v-3l-1.15-.27c-1.33-.31-3.28-1.77-6.57-5,1.7-1.88,3.44-3.75,5.19-5.61l.06,0,.12-.12c.36-.35,1.32-1.3,2.35-2.14V129c-.5-.47-.59-.5-.86-.44-.54.13-1.15,1.1-1.67,1.36-.13.06-.57-.21-.85-.41l-.22-.16a12.69,12.69,0,0,1-1.11-1.23,2.45,2.45,0,0,0-.17-.17,0,0,0,0,0,0,0c-.63-.64-1.09-1.14-1.69-1.77l-.54-.57c-2-2.09-3.94-4.18-5.82-6.26l.59-.63c.52-.54,1.05-1.08,1.59-1.62.31-.32.63-.65.94-1,2.05,2.26,5.49,5.91,6.6,7a1.58,1.58,0,0,0,2.05.29c.41-.23.71-.85,1.17-.85v-1.62c-1.55.42-5.46-4.16-7.74-6.89a40.37,40.37,0,0,1,4.39-3.83,6.28,6.28,0,0,1,2.2-1.15l1.15-.15v-2.6a24,24,0,0,0-3,.5,5.79,5.79,0,0,0-2.11,1,43.11,43.11,0,0,0-4.62,4l-.65.63-.46.45c-.64.63-1.32,1.32-2.06,2.09-1.09,1.1-2.14,2.19-3.16,3.28-.32.34-.64.66-.94,1-1.89,2-3.67,3.94-5.27,5.69-.46-.51-.93-1-1.4-1.52s-1.08-1.18-1.62-1.78c1.81-2,3.53-3.83,5.33-5.74C507.63,115.5,508,115.12,508.39,114.73Zm-23,20.29c-2.6-2.71-5-5.36-7.33-7.87,2.29-2.51,4.74-5.16,7.33-7.88,2.82,2.83,5.34,5.5,7.53,7.87C490.71,129.5,488.19,132.19,485.36,135Zm5.21,5.27-.67-.66-1.53-1.52c-.27-.29-.56-.57-.86-.87h0l-.08-.08c2.79-2.8,5.29-5.46,7.47-7.81l1.92,2.11.67.74c.14.14.28.29.41.44C495.25,135.51,492.87,138,490.58,140.28Zm12,2.94a7.54,7.54,0,0,1-4.65,2.1c-.94,0-2-.25-5.16-3,2.24-2.26,4.56-4.69,7.17-7.5,1.81,2,3.53,3.86,5.35,5.77A27.73,27.73,0,0,1,502.56,143.23Zm9.67-21.78q2.57,2.83,5.29,5.69c-1.81,1.9-3.58,3.81-5.29,5.69-1.88-2-3.66-3.94-5.26-5.69C508.57,125.38,510.36,123.44,512.23,121.45ZM503,127.17l.88,1,1.1,1.19c1.6,1.76,3.38,3.71,5.27,5.7l-1.08,1.2c-.17.2-.35.41-.53.6s-.17.2-.27.3l-.25.3-.23.24-.2.23-.39.46c-1.8-1.9-3.53-3.77-5.35-5.75l-1.33-1.48c-.31-.32-.6-.66-.9-1l-.66-.73-1.52-1.67L496,126.14c-.15-.16-.3-.34-.46-.5l-.46-.52-.16-.17c-2.18-2.35-4.68-5-7.47-7.81a.27.27,0,0,1,.08-.08c1.19-1.22,2.19-2.21,3.06-3.06,2.55,2.55,5.2,5.33,8.26,8.65Zm-3.06-7.72c-2.61-2.8-4.92-5.23-7.17-7.48a24.26,24.26,0,0,1,2.18-1.77c1.58-1.14,2.34-1.24,3-1.24,2.35,0,4.68,1.85,7.37,4.73C503.46,115.59,501.73,117.47,499.93,119.45Zm-2-13.46a7.72,7.72,0,0,0-4.72,1.8,32.67,32.67,0,0,0-2.55,2.09l-.54.49-.51.47-.9.86-1,.95c-.7.7-1.47,1.46-2.34,2.35-.37.37-.74.75-1.1,1.14l-1,1.05c-2.57,2.68-5,5.28-7.24,7.75l-3-3.29c2.4-2.62,4.66-5.06,7-7.54l1-1,1.19-1.22.59-.61.57-.57c.19-.19.36-.37.53-.53l.52-.51.72-.71.66-.64c.14-.15.29-.28.43-.41l.46-.44c4.8-4.45,7.57-5.9,11.2-5.9a13.91,13.91,0,0,1,8.48,3.08,34.5,34.5,0,0,1,4.07,3.72L509,109.77c-.58.6-1.15,1.17-1.69,1.76C504.59,108.58,501.57,106,497.91,106Z"/><path class="cls-1" d="M566.32,114.73h0c.9-.94,1.83-1.9,2.78-2.86l1.19-1.22,1.19-1.2c4.89-4.79,9.32-7.36,10.69-7.6.8-.17,3-.43,3-.43V98.48l-1.61.14c-4.51.36-8.17,3-13,7.64a35.76,35.76,0,0,0-4.4-4,16.76,16.76,0,0,0-10.25-3.67c-4.31,0-7.61,1.59-12.7,6.22-4.45-3.88-8.17-6.14-13.21-6.23h-.3c-.34,0-2.36-.08-2.36-.08v2.94s2,0,3,.12A24.92,24.92,0,0,1,541,106.84l-.32.32-.68.67q-.37.35-.73.73l-1.2,1.2-.21.22a18,18,0,0,0-7.51-3.53l-3-.15v2.6l1.69,0a4.75,4.75,0,0,1,.81,0c1.46,0,2.91.58,6,3.19-2.39,2.57-4.87,5.55-6.82,7.29-.42.37-.81.68-1.08,1a3.47,3.47,0,0,0-.63.6v1.26a1.16,1.16,0,0,0,0,.16c0,.22.1.17.27.32l2.66,2.51s0,0,0,0l.88,1,.86.93.88,1,1.1,1.2c2.26,2.48,4.67,5.07,7.24,7.75l1,1.05c.35.37.71.73,1.07,1.09l.06.07.63.64.59.59c.2.2.38.39.57.57s.36.36.53.53c.35.32.66.65,1,1,.16.15.32.29.47.44l.21.21.22.2.36.35.35.32.06,0,.29.25c3.24,2.91,5.11,3.88,7.26,3.88a10.3,10.3,0,0,0,6.53-2.77,31.12,31.12,0,0,0,2.88-2.77h0l.16-.19.9-1c.51-.56,1-1.12,1.52-1.7l.41-.47,3-3.39,0,0,.88-1c1.55-1.7,3.15-3.42,4.76-5.13a.74.74,0,0,1,1.07,0l1,1s0,0,0,0l1,1.07a.74.74,0,0,1,0,1q-2.42,2.57-4.8,5.17l-1,1.17-1.34,1.49c-.44.5-.88,1-1.31,1.48l-.43.49L570,144.2l-.61.7-.8.87c-4,4.22-7.74,7-12.71,7a11.25,11.25,0,0,1-6.62-2.16,33.9,33.9,0,0,1-4.32-3.5l-.19-.19-.27-.24-.28-.25c-.45-.43-.94-.88-1.46-1.41l-.54-.53c-.45-.44-.92-.92-1.43-1.43-.2-.2-.41-.39-.6-.6l-.59-.61-.59-.61-1-1c-2.6-2.71-5.05-5.38-7.68-8.24l-.09-.08-3-2.86v3.41s1.88,2.43,2,2.6l0,0c2.7,2.94,4.09,4.6,6.47,7.1-3.11,2.55-4.67,2.88-6,3.17a19.4,19.4,0,0,1-2.5.44v2.82l3-.3c1.89-.19,4.34-1.23,7.57-4h0l0,.06a1.07,1.07,0,0,1,.16.16c.29.28.56.56.81.82l.76.75.71.71.34.32.15.16a2.15,2.15,0,0,1,.16.16c-4.33,3.75-7.19,5.49-10.72,5.64l-3,.07v2.57l1.37,0a12.06,12.06,0,0,0,1.32,0c5-.09,8.72-2.34,13.16-6.22a38,38,0,0,0,4.46,3.57,14.17,14.17,0,0,0,8.26,2.66c6.22,0,10.75-3.57,14.66-7.7a44.19,44.19,0,0,0,6,5,14.39,14.39,0,0,0,7,2.61l1.6.13v-2.55l-3-.5a14.28,14.28,0,0,1-4-2.16,41.16,41.16,0,0,1-5.67-4.77l.93-1,.42-.48c.53-.61,1.07-1.2,1.61-1.82,3.07,3,5.06,4.53,6.73,5.26l3,.74v-3l-1.15-.27c-1.33-.31-3.28-1.77-6.57-5,1.7-1.88,3.44-3.75,5.19-5.61l.06,0,.12-.12c.36-.35,1.32-1.3,2.35-2.14V129c-.5-.47-.59-.5-.86-.44-.54.13-1.15,1.1-1.67,1.36-.13.06-.57-.21-.85-.41l-.22-.16a12.69,12.69,0,0,1-1.11-1.23,2.45,2.45,0,0,0-.17-.17,0,0,0,0,0,0,0c-.63-.64-1.09-1.14-1.69-1.77l-.54-.57c-2-2.09-3.94-4.18-5.82-6.26l.59-.63c.52-.54,1.05-1.08,1.59-1.62.31-.32.63-.65.94-1,2.05,2.26,5.49,5.91,6.6,7a1.58,1.58,0,0,0,2.05.29c.41-.23.71-.85,1.17-.85v-1.62c-1.55.42-5.46-4.16-7.74-6.89a40.37,40.37,0,0,1,4.39-3.83A6.28,6.28,0,0,1,584,109l1.15-.15v-2.6a24,24,0,0,0-3,.5,5.79,5.79,0,0,0-2.11,1,43.11,43.11,0,0,0-4.62,4l-.65.63-.46.45c-.64.63-1.32,1.32-2.06,2.09-1.09,1.1-2.14,2.19-3.16,3.28-.32.34-.64.66-.94,1-1.89,2-3.67,3.94-5.27,5.69-.46-.51-.93-1-1.4-1.52s-1.08-1.18-1.62-1.78c1.81-2,3.53-3.83,5.33-5.74C565.56,115.5,565.93,115.12,566.32,114.73Zm-23,20.29c-2.6-2.71-5-5.36-7.33-7.87,2.29-2.51,4.74-5.16,7.33-7.88,2.82,2.83,5.34,5.5,7.53,7.87C548.64,129.5,546.12,132.19,543.29,135Zm5.21,5.27-.67-.66-1.53-1.52c-.27-.29-.56-.57-.86-.87h0l-.08-.08c2.79-2.8,5.29-5.46,7.47-7.81l1.92,2.11.67.74c.14.14.28.29.41.44C553.18,135.51,550.8,138,548.51,140.28Zm12,2.94a7.54,7.54,0,0,1-4.65,2.1c-.94,0-2-.25-5.16-3,2.24-2.26,4.56-4.69,7.17-7.5,1.81,2,3.53,3.86,5.35,5.77A27.73,27.73,0,0,1,560.49,143.23Zm9.67-21.78q2.57,2.83,5.29,5.69c-1.81,1.9-3.58,3.81-5.29,5.69-1.88-2-3.66-3.94-5.26-5.69C566.5,125.38,568.29,123.44,570.16,121.45Zm-9.25,5.72.88,1,1.1,1.19c1.6,1.76,3.38,3.71,5.27,5.7l-1.08,1.2c-.17.2-.35.41-.53.6s-.17.2-.27.3l-.25.3-.23.24-.2.23-.39.46c-1.8-1.9-3.53-3.77-5.35-5.75l-1.33-1.48c-.31-.32-.6-.66-.9-1l-.66-.73-1.52-1.67-1.52-1.65c-.15-.16-.3-.34-.46-.5l-.46-.52-.16-.17c-2.18-2.35-4.68-5-7.47-7.81a.27.27,0,0,1,.08-.08c1.19-1.22,2.19-2.21,3.06-3.06,2.55,2.55,5.2,5.33,8.26,8.65Zm-3.06-7.72c-2.61-2.8-4.92-5.23-7.17-7.48a24.26,24.26,0,0,1,2.18-1.77c1.58-1.14,2.34-1.24,3-1.24,2.35,0,4.68,1.85,7.37,4.73C561.39,115.59,559.67,117.47,557.86,119.45Zm-2-13.46a7.72,7.72,0,0,0-4.72,1.8,32.67,32.67,0,0,0-2.55,2.09l-.54.49-.51.47-.9.86-1,.95c-.7.7-1.47,1.46-2.34,2.35-.37.37-.74.75-1.1,1.14l-1,1.05c-2.57,2.68-5,5.28-7.24,7.75l-3-3.29c2.4-2.62,4.66-5.06,7-7.54l1-1,1.19-1.22.59-.61.57-.57c.19-.19.36-.37.53-.53l.52-.51.72-.71.66-.64c.14-.15.29-.28.43-.41l.46-.44c4.8-4.45,7.57-5.9,11.2-5.9a13.91,13.91,0,0,1,8.48,3.08,34.5,34.5,0,0,1,4.07,3.72L567,109.77c-.58.6-1.15,1.17-1.69,1.76C562.52,108.58,559.5,106,555.84,106Z"/><path class="cls-1" d="M624.25,114.73h0c.9-.94,1.83-1.9,2.78-2.86l1.19-1.22,1.19-1.2c4.89-4.79,9.32-7.36,10.69-7.6.8-.17,3-.43,3-.43V98.48l-1.61.14c-4.51.36-8.17,3-13,7.64a35.76,35.76,0,0,0-4.4-4,16.76,16.76,0,0,0-10.25-3.67c-4.31,0-7.61,1.59-12.7,6.22-4.45-3.88-8.17-6.14-13.21-6.23h-.3c-.34,0-2.36-.08-2.36-.08v2.94s2,0,3,.12a24.92,24.92,0,0,1,10.73,5.29l-.32.32-.68.67q-.37.35-.73.73l-1.2,1.2-.21.22a18,18,0,0,0-7.51-3.53l-3-.15v2.6l1.69,0a4.75,4.75,0,0,1,.81,0c1.46,0,2.91.58,6,3.19-2.39,2.57-4.87,5.55-6.82,7.29-.42.37-.81.68-1.08,1a3.47,3.47,0,0,0-.63.6v1.26a1.16,1.16,0,0,0,0,.16c0,.22.1.17.27.32l2.66,2.51a0,0,0,0,1,0,0c.31.32.6.65.89,1l.86.93.88,1,1.1,1.2c2.26,2.48,4.67,5.07,7.24,7.75l1,1.05c.35.37.71.73,1.07,1.09l.06.07.63.64.59.59c.2.2.38.39.57.57s.36.36.53.53c.35.32.66.65,1,1,.16.15.32.29.47.44l.21.21.22.2.36.35.35.32.06,0,.29.25c3.24,2.91,5.11,3.88,7.26,3.88a10.3,10.3,0,0,0,6.53-2.77,31.12,31.12,0,0,0,2.88-2.77h0l.16-.19.9-1c.51-.56,1-1.12,1.52-1.7l.41-.47,3-3.39,0,0,.88-1c1.55-1.7,3.15-3.42,4.76-5.13a.74.74,0,0,1,1.07,0l1,1s0,0,0,0l1,1.07a.74.74,0,0,1,0,1q-2.42,2.57-4.8,5.17l-1,1.17-1.34,1.49c-.44.5-.88,1-1.31,1.48l-.43.49-1.23,1.39-.61.7-.8.87c-4,4.22-7.74,7-12.71,7a11.25,11.25,0,0,1-6.62-2.16,33.9,33.9,0,0,1-4.32-3.5l-.19-.19-.27-.24-.28-.25c-.45-.43-.94-.88-1.46-1.41l-.54-.53c-.45-.44-.92-.92-1.43-1.43-.2-.2-.41-.39-.6-.6l-.59-.61-.59-.61-1-1c-2.6-2.71-5.05-5.38-7.68-8.24l-.09-.08-3-2.86v3.41s1.88,2.43,2,2.6l0,0c2.7,2.94,4.09,4.6,6.47,7.1-3.11,2.55-4.67,2.88-6,3.17a19.4,19.4,0,0,1-2.5.44v2.82l3-.3c1.89-.19,4.34-1.23,7.57-4h0l0,.06a1.07,1.07,0,0,1,.16.16c.29.28.56.56.81.82l.76.75.71.71.34.32.15.16a2.15,2.15,0,0,1,.16.16c-4.33,3.75-7.19,5.49-10.72,5.64l-3,.07v2.57l1.37,0a12.06,12.06,0,0,0,1.32,0c5-.09,8.72-2.34,13.16-6.22a38,38,0,0,0,4.46,3.57,14.17,14.17,0,0,0,8.26,2.66c6.22,0,10.75-3.57,14.66-7.7a44.19,44.19,0,0,0,6,5,14.39,14.39,0,0,0,7,2.61l1.6.13v-2.55l-3-.5a14.28,14.28,0,0,1-4-2.16,41.16,41.16,0,0,1-5.67-4.77l.93-1,.42-.48c.53-.61,1.07-1.2,1.61-1.82,3.07,3,5.06,4.53,6.73,5.26l3,.74v-3l-1.15-.27c-1.33-.31-3.28-1.77-6.57-5,1.7-1.88,3.44-3.75,5.19-5.61l.06,0,.12-.12c.36-.35,1.32-1.3,2.35-2.14V129c-.5-.47-.59-.5-.86-.44-.54.13-1.15,1.1-1.67,1.36-.13.06-.57-.21-.85-.41l-.22-.16a12.69,12.69,0,0,1-1.11-1.23,2.45,2.45,0,0,0-.17-.17,0,0,0,0,0,0,0c-.63-.64-1.09-1.14-1.69-1.77l-.54-.57c-2-2.09-3.94-4.18-5.82-6.26l.59-.63c.52-.54,1.05-1.08,1.59-1.62.31-.32.63-.65.94-1,2.05,2.26,5.49,5.91,6.6,7a1.58,1.58,0,0,0,2.05.29c.41-.23.71-.85,1.17-.85v-1.62c-1.55.42-5.46-4.16-7.74-6.89a40.37,40.37,0,0,1,4.39-3.83,6.28,6.28,0,0,1,2.2-1.15l1.15-.15v-2.6a24,24,0,0,0-3,.5,5.79,5.79,0,0,0-2.11,1,43.11,43.11,0,0,0-4.62,4l-.65.63-.46.45c-.64.63-1.32,1.32-2.06,2.09-1.09,1.1-2.14,2.19-3.16,3.28-.32.34-.64.66-.94,1-1.89,2-3.67,3.94-5.27,5.69-.46-.51-.93-1-1.4-1.52s-1.08-1.18-1.62-1.78c1.81-2,3.53-3.83,5.33-5.74C623.49,115.5,623.86,115.12,624.25,114.73Zm-23,20.29c-2.6-2.71-5-5.36-7.33-7.87,2.29-2.51,4.74-5.16,7.33-7.88,2.82,2.83,5.34,5.5,7.53,7.87C606.57,129.5,604.05,132.19,601.22,135Zm5.21,5.27-.67-.66-1.53-1.52c-.27-.29-.56-.57-.86-.87h0l-.08-.08c2.79-2.8,5.29-5.46,7.47-7.81l1.92,2.11.67.74c.14.14.28.29.41.44C611.11,135.51,608.73,138,606.44,140.28Zm12,2.94a7.54,7.54,0,0,1-4.65,2.1c-.94,0-2-.25-5.16-3,2.24-2.26,4.56-4.69,7.17-7.5,1.81,2,3.53,3.86,5.35,5.77A27.73,27.73,0,0,1,618.42,143.23Zm9.67-21.78q2.57,2.83,5.29,5.69c-1.81,1.9-3.58,3.81-5.29,5.69-1.88-2-3.66-3.94-5.26-5.69C624.43,125.38,626.22,123.44,628.09,121.45Zm-9.25,5.72.88,1,1.1,1.19c1.6,1.76,3.38,3.71,5.27,5.7l-1.08,1.2c-.17.2-.35.41-.53.6s-.17.2-.27.3l-.25.3-.23.24-.2.23-.39.46c-1.8-1.9-3.53-3.77-5.35-5.75l-1.33-1.48c-.31-.32-.6-.66-.9-1l-.66-.73-1.52-1.67-1.52-1.65c-.15-.16-.3-.34-.46-.5l-.46-.52-.16-.17c-2.18-2.35-4.68-5-7.47-7.81a.27.27,0,0,1,.08-.08c1.19-1.22,2.19-2.21,3.06-3.06,2.55,2.55,5.2,5.33,8.26,8.65Zm-3.06-7.72c-2.61-2.8-4.92-5.23-7.17-7.48a24.26,24.26,0,0,1,2.18-1.77c1.58-1.14,2.34-1.24,3-1.24,2.35,0,4.68,1.85,7.37,4.73C619.32,115.59,617.6,117.47,615.79,119.45Zm-2-13.46a7.72,7.72,0,0,0-4.72,1.8,32.67,32.67,0,0,0-2.55,2.09l-.54.49-.51.47-.9.86-1,.95c-.7.7-1.47,1.46-2.34,2.35-.37.37-.74.75-1.1,1.14l-1,1.05c-2.57,2.68-5,5.28-7.24,7.75l-3-3.29c2.4-2.62,4.66-5.06,7-7.54l1-1,1.19-1.22.59-.61.57-.57c.19-.19.36-.37.53-.53l.52-.51.72-.71.66-.64c.14-.15.29-.28.43-.41l.46-.44c4.8-4.45,7.57-5.9,11.2-5.9a13.91,13.91,0,0,1,8.48,3.08,34.5,34.5,0,0,1,4.07,3.72l-1.43,1.43c-.58.6-1.15,1.17-1.69,1.76C620.45,108.58,617.43,106,613.77,106Z"/><path class="cls-1" d="M682.18,114.73h0c.9-.94,1.83-1.9,2.78-2.86l1.19-1.22,1.19-1.2c4.89-4.79,9.32-7.36,10.69-7.6.8-.17,3-.43,3-.43V98.48l-1.61.14c-4.51.36-8.17,3-13,7.64a35.76,35.76,0,0,0-4.4-4,16.76,16.76,0,0,0-10.25-3.67c-4.31,0-7.61,1.59-12.7,6.22-4.45-3.88-8.17-6.14-13.21-6.23h-.3c-.34,0-2.36-.08-2.36-.08v2.94s2,0,3,.12a24.92,24.92,0,0,1,10.73,5.29l-.32.32-.68.67q-.37.35-.73.73l-1.2,1.2-.21.22a18,18,0,0,0-7.51-3.53l-3-.15v2.6l1.69,0a4.75,4.75,0,0,1,.81,0c1.46,0,2.91.58,6,3.19-2.39,2.57-4.87,5.55-6.82,7.29-.42.37-.81.68-1.08,1a3.47,3.47,0,0,0-.63.6v1.26a1.16,1.16,0,0,0,0,.16c0,.22.1.17.27.32l2.66,2.51s0,0,0,0l.88,1,.86.93.88,1,1.1,1.2c2.26,2.48,4.67,5.07,7.24,7.75l1,1.05c.35.37.71.73,1.07,1.09l.06.07.63.64.59.59c.2.2.38.39.57.57s.36.36.53.53c.35.32.66.65,1,1,.16.15.32.29.47.44l.21.21.22.2.36.35.35.32.06,0,.29.25c3.24,2.91,5.11,3.88,7.26,3.88a10.3,10.3,0,0,0,6.53-2.77,31.12,31.12,0,0,0,2.88-2.77h0l.16-.19.9-1c.51-.56,1-1.12,1.52-1.7l.41-.47,3-3.39,0,0,.88-1c1.55-1.7,3.15-3.42,4.76-5.13a.74.74,0,0,1,1.07,0l1,1a.09.09,0,0,0,0,0l1,1.08a.74.74,0,0,1,0,1q-2.42,2.57-4.8,5.17l-1,1.17-1.34,1.49c-.44.5-.88,1-1.31,1.48l-.43.49-1.23,1.39-.61.7-.8.87c-4,4.22-7.74,7-12.71,7a11.25,11.25,0,0,1-6.62-2.16,33.9,33.9,0,0,1-4.32-3.5l-.19-.19-.27-.24-.28-.25c-.45-.43-.94-.88-1.46-1.41l-.54-.53c-.45-.44-.92-.92-1.43-1.43-.2-.2-.41-.39-.6-.6l-.59-.61-.59-.61-1-1c-2.6-2.71-5.05-5.38-7.68-8.24l-.09-.08-3-2.86v3.41s1.88,2.43,2,2.6l0,0c2.7,2.94,4.09,4.6,6.47,7.1-3.11,2.55-4.67,2.88-6,3.17a19.4,19.4,0,0,1-2.5.44v2.82l3-.3c1.89-.19,4.34-1.23,7.57-4h0l0,.06a1.07,1.07,0,0,1,.16.16c.29.28.56.56.81.82l.76.75.71.71.34.32.15.16a2.15,2.15,0,0,1,.16.16c-4.33,3.75-7.19,5.49-10.72,5.64l-3,.07v2.57l1.37,0a12.06,12.06,0,0,0,1.32,0c5-.09,8.72-2.34,13.16-6.22a38,38,0,0,0,4.46,3.57,14.17,14.17,0,0,0,8.26,2.66c6.22,0,10.75-3.57,14.66-7.7a44.19,44.19,0,0,0,6,5,14.39,14.39,0,0,0,7,2.61l1.6.13v-2.55l-3-.5a14.28,14.28,0,0,1-4-2.16,41.16,41.16,0,0,1-5.67-4.77l.93-1,.42-.48c.53-.61,1.07-1.2,1.61-1.82,3.07,3,5.06,4.53,6.73,5.26l3,.74v-3l-1.15-.27c-1.33-.31-3.28-1.77-6.57-5,1.7-1.88,3.44-3.75,5.19-5.61l.06,0,.12-.12c.36-.35,1.32-1.3,2.35-2.14V129c-.5-.47-.59-.5-.86-.44-.54.13-1.15,1.1-1.67,1.36-.13.06-.57-.21-.85-.41l-.22-.16a12.69,12.69,0,0,1-1.11-1.23,2.45,2.45,0,0,0-.17-.17,0,0,0,0,0,0,0c-.63-.64-1.09-1.14-1.69-1.77l-.54-.57c-2-2.09-3.94-4.18-5.82-6.26l.59-.63c.52-.54,1.05-1.08,1.59-1.62.31-.32.63-.65.94-1,2.05,2.26,5.49,5.91,6.6,7a1.58,1.58,0,0,0,2.05.29c.41-.23.71-.85,1.17-.85v-1.62c-1.55.42-5.46-4.16-7.74-6.89a40.37,40.37,0,0,1,4.39-3.83,6.28,6.28,0,0,1,2.2-1.15l1.15-.15v-2.6a24,24,0,0,0-3,.5,5.79,5.79,0,0,0-2.11,1,43.11,43.11,0,0,0-4.62,4l-.65.63-.46.45c-.64.63-1.32,1.32-2.06,2.09-1.09,1.1-2.14,2.19-3.16,3.28-.32.34-.64.66-.94,1-1.89,2-3.67,3.94-5.27,5.69-.46-.51-.93-1-1.4-1.52s-1.08-1.18-1.62-1.78c1.81-2,3.53-3.83,5.33-5.74C681.42,115.5,681.79,115.12,682.18,114.73Zm-23,20.29c-2.6-2.71-5-5.36-7.33-7.87,2.29-2.51,4.74-5.16,7.33-7.88,2.82,2.83,5.34,5.5,7.53,7.87C664.5,129.5,662,132.19,659.16,135Zm5.21,5.27-.67-.66-1.53-1.52c-.27-.29-.56-.57-.86-.87h0l-.08-.08c2.79-2.8,5.29-5.46,7.47-7.81l1.92,2.11.67.74c.14.14.28.29.41.44C669,135.51,666.66,138,664.37,140.28Zm12,2.94a7.54,7.54,0,0,1-4.65,2.1c-.94,0-2-.25-5.16-3,2.24-2.26,4.56-4.69,7.17-7.5,1.81,2,3.53,3.86,5.35,5.77A27.73,27.73,0,0,1,676.35,143.23ZM686,121.45q2.57,2.83,5.29,5.69c-1.81,1.9-3.58,3.81-5.29,5.69-1.88-2-3.66-3.94-5.26-5.69C682.36,125.38,684.15,123.44,686,121.45Zm-9.25,5.72.88,1,1.1,1.19c1.6,1.76,3.38,3.71,5.27,5.7l-1.08,1.2c-.17.2-.35.41-.53.6s-.17.2-.27.3l-.25.3-.23.24-.2.23-.39.46c-1.8-1.9-3.53-3.77-5.35-5.75l-1.33-1.48c-.31-.32-.6-.66-.9-1l-.66-.73-1.52-1.67-1.52-1.65c-.15-.16-.3-.34-.46-.5l-.46-.52-.16-.17c-2.18-2.35-4.68-5-7.47-7.81a.27.27,0,0,1,.08-.08c1.19-1.22,2.19-2.21,3.06-3.06,2.55,2.55,5.2,5.33,8.26,8.65Zm-3.06-7.72c-2.61-2.8-4.92-5.23-7.17-7.48a24.26,24.26,0,0,1,2.18-1.77c1.58-1.14,2.34-1.24,3-1.24,2.35,0,4.68,1.85,7.37,4.73C677.25,115.59,675.53,117.47,673.72,119.45Zm-2-13.46a7.72,7.72,0,0,0-4.72,1.8,32.67,32.67,0,0,0-2.55,2.09l-.54.49-.51.47-.9.86-1,.95c-.7.7-1.47,1.46-2.34,2.35-.37.37-.74.75-1.1,1.14l-1,1.05c-2.57,2.68-5,5.28-7.24,7.75l-3-3.29c2.4-2.62,4.66-5.06,7-7.54l1-1,1.19-1.22.59-.61.57-.57c.19-.19.36-.37.53-.53l.52-.51.72-.71.66-.64c.14-.15.29-.28.43-.41l.46-.44c4.8-4.45,7.57-5.9,11.2-5.9a13.91,13.91,0,0,1,8.48,3.08,34.5,34.5,0,0,1,4.07,3.72l-1.43,1.43c-.58.6-1.15,1.17-1.69,1.76C678.38,108.58,675.36,106,671.7,106Z"/><path class="cls-1" d="M740.11,114.73h0c.9-.94,1.83-1.9,2.78-2.86l1.19-1.22,1.19-1.2c4.89-4.79,9.32-7.36,10.69-7.6.8-.17,3-.43,3-.43V98.48l-1.61.14c-4.51.36-8.17,3-13,7.64a35.76,35.76,0,0,0-4.4-4,16.76,16.76,0,0,0-10.25-3.67c-4.31,0-7.61,1.59-12.7,6.22-4.45-3.88-8.17-6.14-13.21-6.23h-.3c-.34,0-2.36-.08-2.36-.08v2.94s2,0,3,.12a24.92,24.92,0,0,1,10.73,5.29l-.32.32-.68.67q-.37.35-.73.73l-1.2,1.2-.21.22a18,18,0,0,0-7.51-3.53l-3-.15v2.6l1.69,0a4.75,4.75,0,0,1,.81,0c1.46,0,2.91.58,6,3.19-2.39,2.57-4.87,5.55-6.82,7.29-.42.37-.81.68-1.08,1a3.47,3.47,0,0,0-.63.6v1.26a1.16,1.16,0,0,0,0,.16c0,.22.1.17.27.32l2.66,2.51s0,0,0,0l.88,1,.86.93.88,1,1.1,1.2c2.26,2.48,4.67,5.07,7.24,7.75l1,1.05c.35.37.71.73,1.07,1.09l.06.07.63.64.59.59c.2.2.38.39.57.57s.36.36.53.53c.35.32.66.65,1,1,.16.15.32.29.47.44l.21.21.22.2.36.35.35.32.06,0,.29.25c3.24,2.91,5.11,3.88,7.26,3.88a10.3,10.3,0,0,0,6.53-2.77,31.12,31.12,0,0,0,2.88-2.77h0l.16-.19.9-1c.51-.56,1-1.12,1.52-1.7l.41-.47,3-3.39,0,0,.88-1c1.55-1.7,3.15-3.42,4.76-5.13a.74.74,0,0,1,1.07,0l1,1s0,0,0,0l1,1.07a.74.74,0,0,1,0,1q-2.42,2.57-4.8,5.17l-1,1.17-1.34,1.49c-.44.5-.88,1-1.31,1.48l-.43.49-1.23,1.39-.61.7-.8.87c-4,4.22-7.74,7-12.71,7a11.25,11.25,0,0,1-6.62-2.16,33.9,33.9,0,0,1-4.32-3.5l-.19-.19-.27-.24-.28-.25c-.45-.43-.94-.88-1.46-1.41l-.54-.53c-.45-.44-.92-.92-1.43-1.43-.2-.2-.41-.39-.6-.6l-.59-.61-.59-.61-1-1c-2.6-2.71-5.05-5.38-7.68-8.24l-.09-.08L701,129v3.41s1.88,2.43,2,2.6l0,0c2.7,2.94,4.09,4.6,6.47,7.1-3.11,2.55-4.67,2.88-6,3.17a19.4,19.4,0,0,1-2.5.44v2.82l3-.3c1.89-.19,4.34-1.23,7.57-4h0l0,.06a1.07,1.07,0,0,1,.16.16c.29.28.56.56.81.82l.76.75.71.71.34.32.15.16a2.15,2.15,0,0,1,.16.16c-4.33,3.75-7.19,5.49-10.72,5.64l-3,.07v2.57l1.37,0a12.06,12.06,0,0,0,1.32,0c5-.09,8.72-2.34,13.16-6.22a38,38,0,0,0,4.46,3.57,14.17,14.17,0,0,0,8.26,2.66c6.22,0,10.75-3.57,14.66-7.7a44.19,44.19,0,0,0,6,5,14.39,14.39,0,0,0,7,2.61l1.6.13v-2.55l-3-.5a14.28,14.28,0,0,1-4-2.16,41.16,41.16,0,0,1-5.67-4.77l.93-1,.42-.48c.53-.61,1.07-1.2,1.61-1.82,3.07,3,5.06,4.53,6.73,5.26l3,.74v-3l-1.15-.27c-1.33-.31-3.28-1.77-6.57-5,1.7-1.88,3.44-3.75,5.19-5.61l.06,0,.12-.12c.36-.35,1.32-1.3,2.35-2.14V129c-.5-.47-.59-.5-.86-.44-.54.13-1.15,1.1-1.67,1.36-.13.06-.57-.21-.85-.41l-.22-.16a12.69,12.69,0,0,1-1.11-1.23,2.45,2.45,0,0,0-.17-.17,0,0,0,0,0,0,0c-.63-.64-1.09-1.14-1.69-1.77l-.54-.57c-2-2.09-3.94-4.18-5.82-6.26l.59-.63c.52-.54,1.05-1.08,1.59-1.62.31-.32.63-.65.94-1,2.05,2.26,5.49,5.91,6.6,7a1.58,1.58,0,0,0,2.05.29c.41-.23.71-.85,1.17-.85v-1.62c-1.55.42-5.46-4.16-7.74-6.89a40.37,40.37,0,0,1,4.39-3.83,6.28,6.28,0,0,1,2.2-1.15l1.15-.15v-2.6a24,24,0,0,0-3,.5,5.79,5.79,0,0,0-2.11,1,43.11,43.11,0,0,0-4.62,4l-.65.63-.46.45c-.64.63-1.32,1.32-2.06,2.09-1.09,1.1-2.14,2.19-3.16,3.28-.32.34-.64.66-.94,1-1.89,2-3.67,3.94-5.27,5.69-.46-.51-.93-1-1.4-1.52s-1.08-1.18-1.62-1.78c1.81-2,3.53-3.83,5.33-5.74C739.35,115.5,739.72,115.12,740.11,114.73Zm-23,20.29c-2.6-2.71-5-5.36-7.33-7.87,2.29-2.51,4.74-5.16,7.33-7.88,2.82,2.83,5.34,5.5,7.53,7.87C722.43,129.5,719.91,132.19,717.09,135Zm5.21,5.27-.67-.66-1.53-1.52c-.27-.29-.56-.57-.86-.87h0l-.08-.08c2.79-2.8,5.29-5.46,7.47-7.81l1.92,2.11.67.74c.14.14.28.29.41.44C727,135.51,724.59,138,722.3,140.28Zm12,2.94a7.54,7.54,0,0,1-4.65,2.1c-.94,0-2-.25-5.16-3,2.24-2.26,4.56-4.69,7.17-7.5,1.81,2,3.53,3.86,5.35,5.77A27.73,27.73,0,0,1,734.28,143.23ZM744,121.45q2.57,2.83,5.29,5.69c-1.81,1.9-3.58,3.81-5.29,5.69-1.88-2-3.66-3.94-5.26-5.69C740.29,125.38,742.08,123.44,744,121.45Zm-9.25,5.72.88,1,1.1,1.19c1.6,1.76,3.38,3.71,5.27,5.7l-1.08,1.2c-.17.2-.35.41-.53.6s-.17.2-.27.3l-.25.3-.23.24-.2.23-.39.46c-1.8-1.9-3.53-3.77-5.35-5.75l-1.33-1.48c-.31-.32-.6-.66-.9-1l-.66-.73-1.52-1.67-1.52-1.65c-.15-.16-.3-.34-.46-.5l-.46-.52-.16-.17c-2.18-2.35-4.68-5-7.47-7.81a.27.27,0,0,1,.08-.08c1.19-1.22,2.19-2.21,3.06-3.06,2.55,2.55,5.2,5.33,8.26,8.65Zm-3.06-7.72c-2.61-2.8-4.92-5.23-7.17-7.48a24.26,24.26,0,0,1,2.18-1.77c1.58-1.14,2.34-1.24,3-1.24,2.35,0,4.68,1.85,7.37,4.73C735.18,115.59,733.46,117.47,731.65,119.45Zm-2-13.46a7.72,7.72,0,0,0-4.72,1.8,32.67,32.67,0,0,0-2.55,2.09l-.54.49-.51.47-.9.86-1,.95c-.7.7-1.47,1.46-2.34,2.35-.37.37-.74.75-1.1,1.14l-1,1.05c-2.57,2.68-5,5.28-7.24,7.75l-3-3.29c2.4-2.62,4.66-5.06,7-7.54l1-1,1.19-1.22.59-.61.57-.57c.19-.19.36-.37.53-.53l.52-.51.72-.71.66-.64c.14-.15.29-.28.43-.41l.46-.44c4.8-4.45,7.57-5.9,11.2-5.9a13.91,13.91,0,0,1,8.48,3.08,34.5,34.5,0,0,1,4.07,3.72l-1.43,1.43c-.58.6-1.15,1.17-1.69,1.76C736.31,108.58,733.29,106,729.63,106Z"/><path class="cls-1" d="M798,114.73h0c.9-.94,1.83-1.9,2.78-2.86l1.19-1.22,1.19-1.2c4.89-4.79,9.32-7.36,10.69-7.6.8-.17,3-.43,3-.43V98.48l-1.61.14c-4.51.36-8.17,3-13,7.64a35.76,35.76,0,0,0-4.4-4,16.76,16.76,0,0,0-10.25-3.67c-4.31,0-7.61,1.59-12.7,6.22-4.45-3.88-8.17-6.14-13.21-6.23h-.3c-.34,0-2.36-.08-2.36-.08v2.94s2,0,3,.12a24.92,24.92,0,0,1,10.73,5.29l-.32.32-.68.67q-.37.35-.73.73l-1.2,1.2-.21.22a18,18,0,0,0-7.51-3.53l-3-.15v2.6l1.69,0a4.75,4.75,0,0,1,.81,0c1.46,0,2.91.58,6,3.19-2.39,2.57-4.87,5.55-6.82,7.29-.42.37-.81.68-1.08,1a3.47,3.47,0,0,0-.63.6v1.26a1.16,1.16,0,0,0,0,.16c0,.22.1.17.27.32l2.66,2.51s0,0,0,0l.88,1,.86.93.88,1,1.1,1.2c2.26,2.48,4.67,5.07,7.24,7.75l1,1.05c.35.37.71.73,1.07,1.09l.06.07.63.64.59.59c.2.2.38.39.57.57s.36.36.53.53c.35.32.66.65,1,1,.16.15.32.29.47.44l.21.21.22.2.36.35.35.32.06,0,.29.25c3.24,2.91,5.11,3.88,7.26,3.88a10.3,10.3,0,0,0,6.53-2.77,31.12,31.12,0,0,0,2.88-2.77h0l.16-.19.9-1c.51-.56,1-1.12,1.52-1.7l.41-.47,3-3.39,0,0,.88-1c1.55-1.7,3.15-3.42,4.76-5.13a.74.74,0,0,1,1.07,0l1,1s0,0,0,0l1,1.07a.74.74,0,0,1,0,1q-2.42,2.57-4.8,5.17l-1,1.17-1.34,1.49c-.44.5-.88,1-1.31,1.48l-.43.49-1.23,1.39-.61.7-.8.87c-4,4.22-7.74,7-12.71,7a11.25,11.25,0,0,1-6.62-2.16,33.9,33.9,0,0,1-4.32-3.5l-.19-.19-.27-.24-.28-.25c-.45-.43-.94-.88-1.46-1.41l-.54-.53c-.45-.44-.92-.92-1.43-1.43-.2-.2-.41-.39-.6-.6l-.59-.61-.59-.61-1-1c-2.6-2.71-5.05-5.38-7.68-8.24l-.09-.08-3-2.86v3.41s1.88,2.43,2,2.6l0,0c2.7,2.94,4.09,4.6,6.47,7.1-3.11,2.55-4.67,2.88-6,3.17a19.4,19.4,0,0,1-2.5.44v2.82l3-.3c1.89-.19,4.34-1.23,7.57-4h0l0,.06a1.07,1.07,0,0,1,.16.16c.29.28.56.56.81.82l.76.75.71.71.34.32.15.16a2.15,2.15,0,0,1,.16.16c-4.33,3.75-7.19,5.49-10.72,5.64l-3,.07v2.57l1.37,0a12.06,12.06,0,0,0,1.32,0c5-.09,8.72-2.34,13.16-6.22a38,38,0,0,0,4.46,3.57,14.17,14.17,0,0,0,8.26,2.66c6.22,0,10.75-3.57,14.66-7.7a44.19,44.19,0,0,0,6,5,14.39,14.39,0,0,0,7,2.61l1.6.13v-2.55l-3-.5a14.28,14.28,0,0,1-4-2.16,41.16,41.16,0,0,1-5.67-4.77l.93-1,.42-.48c.53-.61,1.07-1.2,1.61-1.82,3.07,3,5.06,4.53,6.73,5.26l3,.74v-3l-1.15-.27c-1.33-.31-3.28-1.77-6.57-5,1.7-1.88,3.44-3.75,5.19-5.61l.06,0,.12-.12c.36-.35,1.32-1.3,2.35-2.14V129c-.5-.47-.59-.5-.86-.44-.54.13-1.15,1.1-1.67,1.36-.13.06-.57-.21-.85-.41l-.22-.16a12.69,12.69,0,0,1-1.11-1.23,2.45,2.45,0,0,0-.17-.17,0,0,0,0,0,0,0c-.63-.64-1.09-1.14-1.69-1.77l-.54-.57c-2-2.09-3.94-4.18-5.82-6.26l.59-.63c.52-.54,1.05-1.08,1.59-1.62.31-.32.63-.65.94-1,2.05,2.26,5.49,5.91,6.6,7a1.58,1.58,0,0,0,2.05.29c.41-.23.71-.85,1.17-.85v-1.62c-1.55.42-5.46-4.16-7.74-6.89a40.37,40.37,0,0,1,4.39-3.83,6.28,6.28,0,0,1,2.2-1.15l1.15-.15v-2.6a24,24,0,0,0-3,.5,5.79,5.79,0,0,0-2.11,1,43.11,43.11,0,0,0-4.62,4l-.65.63-.46.45c-.64.63-1.32,1.32-2.06,2.09-1.09,1.1-2.14,2.19-3.16,3.28-.32.34-.64.66-.94,1-1.89,2-3.67,3.94-5.27,5.69-.46-.51-.93-1-1.4-1.52s-1.08-1.18-1.62-1.78c1.81-2,3.53-3.83,5.33-5.74C797.28,115.5,797.66,115.12,798,114.73ZM775,135c-2.6-2.71-5-5.36-7.33-7.87,2.29-2.51,4.74-5.16,7.33-7.88,2.82,2.83,5.34,5.5,7.53,7.87C780.36,129.5,777.84,132.19,775,135Zm5.21,5.27-.67-.66L778,138.11c-.27-.29-.56-.57-.86-.87h0l-.08-.08c2.79-2.8,5.29-5.46,7.47-7.81l1.92,2.11.67.74c.14.14.28.29.41.44C784.9,135.51,782.52,138,780.23,140.28Zm12,2.94a7.54,7.54,0,0,1-4.65,2.1c-.94,0-2-.25-5.16-3,2.24-2.26,4.56-4.69,7.17-7.5,1.81,2,3.53,3.86,5.35,5.77A27.73,27.73,0,0,1,792.21,143.23Zm9.67-21.78q2.57,2.83,5.29,5.69c-1.81,1.9-3.58,3.81-5.29,5.69-1.88-2-3.66-3.94-5.26-5.69C798.22,125.38,800,123.44,801.88,121.45Zm-9.25,5.72.88,1,1.1,1.19c1.6,1.76,3.38,3.71,5.27,5.7l-1.08,1.2c-.17.2-.35.41-.53.6s-.17.2-.27.3l-.25.3-.23.24-.2.23-.39.46c-1.8-1.9-3.53-3.77-5.35-5.75l-1.33-1.48c-.31-.32-.6-.66-.9-1l-.66-.73-1.52-1.67-1.52-1.65c-.15-.16-.3-.34-.46-.5l-.46-.52-.16-.17c-2.18-2.35-4.68-5-7.47-7.81a.27.27,0,0,1,.08-.08c1.19-1.22,2.19-2.21,3.06-3.06,2.55,2.55,5.2,5.33,8.26,8.65Zm-3.06-7.72c-2.61-2.8-4.92-5.23-7.17-7.48a24.26,24.26,0,0,1,2.18-1.77c1.58-1.14,2.34-1.24,3-1.24,2.35,0,4.68,1.85,7.37,4.73C793.11,115.59,791.39,117.47,789.58,119.45Zm-2-13.46a7.72,7.72,0,0,0-4.72,1.8,32.67,32.67,0,0,0-2.55,2.09l-.54.49-.51.47-.9.86-1,.95c-.7.7-1.47,1.46-2.34,2.35-.37.37-.74.75-1.1,1.14l-1,1.05c-2.57,2.68-5,5.28-7.24,7.75l-3-3.29c2.4-2.62,4.66-5.06,7-7.54l1-1,1.19-1.22.59-.61.57-.57c.19-.19.36-.37.53-.53l.52-.51.72-.71.66-.64c.14-.15.29-.28.43-.41l.46-.44c4.8-4.45,7.57-5.9,11.2-5.9a13.91,13.91,0,0,1,8.48,3.08,34.5,34.5,0,0,1,4.07,3.72l-1.43,1.43c-.58.6-1.15,1.17-1.69,1.76C794.24,108.58,791.23,106,787.56,106Z"/><path class="cls-1" d="M856,114.73h0c.9-.94,1.83-1.9,2.78-2.86l1.19-1.22,1.19-1.2c4.89-4.79,9.32-7.36,10.69-7.6.8-.17,3-.43,3-.43V98.48l-1.61.14c-4.51.36-8.17,3-13,7.64a35.76,35.76,0,0,0-4.4-4,16.76,16.76,0,0,0-10.25-3.67c-4.31,0-7.61,1.59-12.7,6.22-4.45-3.88-8.17-6.14-13.21-6.23h-.3c-.34,0-2.36-.08-2.36-.08v2.94s2,0,3,.12a24.92,24.92,0,0,1,10.73,5.29l-.32.32-.68.67q-.37.35-.73.73l-1.2,1.2-.21.22a18,18,0,0,0-7.51-3.53l-3-.15v2.6l1.69,0a4.75,4.75,0,0,1,.81,0c1.46,0,2.91.58,6,3.19-2.39,2.57-4.87,5.55-6.82,7.29-.42.37-.81.68-1.08,1a3.47,3.47,0,0,0-.63.6v1.26a1.16,1.16,0,0,0,0,.16c0,.22.1.17.27.32l2.66,2.51a0,0,0,0,1,0,0c.31.32.6.65.89,1l.86.93.88,1,1.1,1.2c2.26,2.48,4.67,5.07,7.24,7.75l1,1.05c.35.37.71.73,1.07,1.09l.06.07.63.64.59.59c.2.2.38.39.57.57s.36.36.53.53c.35.32.66.65,1,1,.16.15.32.29.47.44l.21.21.22.2.36.35.35.32.06,0,.29.25c3.24,2.91,5.11,3.88,7.26,3.88a10.3,10.3,0,0,0,6.53-2.77,31.12,31.12,0,0,0,2.88-2.77h0l.16-.19.9-1c.51-.56,1-1.12,1.52-1.7l.41-.47,3-3.39,0,0,.88-1c1.55-1.7,3.15-3.42,4.76-5.13a.74.74,0,0,1,1.07,0l1,1s0,0,0,0l1,1.07a.74.74,0,0,1,0,1q-2.42,2.57-4.8,5.17l-1,1.17-1.34,1.49c-.44.5-.88,1-1.31,1.48l-.43.49-1.23,1.39-.61.7-.8.87c-4,4.22-7.74,7-12.71,7a11.25,11.25,0,0,1-6.62-2.16,33.9,33.9,0,0,1-4.32-3.5l-.19-.19-.27-.24-.28-.25c-.45-.43-.94-.88-1.46-1.41l-.54-.53c-.45-.44-.92-.92-1.43-1.43-.2-.2-.41-.39-.6-.6l-.59-.61-.59-.61-1-1c-2.6-2.71-5.05-5.38-7.68-8.24l-.09-.08-3-2.86v3.41s1.88,2.43,2,2.6l0,0c2.7,2.94,4.09,4.6,6.47,7.1-3.11,2.55-4.67,2.88-6,3.17a19.4,19.4,0,0,1-2.5.44v2.82l3-.3c1.89-.19,4.34-1.23,7.57-4h0l0,.06a1.07,1.07,0,0,1,.16.16c.29.28.56.56.81.82l.76.75.71.71.34.32.15.16a2.15,2.15,0,0,1,.16.16c-4.33,3.75-7.19,5.49-10.72,5.64l-3,.07v2.57l1.37,0a12.06,12.06,0,0,0,1.32,0c5-.09,8.72-2.34,13.16-6.22a38,38,0,0,0,4.46,3.57,14.17,14.17,0,0,0,8.26,2.66c6.22,0,10.75-3.57,14.66-7.7a44.19,44.19,0,0,0,6,5,14.39,14.39,0,0,0,7,2.61l1.6.13v-2.55l-3-.5a14.28,14.28,0,0,1-4-2.16,41.16,41.16,0,0,1-5.67-4.77l.93-1,.42-.48c.53-.61,1.07-1.2,1.61-1.82,3.07,3,5.06,4.53,6.73,5.26l3,.74v-3l-1.15-.27c-1.33-.31-3.28-1.77-6.57-5,1.7-1.88,3.44-3.75,5.19-5.61l.06,0,.12-.12c.36-.35,1.32-1.3,2.35-2.14V129c-.5-.47-.59-.5-.86-.44-.54.13-1.15,1.1-1.67,1.36-.13.06-.57-.21-.85-.41l-.22-.16a12.69,12.69,0,0,1-1.11-1.23,2.45,2.45,0,0,0-.17-.17,0,0,0,0,0,0,0c-.63-.64-1.09-1.14-1.69-1.77l-.54-.57c-2-2.09-3.94-4.18-5.82-6.26l.59-.63c.52-.54,1.05-1.08,1.59-1.62.31-.32.63-.65.94-1,2.05,2.26,5.49,5.91,6.6,7a1.58,1.58,0,0,0,2.05.29c.41-.23.71-.85,1.17-.85v-1.62c-1.55.42-5.46-4.16-7.74-6.89a40.37,40.37,0,0,1,4.39-3.83,6.28,6.28,0,0,1,2.2-1.15l1.15-.15v-2.6a24,24,0,0,0-3,.5,5.79,5.79,0,0,0-2.11,1,43.11,43.11,0,0,0-4.62,4l-.65.63-.46.45c-.64.63-1.32,1.32-2.06,2.09-1.09,1.1-2.14,2.19-3.16,3.28-.32.34-.64.66-.94,1-1.89,2-3.67,3.94-5.27,5.69-.46-.51-.93-1-1.4-1.52s-1.08-1.18-1.62-1.78c1.81-2,3.53-3.83,5.33-5.74C855.22,115.5,855.59,115.12,856,114.73Zm-23,20.29c-2.6-2.71-5-5.36-7.33-7.87,2.29-2.51,4.74-5.16,7.33-7.88,2.82,2.83,5.34,5.5,7.53,7.87C838.29,129.5,835.77,132.19,832.95,135Zm5.21,5.27-.67-.66L836,138.11c-.27-.29-.56-.57-.86-.87h0l-.08-.08c2.79-2.8,5.29-5.46,7.47-7.81l1.92,2.11.67.74c.14.14.28.29.41.44C842.83,135.51,840.45,138,838.16,140.28Zm12,2.94a7.54,7.54,0,0,1-4.65,2.1c-.94,0-2-.25-5.16-3,2.24-2.26,4.56-4.69,7.17-7.5,1.81,2,3.53,3.86,5.35,5.77A27.73,27.73,0,0,1,850.14,143.23Zm9.67-21.78q2.57,2.83,5.29,5.69c-1.81,1.9-3.58,3.81-5.29,5.69-1.88-2-3.66-3.94-5.26-5.69C856.15,125.38,857.94,123.44,859.81,121.45Zm-9.25,5.72.88,1,1.1,1.19c1.6,1.76,3.38,3.71,5.27,5.7l-1.08,1.2c-.17.2-.35.41-.53.6s-.17.2-.27.3l-.25.3-.23.24-.2.23-.39.46c-1.8-1.9-3.53-3.77-5.35-5.75l-1.33-1.48c-.31-.32-.6-.66-.9-1l-.66-.73-1.52-1.67-1.52-1.65c-.15-.16-.3-.34-.46-.5l-.46-.52-.16-.17c-2.18-2.35-4.68-5-7.47-7.81a.27.27,0,0,1,.08-.08c1.19-1.22,2.19-2.21,3.06-3.06,2.55,2.55,5.2,5.33,8.26,8.65Zm-3.06-7.72c-2.61-2.8-4.92-5.23-7.17-7.48a24.26,24.26,0,0,1,2.18-1.77c1.58-1.14,2.34-1.24,3-1.24,2.35,0,4.68,1.85,7.37,4.73C851,115.59,849.32,117.47,847.51,119.45Zm-2-13.46a7.72,7.72,0,0,0-4.72,1.8,32.67,32.67,0,0,0-2.55,2.09l-.54.49-.51.47-.9.86-1,.95c-.7.7-1.47,1.46-2.34,2.35-.37.37-.74.75-1.1,1.14l-1,1.05c-2.57,2.68-5,5.28-7.24,7.75l-3-3.29c2.4-2.62,4.66-5.06,7-7.54l1-1,1.19-1.22.59-.61.57-.57c.19-.19.36-.37.53-.53l.52-.51.72-.71.66-.64c.14-.15.29-.28.43-.41l.46-.44c4.8-4.45,7.57-5.9,11.2-5.9a13.91,13.91,0,0,1,8.48,3.08,34.5,34.5,0,0,1,4.07,3.72l-1.43,1.43c-.58.6-1.15,1.17-1.69,1.76C852.17,108.58,849.16,106,845.49,106Z"/><path class="cls-1" d="M913.9,114.73h0c.9-.94,1.83-1.9,2.78-2.86l1.19-1.22,1.19-1.2c4.89-4.79,9.32-7.36,10.69-7.6.8-.17,3-.43,3-.43V98.48l-1.61.14c-4.51.36-8.17,3-13,7.64a35.76,35.76,0,0,0-4.4-4,16.76,16.76,0,0,0-10.25-3.67c-4.31,0-7.61,1.59-12.7,6.22-4.45-3.88-8.17-6.14-13.21-6.23h-.3c-.34,0-2.36-.08-2.36-.08v2.94s2,0,3,.12a24.92,24.92,0,0,1,10.73,5.29l-.32.32-.68.67q-.37.35-.73.73l-1.2,1.2-.21.22a18,18,0,0,0-7.51-3.53l-3-.15v2.6l1.69,0a4.75,4.75,0,0,1,.81,0c1.46,0,2.91.58,6,3.19-2.39,2.57-4.87,5.55-6.82,7.29-.42.37-.81.68-1.08,1a3.47,3.47,0,0,0-.63.6v1.26a1.16,1.16,0,0,0,0,.16c0,.22.1.17.27.32l2.66,2.51s0,0,0,0l.88,1,.86.93.88,1,1.1,1.2c2.26,2.48,4.67,5.07,7.24,7.75l1,1.05c.35.37.71.73,1.07,1.09l.06.07.63.64.59.59c.2.2.38.39.57.57s.36.36.53.53c.35.32.66.65,1,1,.16.15.32.29.47.44l.21.21.22.2.36.35.35.32.06,0,.29.25c3.24,2.91,5.11,3.88,7.26,3.88a10.3,10.3,0,0,0,6.53-2.77,31.12,31.12,0,0,0,2.88-2.77h0l.16-.19.9-1c.51-.56,1-1.12,1.52-1.7l.41-.47,3-3.39,0,0,.88-1c1.55-1.7,3.15-3.42,4.76-5.13a.74.74,0,0,1,1.07,0l1,1a.09.09,0,0,0,0,0l1,1.08a.74.74,0,0,1,0,1q-2.42,2.57-4.8,5.17l-1,1.17-1.34,1.49c-.44.5-.88,1-1.31,1.48l-.43.49-1.23,1.39-.61.7-.8.87c-4,4.22-7.74,7-12.71,7a11.25,11.25,0,0,1-6.62-2.16,33.9,33.9,0,0,1-4.32-3.5l-.19-.19-.27-.24-.28-.25c-.45-.43-.94-.88-1.46-1.41l-.54-.53c-.45-.44-.92-.92-1.43-1.43-.2-.2-.41-.39-.6-.6l-.59-.61-.59-.61-1-1c-2.6-2.71-5.05-5.38-7.68-8.24l-.09-.08-3-2.86v3.41s1.88,2.43,2,2.6l0,0c2.7,2.94,4.09,4.6,6.47,7.1-3.11,2.55-4.67,2.88-6,3.17a19.4,19.4,0,0,1-2.5.44v2.82l3-.3c1.89-.19,4.34-1.23,7.57-4h0l0,.06a1.07,1.07,0,0,1,.16.16c.29.28.56.56.81.82l.76.75.71.71.34.32.15.16a2.15,2.15,0,0,1,.16.16c-4.33,3.75-7.19,5.49-10.72,5.64l-3,.07v2.57l1.37,0a12.06,12.06,0,0,0,1.32,0c5-.09,8.72-2.34,13.16-6.22a38,38,0,0,0,4.46,3.57,14.17,14.17,0,0,0,8.26,2.66c6.22,0,10.75-3.57,14.66-7.7a44.19,44.19,0,0,0,6,5,14.39,14.39,0,0,0,7,2.61l1.6.13v-2.55l-3-.5a14.28,14.28,0,0,1-4-2.16,41.16,41.16,0,0,1-5.67-4.77l.93-1,.42-.48c.53-.61,1.07-1.2,1.61-1.82,3.07,3,5.06,4.53,6.73,5.26l3,.74v-3l-1.15-.27c-1.33-.31-3.28-1.77-6.57-5,1.7-1.88,3.44-3.75,5.19-5.61l.06,0,.12-.12c.36-.35,1.32-1.3,2.35-2.14V129c-.5-.47-.59-.5-.86-.44-.54.13-1.15,1.1-1.67,1.36-.13.06-.57-.21-.85-.41l-.22-.16a12.69,12.69,0,0,1-1.11-1.23,2.45,2.45,0,0,0-.17-.17,0,0,0,0,0,0,0c-.63-.64-1.09-1.14-1.69-1.77l-.54-.57c-2-2.09-3.94-4.18-5.82-6.26l.59-.63c.52-.54,1.05-1.08,1.59-1.62.31-.32.63-.65.94-1,2.05,2.26,5.49,5.91,6.6,7a1.58,1.58,0,0,0,2.05.29c.41-.23.71-.85,1.17-.85v-1.62c-1.55.42-5.46-4.16-7.74-6.89a40.37,40.37,0,0,1,4.39-3.83,6.28,6.28,0,0,1,2.2-1.15l1.15-.15v-2.6a24,24,0,0,0-3,.5,5.79,5.79,0,0,0-2.11,1,43.11,43.11,0,0,0-4.62,4l-.65.63-.46.45c-.64.63-1.32,1.32-2.06,2.09-1.09,1.1-2.14,2.19-3.16,3.28-.32.34-.64.66-.94,1-1.89,2-3.67,3.94-5.27,5.69-.46-.51-.93-1-1.4-1.52s-1.08-1.18-1.62-1.78c1.81-2,3.53-3.83,5.33-5.74C913.15,115.5,913.52,115.12,913.9,114.73Zm-23,20.29c-2.6-2.71-5-5.36-7.33-7.87,2.29-2.51,4.74-5.16,7.33-7.88,2.82,2.83,5.34,5.5,7.53,7.87C896.22,129.5,893.7,132.19,890.88,135Zm5.21,5.27-.67-.66-1.53-1.52c-.27-.29-.56-.57-.86-.87h0l-.08-.08c2.79-2.8,5.29-5.46,7.47-7.81l1.92,2.11.67.74c.14.14.28.29.41.44C900.76,135.51,898.38,138,896.09,140.28Zm12,2.94a7.54,7.54,0,0,1-4.65,2.1c-.94,0-2-.25-5.16-3,2.24-2.26,4.56-4.69,7.17-7.5,1.81,2,3.53,3.86,5.35,5.77A27.73,27.73,0,0,1,908.07,143.23Zm9.67-21.78q2.57,2.83,5.29,5.69c-1.81,1.9-3.58,3.81-5.29,5.69-1.88-2-3.66-3.94-5.26-5.69C914.08,125.38,915.87,123.44,917.75,121.45Zm-9.25,5.72.88,1,1.1,1.19c1.6,1.76,3.38,3.71,5.27,5.7l-1.08,1.2c-.17.2-.35.41-.53.6s-.17.2-.27.3l-.25.3-.23.24-.2.23-.39.46c-1.8-1.9-3.53-3.77-5.35-5.75l-1.33-1.48c-.31-.32-.6-.66-.9-1l-.66-.73L903,127.78l-1.52-1.65c-.15-.16-.3-.34-.46-.5l-.46-.52-.16-.17c-2.18-2.35-4.68-5-7.47-7.81a.27.27,0,0,1,.08-.08c1.19-1.22,2.19-2.21,3.06-3.06,2.55,2.55,5.2,5.33,8.26,8.65Zm-3.06-7.72c-2.61-2.8-4.92-5.23-7.17-7.48a24.26,24.26,0,0,1,2.18-1.77c1.58-1.14,2.34-1.24,3-1.24,2.35,0,4.68,1.85,7.37,4.73C909,115.59,907.25,117.47,905.44,119.45Zm-2-13.46a7.72,7.72,0,0,0-4.72,1.8,32.67,32.67,0,0,0-2.55,2.09l-.54.49-.51.47-.9.86-1,.95c-.7.7-1.47,1.46-2.34,2.35-.37.37-.74.75-1.1,1.14l-1,1.05c-2.57,2.68-5,5.28-7.24,7.75l-3-3.29c2.4-2.62,4.66-5.06,7-7.54l1-1,1.19-1.22.59-.61.57-.57c.19-.19.36-.37.53-.53l.52-.51.72-.71.66-.64c.14-.15.29-.28.43-.41l.46-.44c4.8-4.45,7.57-5.9,11.2-5.9a13.91,13.91,0,0,1,8.48,3.08,34.5,34.5,0,0,1,4.07,3.72l-1.43,1.43c-.58.6-1.15,1.17-1.69,1.76C910.1,108.58,907.09,106,903.42,106Z"/><path class="cls-1" d="M971.83,114.73h0c.9-.94,1.83-1.9,2.78-2.86l1.19-1.22,1.19-1.2c4.89-4.79,9.32-7.36,10.69-7.6.8-.17,3-.43,3-.43V98.48l-1.61.14c-4.51.36-8.17,3-13,7.64a35.76,35.76,0,0,0-4.4-4,16.76,16.76,0,0,0-10.25-3.67c-4.31,0-7.61,1.59-12.7,6.22-4.45-3.88-8.17-6.14-13.21-6.23h-.3c-.34,0-2.36-.08-2.36-.08v2.94s2,0,3,.12a24.92,24.92,0,0,1,10.73,5.29l-.32.32-.68.67q-.37.35-.73.73l-1.2,1.2-.21.22a18,18,0,0,0-7.51-3.53l-3-.15v2.6l1.69,0a4.75,4.75,0,0,1,.81,0c1.46,0,2.91.58,6,3.19-2.39,2.57-4.87,5.55-6.82,7.29-.42.37-.81.68-1.08,1a3.47,3.47,0,0,0-.63.6v1.26a1.16,1.16,0,0,0,0,.16c0,.22.1.17.27.32l2.66,2.51s0,0,0,0l.88,1,.86.93.88,1,1.1,1.2c2.26,2.48,4.67,5.07,7.24,7.75l1,1.05c.35.37.71.73,1.07,1.09l.06.07.63.64.59.59c.2.2.38.39.57.57s.36.36.53.53c.35.32.66.65,1,1,.16.15.32.29.47.44l.21.21.22.2.36.35.35.32.06,0,.29.25c3.24,2.91,5.11,3.88,7.26,3.88a10.3,10.3,0,0,0,6.53-2.77,31.12,31.12,0,0,0,2.88-2.77h0l.16-.19.9-1c.51-.56,1-1.12,1.52-1.7l.41-.47,3-3.39,0,0,.88-1c1.55-1.7,3.15-3.42,4.76-5.13a.74.74,0,0,1,1.07,0l1,1s0,0,0,0l1,1.07a.74.74,0,0,1,0,1q-2.42,2.57-4.8,5.17l-1,1.17-1.34,1.49c-.44.5-.88,1-1.31,1.48l-.43.49-1.23,1.39-.61.7-.8.87c-4,4.22-7.74,7-12.71,7a11.25,11.25,0,0,1-6.62-2.16,33.9,33.9,0,0,1-4.32-3.5l-.19-.19-.27-.24-.28-.25c-.45-.43-.94-.88-1.46-1.41l-.54-.53c-.45-.44-.92-.92-1.43-1.43-.2-.2-.41-.39-.6-.6l-.59-.61-.59-.61-1-1c-2.6-2.71-5.05-5.38-7.68-8.24l-.09-.08-3-2.86v3.41s1.88,2.43,2,2.6l0,0c2.7,2.94,4.09,4.6,6.47,7.1-3.11,2.55-4.67,2.88-6,3.17a19.4,19.4,0,0,1-2.5.44v2.82l3-.3c1.89-.19,4.34-1.23,7.57-4h0l0,.06a1.07,1.07,0,0,1,.16.16c.29.28.56.56.81.82l.76.75.71.71.34.32.15.16a2.15,2.15,0,0,1,.16.16c-4.33,3.75-7.19,5.49-10.72,5.64l-3,.07v2.57l1.37,0a12.06,12.06,0,0,0,1.32,0c5-.09,8.72-2.34,13.16-6.22a38,38,0,0,0,4.46,3.57,14.17,14.17,0,0,0,8.26,2.66c6.22,0,10.75-3.57,14.66-7.7a44.19,44.19,0,0,0,6,5,14.39,14.39,0,0,0,7,2.61l1.6.13v-2.55l-3-.5a14.28,14.28,0,0,1-4-2.16,41.16,41.16,0,0,1-5.67-4.77l.93-1,.42-.48c.53-.61,1.07-1.2,1.61-1.82,3.07,3,5.06,4.53,6.73,5.26l3,.74v-3l-1.15-.27c-1.33-.31-3.28-1.77-6.57-5,1.7-1.88,3.44-3.75,5.19-5.61l.06,0,.12-.12c.36-.35,1.32-1.3,2.35-2.14V129c-.5-.47-.59-.5-.86-.44-.54.13-1.15,1.1-1.67,1.36-.13.06-.57-.21-.85-.41l-.22-.16a12.69,12.69,0,0,1-1.11-1.23,2.45,2.45,0,0,0-.17-.17,0,0,0,0,0,0,0c-.63-.64-1.09-1.14-1.69-1.77l-.54-.57c-2-2.09-3.94-4.18-5.82-6.26l.59-.63c.52-.54,1.05-1.08,1.59-1.62.31-.32.63-.65.94-1,2.05,2.26,5.49,5.91,6.6,7a1.58,1.58,0,0,0,2.05.29c.41-.23.71-.85,1.17-.85v-1.62c-1.55.42-5.46-4.16-7.74-6.89a40.37,40.37,0,0,1,4.39-3.83,6.28,6.28,0,0,1,2.2-1.15l1.15-.15v-2.6a24,24,0,0,0-3,.5,5.79,5.79,0,0,0-2.11,1,43.11,43.11,0,0,0-4.62,4l-.65.63-.46.45c-.64.63-1.32,1.32-2.06,2.09-1.09,1.1-2.14,2.19-3.16,3.28-.32.34-.64.66-.94,1-1.89,2-3.67,3.94-5.27,5.69-.46-.51-.93-1-1.4-1.52s-1.08-1.18-1.62-1.78c1.81-2,3.53-3.83,5.33-5.74C971.08,115.5,971.45,115.12,971.83,114.73Zm-23,20.29c-2.6-2.71-5-5.36-7.33-7.87,2.29-2.51,4.74-5.16,7.33-7.88,2.82,2.83,5.34,5.5,7.53,7.87C954.15,129.5,951.63,132.19,948.81,135Zm5.21,5.27-.67-.66-1.53-1.52c-.27-.29-.56-.57-.86-.87h0l-.08-.08c2.79-2.8,5.29-5.46,7.47-7.81l1.92,2.11.67.74c.14.14.28.29.41.44C958.69,135.51,956.32,138,954,140.28Zm12,2.94a7.54,7.54,0,0,1-4.65,2.1c-.94,0-2-.25-5.16-3,2.24-2.26,4.56-4.69,7.17-7.5,1.81,2,3.53,3.86,5.35,5.77A27.73,27.73,0,0,1,966,143.23Zm9.67-21.78q2.57,2.83,5.29,5.69c-1.81,1.9-3.58,3.81-5.29,5.69-1.88-2-3.66-3.94-5.26-5.69C972,125.38,973.8,123.44,975.68,121.45Zm-9.25,5.72.88,1,1.1,1.19c1.6,1.76,3.38,3.71,5.27,5.7l-1.08,1.2c-.17.2-.35.41-.53.6s-.17.2-.27.3l-.25.3-.23.24-.2.23-.39.46c-1.8-1.9-3.53-3.77-5.35-5.75L964,131.15c-.31-.32-.6-.66-.9-1l-.66-.73L961,127.78l-1.52-1.65c-.15-.16-.3-.34-.46-.5l-.46-.52-.16-.17c-2.18-2.35-4.68-5-7.47-7.81a.27.27,0,0,1,.08-.08c1.19-1.22,2.19-2.21,3.06-3.06,2.55,2.55,5.2,5.33,8.26,8.65Zm-3.06-7.72c-2.61-2.8-4.92-5.23-7.17-7.48a24.26,24.26,0,0,1,2.18-1.77c1.58-1.14,2.34-1.24,3-1.24,2.35,0,4.68,1.85,7.37,4.73C966.91,115.59,965.18,117.47,963.37,119.45Zm-2-13.46a7.72,7.72,0,0,0-4.72,1.8,32.67,32.67,0,0,0-2.55,2.09l-.54.49-.51.47-.9.86-1,.95c-.7.7-1.47,1.46-2.34,2.35-.37.37-.74.75-1.1,1.14l-1,1.05c-2.57,2.68-5,5.28-7.24,7.75l-3-3.29c2.4-2.62,4.66-5.06,7-7.54l1-1,1.19-1.22.59-.61.57-.57c.19-.19.36-.37.53-.53l.52-.51.72-.71.66-.64c.14-.15.29-.28.43-.41l.46-.44c4.8-4.45,7.57-5.9,11.2-5.9a13.91,13.91,0,0,1,8.48,3.08,34.5,34.5,0,0,1,4.07,3.72l-1.43,1.43c-.58.6-1.15,1.17-1.69,1.76C968,108.58,965,106,961.36,106Z"/><path class="cls-1" d="M1029.76,114.73h0c.9-.94,1.83-1.9,2.78-2.86l1.19-1.22,1.19-1.2c4.89-4.79,9.32-7.36,10.69-7.6.8-.17,3-.43,3-.43V98.48l-1.61.14c-4.51.36-8.17,3-13,7.64a35.76,35.76,0,0,0-4.4-4,16.76,16.76,0,0,0-10.25-3.67c-4.31,0-7.61,1.59-12.7,6.22-4.45-3.88-8.17-6.14-13.21-6.23h-.3c-.34,0-2.36-.08-2.36-.08v2.94s2,0,3,.12a24.92,24.92,0,0,1,10.73,5.29l-.32.32-.68.67q-.37.35-.73.73l-1.2,1.2-.21.22a18,18,0,0,0-7.51-3.53l-3-.15v2.6l1.69,0a4.75,4.75,0,0,1,.81,0c1.46,0,2.91.58,6,3.19-2.39,2.57-4.87,5.55-6.82,7.29-.42.37-.81.68-1.08,1a3.47,3.47,0,0,0-.63.6v1.26a1.16,1.16,0,0,0,0,.16c0,.22.1.17.27.32l2.66,2.51a0,0,0,0,1,0,0c.31.32.6.65.89,1l.86.93.88,1,1.1,1.2c2.26,2.48,4.67,5.07,7.24,7.75l1,1.05c.35.37.71.73,1.07,1.09l.06.07.63.64.59.59c.2.2.38.39.57.57s.36.36.53.53c.35.32.66.65,1,1,.16.15.32.29.47.44l.21.21.22.2.36.35.35.32.06,0,.29.25c3.24,2.91,5.11,3.88,7.26,3.88a10.3,10.3,0,0,0,6.53-2.77,31.12,31.12,0,0,0,2.88-2.77h0l.16-.19.9-1c.51-.56,1-1.12,1.52-1.7l.41-.47,3-3.39,0,0,.88-1c1.55-1.7,3.15-3.42,4.76-5.13a.74.74,0,0,1,1.07,0l1,1s0,0,0,0l1,1.07a.74.74,0,0,1,0,1q-2.42,2.57-4.8,5.17l-1,1.17-1.34,1.49c-.44.5-.88,1-1.31,1.48l-.43.49-1.23,1.39-.61.7-.8.87c-4,4.22-7.74,7-12.71,7a11.25,11.25,0,0,1-6.62-2.16,33.9,33.9,0,0,1-4.32-3.5l-.19-.19-.27-.24-.28-.25c-.45-.43-.94-.88-1.46-1.41l-.54-.53c-.45-.44-.92-.92-1.43-1.43-.2-.2-.41-.39-.6-.6l-.59-.61-.59-.61-1-1c-2.6-2.71-5.05-5.38-7.68-8.24l-.09-.08-3-2.86v3.41s1.88,2.43,2,2.6l0,0c2.7,2.94,4.09,4.6,6.47,7.1-3.11,2.55-4.67,2.88-6,3.17a19.4,19.4,0,0,1-2.5.44v2.82l3-.3c1.89-.19,4.34-1.23,7.57-4h0l0,.06a1.07,1.07,0,0,1,.16.16c.29.28.56.56.81.82l.76.75.71.71.34.32.15.16a2.15,2.15,0,0,1,.16.16c-4.33,3.75-7.19,5.49-10.72,5.64l-3,.07v2.57l1.37,0a12.06,12.06,0,0,0,1.32,0c5-.09,8.72-2.34,13.16-6.22a38,38,0,0,0,4.46,3.57,14.17,14.17,0,0,0,8.26,2.66c6.22,0,10.75-3.57,14.66-7.7a44.19,44.19,0,0,0,6,5,14.39,14.39,0,0,0,7,2.61l1.6.13v-2.55l-3-.5a14.28,14.28,0,0,1-4-2.16,41.16,41.16,0,0,1-5.67-4.77l.93-1,.42-.48c.53-.61,1.07-1.2,1.61-1.82,3.07,3,5.06,4.53,6.73,5.26l3,.74v-3l-1.15-.27c-1.33-.31-3.28-1.77-6.57-5,1.7-1.88,3.44-3.75,5.19-5.61l.06,0,.12-.12c.36-.35,1.32-1.3,2.35-2.14V129c-.5-.47-.59-.5-.86-.44-.54.13-1.15,1.1-1.67,1.36-.13.06-.57-.21-.85-.41l-.22-.16a12.69,12.69,0,0,1-1.11-1.23,2.45,2.45,0,0,0-.17-.17,0,0,0,0,0,0,0c-.63-.64-1.09-1.14-1.69-1.77l-.54-.57c-2-2.09-3.94-4.18-5.82-6.26l.59-.63c.52-.54,1.05-1.08,1.59-1.62.31-.32.63-.65.94-1,2.05,2.26,5.49,5.91,6.6,7a1.58,1.58,0,0,0,2.05.29c.41-.23.71-.85,1.17-.85v-1.62c-1.55.42-5.46-4.16-7.74-6.89a40.37,40.37,0,0,1,4.39-3.83,6.28,6.28,0,0,1,2.2-1.15l1.15-.15v-2.6a24,24,0,0,0-3,.5,5.79,5.79,0,0,0-2.11,1,43.11,43.11,0,0,0-4.62,4l-.65.63-.46.45c-.64.63-1.32,1.32-2.06,2.09-1.09,1.1-2.14,2.19-3.16,3.28-.32.34-.64.66-.94,1-1.89,2-3.67,3.94-5.27,5.69-.46-.51-.93-1-1.4-1.52s-1.08-1.18-1.62-1.78c1.81-2,3.53-3.83,5.33-5.74C1029,115.5,1029.38,115.12,1029.76,114.73Zm-23,20.29c-2.6-2.71-5-5.36-7.33-7.87,2.29-2.51,4.74-5.16,7.33-7.88,2.82,2.83,5.34,5.5,7.53,7.87C1012.08,129.5,1009.57,132.19,1006.74,135Zm5.21,5.27-.67-.66-1.53-1.52c-.27-.29-.56-.57-.86-.87h0l-.08-.08c2.79-2.8,5.29-5.46,7.47-7.81l1.92,2.11.67.74c.14.14.28.29.41.44C1016.62,135.51,1014.25,138,1012,140.28Zm12,2.94a7.54,7.54,0,0,1-4.65,2.1c-.94,0-2-.25-5.16-3,2.24-2.26,4.56-4.69,7.17-7.5,1.81,2,3.53,3.86,5.35,5.77A27.73,27.73,0,0,1,1023.93,143.23Zm9.67-21.78q2.57,2.83,5.29,5.69c-1.81,1.9-3.58,3.81-5.29,5.69-1.88-2-3.66-3.94-5.26-5.69C1029.94,125.38,1031.73,123.44,1033.61,121.45Zm-9.25,5.72.88,1,1.1,1.19c1.6,1.76,3.38,3.71,5.27,5.7l-1.08,1.2c-.17.2-.35.41-.53.6s-.17.2-.27.3l-.25.3-.23.24-.2.23-.39.46c-1.8-1.9-3.53-3.77-5.35-5.75l-1.33-1.48c-.31-.32-.6-.66-.9-1l-.66-.73-1.52-1.67-1.52-1.65c-.15-.16-.3-.34-.46-.5l-.46-.52-.16-.17c-2.18-2.35-4.68-5-7.47-7.81a.27.27,0,0,1,.08-.08c1.19-1.22,2.19-2.21,3.06-3.06,2.55,2.55,5.2,5.33,8.26,8.65Zm-3.06-7.72c-2.61-2.8-4.92-5.23-7.17-7.48a24.26,24.26,0,0,1,2.18-1.77c1.58-1.14,2.34-1.24,3-1.24,2.35,0,4.68,1.85,7.37,4.73C1024.84,115.59,1023.11,117.47,1021.3,119.45Zm-2-13.46a7.72,7.72,0,0,0-4.72,1.8,32.67,32.67,0,0,0-2.55,2.09l-.54.49-.51.47-.9.86-1,.95c-.7.7-1.47,1.46-2.34,2.35-.37.37-.74.75-1.1,1.14l-1,1.05c-2.57,2.68-5,5.28-7.24,7.75l-3-3.29c2.4-2.62,4.66-5.06,7-7.54l1-1,1.19-1.22.59-.61.57-.57c.19-.19.36-.37.53-.53l.52-.51.72-.71.66-.64c.14-.15.29-.28.43-.41l.46-.44c4.8-4.45,7.57-5.9,11.2-5.9a13.91,13.91,0,0,1,8.48,3.08,34.5,34.5,0,0,1,4.07,3.72l-1.43,1.43c-.58.6-1.15,1.17-1.69,1.76C1026,108.58,1022.95,106,1019.29,106Z"/></g></g></svg>