<svg xmlns="http://www.w3.org/2000/svg" viewBox="0 0 1075.29 752.73"><defs><style>.cls-1,.cls-3{fill:none;}.cls-1{stroke:#fff;stroke-miterlimit:10;stroke-width:0.25px;}.cls-2{fill:#fff;}</style></defs><title>banner_bottom_h.svg</title><g id="Layer_2" data-name="Layer 2"><g id="design"><g id="_Group_" data-name="&lt;Group&gt;"><path class="cls-1" d="M572,112.52s7.82-36.66,12.21-44.74a16.22,16.22,0,0,1,12.22-8.61s8.52,1.27,12.22,8.61,12.21,44.78,12.21,44.78" transform="translate(-58.75)"/><path class="cls-2" d="M606.43,71.89c-3-6.53-10-6.76-10-6.76s-6.49-.43-10.11,6.76-10.11,40.66-10.11,40.66h40.3S609.45,78.42,606.43,71.89Zm-10,22.79c-2.5,0-4.55-2.24-4.55-5.18s2.05-5.18,4.55-5.18,4.4,2.24,4.4,5.18S598.82,94.68,596.47,94.68Z" transform="translate(-58.75)"/></g><path class="cls-1" d="M523.84,121s1.33-37.46,4.26-46.18a16.22,16.22,0,0,1,10.54-10.6s8.61-.23,13.53,6.36,19.8,42,19.8,42" transform="translate(-58.75)"/><path class="cls-2" d="M550.73,75c-4.11-5.9-11-4.93-11-4.93s-6.47.7-8.79,8.42-2.9,41.8-2.9,41.8l39.69-7S554.84,80.91,550.73,75Zm-5.86,24.17c-2.46.43-4.87-1.42-5.38-4.31s1.12-5.46,3.58-5.89,4.73,1.45,5.24,4.34S547.19,98.78,544.87,99.18Z" transform="translate(-58.75)"/><path class="cls-1" d="M477.92,137.72s-5.19-37.12-3.83-46.22a16.22,16.22,0,0,1,8.54-12.27s8.44-1.73,14.43,3.91S523.85,121,523.85,121" transform="translate(-58.75)"/><path class="cls-2" d="M496.41,87.75c-5.07-5.1-11.67-2.95-11.67-2.95s-6.25,1.81-7.19,9.81,4.4,41.67,4.4,41.67l37.87-13.78S501.48,92.85,496.41,87.75Zm-1.57,24.82c-2.34.85-5-.55-6-3.31s.16-5.57,2.5-6.42,4.9.6,5.91,3.36S497,111.77,494.84,112.58Z" transform="translate(-58.75)"/><path class="cls-1" d="M435.6,162.16S424,126.5,423.8,117.3a16.22,16.22,0,0,1,6.28-13.57s8-3.16,14.89,1.35,33,32.67,33,32.67" transform="translate(-58.75)"/><path class="cls-2" d="M445.13,109.74c-5.88-4.14-12-.87-12-.87s-5.84,2.87-5.38,10.91S439.32,160,439.32,160l34.9-20.15S451,113.88,445.13,109.74Zm2.76,24.72c-2.16,1.25-5.06.33-6.53-2.21s-.81-5.51,1.35-6.76,4.94-.26,6.4,2.28S449.93,133.28,447.9,134.45Z" transform="translate(-58.75)"/><path class="cls-1" d="M398.16,193.57s-17.58-33.11-19.4-42.12A16.22,16.22,0,0,1,382.58,137s7.34-4.51,14.89-1.26,38.14,26.45,38.14,26.45" transform="translate(-58.75)"/><path class="cls-2" d="M398.45,140.29c-6.51-3.06-12,1.22-12,1.22s-5.25,3.84-3.4,11.68,18.39,37.65,18.39,37.65l30.88-25.91S405,143.35,398.45,140.29Zm7,23.86c-1.91,1.6-4.93,1.21-6.81-1s-1.76-5.29.16-6.89,4.82-1.11,6.7,1.14S407.26,162.64,405.47,164.15Z" transform="translate(-58.75)"/><path class="cls-1" d="M366.75,231s-23.06-29.55-26.42-38.11a16.22,16.22,0,0,1,1.26-14.9s6.45-5.71,14.45-3.83,42.15,19.43,42.15,19.43" transform="translate(-58.75)"/><path class="cls-2" d="M357.78,178.48c-6.94-1.88-11.58,3.29-11.58,3.29s-4.5,4.7-1.32,12.09,24.65,33.88,24.65,33.88l25.91-30.88S364.72,180.36,357.78,178.48Zm11.05,22.28c-1.6,1.91-4.64,2-6.89.16s-2.65-4.9-1-6.81,4.55-1.93,6.8,0S370.34,199,368.84,200.76Z" transform="translate(-58.75)"/><path class="cls-1" d="M342.32,273.32s-27.84-25.1-32.64-32.95a16.22,16.22,0,0,1-1.35-14.89s5.36-6.75,13.57-6.28S366.78,231,366.78,231" transform="translate(-58.75)"/><path class="cls-2" d="M324.37,223.16c-7.16-.65-10.84,5.25-10.84,5.25s-3.62,5.41.8,12.14,30.16,29.09,30.16,29.09l20.15-34.9S331.53,223.81,324.37,223.16Zm14.75,20c-1.25,2.16-4.22,2.82-6.76,1.35s-3.46-4.37-2.21-6.53,4.15-2.69,6.69-1.22S340.29,241.15,339.12,243.18Z" transform="translate(-58.75)"/><path class="cls-1" d="M325.6,319.24s-31.78-19.88-37.87-26.78A16.22,16.22,0,0,1,283.82,278s4.1-7.57,12.27-8.54,46.25,3.84,46.25,3.84" transform="translate(-58.75)"/><path class="cls-2" d="M299.21,273c-7.17.6-9.76,7-9.76,7s-2.63,6,2.89,11.82,34.75,23.41,34.75,23.41l13.78-37.87S306.38,272.35,299.21,273Zm18,17.16c-.85,2.34-3.66,3.51-6.42,2.5s-4.17-3.7-3.31-6,3.62-3.37,6.37-2.37S318,287.91,317.22,290.11Z" transform="translate(-58.75)"/><path class="cls-1" d="M317.12,367.37s-34.75-14.06-41.94-19.8A16.22,16.22,0,0,1,268.82,334s2.73-8.17,10.6-10.54,46.22-4.25,46.22-4.25" transform="translate(-58.75)"/><path class="cls-2" d="M283.09,326.37c-7,1.84-8.39,8.64-8.39,8.64s-1.55,6.32,4.9,11.14,38.29,17,38.29,17l7-39.69S290,324.53,283.09,326.37Zm20.71,13.77c-.43,2.46-3,4.09-5.89,3.58s-4.74-2.92-4.31-5.38,3-3.95,5.87-3.44S304.21,337.83,303.8,340.14Z" transform="translate(-58.75)"/><path class="cls-1" d="M317.12,416.24s-36.66-7.82-44.74-12.21a16.22,16.22,0,0,1-8.61-12.22s1.27-8.52,8.61-12.22,44.78-12.21,44.78-12.21" transform="translate(-58.75)"/><path class="cls-2" d="M276.49,381.77c-6.53,3-6.76,10-6.76,10s-.43,6.49,6.76,10.11S317.15,412,317.15,412v-40.3S283,378.75,276.49,381.77Zm22.79,10c0,2.5-2.24,4.55-5.18,4.55s-5.18-2.05-5.18-4.55,2.24-4.4,5.18-4.4S299.28,389.38,299.28,391.73Z" transform="translate(-58.75)"/><path class="cls-1" d="M325.6,464.36s-37.46-1.33-46.18-4.26a16.22,16.22,0,0,1-10.6-10.54s-.23-8.61,6.36-13.53,42-19.8,42-19.8" transform="translate(-58.75)"/><path class="cls-2" d="M279.61,437.47c-5.9,4.11-4.93,11-4.93,11s.7,6.47,8.42,8.79,41.8,2.9,41.8,2.9l-7-39.69S285.51,433.37,279.61,437.47Zm24.17,5.86c.43,2.46-1.42,4.87-4.31,5.38s-5.46-1.12-5.89-3.58,1.45-4.73,4.34-5.24S303.37,441,303.78,443.33Z" transform="translate(-58.75)"/><path class="cls-1" d="M342.32,510.28s-37.12,5.19-46.22,3.83a16.22,16.22,0,0,1-12.27-8.54s-1.73-8.44,3.91-14.43,37.9-26.79,37.9-26.79" transform="translate(-58.75)"/><path class="cls-2" d="M292.35,491.79c-5.1,5.07-2.95,11.67-2.95,11.67s1.81,6.25,9.81,7.19,41.67-4.4,41.67-4.4L327.1,468.38S297.45,486.72,292.35,491.79Zm24.82,1.57c.85,2.34-.55,5-3.31,6s-5.57-.16-6.42-2.5.6-4.9,3.36-5.91S316.37,491.15,317.17,493.36Z" transform="translate(-58.75)"/><path class="cls-1" d="M366.75,552.6S331.1,564.17,321.9,564.4a16.22,16.22,0,0,1-13.57-6.28s-3.16-8,1.35-14.89,32.67-33,32.67-33" transform="translate(-58.75)"/><path class="cls-2" d="M314.33,543.07c-4.14,5.88-.87,12-.87,12s2.87,5.84,10.91,5.38,40.27-11.57,40.27-11.57L344.49,514S318.47,537.19,314.33,543.07ZM339,540.3c1.25,2.16.33,5.06-2.21,6.53s-5.51.81-6.76-1.35-.26-4.94,2.28-6.4S337.87,538.27,339,540.3Z" transform="translate(-58.75)"/><path class="cls-1" d="M398.16,590s-33.11,17.58-42.12,19.4a16.22,16.22,0,0,1-14.45-3.83s-4.51-7.34-1.26-14.89,26.45-38.14,26.45-38.14" transform="translate(-58.75)"/><path class="cls-2" d="M344.88,589.75c-3.06,6.51,1.22,12,1.22,12s3.84,5.25,11.68,3.4,37.65-18.39,37.65-18.39l-25.91-30.88S347.94,583.24,344.88,589.75Zm23.86-7c1.6,1.91,1.21,4.93-1,6.81s-5.29,1.76-6.89-.16-1.11-4.82,1.14-6.7S367.23,580.94,368.74,582.74Z" transform="translate(-58.75)"/><path class="cls-1" d="M435.6,621.45S406,644.51,397.48,647.88a16.22,16.22,0,0,1-14.9-1.26s-5.71-6.45-3.83-14.45S398.18,590,398.18,590" transform="translate(-58.75)"/><path class="cls-2" d="M383.08,630.42c-1.88,6.94,3.29,11.58,3.29,11.58s4.7,4.5,12.09,1.32,33.88-24.65,33.88-24.65l-30.88-25.91S385,623.48,383.08,630.42Zm22.28-11.05c1.91,1.6,2,4.64.16,6.89s-4.9,2.65-6.81,1-1.93-4.55,0-6.8S403.56,617.86,405.36,619.37Z" transform="translate(-58.75)"/><path class="cls-1" d="M477.92,645.89s-25.1,27.84-32.95,32.64a16.22,16.22,0,0,1-14.89,1.35s-6.75-5.36-6.28-13.57,11.81-44.88,11.81-44.88" transform="translate(-58.75)"/><path class="cls-2" d="M427.75,663.84C427.1,671,433,674.67,433,674.67s5.41,3.62,12.14-.8,29.09-30.16,29.09-30.16l-34.9-20.15S428.4,656.67,427.75,663.84Zm20-14.75c2.16,1.25,2.82,4.22,1.35,6.76s-4.37,3.46-6.53,2.21-2.69-4.15-1.22-6.69S445.74,647.91,447.78,649.08Z" transform="translate(-58.75)"/><path class="cls-1" d="M523.84,662.6S504,694.37,497.06,700.47a16.22,16.22,0,0,1-14.43,3.91s-7.57-4.1-8.54-12.27,3.84-46.25,3.84-46.25" transform="translate(-58.75)"/><path class="cls-2" d="M477.55,689c.6,7.17,7,9.76,7,9.76s6,2.63,11.82-2.89,23.41-34.75,23.41-34.75L482,647.32S476.95,681.82,477.55,689Zm17.16-18c2.34.85,3.51,3.66,2.5,6.42s-3.7,4.17-6,3.31-3.37-3.62-2.37-6.37S492.5,670.18,494.71,671Z" transform="translate(-58.75)"/><path class="cls-1" d="M572,671.08S557.9,705.83,552.17,713a16.22,16.22,0,0,1-13.53,6.36s-8.17-2.73-10.54-10.6-4.25-46.22-4.25-46.22" transform="translate(-58.75)"/><path class="cls-2" d="M531,705.11c1.84,7,8.64,8.39,8.64,8.39s6.32,1.55,11.14-4.9,17-38.29,17-38.29l-39.69-7S529.12,698.16,531,705.11Zm13.77-20.71c2.46.43,4.09,3,3.58,5.89s-2.92,4.74-5.38,4.31-3.95-3-3.44-5.87S542.42,684,544.73,684.4Z" transform="translate(-58.75)"/><path class="cls-1" d="M620.83,671.08s-7.82,36.66-12.21,44.74a16.22,16.22,0,0,1-12.22,8.61s-8.52-1.27-12.22-8.61S572,671.06,572,671.06" transform="translate(-58.75)"/><path class="cls-2" d="M586.36,711.71c3,6.53,10,6.76,10,6.76s6.49.43,10.11-6.76,10.11-40.66,10.11-40.66h-40.3S583.34,705.19,586.36,711.71Zm10-22.79c2.5,0,4.55,2.24,4.55,5.18s-2.05,5.18-4.55,5.18-4.4-2.24-4.4-5.18S594,688.93,596.33,688.93Z" transform="translate(-58.75)"/><path class="cls-1" d="M669,662.6s-1.33,37.46-4.26,46.18a16.22,16.22,0,0,1-10.54,10.6s-8.61.23-13.53-6.36-19.8-42-19.8-42" transform="translate(-58.75)"/><path class="cls-2" d="M642.07,708.6c4.11,5.9,11,4.93,11,4.93s6.47-.7,8.79-8.42,2.9-41.8,2.9-41.8l-39.69,7S638,702.69,642.07,708.6Zm5.86-24.17c2.46-.43,4.87,1.42,5.38,4.31s-1.12,5.46-3.58,5.89-4.73-1.45-5.24-4.34S645.61,684.83,647.92,684.43Z" transform="translate(-58.75)"/><path class="cls-1" d="M714.88,645.89s5.19,37.12,3.83,46.22a16.22,16.22,0,0,1-8.54,12.27s-8.44,1.73-14.43-3.91S669,662.57,669,662.57" transform="translate(-58.75)"/><path class="cls-2" d="M696.38,695.85c5.07,5.1,11.67,2.95,11.67,2.95s6.25-1.81,7.19-9.81-4.4-41.67-4.4-41.67L673,661.11S691.31,690.75,696.38,695.85ZM698,671c2.34-.85,5,.55,6,3.31s-.16,5.57-2.5,6.42-4.9-.6-5.91-3.36S695.75,671.84,698,671Z" transform="translate(-58.75)"/><path class="cls-1" d="M757.2,621.45S768.76,657.11,769,666.3a16.22,16.22,0,0,1-6.28,13.57s-8,3.16-14.89-1.35-33-32.67-33-32.67" transform="translate(-58.75)"/><path class="cls-2" d="M747.66,673.87c5.88,4.14,12,.87,12,.87s5.84-2.87,5.38-10.91-11.57-40.27-11.57-40.27l-34.9,20.15S741.78,669.73,747.66,673.87Zm-2.76-24.72c2.16-1.25,5.06-.33,6.53,2.21s.81,5.51-1.35,6.76-4.94.26-6.4-2.28S742.87,650.33,744.9,649.16Z" transform="translate(-58.75)"/><path class="cls-1" d="M794.63,590s17.58,33.11,19.4,42.12a16.22,16.22,0,0,1-3.83,14.45s-7.34,4.51-14.89,1.26-38.14-26.45-38.14-26.45" transform="translate(-58.75)"/><path class="cls-2" d="M794.35,643.32c6.51,3.06,12-1.22,12-1.22s5.25-3.84,3.4-11.68-18.39-37.65-18.39-37.65l-30.88,25.91S787.84,640.26,794.35,643.32Zm-7-23.86c1.91-1.6,4.93-1.21,6.81,1s1.76,5.29-.16,6.89-4.82,1.11-6.7-1.14S785.53,621,787.33,619.46Z" transform="translate(-58.75)"/><path class="cls-1" d="M826,552.6s23.06,29.55,26.42,38.11a16.22,16.22,0,0,1-1.26,14.9s-6.45,5.71-14.45,3.83S794.61,590,794.61,590" transform="translate(-58.75)"/><path class="cls-2" d="M835,605.13c6.94,1.88,11.58-3.29,11.58-3.29s4.5-4.7,1.32-12.09-24.65-33.88-24.65-33.88l-25.91,30.88S828.07,603.24,835,605.13ZM824,582.85c1.6-1.91,4.64-2,6.89-.16s2.65,4.9,1,6.81-4.55,1.93-6.8,0S822.45,584.64,824,582.85Z" transform="translate(-58.75)"/><path class="cls-1" d="M850.48,510.28s27.84,25.1,32.64,32.95a16.22,16.22,0,0,1,1.35,14.89s-5.36,6.75-13.57,6.28S826,552.59,826,552.59" transform="translate(-58.75)"/><path class="cls-2" d="M868.43,560.45c7.16.65,10.84-5.25,10.84-5.25s3.62-5.41-.8-12.14S848.31,514,848.31,514l-20.15,34.9S861.27,559.8,868.43,560.45Zm-14.75-20c1.25-2.16,4.22-2.82,6.76-1.35s3.46,4.37,2.21,6.53-4.15,2.69-6.69,1.22S852.5,542.46,853.68,540.43Z" transform="translate(-58.75)"/><path class="cls-1" d="M867.19,464.36s31.78,19.88,37.87,26.78A16.22,16.22,0,0,1,909,505.57s-4.1,7.57-12.27,8.54-46.25-3.84-46.25-3.84" transform="translate(-58.75)"/><path class="cls-2" d="M893.58,510.65c7.17-.6,9.76-7,9.76-7s2.63-6-2.89-11.82-34.75-23.41-34.75-23.41l-13.78,37.87S886.42,511.26,893.58,510.65Zm-18-17.16c.85-2.34,3.66-3.51,6.42-2.5s4.17,3.7,3.31,6-3.62,3.37-6.37,2.37S874.78,495.7,875.58,493.49Z" transform="translate(-58.75)"/><path class="cls-1" d="M875.68,416.24s34.75,14.06,41.94,19.8A16.22,16.22,0,0,1,924,449.57s-2.73,8.17-10.6,10.54-46.22,4.25-46.22,4.25" transform="translate(-58.75)"/><path class="cls-2" d="M909.71,457.24c7-1.84,8.39-8.64,8.39-8.64s1.55-6.32-4.9-11.14-38.29-17-38.29-17l-7,39.69S902.75,459.08,909.71,457.24ZM889,443.47c.43-2.46,3-4.09,5.89-3.58s4.74,2.92,4.31,5.38-3,3.95-5.87,3.44S888.59,445.78,889,443.47Z" transform="translate(-58.75)"/><path class="cls-1" d="M875.68,367.37s36.66,7.82,44.74,12.21A16.22,16.22,0,0,1,929,391.8s-1.27,8.52-8.61,12.22-44.78,12.21-44.78,12.21" transform="translate(-58.75)"/><path class="cls-2" d="M916.31,401.84c6.53-3,6.76-10,6.76-10s.43-6.49-6.76-10.11-40.66-10.11-40.66-10.11V412S909.78,404.86,916.31,401.84Zm-22.79-10c0-2.5,2.24-4.55,5.18-4.55s5.18,2.05,5.18,4.55-2.24,4.4-5.18,4.4S893.52,394.22,893.52,391.88Z" transform="translate(-58.75)"/><path class="cls-1" d="M867.19,319.24s37.46,1.33,46.18,4.26A16.22,16.22,0,0,1,924,334s.23,8.61-6.36,13.53-42,19.8-42,19.8" transform="translate(-58.75)"/><path class="cls-2" d="M913.19,346.14c5.9-4.11,4.93-11,4.93-11s-.7-6.47-8.42-8.79-41.8-2.9-41.8-2.9l7,39.69S907.29,350.24,913.19,346.14ZM889,340.28c-.43-2.46,1.42-4.87,4.31-5.38s5.46,1.12,5.89,3.58-1.45,4.73-4.34,5.24S889.43,342.59,889,340.28Z" transform="translate(-58.75)"/><path class="cls-1" d="M850.48,273.32s37.12-5.19,46.22-3.83A16.22,16.22,0,0,1,909,278s1.73,8.44-3.91,14.43-37.9,26.79-37.9,26.79" transform="translate(-58.75)"/><path class="cls-2" d="M900.45,291.82c5.1-5.07,2.95-11.67,2.95-11.67s-1.81-6.25-9.81-7.19-41.67,4.4-41.67,4.4l13.78,37.87S895.35,296.89,900.45,291.82Zm-24.82-1.57c-.85-2.34.55-5,3.31-6s5.57.16,6.42,2.5-.6,4.9-3.36,5.91S876.43,292.46,875.63,290.25Z" transform="translate(-58.75)"/><path class="cls-1" d="M826,231s35.66-11.56,44.85-11.79a16.22,16.22,0,0,1,13.57,6.28s3.16,8-1.35,14.89-32.67,33-32.67,33" transform="translate(-58.75)"/><path class="cls-2" d="M878.47,240.54c4.14-5.88.87-12,.87-12s-2.87-5.84-10.91-5.38-40.27,11.57-40.27,11.57l20.15,34.9S874.32,246.42,878.47,240.54Zm-24.72,2.76c-1.25-2.16-.33-5.06,2.21-6.53s5.51-.81,6.76,1.35.26,4.94-2.28,6.4S854.92,245.34,853.75,243.3Z" transform="translate(-58.75)"/><path class="cls-1" d="M794.63,193.57s33.11-17.58,42.12-19.4A16.22,16.22,0,0,1,851.21,178s4.51,7.34,1.26,14.89S826,231,826,231" transform="translate(-58.75)"/><path class="cls-2" d="M847.92,193.86c3.06-6.51-1.22-12-1.22-12s-3.84-5.25-11.68-3.4-37.65,18.39-37.65,18.39l25.91,30.88S844.86,200.37,847.92,193.86Zm-23.86,7c-1.6-1.91-1.21-4.93,1-6.81s5.29-1.76,6.89.16,1.11,4.82-1.14,6.7S825.56,202.67,824.05,200.87Z" transform="translate(-58.75)"/><path class="cls-1" d="M757.2,162.16s29.55-23.06,38.11-26.42a16.22,16.22,0,0,1,14.9,1.26s5.71,6.45,3.83,14.45-19.43,42.15-19.43,42.15" transform="translate(-58.75)"/><path class="cls-2" d="M809.72,153.19c1.88-6.94-3.29-11.58-3.29-11.58s-4.7-4.5-12.09-1.32-33.88,24.65-33.88,24.65l30.88,25.91S807.84,160.13,809.72,153.19Zm-22.28,11.05c-1.91-1.6-2-4.64-.16-6.89s4.9-2.65,6.81-1,1.93,4.55,0,6.8S789.24,165.75,787.44,164.24Z" transform="translate(-58.75)"/><path class="cls-1" d="M714.88,137.72s25.1-27.84,32.95-32.64a16.22,16.22,0,0,1,14.89-1.35s6.75,5.36,6.28,13.57-11.81,44.88-11.81,44.88" transform="translate(-58.75)"/><path class="cls-2" d="M765,119.77c.65-7.16-5.25-10.84-5.25-10.84s-5.41-3.62-12.14.8-29.09,30.16-29.09,30.16L753.47,160S764.4,126.93,765,119.77Zm-20,14.75c-2.16-1.25-2.82-4.22-1.35-6.76s4.37-3.46,6.53-2.21,2.69,4.15,1.22,6.69S747.05,135.7,745,134.52Z" transform="translate(-58.75)"/><path class="cls-1" d="M669,121s19.88-31.78,26.78-37.87a16.22,16.22,0,0,1,14.43-3.91s7.57,4.1,8.54,12.27-3.84,46.25-3.84,46.25" transform="translate(-58.75)"/><path class="cls-2" d="M715.25,94.62c-.6-7.17-7-9.76-7-9.76s-6-2.63-11.82,2.89S673,122.5,673,122.5l37.87,13.78S715.85,101.78,715.25,94.62Zm-17.16,18c-2.34-.85-3.51-3.66-2.5-6.42s3.7-4.17,6-3.31,3.37,3.62,2.37,6.37S700.29,113.43,698.09,112.62Z" transform="translate(-58.75)"/><path class="cls-1" d="M620.83,112.52s14.06-34.75,19.8-41.94a16.22,16.22,0,0,1,13.53-6.36s8.17,2.73,10.54,10.6S669,121,669,121" transform="translate(-58.75)"/><path class="cls-2" d="M661.83,78.5c-1.84-7-8.64-8.39-8.64-8.39s-6.32-1.55-11.14,4.9-17,38.29-17,38.29l39.69,7S663.67,85.45,661.83,78.5ZM648.06,99.21c-2.46-.43-4.09-3-3.58-5.89s2.92-4.74,5.38-4.31,3.95,3,3.44,5.87S650.38,99.62,648.06,99.21Z" transform="translate(-58.75)"/><path class="cls-2" d="M596.4,672.48c-154.76,0-280.67-125.91-280.67-280.67S441.63,111.13,596.4,111.13,877.07,237,877.07,391.81,751.16,672.48,596.4,672.48Zm0-558.5C443.2,114,318.57,238.61,318.57,391.81S443.2,669.63,596.4,669.63,874.23,545,874.23,391.81,749.59,114,596.4,114Z" transform="translate(-58.75)"/><path class="cls-2" d="M596.4,117.64c-151.15,0-274.16,123-274.16,274.16S445.25,666,596.4,666,870.56,543,870.56,391.8,747.66,117.64,596.4,117.64Zm268.35,250.7a6.59,6.59,0,0,1-5.92,7.06,6.52,6.52,0,1,1,5.92-7.06Zm1,23.46a6.55,6.55,0,1,1-6.61-6.49A6.51,6.51,0,0,1,865.78,391.8ZM861.68,345a6.54,6.54,0,1,1-12.87,2.28A6.54,6.54,0,0,1,861.68,345Zm-5.13-22.89A6.49,6.49,0,0,1,844,325.51a6.49,6.49,0,1,1,12.53-3.42Zm-7.06-22.44a6.54,6.54,0,0,1-3.87,8.43,6.46,6.46,0,0,1-8.32-3.87,6.51,6.51,0,1,1,12.19-4.56Zm-9-21.64a6.49,6.49,0,0,1-3.08,8.66,6.67,6.67,0,0,1-8.77-3.19A6.52,6.52,0,1,1,840.49,278Zm-19.7-23.24a6.43,6.43,0,0,1,8.88,2.39,6.51,6.51,0,0,1-11.28,6.49A6.43,6.43,0,0,1,820.79,254.78Zm-12.87-19a6.54,6.54,0,1,1,7.52,10.71,6.66,6.66,0,0,1-9.11-1.59A6.55,6.55,0,0,1,807.91,235.76Zm-14.35-17.88a6.55,6.55,0,1,1-.8,9.23A6.52,6.52,0,0,1,793.56,217.88Zm-15.95-16.52a6.6,6.6,0,0,1,9.23,0,6.4,6.4,0,0,1,0,9.23,6.52,6.52,0,1,1-9.23-9.23Zm-17.31-15a6.53,6.53,0,0,1,9.23-.8,6.51,6.51,0,0,1-8.32,10A6.54,6.54,0,0,1,760.3,186.32Zm-18.45-13.55a6.56,6.56,0,0,1,9.11-1.59,6.66,6.66,0,0,1,1.59,9.11,6.54,6.54,0,1,1-10.71-7.52Zm-19.7-11.85a6.58,6.58,0,1,1,2.39,9A6.64,6.64,0,0,1,722.15,160.92Zm-20.62-10a6.67,6.67,0,0,1,8.77-3.19,6.55,6.55,0,1,1-8.77,3.19Zm-21.3-8.31a6.46,6.46,0,0,1,8.31-3.87,6.54,6.54,0,1,1-8.31,3.87Zm-22.1-6.26a6.53,6.53,0,1,1,4.67,8A6.54,6.54,0,0,1,658.13,136.32Zm-14.92-9.8a6.57,6.57,0,0,1,5.24,7.63,6.48,6.48,0,0,1-12.76-2.28A6.56,6.56,0,0,1,643.21,126.53Zm-23.35-3a6.38,6.38,0,0,1,5.92,7.06,6.53,6.53,0,0,1-7.06,5.92,6.67,6.67,0,0,1-5.92-7.06A6.5,6.5,0,0,1,619.86,123.57Zm-23.46-1a6.49,6.49,0,1,1-6.49,6.49A6.51,6.51,0,0,1,596.4,122.54Zm-23.46,1a6.38,6.38,0,0,1,7.06,5.92,6.5,6.5,0,0,1-5.92,7.06,6.67,6.67,0,0,1-7.06-5.92A6.45,6.45,0,0,1,572.93,123.57Zm-23.24,3a6.56,6.56,0,0,1,7.52,5.35A6.4,6.4,0,0,1,552,139.4a6.51,6.51,0,0,1-7.63-5.24A6.74,6.74,0,0,1,549.7,126.53Zm-23,5.13a6.66,6.66,0,0,1,8.09,4.67,6.53,6.53,0,1,1-8.09-4.67Zm-22.33,7.06a6.54,6.54,0,0,1,4.44,12.3,6.54,6.54,0,1,1-4.44-12.3Zm-21.75,9a6.55,6.55,0,0,1,5.58,11.85,6.67,6.67,0,0,1-8.77-3.19A6.54,6.54,0,0,1,482.61,147.71Zm-20.84,10.82a6.56,6.56,0,1,1-2.39,9A6.58,6.58,0,0,1,461.77,158.53Zm-19.82,12.64a6.54,6.54,0,1,1-1.59,9.11A6.56,6.56,0,0,1,441.95,171.18Zm-18.57,14.35a6.38,6.38,0,0,1,9.11.8,6.51,6.51,0,1,1-10,8.32A6.4,6.4,0,0,1,423.38,185.53ZM406,201.36a6.6,6.6,0,0,1,9.23,0,6.4,6.4,0,0,1,0,9.23,6.52,6.52,0,1,1-9.23-9.23Zm-15.83,17.31a6.55,6.55,0,1,1,.8,9.23A6.62,6.62,0,0,1,390.12,218.67Zm-14.24,18.68a6.49,6.49,0,1,1,10.59,7.52,6.54,6.54,0,0,1-9,1.59A6.47,6.47,0,0,1,375.88,237.35Zm-12.64,19.82a6.41,6.41,0,0,1,8.88-2.39,6.51,6.51,0,0,1-6.49,11.28A6.43,6.43,0,0,1,363.24,257.17ZM352.31,278a6.67,6.67,0,0,1,8.77-3.19,6.55,6.55,0,0,1-5.58,11.85A6.54,6.54,0,0,1,352.31,278Zm-9,21.64a6.63,6.63,0,0,1,8.43-3.87,6.54,6.54,0,0,1-4.44,12.3A6.69,6.69,0,0,1,343.31,299.66Zm-7.06,22.44a6.55,6.55,0,1,1,4.67,8A6.5,6.5,0,0,1,336.25,322.1Zm2.51,17.65a6.56,6.56,0,0,1,5.35,7.52,6.74,6.74,0,0,1-7.63,5.35,6.51,6.51,0,0,1-5.24-7.63A6.4,6.4,0,0,1,338.75,339.75Zm-3.53,22.67a6.52,6.52,0,0,1,5.92,7.06,6.59,6.59,0,0,1-7.06,5.92,6.52,6.52,0,0,1,1.14-13Zm-1.59,22.89a6.49,6.49,0,0,1,0,13,6.49,6.49,0,1,1,0-13Zm-5.47,30a6.5,6.5,0,0,1,5.92-7.06,6.58,6.58,0,0,1,7.06,5.92,6.52,6.52,0,0,1-5.92,7.06A6.44,6.44,0,0,1,328.16,415.27Zm3.07,23.35a6.51,6.51,0,0,1,5.24-7.63,6.74,6.74,0,0,1,7.63,5.35,6.56,6.56,0,0,1-5.35,7.52A6.4,6.4,0,0,1,331.23,438.62Zm5,22.89a6.55,6.55,0,1,1,8.09,4.56A6.49,6.49,0,0,1,336.25,461.51ZM343.31,484a6.69,6.69,0,0,1,4-8.43,6.54,6.54,0,0,1,4.44,12.3A6.63,6.63,0,0,1,343.31,484Zm9,21.64a6.52,6.52,0,1,1,11.85-5.47,6.45,6.45,0,0,1-3.08,8.66A6.67,6.67,0,0,1,352.31,505.59Zm19.82,23.24a6.51,6.51,0,1,1-6.49-11.28,6.51,6.51,0,0,1,6.49,11.28Zm12.76,19a6.51,6.51,0,0,1-7.4-10.71,6.54,6.54,0,0,1,9,1.59A6.46,6.46,0,0,1,384.88,547.85Zm14.47,17.88a6.55,6.55,0,1,1,.8-9.23A6.62,6.62,0,0,1,399.35,565.73Zm15.83,16.52a6.52,6.52,0,1,1,0-9.23A6.4,6.4,0,0,1,415.18,582.25Zm17.31,15a6.51,6.51,0,0,1-10-8.31,6.51,6.51,0,1,1,10,8.31Zm18.57,13.55a6.54,6.54,0,1,1-1.59-9.11A6.55,6.55,0,0,1,451.06,610.84Zm19.59,11.85a6.53,6.53,0,1,1-2.39-9A6.58,6.58,0,0,1,470.65,622.68Zm20.62,10a6.52,6.52,0,1,1-11.85-5.47,6.67,6.67,0,0,1,8.77-3.19A6.49,6.49,0,0,1,491.27,632.71ZM512.68,641a6.55,6.55,0,0,1-8.31,3.87,6.54,6.54,0,1,1,4.44-12.3A6.54,6.54,0,0,1,512.68,641Zm22.1,6.26a6.66,6.66,0,0,1-8.09,4.67,6.56,6.56,0,0,1-4.56-8,6.53,6.53,0,1,1,12.64,3.3Zm14.92,9.8a6.74,6.74,0,0,1-5.35-7.63,6.51,6.51,0,0,1,7.63-5.24,6.4,6.4,0,0,1,5.24,7.52A6.56,6.56,0,0,1,549.7,657.08Zm23.24,3A6.45,6.45,0,0,1,567,653a6.67,6.67,0,0,1,7.06-5.92,6.51,6.51,0,0,1,5.92,7.06A6.38,6.38,0,0,1,572.93,660Zm23.46,1a6.49,6.49,0,1,1,6.61-6.49A6.49,6.49,0,0,1,596.4,661.07Zm23.46-1a6.5,6.5,0,0,1-7.06-5.92,6.67,6.67,0,0,1,5.92-7.06,6.53,6.53,0,0,1,7.06,5.92A6.38,6.38,0,0,1,619.86,660Zm23.35-3a6.56,6.56,0,0,1-7.52-5.35,6.48,6.48,0,1,1,12.76-2.28A6.57,6.57,0,0,1,643.21,657.08ZM666.11,652a6.53,6.53,0,1,1,4.67-8A6.54,6.54,0,0,1,666.11,652Zm22.44-7.06a6.46,6.46,0,0,1-8.31-3.87,6.51,6.51,0,1,1,8.31,3.87Zm21.76-9a6.67,6.67,0,0,1-8.77-3.19,6.52,6.52,0,1,1,8.77,3.19Zm20.84-10.82a6.74,6.74,0,0,1-9-2.39,6.64,6.64,0,0,1,2.39-9,6.58,6.58,0,0,1,6.61,11.39ZM751,612.43a6.54,6.54,0,1,1,1.59-9.11A6.66,6.66,0,0,1,751,612.43Zm18.57-14.35a6.51,6.51,0,1,1-8.32-10,6.51,6.51,0,0,1,8.32,10Zm17.31-15.83a6.52,6.52,0,1,1,0-9.23A6.4,6.4,0,0,1,786.84,582.25ZM596.4,643.19C457.78,643.19,345,530.42,345,391.8S457.78,140.42,596.4,140.42,847.78,253.18,847.78,391.8,735,643.19,596.4,643.19Zm206.39-78.25a6.63,6.63,0,0,1-9.23.8,6.52,6.52,0,0,1-.8-9.23,6.55,6.55,0,0,1,10,8.43ZM817,546.25a6.54,6.54,0,1,1-10.71-7.52,6.66,6.66,0,0,1,9.11-1.59A6.57,6.57,0,0,1,817,546.25Zm12.64-19.82a6.51,6.51,0,0,1-11.28-6.49,6.51,6.51,0,1,1,11.28,6.49Zm10.82-20.84a6.52,6.52,0,0,1-11.85-5.47,6.67,6.67,0,0,1,8.77-3.19A6.49,6.49,0,0,1,840.49,505.59Zm9-21.64a6.51,6.51,0,1,1-12.19-4.56,6.46,6.46,0,0,1,8.32-3.87A6.54,6.54,0,0,1,849.49,484Zm7.06-22.44A6.49,6.49,0,0,1,844,458.09a6.49,6.49,0,1,1,12.53,3.42ZM854,443.86a6.48,6.48,0,0,1-5.24-7.52,6.54,6.54,0,1,1,5.24,7.52Zm3.64-22.67a6.52,6.52,0,1,1,1.14-13,6.59,6.59,0,0,1,5.92,7.06A6.5,6.5,0,0,1,857.69,421.19Z" transform="translate(-58.75)"/><path class="cls-2" d="M596.43,728.29C410.9,728.29,260,577.34,260,391.81S410.9,55.32,596.43,55.32,932.92,206.26,932.92,391.81,782,728.29,596.43,728.29Zm0-670.12c-184,0-333.64,149.67-333.64,333.64S412.47,725.44,596.43,725.44,930.08,575.77,930.08,391.81,780.41,58.16,596.43,58.16Z" transform="translate(-58.75)"/><path class="cls-2" d="M596.4,745.16C401.56,745.16,243,586.65,243,391.81S401.56,38.45,596.4,38.45,949.75,197,949.75,391.81,791.24,745.16,596.4,745.16Zm0-695.32c-188.56,0-342,153.41-342,342s153.41,342,342,342,342-153.41,342-342S785,49.84,596.4,49.84Z" transform="translate(-58.75)"/><circle class="cls-3" cx="537.65" cy="391.8" r="347.66"/></g><g id="Layer_3" data-name="Layer 3"><path class="cls-2" d="M202.48,382c11.49,0,46.26,2.62,46.26,2.62V398s-34.77,2.62-46.26,2.62c-9.19,0-10-9-10-9.34C192.52,391.16,193.28,382,202.48,382Z" transform="translate(-58.75)"/><polygon class="cls-2" points="353.39 680.72 353.39 692.11 168.89 692.11 168.89 538.64 225.27 538.64 225.27 550.03 180.28 550.03 180.28 680.72 353.39 680.72"/><polygon class="cls-2" points="353.39 90.48 353.39 101.87 180.28 101.87 180.28 232.56 225.27 232.56 225.27 243.96 168.89 243.96 168.89 90.48 353.39 90.48"/><polygon class="cls-2" points="177.43 232.56 177.43 243.96 110.52 243.96 110.52 297.1 16.01 391.61 107.67 485.54 107.67 538.64 174.59 538.64 174.59 550.03 96.28 550.03 96.28 490.17 0 391.5 99.13 292.38 99.13 232.56 177.43 232.56"/><path class="cls-2" d="M250.15,384.39s-34.3-5.39-39.39-5.91-6.08-4.87-4.73-8.89,4.25-6.89,9.13-4.24Z" transform="translate(-58.75)"/><path class="cls-2" d="M253.51,366.39s-23.21-14-26.78-15.86-2.26-5.84.66-8.91,6.46-4.75,8.87-1.13Z" transform="translate(-58.75)"/><path class="cls-2" d="M236.18,330.66c2.86-3,16.68,10.59,19.32,12s.58,4.81-2.64,7.56-6.65,4.35-7.88,1.43S233.32,333.64,236.18,330.66Z" transform="translate(-58.75)"/><path class="cls-2" d="M212.17,353.92c5.85-8.64,33.64,11,38.67,12.36s5.19,6.06,3,10.07-5.65,6.57-10.07,3S206.31,362.55,212.17,353.92Z" transform="translate(-58.75)"/><path class="cls-2" d="M248.64,398.75s-34.3,5.39-39.39,5.91-6.08,4.87-4.73,8.89,4.25,6.89,9.13,4.24Z" transform="translate(-58.75)"/><path class="cls-2" d="M252,416.75s-23.21,14-26.78,15.86-2.26,5.84.66,8.91,6.46,4.75,8.87,1.13Z" transform="translate(-58.75)"/><path class="cls-2" d="M234.67,452.48c2.86,3,16.68-10.59,19.32-12s.58-4.81-2.64-7.56-6.65-4.35-7.88-1.43S231.81,449.51,234.67,452.48Z" transform="translate(-58.75)"/><path class="cls-2" d="M210.66,429.22c5.85,8.64,33.64-11,38.67-12.36s5.19-6.06,3-10.07-5.65-6.57-10.07-3S204.8,420.59,210.66,429.22Z" transform="translate(-58.75)"/><path class="cls-2" d="M100.74,491.13l34.51,34.51,0-28.71c-1.42,2.14-10.5,4.45-10.5-5.16,0-5.35,6.72-9.18,12.07-9.18a9.77,9.77,0,0,1,9.8,9.68,1,1,0,0,1-.11.57h.11v60.25l-62-62,40.21-40.21L133,459Z" transform="translate(-58.75)"/><path class="cls-2" d="M100.74,292.56,135.25,258l0,28.71c-1.42-2.14-10.5-4.45-10.5,5.16,0,5.35,6.72,9.18,12.07,9.18a9.77,9.77,0,0,0,9.8-9.68,1,1,0,0,0-.11-.57h.11V230.59l-62,62,40.21,40.21,8.09-8.09Z" transform="translate(-58.75)"/><path class="cls-2" d="M233.7,598.14v44.61l-2.07.55c-1,.28-25.73,6.68-45-.07-19-6.66-33.19-20.33-33.78-20.91l-2.06-2,2.22-1.85c.69-.57,17.06-14.1,33.5-20.72,16.9-6.8,43.91-.41,45-.13Zm-5.7,40.5v-36.3c-6.56-1.32-26.67-4.73-39.25.33-12.07,4.86-24.53,14-29.6,17.93,4.58,4,15.86,12.86,29.48,17.63C203.13,643.31,221.84,640,228,638.64Z" transform="translate(-58.75)"/><path class="cls-2" d="M181.13,613.55c3.2,0,5.34,4,12.49,4s36.71.51,36.71.51v4.43s-28.89,1.19-36.47,1.19-9.52,3.69-12.73,3.69c-5.34,0-9.76-3.16-9.76-7S175.79,613.55,181.13,613.55Z" transform="translate(-58.75)"/><path class="cls-2" d="M199.91,606.64c2.61,1.16,4.31,3.1,4.31,4.52,5.88,1.16,16.46,2.06,26.13,2.45v3.1c-4.83-.13-26.23-1.78-32.92-4.64-3.55-1-5.09-4-4.31-5.42S196.91,605.09,199.91,606.64Z" transform="translate(-58.75)"/><path class="cls-2" d="M199.91,634.09c2.61-1.16,4.31-3.1,4.31-4.52,5.88-1.16,16.46-2.06,26.13-2.45V624c-4.83.13-26.23,1.78-32.92,4.64-3.55,1-5.09,4-4.31,5.42S196.91,635.64,199.91,634.09Z" transform="translate(-58.75)"/><path class="cls-2" d="M218.11,638.62a5,5,0,0,0,2.07-4.18c3.57-1.16,8.33-3.56,14.2-3.95v-3.1c-2.94.13-17.27,3.31-20,4.64a4.58,4.58,0,0,0-2.62,5.42C212.15,639,216.28,640.17,218.11,638.62Z" transform="translate(-58.75)"/><path class="cls-2" d="M218.11,602.32a5,5,0,0,1,2.07,4.18c3.57,1.16,8.33,3.56,14.2,3.95v3.1c-2.94-.13-17.27-3.31-20-4.64a4.58,4.58,0,0,1-2.62-5.42C212.15,601.93,216.28,600.77,218.11,602.32Z" transform="translate(-58.75)"/><path class="cls-2" d="M233.91,549.25v44.61l-2.07.55c-1,.28-25.73,6.68-45-.07-19-6.66-33.19-20.33-33.78-20.91l-2.06-2,2.22-1.85c.69-.57,17.06-14.1,33.5-20.72,16.9-6.8,43.91-.41,45-.13Zm-5.7,40.5v-36.3c-6.56-1.32-26.67-4.73-39.25.33-12.07,4.86-24.53,14-29.6,17.93,4.58,4,15.86,12.86,29.48,17.63C203.34,594.42,222,591.1,228.21,589.76Z" transform="translate(-58.75)"/><path class="cls-2" d="M181.34,564.66c3.2,0,5.34,4,12.49,4s36.71.51,36.71.51v4.43s-28.89,1.19-36.47,1.19-9.52,3.69-12.73,3.69c-5.34,0-9.76-3.16-9.76-7S176,564.66,181.34,564.66Z" transform="translate(-58.75)"/><path class="cls-2" d="M200.12,557.76c2.61,1.16,4.31,3.1,4.31,4.52,5.88,1.16,16.46,2.06,26.13,2.45v3.1c-4.83-.13-26.23-1.78-32.92-4.64-3.55-1-5.09-4-4.31-5.42S197.11,556.21,200.12,557.76Z" transform="translate(-58.75)"/><path class="cls-2" d="M200.12,585.21c2.61-1.16,4.31-3.1,4.31-4.52,5.88-1.16,16.46-2.06,26.13-2.45v-3.1c-4.83.13-26.23,1.78-32.92,4.64-3.55,1-5.09,4-4.31,5.42S197.11,586.76,200.12,585.21Z" transform="translate(-58.75)"/><path class="cls-2" d="M218.31,589.74a5,5,0,0,0,2.07-4.18c3.57-1.16,8.33-3.56,14.2-3.95v-3.1c-2.94.13-17.27,3.31-20,4.64a4.58,4.58,0,0,0-2.62,5.42C212.36,590.12,216.49,591.29,218.31,589.74Z" transform="translate(-58.75)"/><path class="cls-2" d="M218.31,553.44a5,5,0,0,1,2.07,4.18c3.57,1.16,8.33,3.56,14.2,3.95v3.1c-2.94-.13-17.27-3.31-20-4.64A4.58,4.58,0,0,1,212,554.6C212.36,553,216.49,551.89,218.31,553.44Z" transform="translate(-58.75)"/><path class="cls-2" d="M234.52,189.92v44.61l-2.07.55c-1,.28-25.73,6.68-45-.07-19-6.66-33.19-20.33-33.78-20.91l-2.06-2,2.22-1.85c.69-.57,17.06-14.1,33.5-20.72,16.9-6.8,43.91-.41,45-.13Zm-5.7,40.5v-36.3c-6.56-1.32-26.67-4.73-39.25.33-12.07,4.86-24.53,14-29.6,17.93,4.58,4,15.86,12.86,29.48,17.63C203.95,235.09,222.65,231.77,228.82,230.43Z" transform="translate(-58.75)"/><path class="cls-2" d="M181.95,205.33c3.2,0,5.34,4,12.49,4s36.71.51,36.71.51v4.43s-28.89,1.19-36.47,1.19-9.52,3.69-12.73,3.69c-5.34,0-9.76-3.16-9.76-7S176.61,205.33,181.95,205.33Z" transform="translate(-58.75)"/><path class="cls-2" d="M200.73,198.43c2.61,1.16,4.31,3.1,4.31,4.52,5.88,1.16,16.46,2.06,26.13,2.45v3.1c-4.83-.13-26.23-1.78-32.92-4.64-3.55-1-5.09-4-4.31-5.42S197.72,196.88,200.73,198.43Z" transform="translate(-58.75)"/><path class="cls-2" d="M200.73,225.88c2.61-1.16,4.31-3.1,4.31-4.52,5.88-1.16,16.46-2.06,26.13-2.45v-3.1c-4.83.13-26.23,1.78-32.92,4.64-3.55,1-5.09,4-4.31,5.42S197.72,227.43,200.73,225.88Z" transform="translate(-58.75)"/><path class="cls-2" d="M218.92,230.41a5,5,0,0,0,2.07-4.18c3.57-1.16,8.33-3.56,14.2-3.95v-3.1c-2.94.13-17.27,3.31-20,4.64a4.58,4.58,0,0,0-2.62,5.42C213,230.79,217.09,232,218.92,230.41Z" transform="translate(-58.75)"/><path class="cls-2" d="M218.92,194.11a5,5,0,0,1,2.07,4.18c3.57,1.16,8.33,3.56,14.2,3.95v3.1c-2.94-.13-17.27-3.31-20-4.64a4.58,4.58,0,0,1-2.62-5.42C213,193.72,217.09,192.56,218.92,194.11Z" transform="translate(-58.75)"/><path class="cls-2" d="M234.72,141v44.61l-2.07.55c-1,.28-25.73,6.68-45-.07-19-6.66-33.19-20.33-33.78-20.91l-2.06-2,2.22-1.85c.69-.57,17.06-14.1,33.5-20.72,16.9-6.8,43.91-.41,45-.13Zm-5.7,40.5v-36.3c-6.56-1.32-26.67-4.73-39.25.33-12.07,4.86-24.53,14-29.6,17.93,4.58,4,15.86,12.86,29.48,17.63C204.16,186.21,222.86,182.88,229,181.54Z" transform="translate(-58.75)"/><path class="cls-2" d="M182.16,156.45c3.2,0,5.34,4,12.49,4s36.71.51,36.71.51v4.43s-28.89,1.19-36.47,1.19-9.52,3.69-12.73,3.69c-5.34,0-9.76-3.16-9.76-7S176.82,156.45,182.16,156.45Z" transform="translate(-58.75)"/><path class="cls-2" d="M200.93,149.55c2.61,1.16,4.31,3.1,4.31,4.52,5.88,1.16,16.46,2.06,26.13,2.45v3.1c-4.83-.13-26.23-1.78-32.92-4.64-3.55-1-5.09-4-4.31-5.42S197.93,148,200.93,149.55Z" transform="translate(-58.75)"/><path class="cls-2" d="M200.93,177c2.61-1.16,4.31-3.1,4.31-4.52,5.88-1.16,16.46-2.06,26.13-2.45v-3.1c-4.83.13-26.23,1.78-32.92,4.64-3.55,1-5.09,4-4.31,5.42S197.93,178.55,200.93,177Z" transform="translate(-58.75)"/><path class="cls-2" d="M219.13,181.52a5,5,0,0,0,2.07-4.18c3.57-1.16,8.33-3.56,14.2-3.95v-3.1c-2.94.13-17.27,3.31-20,4.64a4.58,4.58,0,0,0-2.62,5.42C213.17,181.91,217.3,183.07,219.13,181.52Z" transform="translate(-58.75)"/><path class="cls-2" d="M219.13,145.22a5,5,0,0,1,2.07,4.18c3.57,1.16,8.33,3.56,14.2,3.95v3.1c-2.94-.13-17.27-3.31-20-4.64a4.58,4.58,0,0,1-2.62-5.42C213.17,144.84,217.3,143.68,219.13,145.22Z" transform="translate(-58.75)"/><path class="cls-2" d="M234.93,92.16v44.61l-2.07.55c-1,.28-25.73,6.68-45-.07-19-6.66-33.19-20.33-33.78-20.91l-2.06-2,2.22-1.85c.69-.57,17.06-14.1,33.5-20.72,16.9-6.8,43.91-.41,45-.13Zm-5.7,40.5V96.36c-6.56-1.32-26.67-4.73-39.25.33-12.07,4.86-24.53,14-29.6,17.93,4.58,4,15.86,12.86,29.48,17.63C204.36,137.33,223.07,134,229.24,132.66Z" transform="translate(-58.75)"/><path class="cls-2" d="M182.36,107.57c3.2,0,5.34,4,12.49,4s36.71.51,36.71.51v4.43s-28.89,1.19-36.47,1.19-9.52,3.69-12.73,3.69c-5.34,0-9.76-3.16-9.76-7S177,107.57,182.36,107.57Z" transform="translate(-58.75)"/><path class="cls-2" d="M201.14,100.66c2.61,1.16,4.31,3.1,4.31,4.52,5.88,1.16,16.46,2.06,26.13,2.45v3.1c-4.83-.13-26.23-1.78-32.92-4.64-3.55-1-5.09-4-4.31-5.42S198.14,99.12,201.14,100.66Z" transform="translate(-58.75)"/><path class="cls-2" d="M201.14,128.12c2.61-1.16,4.31-3.1,4.31-4.52,5.88-1.16,16.46-2.06,26.13-2.45v-3.1c-4.83.13-26.23,1.78-32.92,4.64-3.55,1-5.09,4-4.31,5.42S198.14,129.66,201.14,128.12Z" transform="translate(-58.75)"/><path class="cls-2" d="M219.34,132.64a5,5,0,0,0,2.07-4.18c3.57-1.16,8.33-3.56,14.2-3.95v-3.1c-2.94.13-17.27,3.31-20,4.64a4.58,4.58,0,0,0-2.62,5.42C213.38,133,217.51,134.19,219.34,132.64Z" transform="translate(-58.75)"/><path class="cls-2" d="M219.34,96.34a5,5,0,0,1,2.07,4.18c3.57,1.16,8.33,3.56,14.2,3.95v3.1c-2.94-.13-17.27-3.31-20-4.64A4.58,4.58,0,0,1,213,97.5C213.38,96,217.51,94.79,219.34,96.34Z" transform="translate(-58.75)"/><path class="cls-1" d="M0,706.5" transform="translate(-58.75)"/><path class="cls-2" d="M64,513.54H74.48v7.86h-5.1V718.11c4.12,6.26,11.5,10.25,20.07,10.71s16.27-2.85,20.72-8.66a22.78,22.78,0,0,0-4.23-32.23,18.37,18.37,0,0,0-25.6,3.3,13.72,13.72,0,0,0-2.71,10,13.57,13.57,0,0,0,5.32,9.11A8.75,8.75,0,0,0,89,711.84a9.62,9.62,0,0,1-1.52-5.35c0-4.9,3.26-8.88,7.38-8.88,3.91,0,7.16,3.87,7.27,8.66v.23a13.21,13.21,0,0,1-.22,2.16c-.11.46-.22.91-.33,1.25a9.19,9.19,0,0,1-2.71,4,9,9,0,0,1-2,1.48c-4.66,2.62-12.37,3.3-17.14-.34a19.16,19.16,0,0,1-7.49-13.1,18.56,18.56,0,0,1,3.8-14.24,23.74,23.74,0,0,1,33-4.44,28.39,28.39,0,0,1,11.07,19.36,19.75,19.75,0,0,1,.33,3.64,28.46,28.46,0,0,1-6.08,17.43c-5.53,7.29-15,11.28-25.17,10.82a31.86,31.86,0,0,1-19.85-8.09v1.71c9.11,6.38,19.2,9.68,29.4,9.57,11.61-.11,20.5-4.78,25.82-13.55,7.49-12.07,4.12-31.89-1.41-43.62-6.08-8.43-18.88-8-20.83-8-7.05.11-25.49,6.61-25.49,6.61l-.65-18s9.66-1,15.08-.68c-.33-3.64-.76-7.75-.87-11.39C82.4,648.74,76,649,76,649s-1.3-24.83-.54-33V550.22c0-4,3.58-7.29,7.92-7.29s8,3.3,8,7.29-1.63,6.23-4.56,6.57S83,554,81,557.17s1,56.49,1.52,66.29c.65,12.3,32.22,44.31,34.28,40.44s-8.35-16.52-12.37-27.22c-6.08-16.06-11-35.2-10.09-53.53h.11c.22-3.87,3.69-6.83,7.92-6.83s7.92,3.19,7.92,7.29-.22,8.3-4.55,8.42c-3.25.08-3.84-3.46-5.42-2.19s-.58,5-.46,7.18c1.35,23.72,9.33,40.71,17.59,56,3.47,6.72,6.18,12.76,9.11,20,4.66,11,8.79,20.73,8.79,30.41,0,9.11-2.06,17.2-6.18,23.81-6.29,10.25-17,15.95-30.27,16.17a54,54,0,0,1-29.51-8.66V747s84.6-.12,90.37,0c.47,0,4.59.15,4.56-2.12,0-3.92-6.83-2.08-7.08-6.7-.2-3.55,4.37-6,8.17-6s7,2.43,7,8.81-3,11.73-6.83,11.73H64Z" transform="translate(-58.75)"/><path class="cls-1" d="M41.09,77.11" transform="translate(-58.75)"/><path class="cls-2" d="M64.82,270.07H75.34v-7.86h-5.1V65.5c4.12-6.26,11.5-10.25,20.07-10.71s16.27,2.85,20.72,8.66a22.78,22.78,0,0,1-4.23,32.23,18.37,18.37,0,0,1-25.6-3.3,13.72,13.72,0,0,1-2.71-10,13.57,13.57,0,0,1,5.32-9.11,8.75,8.75,0,0,1,6.08-1.48,9.62,9.62,0,0,0-1.52,5.35c0,4.9,3.26,8.88,7.38,8.88,3.91,0,7.16-3.87,7.27-8.66v-.23a13.21,13.21,0,0,0-.22-2.16c-.11-.46-.22-.91-.33-1.25a9.19,9.19,0,0,0-2.71-4,9,9,0,0,0-2-1.48c-4.66-2.62-12.37-3.3-17.14.34a19.16,19.16,0,0,0-7.49,13.1A18.56,18.56,0,0,0,77,95.91a23.74,23.74,0,0,0,33,4.44A28.39,28.39,0,0,0,121,81a19.75,19.75,0,0,0,.33-3.64,28.46,28.46,0,0,0-6.08-17.43c-5.53-7.29-15-11.28-25.17-10.82a31.86,31.86,0,0,0-19.85,8.09V55.48c9.11-6.38,19.2-9.68,29.4-9.57,11.61.11,20.5,4.78,25.82,13.55,7.49,12.07,4.12,31.89-1.41,43.62-6.08,8.43-18.88,8-20.83,8-7.05-.11-25.49-6.61-25.49-6.61l-.65,18s9.66,1,15.08.68c-.33,3.64-.76,7.75-.87,11.39-8,.34-14.43.11-14.43.11s-1.3,24.83-.54,33v65.72c0,4,3.58,7.29,7.92,7.29s8-3.3,8-7.29-1.63-6.23-4.56-6.57-3.85,2.79-5.85-.38,1-56.49,1.52-66.29c.65-12.3,32.22-44.31,34.28-40.44s-8.35,16.52-12.37,27.22c-6.08,16.06-11,35.2-10.09,53.53h.11c.22,3.87,3.69,6.83,7.92,6.83s7.92-3.19,7.92-7.29-.22-8.3-4.55-8.42c-3.25-.08-3.84,3.46-5.42,2.19s-.58-5-.46-7.18c1.35-23.72,9.33-40.71,17.59-56,3.47-6.72,6.18-12.76,9.11-20,4.66-11,8.79-20.73,8.79-30.41,0-9.11-2.06-17.2-6.18-23.81-6.29-10.25-17-15.95-30.27-16.17a54,54,0,0,0-29.51,8.66V36.57s84.6.12,90.37,0c.47,0,4.59-.15,4.56,2.12,0,3.92-6.83,2.08-7.08,6.7-.2,3.55,4.37,6,8.17,6s7-2.43,7-8.81-3-11.73-6.83-11.73H64.82Z" transform="translate(-58.75)"/><path class="cls-2" d="M255.28,654.11a27.3,27.3,0,0,1,16-7.8s1.75-2.17,3.49-.43-.43,3.49-.43,3.49a27.3,27.3,0,0,1-7.8,16h0c-3.23,3.23-21.93,16.94-25.08,13.79s10.56-21.84,13.79-25.08Z" transform="translate(-58.75)"/><path class="cls-2" d="M261.07,639.62a27.72,27.72,0,0,1,11.53,2.81s1.92-.06,1.88,1-1.94.84-1.94.84a27.72,27.72,0,0,1-11.7,2h0c-3.16-.11-18.92-2.11-18.85-4s15.92-2.77,19.08-2.67Z" transform="translate(-58.75)"/><path class="cls-2" d="M282.11,659.6a27.72,27.72,0,0,0-2.81-11.53s.06-1.92-1-1.88-.84,1.94-.84,1.94a27.72,27.72,0,0,0-2,11.7h0c.11,3.16,2.11,18.92,4,18.85s2.77-15.92,2.67-19.08Z" transform="translate(-58.75)"/><polygon class="cls-2" points="292.96 638.42 292.96 644.11 217.19 644.11 217.19 544.52 222.89 544.52 222.89 638.42 292.96 638.42"/><rect class="cls-2" x="251.03" y="601.88" width="14.27" height="41.26" transform="translate(-423.1 880.67) rotate(-90)"/><rect class="cls-2" x="292.5" y="641.8" width="14.27" height="41.26" transform="translate(540.51 1324.86) rotate(-180)"/><path class="cls-2" d="M338,636.19H283.63l-.52-77.49,5.42,9.76c.12.22,12.29,22.09,22.61,35.23,11.71,14.89,22.69,27.66,22.79,27.79Zm-48.68-5.7h36.33c-4.28-5.09-11.47-13.75-19-23.28-6.32-8-13.13-18.94-17.71-26.63Z" transform="translate(-58.75)"/><path class="cls-2" d="M256.79,130a27.3,27.3,0,0,0,16,7.8s1.75,2.17,3.49.43-.43-3.49-.43-3.49a27.3,27.3,0,0,0-7.8-16h0c-3.23-3.23-21.93-16.94-25.08-13.79s10.56,21.84,13.79,25.08Z" transform="translate(-58.75)"/><path class="cls-2" d="M262.58,144.47a27.72,27.72,0,0,0,11.53-2.81s1.92.06,1.88-1-1.94-.84-1.94-.84a27.72,27.72,0,0,0-11.7-2h0c-3.16.11-18.92,2.11-18.85,4s15.92,2.77,19.08,2.67Z" transform="translate(-58.75)"/><path class="cls-2" d="M283.62,124.49A27.72,27.72,0,0,1,280.81,136s.06,1.92-1,1.88S279,136,279,136a27.72,27.72,0,0,1-2-11.7h0c.11-3.16,2.11-18.92,4-18.85s2.77,15.92,2.67,19.08Z" transform="translate(-58.75)"/><polygon class="cls-2" points="294.47 139.98 294.47 145.67 224.39 145.67 224.39 239.56 218.7 239.56 218.7 139.98 294.47 139.98"/><rect class="cls-2" x="252.54" y="140.95" width="14.27" height="41.26" transform="translate(362.5 -98.09) rotate(90)"/><rect class="cls-2" x="294" y="101.03" width="14.27" height="41.26" transform="translate(543.53 243.32) rotate(-180)"/><path class="cls-2" d="M336.88,148.42l-4,4.71c-.1.12-10.2,11.88-21,25.59-9.5,12.09-20.69,32.21-20.8,32.41l-5.41,9.77.48-72.47ZM291.48,199a244.52,244.52,0,0,1,15.9-23.84c6.72-8.55,13.18-16.35,17.15-21.08H291.78Z" transform="translate(-58.75)"/><path class="cls-2" d="M225.87,700.57H441.72v7.75H421.33C420.19,714.24,417,727.9,409.6,738a43.2,43.2,0,0,1-6-7.06c4.44-7.4,7.18-16.52,8.43-22.67h-2.51l-.68,2.51a101.51,101.51,0,0,1-4.56,12.87L402,728.82l-.91-1.82a93.16,93.16,0,0,1-6.49-18.68h-2.28c1.48,6.83,4.78,17.31,9.91,24.94.68.91,1.37,1.94,2.28,3a39,39,0,0,0,3.76,3.76,15,15,0,0,0,4.9,2.73c.57.11-.34-2.73-.34-3.53,0-3.76,3.42-6.61,7.4-6.95,5-.34,8.66,7.63,8.66,10.48a7.25,7.25,0,0,1-2.05,5.35c-4.1,4.56-12,2.85-17.54,1.25a24.17,24.17,0,0,1-7.06-3.53,29.08,29.08,0,0,1-6-5.81c-8.43-10.25-12-25.4-13.1-31.67h-.91c-1.14,5.92-4.33,19.59-11.73,29.73a43.2,43.2,0,0,1-6-7.06c4.44-7.4,7.18-16.52,8.43-22.67H370.3l-.68,2.51a101.51,101.51,0,0,1-4.56,12.87l-2.28,5.13-.91-1.82a93.16,93.16,0,0,1-6.49-18.68H353.1c1.48,6.83,4.78,17.31,9.91,24.94.68.91,1.37,1.94,2.28,3A39,39,0,0,0,369,740a15,15,0,0,0,4.9,2.73c.57.11-.34-2.73-.34-3.53,0-3.76,3.42-6.61,7.4-6.95,5-.34,8.66,7.63,8.66,10.48a7.25,7.25,0,0,1-2.05,5.35c-4.1,4.56-12,2.85-17.54,1.25a24.17,24.17,0,0,1-7.06-3.53,29.1,29.1,0,0,1-6-5.81c-8.43-10.25-12-25.4-13.1-31.67H343c-1.14,5.92-4.33,19.59-11.73,29.73a43.2,43.2,0,0,1-6-7.06c4.44-7.4,7.18-16.52,8.43-22.67h-2.51l-.68,2.51a101.51,101.51,0,0,1-4.56,12.87l-2.28,5.13-.91-1.82a93.16,93.16,0,0,1-6.49-18.68h-2.28c1.48,6.83,4.78,17.31,9.91,24.94.68.91,1.37,1.94,2.28,3a39,39,0,0,0,3.76,3.76,15,15,0,0,0,4.9,2.73c.57.11-.34-2.73-.34-3.53,0-3.76,3.42-6.61,7.4-6.95,5-.34,8.66,7.63,8.66,10.48a7.25,7.25,0,0,1-2.05,5.35c-4.1,4.56-12,2.85-17.54,1.25a24.17,24.17,0,0,1-7.06-3.53,29.1,29.1,0,0,1-6-5.81c-8.43-10.25-12-25.4-13.1-31.67h-.91c-1.14,5.92-4.33,19.59-11.73,29.73a43.23,43.23,0,0,1-6-7.06c4.44-7.4,7.18-16.52,8.43-22.67h-2.51l-.68,2.51a101.51,101.51,0,0,1-4.56,12.87l-2.28,5.13-.91-1.82A93.16,93.16,0,0,1,277,708.31h-2.28c1.48,6.83,4.78,17.31,9.91,24.94.68.91,1.37,1.94,2.28,3a39,39,0,0,0,3.76,3.76,15,15,0,0,0,4.9,2.73c.57.11-.34-2.73-.34-3.53,0-3.76,3.42-6.61,7.4-6.95,5-.34,8.66,7.63,8.66,10.48a7.25,7.25,0,0,1-2.05,5.35c-4.1,4.56-12,2.85-17.54,1.25a24.17,24.17,0,0,1-7.06-3.53,29.1,29.1,0,0,1-6-5.81c-8.43-10.25-12-25.4-13.1-31.67h-.91c-1.14,5.92-4.33,19.59-11.73,29.73a43.26,43.26,0,0,1-6-7.06c4.44-7.4,7.18-16.52,8.43-22.67h-2.51l-.68,2.51a101.51,101.51,0,0,1-4.56,12.87l-2.28,5.13-.91-1.82a93.16,93.16,0,0,1-6.49-18.68h-2.28c1.48,6.83,4.78,17.31,9.91,24.94.68.91,1.37,1.94,2.28,3A39,39,0,0,0,251.5,740a15,15,0,0,0,4.9,2.73c.57.11-.34-2.73-.34-3.53,0-3.76,3.42-6.61,7.4-6.95,5-.34,8.66,7.63,8.66,10.48a7.25,7.25,0,0,1-2.05,5.35c-4.1,4.56-12,2.85-17.54,1.25a24.17,24.17,0,0,1-7.06-3.53,29.1,29.1,0,0,1-6-5.81c-.11-.11-.11-.11-.11-.23-8,1.25-23.92,2.85-36.33-.23a30.4,30.4,0,0,1-7.86-2.85,16.64,16.64,0,0,1-5.58-4.44c-3.07-3.87-7.4-10.82-3.42-15.6a14.46,14.46,0,0,1,10.93-4.56c5.47,0,8,1.82,8.77,5.92.57,3.3-1.82,6.95-5.92,8.2-.91.23-4,.46-4,.8a12.26,12.26,0,0,0,4.21,3.08,50.61,50.61,0,0,0,5,1.71c1.37.34,2.62.57,3.76.8,8.54,1.37,17.88.23,25.06-1-4.56-8.88-6.72-18.57-7.63-23.24C226.1,706.72,225.87,700.57,225.87,700.57Z" transform="translate(-58.75)"/><path class="cls-2" d="M225.87,81.67H441.72V73.92H421.33C420.19,68,417,54.33,409.6,44.2a43.2,43.2,0,0,0-6,7.06c4.44,7.4,7.18,16.52,8.43,22.67h-2.51l-.68-2.51a101.51,101.51,0,0,0-4.56-12.87L402,53.42l-.91,1.82a93.16,93.16,0,0,0-6.49,18.68h-2.28c1.48-6.83,4.78-17.31,9.91-24.94.68-.91,1.37-1.94,2.28-3a39,39,0,0,1,3.76-3.76,15,15,0,0,1,4.9-2.73c.57-.11-.34,2.73-.34,3.53,0,3.76,3.42,6.61,7.4,6.95,5,.34,8.66-7.63,8.66-10.48a7.25,7.25,0,0,0-2.05-5.35c-4.1-4.56-12-2.85-17.54-1.25a24.17,24.17,0,0,0-7.06,3.53,29.08,29.08,0,0,0-6,5.81c-8.43,10.25-12,25.4-13.1,31.67h-.91C381,68,377.82,54.33,370.41,44.2a43.2,43.2,0,0,0-6,7.06c4.44,7.4,7.18,16.52,8.43,22.67H370.3l-.68-2.51a101.51,101.51,0,0,0-4.56-12.87l-2.28-5.13-.91,1.82a93.16,93.16,0,0,0-6.49,18.68H353.1c1.48-6.83,4.78-17.31,9.91-24.94.68-.91,1.37-1.94,2.28-3A39,39,0,0,1,369,42.26a15,15,0,0,1,4.9-2.73c.57-.11-.34,2.73-.34,3.53,0,3.76,3.42,6.61,7.4,6.95,5,.34,8.66-7.63,8.66-10.48a7.25,7.25,0,0,0-2.05-5.35c-4.1-4.56-12-2.85-17.54-1.25A24.17,24.17,0,0,0,363,36.45a29.1,29.1,0,0,0-6,5.81c-8.43,10.25-12,25.4-13.1,31.67H343c-1.14-5.92-4.33-19.59-11.73-29.73a43.2,43.2,0,0,0-6,7.06c4.44,7.4,7.18,16.52,8.43,22.67h-2.51l-.68-2.51a101.51,101.51,0,0,0-4.56-12.87l-2.28-5.13-.91,1.82a93.16,93.16,0,0,0-6.49,18.68h-2.28c1.48-6.83,4.78-17.31,9.91-24.94.68-.91,1.37-1.94,2.28-3a39,39,0,0,1,3.76-3.76,15,15,0,0,1,4.9-2.73c.57-.11-.34,2.73-.34,3.53,0,3.76,3.42,6.61,7.4,6.95,5,.34,8.66-7.63,8.66-10.48a7.25,7.25,0,0,0-2.05-5.35c-4.1-4.56-12-2.85-17.54-1.25a24.17,24.17,0,0,0-7.06,3.53,29.1,29.1,0,0,0-6,5.81c-8.43,10.25-12,25.4-13.1,31.67h-.91C302.64,68,299.45,54.33,292,44.2a43.23,43.23,0,0,0-6,7.06c4.44,7.4,7.18,16.52,8.43,22.67h-2.51l-.68-2.51a101.51,101.51,0,0,0-4.56-12.87l-2.28-5.13-.91,1.82A93.16,93.16,0,0,0,277,73.92h-2.28c1.48-6.83,4.78-17.31,9.91-24.94.68-.91,1.37-1.94,2.28-3a39,39,0,0,1,3.76-3.76,15,15,0,0,1,4.9-2.73c.57-.11-.34,2.73-.34,3.53,0,3.76,3.42,6.61,7.4,6.95,5,.34,8.66-7.63,8.66-10.48a7.25,7.25,0,0,0-2.05-5.35c-4.1-4.56-12-2.85-17.54-1.25a24.17,24.17,0,0,0-7.06,3.53,29.1,29.1,0,0,0-6,5.81c-8.43,10.25-12,25.4-13.1,31.67h-.91c-1.14-5.92-4.33-19.59-11.73-29.73a43.26,43.26,0,0,0-6,7.06c4.44,7.4,7.18,16.52,8.43,22.67h-2.51l-.68-2.51a101.51,101.51,0,0,0-4.56-12.87l-2.28-5.13-.91,1.82a93.16,93.16,0,0,0-6.49,18.68h-2.28c1.48-6.83,4.78-17.31,9.91-24.94.68-.91,1.37-1.94,2.28-3a39,39,0,0,1,3.76-3.76,15,15,0,0,1,4.9-2.73c.57-.11-.34,2.73-.34,3.53,0,3.76,3.42,6.61,7.4,6.95,5,.34,8.66-7.63,8.66-10.48a7.25,7.25,0,0,0-2.05-5.35c-4.1-4.56-12-2.85-17.54-1.25a24.17,24.17,0,0,0-7.06,3.53,29.1,29.1,0,0,0-6,5.81c-.11.11-.11.11-.11.23-8-1.25-23.92-2.85-36.33.23a30.4,30.4,0,0,0-7.86,2.85A16.64,16.64,0,0,0,189.54,50c-3.07,3.87-7.4,10.82-3.42,15.6a14.46,14.46,0,0,0,10.93,4.56c5.47,0,8-1.82,8.77-5.92.57-3.3-1.82-6.95-5.92-8.2-.91-.23-4-.46-4-.8a12.26,12.26,0,0,1,4.21-3.08,50.61,50.61,0,0,1,5-1.71c1.37-.34,2.62-.57,3.76-.8,8.54-1.37,17.88-.23,25.06,1-4.56,8.88-6.72,18.57-7.63,23.24C226.1,75.52,225.87,81.67,225.87,81.67Z" transform="translate(-58.75)"/><path class="cls-2" d="M233.36,647v44.61l-2.07.55c-1,.28-25.73,6.68-45-.07-19-6.66-33.19-20.33-33.78-20.91l-2.06-2,2.22-1.85c.69-.57,17.06-14.1,33.5-20.72,16.9-6.8,43.91-.41,45-.13Zm-5.7,40.5v-36.3c-6.56-1.32-26.67-4.73-39.25.33-12.07,4.86-24.53,14-29.6,17.93,4.58,4,15.86,12.86,29.48,17.63C202.79,692.18,221.5,688.86,227.67,687.52Z" transform="translate(-58.75)"/><path class="cls-2" d="M180.79,662.43c3.2,0,5.34,4,12.49,4S230,667,230,667v4.43s-28.89,1.19-36.47,1.19-9.52,3.69-12.73,3.69c-5.34,0-9.76-3.16-9.76-7S175.45,662.43,180.79,662.43Z" transform="translate(-58.75)"/><path class="cls-2" d="M199.57,655.52c2.61,1.16,4.31,3.1,4.31,4.52,5.88,1.16,16.46,2.06,26.13,2.45v3.1c-4.83-.13-26.23-1.78-32.92-4.64-3.55-1-5.09-4-4.31-5.42S196.56,654,199.57,655.52Z" transform="translate(-58.75)"/><path class="cls-2" d="M199.57,683c2.61-1.16,4.31-3.1,4.31-4.52,5.88-1.16,16.46-2.06,26.13-2.45v-3.1c-4.83.13-26.23,1.78-32.92,4.64-3.55,1-5.09,4-4.31,5.42S196.56,684.52,199.57,683Z" transform="translate(-58.75)"/><path class="cls-2" d="M217.77,687.5a5,5,0,0,0,2.07-4.18c3.57-1.16,8.33-3.56,14.2-3.95v-3.1c-2.94.13-17.27,3.31-20,4.64a4.58,4.58,0,0,0-2.62,5.42C211.81,687.89,215.94,689,217.77,687.5Z" transform="translate(-58.75)"/><path class="cls-2" d="M217.77,651.2a5,5,0,0,1,2.07,4.18c3.57,1.16,8.33,3.56,14.2,3.95v3.1c-2.94-.13-17.27-3.31-20-4.64a4.58,4.58,0,0,1-2.62-5.42C211.81,650.81,215.94,649.65,217.77,651.2Z" transform="translate(-58.75)"/><path class="cls-2" d="M990.32,401.65c-11.49,0-46.26-2.62-46.26-2.62V385.59S978.83,383,990.32,383c9.19,0,10,9,10,9.34C1000.27,392.45,999.51,401.65,990.32,401.65Z" transform="translate(-58.75)"/><polygon class="cls-2" points="721.9 102.89 721.9 91.5 906.4 91.5 906.4 244.97 850.02 244.97 850.02 233.58 895.01 233.58 895.01 102.89 721.9 102.89"/><polygon class="cls-2" points="721.9 693.13 721.9 681.74 895.01 681.74 895.01 551.04 850.02 551.04 850.02 539.65 906.4 539.65 906.4 693.13 721.9 693.13"/><polygon class="cls-2" points="897.86 551.04 897.86 539.65 964.77 539.65 964.77 486.51 1059.28 392 967.62 298.07 967.62 244.97 900.71 244.97 900.71 233.58 979.01 233.58 979.01 293.43 1075.29 392.1 976.16 491.23 976.16 551.04 897.86 551.04"/><path class="cls-2" d="M942.64,399.22s34.3,5.39,39.39,5.91,6.08,4.87,4.73,8.89-4.25,6.89-9.13,4.24Z" transform="translate(-58.75)"/><path class="cls-2" d="M939.28,417.22s23.21,14,26.78,15.86,2.26,5.84-.66,8.91-6.46,4.75-8.87,1.13Z" transform="translate(-58.75)"/><path class="cls-2" d="M956.61,452.95c-2.86,3-16.68-10.59-19.32-12s-.58-4.81,2.64-7.56,6.65-4.35,7.88-1.43S959.47,450,956.61,452.95Z" transform="translate(-58.75)"/><path class="cls-2" d="M980.63,429.69c-5.85,8.64-33.64-11-38.67-12.36s-5.19-6.06-3-10.07,5.65-6.57,10.07-3S986.48,421.05,980.63,429.69Z" transform="translate(-58.75)"/><path class="cls-2" d="M944.15,384.86s34.3-5.39,39.39-5.91,6.08-4.87,4.73-8.89-4.25-6.89-9.13-4.24Z" transform="translate(-58.75)"/><path class="cls-2" d="M940.79,366.86s23.21-14,26.78-15.86,2.26-5.84-.66-8.91-6.46-4.75-8.87-1.13Z" transform="translate(-58.75)"/><path class="cls-2" d="M958.12,331.12c-2.86-3-16.68,10.59-19.32,12s-.58,4.81,2.64,7.56,6.65,4.35,7.88,1.43S961,334.1,958.12,331.12Z" transform="translate(-58.75)"/><path class="cls-2" d="M982.14,354.38c-5.85-8.64-33.64,11-38.67,12.36s-5.19,6.06-3,10.07,5.65,6.57,10.07,3S988,363,982.14,354.38Z" transform="translate(-58.75)"/><path class="cls-2" d="M1092.05,292.48,1057.54,258l0,28.71c1.42-2.14,10.5-4.45,10.5,5.16,0,5.35-6.72,9.18-12.07,9.18a9.77,9.77,0,0,1-9.8-9.68,1,1,0,0,1,.11-.57h-.11V230.51l62,62-40.21,40.21-8.09-8.09Z" transform="translate(-58.75)"/><path class="cls-2" d="M1092.05,491.05l-34.51,34.51,0-28.71c1.42,2.14,10.5,4.45,10.5-5.16,0-5.35-6.72-9.18-12.07-9.18a9.77,9.77,0,0,0-9.8,9.68,1,1,0,0,0,.11.57h-.11V553l62-62-40.21-40.21-8.09,8.09Z" transform="translate(-58.75)"/><path class="cls-2" d="M959.09,185.47V140.86l2.07-.55c1-.28,25.73-6.68,45,.07,19,6.66,33.19,20.33,33.78,20.91l2.06,2-2.22,1.85c-.69.57-17.06,14.1-33.5,20.72-16.9,6.8-43.91.41-45,.13Zm5.7-40.5v36.3c6.56,1.32,26.67,4.73,39.25-.33,12.07-4.86,24.53-14,29.6-17.93-4.58-4-15.86-12.86-29.48-17.63C989.66,140.3,971,143.63,964.78,145Z" transform="translate(-58.75)"/><path class="cls-2" d="M1011.66,170.06c-3.2,0-5.34-4-12.49-4s-36.71-.51-36.71-.51v-4.43s28.89-1.19,36.47-1.19,9.52-3.69,12.73-3.69c5.34,0,9.76,3.16,9.76,7S1017,170.06,1011.66,170.06Z" transform="translate(-58.75)"/><path class="cls-2" d="M992.88,177c-2.61-1.16-4.31-3.1-4.31-4.52-5.88-1.16-16.46-2.06-26.13-2.45v-3.1c4.83.13,26.23,1.78,32.92,4.64,3.55,1,5.09,4,4.31,5.42S995.89,178.51,992.88,177Z" transform="translate(-58.75)"/><path class="cls-2" d="M992.88,149.51c-2.61,1.16-4.31,3.1-4.31,4.52-5.88,1.16-16.46,2.06-26.13,2.45v3.1c4.83-.13,26.23-1.78,32.92-4.64,3.55-1,5.09-4,4.31-5.42S995.89,148,992.88,149.51Z" transform="translate(-58.75)"/><path class="cls-2" d="M974.68,145a5,5,0,0,0-2.07,4.18c-3.57,1.16-8.33,3.56-14.2,3.95v3.1c2.94-.13,17.27-3.31,20-4.64a4.58,4.58,0,0,0,2.62-5.42C980.64,144.6,976.51,143.44,974.68,145Z" transform="translate(-58.75)"/><path class="cls-2" d="M974.68,181.29a5,5,0,0,1-2.07-4.18c-3.57-1.16-8.33-3.56-14.2-3.95v-3.1c2.94.13,17.27,3.31,20,4.64a4.58,4.58,0,0,1,2.62,5.42C980.64,181.68,976.51,182.84,974.68,181.29Z" transform="translate(-58.75)"/><path class="cls-2" d="M958.88,234.35V189.74l2.07-.55c1-.28,25.73-6.68,45,.07,19,6.66,33.19,20.33,33.78,20.91l2.06,2-2.22,1.85c-.69.57-17.06,14.1-33.5,20.72-16.9,6.8-43.91.41-45,.13Zm5.7-40.5v36.3c6.56,1.32,26.67,4.73,39.25-.33,12.07-4.86,24.53-14,29.6-17.93-4.58-4-15.86-12.86-29.48-17.63C989.45,189.19,970.75,192.51,964.58,193.85Z" transform="translate(-58.75)"/><path class="cls-2" d="M1011.45,218.94c-3.2,0-5.34-4-12.49-4s-36.71-.51-36.71-.51V210s28.89-1.19,36.47-1.19,9.52-3.69,12.73-3.69c5.34,0,9.76,3.16,9.76,7S1016.79,218.94,1011.45,218.94Z" transform="translate(-58.75)"/><path class="cls-2" d="M992.67,225.85c-2.61-1.16-4.31-3.1-4.31-4.52-5.88-1.16-16.46-2.06-26.13-2.45v-3.1c4.83.13,26.23,1.78,32.92,4.64,3.55,1,5.09,4,4.31,5.42S995.68,227.4,992.67,225.85Z" transform="translate(-58.75)"/><path class="cls-2" d="M992.67,198.4c-2.61,1.16-4.31,3.1-4.31,4.52-5.88,1.16-16.46,2.06-26.13,2.45v3.1c4.83-.13,26.23-1.78,32.92-4.64,3.55-1,5.09-4,4.31-5.42S995.68,196.85,992.67,198.4Z" transform="translate(-58.75)"/><path class="cls-2" d="M974.48,193.87a5,5,0,0,0-2.07,4.18c-3.57,1.16-8.33,3.56-14.2,3.95v3.1c2.94-.13,17.27-3.31,20-4.64a4.58,4.58,0,0,0,2.62-5.42C980.43,193.48,976.3,192.32,974.48,193.87Z" transform="translate(-58.75)"/><path class="cls-2" d="M974.48,230.17A5,5,0,0,1,972.4,226c-3.57-1.16-8.33-3.56-14.2-3.95v-3.1c2.94.13,17.27,3.31,20,4.64a4.58,4.58,0,0,1,2.62,5.42C980.43,230.56,976.3,231.72,974.48,230.17Z" transform="translate(-58.75)"/><path class="cls-2" d="M958.28,593.68V549.07l2.07-.55c1-.28,25.73-6.68,45,.07,19,6.66,33.19,20.33,33.78,20.91l2.06,2-2.22,1.85c-.69.57-17.06,14.1-33.5,20.72-16.9,6.8-43.91.41-45,.13Zm5.7-40.5v36.3c6.56,1.32,26.67,4.73,39.25-.33,12.07-4.86,24.53-14,29.6-17.93-4.58-4-15.86-12.86-29.48-17.63C988.84,548.52,970.14,551.84,964,553.18Z" transform="translate(-58.75)"/><path class="cls-2" d="M1010.84,578.27c-3.2,0-5.34-4-12.49-4s-36.71-.51-36.71-.51v-4.43s28.89-1.19,36.47-1.19,9.52-3.69,12.73-3.69c5.34,0,9.76,3.16,9.76,7S1016.18,578.27,1010.84,578.27Z" transform="translate(-58.75)"/><path class="cls-2" d="M992.07,585.18c-2.61-1.16-4.31-3.1-4.31-4.52-5.88-1.16-16.46-2.06-26.13-2.45v-3.1c4.83.13,26.23,1.78,32.92,4.64,3.55,1,5.09,4,4.31,5.42S995.07,586.73,992.07,585.18Z" transform="translate(-58.75)"/><path class="cls-2" d="M992.07,557.73c-2.61,1.16-4.31,3.1-4.31,4.52-5.88,1.16-16.46,2.06-26.13,2.45v3.1c4.83-.13,26.23-1.78,32.92-4.64,3.55-1,5.09-4,4.31-5.42S995.07,556.18,992.07,557.73Z" transform="translate(-58.75)"/><path class="cls-2" d="M973.87,553.2a5,5,0,0,0-2.07,4.18c-3.57,1.16-8.33,3.56-14.2,3.95v3.1c2.94-.13,17.27-3.31,20-4.64a4.58,4.58,0,0,0,2.62-5.42C979.83,552.81,975.7,551.65,973.87,553.2Z" transform="translate(-58.75)"/><path class="cls-2" d="M973.87,589.5a5,5,0,0,1-2.07-4.18c-3.57-1.16-8.33-3.56-14.2-3.95v-3.1c2.94.13,17.27,3.31,20,4.64a4.58,4.58,0,0,1,2.62,5.42C979.83,589.89,975.7,591,973.87,589.5Z" transform="translate(-58.75)"/><path class="cls-2" d="M958.07,642.57V598l2.07-.55c1-.28,25.73-6.68,45,.07,19,6.66,33.19,20.33,33.78,20.91l2.06,2-2.22,1.85c-.69.57-17.06,14.1-33.5,20.72-16.9,6.8-43.91.41-45,.13Zm5.7-40.5v36.3c6.56,1.32,26.67,4.73,39.25-.33,12.07-4.86,24.53-14,29.6-17.93-4.58-4-15.86-12.86-29.48-17.63C988.64,597.4,969.93,600.73,963.76,602.06Z" transform="translate(-58.75)"/><path class="cls-2" d="M1010.64,627.16c-3.2,0-5.34-4-12.49-4s-36.71-.51-36.71-.51v-4.43S990.32,617,997.91,617s9.52-3.69,12.73-3.69c5.34,0,9.76,3.16,9.76,7S1016,627.16,1010.64,627.16Z" transform="translate(-58.75)"/><path class="cls-2" d="M991.86,634.06c-2.61-1.16-4.31-3.1-4.31-4.52-5.88-1.16-16.46-2.06-26.13-2.45V624c4.83.13,26.23,1.78,32.92,4.64,3.55,1,5.09,4,4.31,5.42S994.86,635.61,991.86,634.06Z" transform="translate(-58.75)"/><path class="cls-2" d="M991.86,606.61c-2.61,1.16-4.31,3.1-4.31,4.52-5.88,1.16-16.46,2.06-26.13,2.45v3.1c4.83-.13,26.23-1.78,32.92-4.64,3.55-1,5.09-4,4.31-5.42S994.86,605.06,991.86,606.61Z" transform="translate(-58.75)"/><path class="cls-2" d="M973.66,602.08a5,5,0,0,0-2.07,4.18c-3.57,1.16-8.33,3.56-14.2,3.95v3.1c2.94-.13,17.27-3.31,20-4.64a4.58,4.58,0,0,0,2.62-5.42C979.62,601.7,975.49,600.54,973.66,602.08Z" transform="translate(-58.75)"/><path class="cls-2" d="M973.66,638.38a5,5,0,0,1-2.07-4.18c-3.57-1.16-8.33-3.56-14.2-3.95v-3.1c2.94.13,17.27,3.31,20,4.64a4.58,4.58,0,0,1,2.62,5.42C979.62,638.77,975.49,639.93,973.66,638.38Z" transform="translate(-58.75)"/><path class="cls-2" d="M957.86,691.45V646.83l2.07-.55c1-.28,25.73-6.68,45,.07,19,6.66,33.19,20.33,33.78,20.91l2.06,2-2.22,1.85c-.69.57-17.06,14.1-33.5,20.72-16.9,6.8-43.91.41-45,.13Zm5.7-40.5v36.3c6.56,1.32,26.67,4.73,39.25-.33,12.07-4.86,24.53-14,29.6-17.93-4.58-4-15.86-12.86-29.48-17.63C988.43,646.28,969.73,649.61,963.56,650.95Z" transform="translate(-58.75)"/><path class="cls-2" d="M1010.43,676c-3.2,0-5.34-4-12.49-4s-36.71-.51-36.71-.51v-4.43s28.89-1.19,36.47-1.19,9.52-3.69,12.73-3.69c5.34,0,9.76,3.16,9.76,7S1015.77,676,1010.43,676Z" transform="translate(-58.75)"/><path class="cls-2" d="M991.65,682.94c-2.61-1.16-4.31-3.1-4.31-4.52-5.88-1.16-16.46-2.06-26.13-2.45v-3.1c4.83.13,26.23,1.78,32.92,4.64,3.55,1,5.09,4,4.31,5.42S994.66,684.49,991.65,682.94Z" transform="translate(-58.75)"/><path class="cls-2" d="M991.65,655.49c-2.61,1.16-4.31,3.1-4.31,4.52-5.88,1.16-16.46,2.06-26.13,2.45v3.1c4.83-.13,26.23-1.78,32.92-4.64,3.55-1,5.09-4,4.31-5.42S994.66,653.94,991.65,655.49Z" transform="translate(-58.75)"/><path class="cls-2" d="M973.46,651a5,5,0,0,0-2.07,4.18c-3.57,1.16-8.33,3.56-14.2,3.95v3.1c2.94-.13,17.27-3.31,20-4.64a4.58,4.58,0,0,0,2.62-5.42C979.41,650.58,975.28,649.42,973.46,651Z" transform="translate(-58.75)"/><path class="cls-2" d="M973.46,687.27a5,5,0,0,1-2.07-4.18c-3.57-1.16-8.33-3.56-14.2-3.95V676c2.94.13,17.27,3.31,20,4.64a4.58,4.58,0,0,1,2.62,5.42C979.41,687.65,975.28,688.82,973.46,687.27Z" transform="translate(-58.75)"/><path class="cls-1" d="M1152.62,77.11" transform="translate(-58.75)"/><path class="cls-2" d="M1128.84,270.07h-10.52v-7.86h5.1V65.5c-4.12-6.26-11.5-10.25-20.07-10.71s-16.27,2.85-20.72,8.66a22.78,22.78,0,0,0,4.23,32.23,18.37,18.37,0,0,0,25.6-3.3,13.72,13.72,0,0,0,2.71-10,13.57,13.57,0,0,0-5.32-9.11,8.75,8.75,0,0,0-6.08-1.48,9.62,9.62,0,0,1,1.52,5.35c0,4.9-3.26,8.88-7.38,8.88-3.91,0-7.16-3.87-7.27-8.66v-.23a13.21,13.21,0,0,1,.22-2.16c.11-.46.22-.91.33-1.25a9.19,9.19,0,0,1,2.71-4,9,9,0,0,1,2-1.48c4.66-2.62,12.37-3.3,17.14.34a19.16,19.16,0,0,1,7.49,13.1,18.56,18.56,0,0,1-3.8,14.24,23.74,23.74,0,0,1-33,4.44A28.39,28.39,0,0,1,1072.64,81a19.75,19.75,0,0,1-.33-3.64,28.46,28.46,0,0,1,6.08-17.43c5.53-7.29,15-11.28,25.17-10.82a31.86,31.86,0,0,1,19.85,8.09V55.48c-9.11-6.38-19.2-9.68-29.4-9.57-11.61.11-20.5,4.78-25.82,13.55-7.49,12.07-4.12,31.89,1.41,43.62,6.08,8.43,18.88,8,20.83,8,7.05-.11,25.49-6.61,25.49-6.61l.65,18s-9.66,1-15.08.68c.33,3.64.76,7.75.87,11.39,8,.34,14.43.11,14.43.11s1.3,24.83.54,33v65.72c0,4-3.58,7.29-7.92,7.29s-8-3.3-8-7.29,1.63-6.23,4.56-6.57,3.85,2.79,5.85-.38-1-56.49-1.52-66.29c-.65-12.3-32.22-44.31-34.28-40.44s8.35,16.52,12.37,27.22c6.08,16.06,11,35.2,10.09,53.53h-.11c-.22,3.87-3.69,6.83-7.92,6.83s-7.92-3.19-7.92-7.29.22-8.3,4.55-8.42c3.25-.08,3.84,3.46,5.42,2.19s.58-5,.46-7.18c-1.35-23.72-9.33-40.71-17.59-56-3.47-6.72-6.18-12.76-9.11-20-4.66-11-8.79-20.73-8.79-30.41,0-9.11,2.06-17.2,6.18-23.81,6.29-10.25,17-15.95,30.27-16.17a54,54,0,0,1,29.51,8.66V36.57s-84.6.12-90.37,0c-.47,0-4.59-.15-4.56,2.12,0,3.92,6.83,2.08,7.08,6.7.2,3.55-4.37,6-8.17,6s-7-2.43-7-8.81,3-11.73,6.83-11.73h101.65Z" transform="translate(-58.75)"/><path class="cls-1" d="M1151.71,706.5" transform="translate(-58.75)"/><path class="cls-2" d="M1128,513.54h-10.52v7.86h5.1V718.11c-4.12,6.26-11.5,10.25-20.07,10.71s-16.27-2.85-20.72-8.66a22.78,22.78,0,0,1,4.23-32.23,18.37,18.37,0,0,1,25.6,3.3,13.72,13.72,0,0,1,2.71,10,13.57,13.57,0,0,1-5.32,9.11,8.75,8.75,0,0,1-6.08,1.48,9.62,9.62,0,0,0,1.52-5.35c0-4.9-3.26-8.88-7.38-8.88-3.91,0-7.16,3.87-7.27,8.66v.23a13.21,13.21,0,0,0,.22,2.16c.11.46.22.91.33,1.25a9.19,9.19,0,0,0,2.71,4,9,9,0,0,0,2,1.48c4.66,2.62,12.37,3.3,17.14-.34a19.16,19.16,0,0,0,7.49-13.1,18.56,18.56,0,0,0-3.8-14.24,23.74,23.74,0,0,0-33-4.44,28.39,28.39,0,0,0-11.07,19.36,19.75,19.75,0,0,0-.33,3.64,28.46,28.46,0,0,0,6.08,17.43c5.53,7.29,15,11.28,25.17,10.82a31.86,31.86,0,0,0,19.85-8.09v1.71c-9.11,6.38-19.2,9.68-29.4,9.57-11.61-.11-20.5-4.78-25.82-13.55-7.49-12.07-4.12-31.89,1.41-43.62,6.08-8.43,18.88-8,20.83-8,7.05.11,25.49,6.61,25.49,6.61l.65-18s-9.66-1-15.08-.68c.33-3.64.76-7.75.87-11.39,8-.34,14.43-.11,14.43-.11s1.3-24.83.54-33V550.22c0-4-3.58-7.29-7.92-7.29s-8,3.3-8,7.29,1.63,6.23,4.56,6.57,3.85-2.79,5.85.38-1,56.49-1.52,66.29c-.65,12.3-32.22,44.31-34.28,40.44s8.35-16.52,12.37-27.22c6.08-16.06,11-35.2,10.09-53.53h-.11c-.22-3.87-3.69-6.83-7.92-6.83s-7.92,3.19-7.92,7.29.22,8.3,4.55,8.42c3.25.08,3.84-3.46,5.42-2.19s.58,5,.46,7.18c-1.35,23.72-9.33,40.71-17.59,56-3.47,6.72-6.18,12.76-9.11,20-4.66,11-8.79,20.73-8.79,30.41,0,9.11,2.06,17.2,6.18,23.81,6.29,10.25,17,15.95,30.27,16.17a54,54,0,0,0,29.51-8.66V747s-84.6-.12-90.37,0c-.47,0-4.59.15-4.56-2.12,0-3.92,6.83-2.08,7.08-6.7.2-3.55-4.37-6-8.17-6s-7,2.43-7,8.81,3,11.73,6.83,11.73H1128Z" transform="translate(-58.75)"/><path class="cls-2" d="M937.51,129.5a27.3,27.3,0,0,1-16,7.8s-1.75,2.17-3.49.43.43-3.49.43-3.49a27.3,27.3,0,0,1,7.8-16h0c3.23-3.23,21.93-16.94,25.08-13.79s-10.56,21.84-13.79,25.08Z" transform="translate(-58.75)"/><path class="cls-2" d="M931.72,144a27.72,27.72,0,0,1-11.53-2.81s-1.92.06-1.88-1,1.94-.84,1.94-.84a27.72,27.72,0,0,1,11.7-2h0c3.16.11,18.92,2.11,18.85,4s-15.92,2.77-19.08,2.67Z" transform="translate(-58.75)"/><path class="cls-2" d="M910.69,124a27.72,27.72,0,0,0,2.81,11.53s-.06,1.92,1,1.88.84-1.94.84-1.94a27.72,27.72,0,0,0,2-11.7h0c-.11-3.16-2.11-18.92-4-18.85s-2.77,15.92-2.67,19.08Z" transform="translate(-58.75)"/><polygon class="cls-2" points="782.33 145.19 782.33 139.49 858.1 139.49 858.1 239.09 852.4 239.09 852.4 145.19 782.33 145.19"/><rect class="cls-2" x="927.5" y="140.47" width="14.27" height="41.26" transform="translate(1036.98 -773.53) rotate(90)"/><rect class="cls-2" x="827.28" y="100.55" width="14.27" height="41.26"/><path class="cls-2" d="M854.82,147.42h54.34l.52,77.49-5.42-9.76c-.12-.22-12.29-22.09-22.61-35.23C869.94,165,859,152.25,858.86,152.12Zm48.68,5.7H867.17c4.28,5.09,11.47,13.75,19,23.28,6.32,8,13.13,18.94,17.71,26.63Z" transform="translate(-58.75)"/><path class="cls-2" d="M936,653.63a27.3,27.3,0,0,0-16-7.8s-1.75-2.17-3.49-.43.43,3.49.43,3.49a27.3,27.3,0,0,0,7.8,16h0c3.23,3.23,21.93,16.94,25.08,13.79S939.23,656.86,936,653.63Z" transform="translate(-58.75)"/><path class="cls-2" d="M930.21,639.14a27.72,27.72,0,0,0-11.53,2.81s-1.92-.06-1.88,1,1.94.84,1.94.84a27.72,27.72,0,0,0,11.7,2h0c3.16-.11,18.92-2.11,18.85-4s-15.92-2.77-19.08-2.67Z" transform="translate(-58.75)"/><path class="cls-2" d="M909.18,659.12A27.72,27.72,0,0,1,912,647.58s-.06-1.92,1-1.88.84,1.94.84,1.94a27.72,27.72,0,0,1,2,11.7h0c-.11,3.16-2.11,18.92-4,18.85s-2.77-15.92-2.67-19.08Z" transform="translate(-58.75)"/><polygon class="cls-2" points="780.82 643.63 780.82 637.94 850.9 637.94 850.9 544.05 856.59 544.05 856.59 643.63 780.82 643.63"/><rect class="cls-2" x="925.99" y="601.4" width="14.27" height="41.26" transform="translate(252.34 1555.15) rotate(-90)"/><rect class="cls-2" x="825.77" y="641.32" width="14.27" height="41.26"/><path class="cls-2" d="M855.92,635.19l4-4.71c.1-.12,10.2-11.88,21-25.59,9.5-12.09,20.69-32.21,20.8-32.41l5.41-9.77-.48,72.47Zm45.4-50.61a244.52,244.52,0,0,1-15.9,23.84c-6.72,8.55-13.18,16.35-17.15,21.08H901Z" transform="translate(-58.75)"/><path class="cls-2" d="M966.92,83H751.07V75.29h20.39c1.14-5.92,4.33-19.59,11.73-29.73a43.2,43.2,0,0,1,6,7.06c-4.44,7.4-7.18,16.52-8.43,22.67h2.51l.68-2.51a101.51,101.51,0,0,1,4.56-12.87l2.28-5.13.91,1.82a93.16,93.16,0,0,1,6.49,18.68h2.28C799,68.46,795.72,58,790.6,50.35c-.68-.91-1.37-1.94-2.28-3a39,39,0,0,0-3.76-3.76,15,15,0,0,0-4.9-2.73c-.57-.11.34,2.73.34,3.53,0,3.76-3.42,6.61-7.4,6.95-5,.34-8.66-7.63-8.66-10.48A7.25,7.25,0,0,1,766,35.54c4.1-4.56,12-2.85,17.54-1.25a24.17,24.17,0,0,1,7.06,3.53,29.08,29.08,0,0,1,6,5.81c8.43,10.25,12,25.4,13.1,31.67h.91c1.14-5.92,4.33-19.59,11.73-29.73a43.2,43.2,0,0,1,6,7.06C824,60,821.24,69.14,820,75.29h2.51l.68-2.51a101.51,101.51,0,0,1,4.56-12.87L830,54.79l.91,1.82a93.16,93.16,0,0,1,6.49,18.68h2.28c-1.48-6.83-4.78-17.31-9.91-24.94-.68-.91-1.37-1.94-2.28-3a39,39,0,0,0-3.76-3.76,15,15,0,0,0-4.9-2.73c-.57-.11.34,2.73.34,3.53,0,3.76-3.42,6.61-7.4,6.95-5,.34-8.66-7.63-8.66-10.48a7.25,7.25,0,0,1,2.05-5.35c4.1-4.56,12-2.85,17.54-1.25a24.17,24.17,0,0,1,7.06,3.53,29.1,29.1,0,0,1,6,5.81c8.43,10.25,12,25.4,13.1,31.67h.91c1.14-5.92,4.33-19.59,11.73-29.73a43.2,43.2,0,0,1,6,7.06c-4.44,7.4-7.18,16.52-8.43,22.67h2.51l.68-2.51a101.51,101.51,0,0,1,4.56-12.87l2.28-5.13.91,1.82a93.16,93.16,0,0,1,6.49,18.68h2.28C877.39,68.46,874.09,58,869,50.35c-.68-.91-1.37-1.94-2.28-3a39,39,0,0,0-3.76-3.76A15,15,0,0,0,858,40.9c-.57-.11.34,2.73.34,3.53,0,3.76-3.42,6.61-7.4,6.95-5,.34-8.66-7.63-8.66-10.48a7.25,7.25,0,0,1,2.05-5.35c4.1-4.56,12-2.85,17.54-1.25A24.17,24.17,0,0,1,869,37.82a29.1,29.1,0,0,1,6,5.81c8.43,10.25,12,25.4,13.1,31.67H889c1.14-5.92,4.33-19.59,11.73-29.73a43.23,43.23,0,0,1,6,7.06c-4.44,7.4-7.18,16.52-8.43,22.67h2.51l.68-2.51a101.51,101.51,0,0,1,4.56-12.87l2.28-5.13.91,1.82a93.16,93.16,0,0,1,6.49,18.68h2.28c-1.48-6.83-4.78-17.31-9.91-24.94-.68-.91-1.37-1.94-2.28-3a39,39,0,0,0-3.76-3.76,15,15,0,0,0-4.9-2.73c-.57-.11.34,2.73.34,3.53,0,3.76-3.42,6.61-7.4,6.95-5,.34-8.66-7.63-8.66-10.48a7.25,7.25,0,0,1,2.05-5.35c4.1-4.56,12-2.85,17.54-1.25a24.17,24.17,0,0,1,7.06,3.53,29.1,29.1,0,0,1,6,5.81c8.43,10.25,12,25.4,13.1,31.67h.91c1.14-5.92,4.33-19.59,11.73-29.73a43.26,43.26,0,0,1,6,7.06c-4.44,7.4-7.18,16.52-8.43,22.67H940l.68-2.51a101.51,101.51,0,0,1,4.56-12.87l2.28-5.13.91,1.82A93.16,93.16,0,0,1,955,75.29h2.28c-1.48-6.83-4.78-17.31-9.91-24.94-.68-.91-1.37-1.94-2.28-3a39,39,0,0,0-3.76-3.76,15,15,0,0,0-4.9-2.73c-.57-.11.34,2.73.34,3.53,0,3.76-3.42,6.61-7.4,6.95-5,.34-8.66-7.63-8.66-10.48a7.25,7.25,0,0,1,2.05-5.35c4.1-4.56,12-2.85,17.54-1.25a24.17,24.17,0,0,1,7.06,3.53,29.1,29.1,0,0,1,6,5.81c.11.11.11.11.11.23,8-1.25,23.92-2.85,36.33.23a30.4,30.4,0,0,1,7.86,2.85,16.64,16.64,0,0,1,5.58,4.44c3.07,3.87,7.4,10.82,3.42,15.6a14.46,14.46,0,0,1-10.93,4.56c-5.47,0-8-1.82-8.77-5.92-.57-3.3,1.82-6.95,5.92-8.2.91-.23,4-.46,4-.8a12.26,12.26,0,0,0-4.21-3.08,50.61,50.61,0,0,0-5-1.71c-1.37-.34-2.62-.57-3.76-.8-8.54-1.37-17.88-.23-25.06,1,4.56,8.88,6.72,18.57,7.63,23.24C966.69,76.89,966.92,83,966.92,83Z" transform="translate(-58.75)"/><path class="cls-2" d="M966.92,701.94H751.07v7.75h20.39c1.14,5.92,4.33,19.59,11.73,29.73a43.2,43.2,0,0,0,6-7.06c-4.44-7.4-7.18-16.52-8.43-22.67h2.51l.68,2.51a101.51,101.51,0,0,0,4.56,12.87l2.28,5.13.91-1.82a93.16,93.16,0,0,0,6.49-18.68h2.28c-1.48,6.83-4.78,17.31-9.91,24.94-.68.91-1.37,1.94-2.28,3a39,39,0,0,1-3.76,3.76,15,15,0,0,1-4.9,2.73c-.57.11.34-2.73.34-3.53,0-3.76-3.42-6.61-7.4-6.95-5-.34-8.66,7.63-8.66,10.48a7.25,7.25,0,0,0,2.05,5.35c4.1,4.56,12,2.85,17.54,1.25a24.17,24.17,0,0,0,7.06-3.53,29.08,29.08,0,0,0,6-5.81c8.43-10.25,12-25.4,13.1-31.67h.91c1.14,5.92,4.33,19.59,11.73,29.73a43.2,43.2,0,0,0,6-7.06c-4.44-7.4-7.18-16.52-8.43-22.67h2.51l.68,2.51a101.51,101.51,0,0,0,4.56,12.87l2.28,5.13.91-1.82a93.16,93.16,0,0,0,6.49-18.68h2.28c-1.48,6.83-4.78,17.31-9.91,24.94-.68.91-1.37,1.94-2.28,3a39,39,0,0,1-3.76,3.76,15,15,0,0,1-4.9,2.73c-.57.11.34-2.73.34-3.53,0-3.76-3.42-6.61-7.4-6.95-5-.34-8.66,7.63-8.66,10.48a7.25,7.25,0,0,0,2.05,5.35c4.1,4.56,12,2.85,17.54,1.25a24.17,24.17,0,0,0,7.06-3.53,29.1,29.1,0,0,0,6-5.81c8.43-10.25,12-25.4,13.1-31.67h.91c1.14,5.92,4.33,19.59,11.73,29.73a43.2,43.2,0,0,0,6-7.06c-4.44-7.4-7.18-16.52-8.43-22.67h2.51l.68,2.51a101.51,101.51,0,0,0,4.56,12.87l2.28,5.13.91-1.82a93.16,93.16,0,0,0,6.49-18.68h2.28c-1.48,6.83-4.78,17.31-9.91,24.94-.68.91-1.37,1.94-2.28,3a39,39,0,0,1-3.76,3.76,15,15,0,0,1-4.9,2.73c-.57.11.34-2.73.34-3.53,0-3.76-3.42-6.61-7.4-6.95-5-.34-8.66,7.63-8.66,10.48a7.25,7.25,0,0,0,2.05,5.35c4.1,4.56,12,2.85,17.54,1.25a24.17,24.17,0,0,0,7.06-3.53,29.1,29.1,0,0,0,6-5.81c8.43-10.25,12-25.4,13.1-31.67H889c1.14,5.92,4.33,19.59,11.73,29.73a43.23,43.23,0,0,0,6-7.06c-4.44-7.4-7.18-16.52-8.43-22.67h2.51l.68,2.51a101.51,101.51,0,0,0,4.56,12.87l2.28,5.13.91-1.82a93.16,93.16,0,0,0,6.49-18.68h2.28c-1.48,6.83-4.78,17.31-9.91,24.94-.68.91-1.37,1.94-2.28,3a39,39,0,0,1-3.76,3.76,15,15,0,0,1-4.9,2.73c-.57.11.34-2.73.34-3.53,0-3.76-3.42-6.61-7.4-6.95-5-.34-8.66,7.63-8.66,10.48a7.25,7.25,0,0,0,2.05,5.35c4.1,4.56,12,2.85,17.54,1.25a24.17,24.17,0,0,0,7.06-3.53,29.1,29.1,0,0,0,6-5.81c8.43-10.25,12-25.4,13.1-31.67h.91c1.14,5.92,4.33,19.59,11.73,29.73a43.26,43.26,0,0,0,6-7.06c-4.44-7.4-7.18-16.52-8.43-22.67H940l.68,2.51a101.51,101.51,0,0,0,4.56,12.87l2.28,5.13.91-1.82A93.16,93.16,0,0,0,955,709.68h2.28c-1.48,6.83-4.78,17.31-9.91,24.94-.68.91-1.37,1.94-2.28,3a39,39,0,0,1-3.76,3.76,15,15,0,0,1-4.9,2.73c-.57.11.34-2.73.34-3.53,0-3.76-3.42-6.61-7.4-6.95-5-.34-8.66,7.63-8.66,10.48a7.25,7.25,0,0,0,2.05,5.35c4.1,4.56,12,2.85,17.54,1.25a24.17,24.17,0,0,0,7.06-3.53,29.1,29.1,0,0,0,6-5.81c.11-.11.11-.11.11-.23,8,1.25,23.92,2.85,36.33-.23a30.4,30.4,0,0,0,7.86-2.85,16.64,16.64,0,0,0,5.58-4.44c3.07-3.87,7.4-10.82,3.42-15.6a14.46,14.46,0,0,0-10.93-4.56c-5.47,0-8,1.82-8.77,5.92-.57,3.3,1.82,6.95,5.92,8.2.91.23,4,.46,4,.8a12.26,12.26,0,0,1-4.21,3.08,50.61,50.61,0,0,1-5,1.71c-1.37.34-2.62.57-3.76.8-8.54,1.37-17.88.23-25.06-1,4.56-8.88,6.72-18.57,7.63-23.24C966.69,708.09,966.92,701.94,966.92,701.94Z" transform="translate(-58.75)"/><path class="cls-2" d="M959.43,136.59V92l2.07-.55c1-.28,25.73-6.68,45,.07,19,6.66,33.19,20.33,33.78,20.91l2.06,2-2.22,1.85c-.69.57-17.06,14.1-33.5,20.72-16.9,6.8-43.91.41-45,.13Zm5.7-40.5v36.3c6.56,1.32,26.67,4.73,39.25-.33,12.07-4.86,24.53-14,29.6-17.93-4.58-4-15.86-12.86-29.48-17.63C990,91.42,971.3,94.75,965.13,96.09Z" transform="translate(-58.75)"/><path class="cls-2" d="M1012,121.18c-3.2,0-5.34-4-12.49-4s-36.71-.51-36.71-.51v-4.43S991.68,111,999.27,111s9.52-3.69,12.73-3.69c5.34,0,9.76,3.16,9.76,7S1017.34,121.18,1012,121.18Z" transform="translate(-58.75)"/><path class="cls-2" d="M993.22,128.09c-2.61-1.16-4.31-3.1-4.31-4.52-5.88-1.16-16.46-2.06-26.13-2.45V118c4.83.13,26.23,1.78,32.92,4.64,3.55,1,5.09,4,4.31,5.42S996.23,129.63,993.22,128.09Z" transform="translate(-58.75)"/><path class="cls-2" d="M993.22,100.63c-2.61,1.16-4.31,3.1-4.31,4.52-5.88,1.16-16.46,2.06-26.13,2.45v3.1c4.83-.13,26.23-1.78,32.92-4.64,3.55-1,5.09-4,4.31-5.42S996.23,99.09,993.22,100.63Z" transform="translate(-58.75)"/><path class="cls-2" d="M975,96.11a5,5,0,0,0-2.07,4.18c-3.57,1.16-8.33,3.56-14.2,3.95v3.1c2.94-.13,17.27-3.31,20-4.64a4.58,4.58,0,0,0,2.62-5.42C981,95.72,976.85,94.56,975,96.11Z" transform="translate(-58.75)"/><path class="cls-2" d="M975,132.41a5,5,0,0,1-2.07-4.18c-3.57-1.16-8.33-3.56-14.2-3.95v-3.1c2.94.13,17.27,3.31,20,4.64a4.58,4.58,0,0,1,2.62,5.42C981,132.8,976.85,134,975,132.41Z" transform="translate(-58.75)"/><path class="cls-2" d="M588.43,27.09a23.91,23.91,0,0,0,7,16.59,2.63,2.63,0,1,0,5.27,0,23.91,23.91,0,0,0,7-16.59h0C607.78,22.58,603.5,0,598.1,0s-9.68,22.58-9.68,27.09Z" transform="translate(-58.75)"/><path class="cls-2" d="M576.28,33.18c1.42,4.27,4.71,8.52,9.34,12.09a2.73,2.73,0,0,0,2.67,2.06c2.31.14,1.38-1.82,1.38-1.82,2.4-3.15,2.93-7.18,1.51-11.44h0c-1.06-3.2-9.68-19.41-13.84-19.66S575.21,30,576.28,33.18Z" transform="translate(-58.75)"/><path class="cls-2" d="M570.36,39.1a24.17,24.17,0,0,0,12.2,3.55,2.24,2.24,0,0,0,2.68.1c1.36-1-.28-1.83-.28-1.83a12.17,12.17,0,0,0-5.79-8.18h0c-2.44-1.59-16.63-8.16-19.08-6.39s7.84,11.16,10.28,12.75Z" transform="translate(-58.75)"/><path class="cls-2" d="M619.71,33.55c-1.65,4.18-5.17,8.25-10,11.55A2.73,2.73,0,0,1,606.92,47c-2.31,0-1.28-1.89-1.28-1.89-2.22-3.28-2.53-7.33-.87-11.51h0c1.24-3.13,10.76-18.84,14.92-18.85s1.26,15.67,0,18.8Z" transform="translate(-58.75)"/><path class="cls-2" d="M627.13,39.1a24.17,24.17,0,0,1-12.2,3.55,2.24,2.24,0,0,1-2.68.1c-1.36-1,.28-1.83.28-1.83a12.17,12.17,0,0,1,5.79-8.18h0c2.44-1.59,16.63-8.16,19.08-6.39S629.57,37.5,627.13,39.1Z" transform="translate(-58.75)"/></g></g></svg>