<?xml version="1.0" encoding="utf-8"?>
<!-- Generator: Adobe Illustrator 21.1.0, SVG Export Plug-In . SVG Version: 6.00 Build 0)  -->
<svg version="1.1" id="Layer_1" xmlns="http://www.w3.org/2000/svg" xmlns:xlink="http://www.w3.org/1999/xlink" x="0px" y="0px"
	 viewBox="0 0 50 50" style="enable-background:new 0 0 50 50;" xml:space="preserve">
<style type="text/css">
	.st0{fill:none;}
</style>
<g>
	<path d="M34.6,8.5c0.3,0.3,0.7,0.6,1,0.9c0.9,0.8,1.7,1.5,2.6,2.3l0.4,0.4c0.6,0.5,1.2,1.1,1.8,1.6l0.7,0.7c3.6,3.4,6,6.7,6,11
		c0,2-0.6,3.7-1.9,5.7c-0.7,1.1-1.7,2.3-3,3.7l-0.2,0.2c-0.1,0.2-0.3,0.3-0.4,0.5c-0.4,0.4-0.8,0.8-1.2,1.3
		c-0.1,0.2-0.3,0.3-0.5,0.5c-0.4,0.4-0.8,0.8-1.2,1.2c-0.2,0.2-0.3,0.3-0.5,0.5c-0.4,0.3-0.7,0.7-1.1,1c-0.3,0.3-0.6,0.6-0.9,0.9
		c-2.3,2.2-4.6,4.4-7.1,6.6c0,0-0.1,0.1-0.1,0.1L26.7,50h2.9c0,0,2.1-1.6,2.2-1.7c0,0,0,0,0,0c2.5-2.3,4-3.5,6.1-5.6
		c0.3-0.3,0.6-0.6,1-0.9c0.3-0.3,0.6-0.6,0.9-0.8c0.1-0.1,0.1-0.1,0.2-0.2c0.2-0.2,0.5-0.5,0.7-0.7l0.7-0.7c0.2-0.2,0.4-0.4,0.6-0.6
		c0.1-0.1,0.2-0.2,0.3-0.3c0.1-0.1,0.2-0.2,0.3-0.3c0.3-0.4,0.7-0.7,1-1c0.3-0.3,0.5-0.6,0.8-0.9c1.3-1.5,2.3-2.7,3.1-3.8
		c1.6-2.4,2.3-4.6,2.3-7.1c0-5.4-3.1-9.3-6.6-12.7c-0.3-0.3-0.6-0.6-1-0.9c-0.3-0.3-0.6-0.6-0.9-0.8c-0.3-0.3-0.6-0.5-0.9-0.8
		l-0.4-0.4c-0.5-0.5-1-0.9-1.6-1.4c-0.3-0.3-0.7-0.6-1-0.9c-0.3-0.3-0.6-0.6-0.9-0.8c-1.6-1.5-3.2-3-4.8-4.5c0,0,0,0,0-0.1
		c-0.3-0.3-0.6-0.6-1-0.9l-0.5-0.4c-0.1-0.1-0.3-0.2-0.4-0.2s-0.3,0.1-0.4,0.2l-0.4,0.4c-0.4,0.4-1.2,1.2-1.6,1.6c0,0,0,0-0.1,0.1
		C27,3,26.9,3.1,26.8,3.2c-0.4,0.4-0.5,0.5-0.9,0.9c-0.1,0-0.1,0.1-0.2,0.1c0,0,0,0,0,0c-0.6,0.5-1,0.9-1.5,1.5
		C24,5.8,23.9,6,23.7,6.2c-0.3,0.2-0.3,0.7,0,0.9l0.5,0.5c0.3,0.3,0.6,0.6,0.9,0.8c1.6,1.6,3.3,3.1,4.9,4.6c0.3,0.3,0.6,0.6,0.9,0.9
		c0,0,0.1,0.1,0.1,0.1c0.3,0.3,0.6,0.5,0.9,0.8c0.3,0.3,0.7,0.6,1,0.9c0.2,0.2,0.3,0.3,0.5,0.5c0.2,0.2,0.3,0.3,0.5,0.5l0.2,0.2
		l0.2,0.2c0.1,0.1,0.3,0.2,0.4,0.3c0.3,0.3,0.6,0.6,1,0.9c0,0,0.1,0,0.1,0.1c0.3,0.2,0.6,0.5,0.9,0.8c0.8,0.7,1.6,1.5,2.3,2.4
		c1.2,1.5,1.8,2.8,1.8,4c0,0.8-0.2,1.8-2.6,4.5c-0.3,0.3-0.6,0.6-0.9,0.9l0,0c-0.3,0.3-0.5,0.6-0.9,0.9c-0.2,0.2-0.4,0.4-0.6,0.6
		c-0.1,0.1-0.2,0.2-0.3,0.3c-0.1,0.1-0.2,0.2-0.3,0.3l-0.3,0.3c-0.1,0.1-0.2,0.2-0.3,0.3c-0.2,0.2-0.5,0.5-0.7,0.7l-0.1,0.1
		c-0.3,0.3-0.6,0.6-0.9,0.9l0,0c-0.3,0.3-0.6,0.6-0.9,0.9c-2.3,2.2-4.6,4.3-6.8,6.3c-0.3,0.3-0.6,0.5-0.9,0.8L23.4,44
		c-0.1,0.1-0.1,0.1-0.2,0.2c-0.9,0.9-1.9,1.7-2.8,2.6c-0.3,0.3-0.6,0.5-0.8,0.8c0,0-0.1,0.1,0.1,0.5c0.1,0.2,0,0.5-0.2,0.7l0,0
		C19.2,49,19,49.1,19,49.1c0,0,0.1,0.2,0.2,0.3c0,0,0,0,0,0c0.2,0.2,0.4,0.4,0.5,0.5h1.1c0.1,0,0.1,0,0.1,0c0.2,0,0.2-0.1,0.3-0.2
		l2.2-2.3c0,0,0,0,0,0c0,0,0,0,0,0c0.3-0.2,0.5-0.5,0.8-0.7c0.3-0.2,0.5-0.5,0.8-0.7l0.8-0.8l1-0.9c2.4-2.2,5-4.6,7.6-7.1
		c0.3-0.3,0.6-0.6,0.9-0.9h0l0.1-0.1c0.2-0.2,0.4-0.4,0.6-0.5c0.2-0.2,0.3-0.3,0.5-0.5c0.2-0.2,0.3-0.3,0.5-0.5
		c0.2-0.2,0.3-0.3,0.5-0.5c0.3-0.3,0.6-0.6,0.8-0.8c0.1-0.1,0.2-0.3,0.4-0.4c0.1-0.1,0.2-0.2,0.4-0.4c0.1-0.1,0.2-0.2,0.3-0.3
		l0.3-0.3l0-0.1c0.1-0.1,0.1-0.2,0.2-0.2c2.5-2.8,3.3-4.4,3.3-6.3c0-1.8-0.8-3.7-2.4-5.6c-0.7-0.9-1.6-1.7-2.4-2.5
		c0,0-0.1-0.1-0.1-0.1L38.4,17l-0.9-0.8c-0.5-0.4-1-0.9-1.5-1.3l-0.4-0.4c-1-0.9-2-1.7-2.9-2.6l0,0l-0.8-0.8
		c-1.5-1.3-2.9-2.7-4.4-4.1c-0.3-0.2-0.3-0.7,0-0.9c0.3-0.3,0.6-0.6,0.9-0.9c0,0,0,0,0,0c0.3-0.3,0.6-0.6,0.9-0.9
		c0.2-0.2,0.6-0.2,0.9,0C31.6,5.7,33.1,7.1,34.6,8.5z"/>
</g>
<g>
	<path d="M19.2,13.9c0.3-0.3,0.7-0.6,1-0.9c1.6-1.5,3.3-3,4.9-4.6c0.3-0.3,0.6-0.6,0.9-0.8c0.8-0.8,1.6-1.5,2.3-2.3c0,0,0,0,0,0
		c0.8-0.7,1.5-1.5,2.2-2.2c0.3-0.3,0.7-0.6,1-0.9c0,0,0,0,0-0.1C31.4,2,30.4,1,29.6,0h-2.9c-0.4,0.4-0.4,0.5-0.4,0.7
		c0.1,0.5,0.9,1,1.2,1.4c0.1,0.1-0.2,0.5-0.4,0.7C27.1,3,27,3.1,27,3.1c-0.4,0.4-0.7,0.7-1.1,1c-0.1,0-0.1,0.1-0.2,0.1c0,0,0,0,0,0
		c-0.6,0.5-1,0.9-1.5,1.5C24,5.8,23.9,6,23.7,6.2c-1.8,1.7-3.6,3.4-5.4,5c-0.2-0.2-0.4-0.3-0.5-0.5c-0.5-0.4-0.9-0.9-1.4-1.4
		c-0.3-0.3-0.6-0.5-0.8-0.8c2-1.8,5.1-4.7,6-5.7c0.6-0.6,0.6-1.2,0.3-1.8c-0.2-0.4-0.7-0.6-0.7-1h-1.4c0.4,1.3-3.6,4.7-6,6.7
		c-0.3,0.3-0.7,0.6-0.9,0.8l-1,0.9l0,0l0.6,0.6c0.1,0.1,0.3,0.3,0.4,0.4c0.5,0.5,1.1,1.1,1.8,1.8c1,0.9,1.9,1.8,2.8,2.7
		c0.3,0.3,0.6,0.5,0.9,0.8L19.2,13.9z"/>
</g>
<g>
	<path d="M23.4,44l0.8-0.8c0.3-0.3,0.6-0.5,0.9-0.8c-2.2-2-4.5-4.1-6.8-6.3L17.4,37l-0.9,0.9c2.3,2.2,4.6,4.3,6.7,6.3
		C23.3,44.1,23.3,44.1,23.4,44z M23.4,44l0.8-0.8c0.3-0.3,0.6-0.5,0.9-0.8c-2.2-2-4.5-4.1-6.8-6.3L17.4,37l-0.9,0.9
		c2.3,2.2,4.6,4.3,6.7,6.3C23.3,44.1,23.3,44.1,23.4,44z M23.4,44l0.8-0.8c0.3-0.3,0.6-0.5,0.9-0.8c-2.2-2-4.5-4.1-6.8-6.3L17.4,37
		l-0.9,0.9c2.3,2.2,4.6,4.3,6.7,6.3C23.3,44.1,23.3,44.1,23.4,44z M20.6,50l0.6-0.5c0.8-0.7,1.5-1.4,2.2-2.1c0,0,0,0,0,0
		c0.3-0.3,0.6-0.5,0.8-0.8c0.3-0.2,0.5-0.5,0.8-0.7l0.8-0.8l1-0.9l-1-0.9c-0.3-0.3-0.6-0.5-0.9-0.8c-2.2-2-4.5-4.1-6.8-6.3
		c-0.3-0.3-0.6-0.6-0.9-0.9c0,0,0,0,0,0c-0.3-0.3-0.6-0.6-0.9-0.9c0,0,0,0-0.1-0.1c-1.1-1-1.9-1.9-2.6-2.6c-0.3-0.3-0.6-0.6-0.9-0.9
		c0,0,0,0,0,0c-0.3-0.3-0.6-0.6-0.9-0.9c-0.6-0.7-1.1-1.3-1.5-1.9c-1-1.4-1.1-2-1.1-2.6c0-2,1.6-4,4.1-6.4c0.3-0.3,0.6-0.5,0.9-0.8
		l1-0.9c-0.3-0.3-0.7-0.6-1-1h0c-0.8-0.8-1.6-1.6-2.5-2.4c-0.4-0.4-0.7-0.7-1.1-1l-1-1L9,10.9l-0.9,0.8c-0.3,0.3-0.6,0.6-1,0.9
		c-1.1,1.1-2.4,2.4-3.5,3.8c-2.1,2.9-3.2,5.8-3.2,8.9c0,3.7,1.4,6.6,5.4,11c0.2,0.3,0.5,0.6,0.8,0.9c0.3,0.3,0.6,0.7,1,1
		c0.1,0.1,0.2,0.2,0.3,0.3C8,38.6,8.2,38.8,8.4,39c0.2,0.2,0.4,0.4,0.6,0.6c0.3,0.3,0.7,0.7,1,1c0.1,0.1,0.1,0.1,0.2,0.2
		c0.3,0.3,0.6,0.6,0.9,0.9c0.3,0.3,0.6,0.6,1,0.9c2.2,2.1,4.8,4.2,6.3,5.9c0.3,0.4,0.6,0.7,0.8,0.9c0,0,0,0,0,0c0,0,0.1,0.1,0.1,0.1
		c0.4,0.3,0.7,0.4,0.9,0.4C20.5,50,20.6,49.9,20.6,50z M13.8,40.7L13,39.9c-0.4-0.3-0.7-0.7-1.1-1c-0.2-0.2-0.4-0.3-0.5-0.5
		l-0.5-0.5c-0.2-0.2-0.3-0.3-0.5-0.5c-0.1-0.2-0.3-0.3-0.4-0.4c-0.2-0.2-0.4-0.4-0.6-0.6c-0.2-0.2-0.4-0.4-0.6-0.6
		c-0.1-0.1-0.2-0.2-0.3-0.4L8.1,35C4.3,30.8,3,28.4,3,25.3c0-2.5,0.9-4.9,2.7-7.3c1-1.3,2.2-2.5,3.2-3.5c0.4,0.4,0.8,0.8,1.2,1.2
		c0.5,0.5,1,1,1.5,1.5c-2.5,2.4-4.8,5-4.8,8.1c0,1.4,0.4,2.5,1.6,4.1c0.5,0.6,1.1,1.4,1.8,2.2c0.1,0.1,0.3,0.3,0.4,0.5l0.4,0.4
		c0.2,0.2,0.5,0.5,0.7,0.8c0.3,0.3,0.5,0.5,0.8,0.8c0.6,0.6,1.3,1.3,2,2c0.3,0.3,0.7,0.6,1,1l0.9,0.9c2.3,2.2,4.6,4.3,6.7,6.3
		c-0.9,0.9-1.9,1.7-2.8,2.6C18.1,44.7,16,42.8,13.8,40.7z M23.4,44l0.8-0.8c0.3-0.3,0.6-0.5,0.9-0.8c-2.2-2-4.5-4.1-6.8-6.3L17.4,37
		l-0.9,0.9c2.3,2.2,4.6,4.3,6.7,6.3C23.3,44.1,23.3,44.1,23.4,44z M23.4,44l0.8-0.8c0.3-0.3,0.6-0.5,0.9-0.8c-2.2-2-4.5-4.1-6.8-6.3
		L17.4,37l-0.9,0.9c2.3,2.2,4.6,4.3,6.7,6.3C23.3,44.1,23.3,44.1,23.4,44z M23.4,44l0.8-0.8c0.3-0.3,0.6-0.5,0.9-0.8
		c-2.2-2-4.5-4.1-6.8-6.3L17.4,37l-0.9,0.9c2.3,2.2,4.6,4.3,6.7,6.3C23.3,44.1,23.3,44.1,23.4,44z"/>
</g>
<path d="M41.3,14.5l-0.9-0.8c-0.6-0.5-1.2-1.1-1.8-1.6l-0.4-0.4c-0.9-0.7-1.7-1.5-2.6-2.3l-1-0.9l0.9-1c3.3-3.4,4.8-5.3,5.1-6.5
	l0.2-1h2.6l-0.6,2.6c-0.6,1.4-2,3.2-4.5,5.8c0.5,0.5,1,0.9,1.6,1.4l0.4,0.4c0.3,0.3,0.6,0.5,0.9,0.8c2-2.1,3.2-3.6,4.1-4.9
	c0.8-1.2,1.6-2.3,1.9-3.5L47.6,0h2.2l-0.1,1.4c-0.2,2.1-0.9,4-2.2,6.1c-1.1,1.7-2.7,3.5-5.3,6.1L41.3,14.5z"/>
<g>
	<path d="M17.4,37l0.9-0.9c2.4-2.4,4.8-4.6,6.8-6.5c0.3-0.3,0.6-0.5,0.9-0.8c0,0,0.1,0,0.1-0.1c0.3-0.3,0.6-0.6,0.9-0.9
		c0.6-0.6,1.2-1.1,1.8-1.7l0.6-0.6c0.1-0.1,0.3-0.2,0.4-0.4c0.1-0.1,0.3-0.3,0.5-0.4l0.4-0.4c0,0,0,0,0.1-0.1
		c0.3-0.3,0.6-0.6,0.9-0.9c1.7-1.6,3.3-3.1,5-4.6c0.3-0.3,0.6-0.6,0.9-0.8l1-0.9l0,0l-0.1-0.1L38.4,17l-0.9-0.8
		c-0.5-0.4-1-0.9-1.5-1.3l-0.4-0.4c-1-0.9-2-1.7-2.9-2.6l0,0l-0.8-0.8L31,12c-0.3,0.3-0.7,0.6-1,0.9c-1.7,1.6-3.4,3.2-4.9,4.5
		c-0.3,0.3-0.6,0.5-0.9,0.8L23.4,19c-0.5,0.5-1,0.9-1.5,1.4c-0.5,0.5-1,0.9-1.5,1.4c-0.3,0.3-0.6,0.5-0.9,0.8
		c-0.3,0.3-0.7,0.6-1,0.9c-2.4,2.2-4.5,4.3-6.5,6.2c-0.3,0.3-0.6,0.6-1,1l-0.9,0.9l0,0l0.4,0.5l0.4,0.4c0.2,0.2,0.5,0.5,0.7,0.8
		c0.3,0.3,0.5,0.5,0.8,0.8c0.6,0.6,1.3,1.3,2,2c0.3,0.3,0.7,0.6,1,1l0.9,0.9L17.4,37z M16.4,34.3c-1.1-1-1.9-1.9-2.6-2.6
		c2.2-2.2,4.6-4.5,7.5-7.1c1.3-1.2,2.6-2.4,3.9-3.6l0.8-0.8l1-0.9c1.5-1.4,3.2-2.9,4.9-4.5c0.3,0.3,0.7,0.6,1,0.9
		c0.2,0.2,0.3,0.3,0.5,0.5c0.2,0.2,0.3,0.3,0.5,0.5l0.2,0.2l0.2,0.2c0.1,0.1,0.3,0.2,0.4,0.3c-1.6,1.6-3.2,3-5,4.6L28.6,23
		c-0.3,0.3-0.6,0.5-0.8,0.8l-0.6,0.6c-1,0.9-1.9,1.7-2.9,2.6c-0.1,0.1-0.3,0.3-0.4,0.4l-0.4,0.4l-0.2,0.1
		C21.2,29.8,18.9,31.9,16.4,34.3C16.4,34.3,16.4,34.3,16.4,34.3z"/>
</g>
<g>
	<path d="M8.4,39c0.2,0.2,0.4,0.4,0.6,0.6c0.3,0.3,0.7,0.7,1,1c0.1,0.1,0.1,0.1,0.2,0.2c-2.4,2.8-3.1,6.5-3.1,6.5L7.1,50h2.2l0-1.5
		c0-0.2,0-0.5,0-0.7c0-1.3,0.5-2.5,2.8-5.2c0.3-0.3,0.6-0.6,0.9-1l0.8-0.9L13,39.9c-0.4-0.3-0.7-0.7-1.1-1c-0.2-0.2-0.4-0.3-0.5-0.5
		l-0.5-0.5c-0.2-0.2-0.3-0.3-0.5-0.5c-0.1-0.2-0.3-0.3-0.4-0.4c-0.2-0.2-0.4-0.4-0.6-0.6c-0.2-0.2-0.4-0.4-0.6-0.6
		c-0.1-0.1-0.2-0.2-0.3-0.4L8.1,35l-0.6-0.6l-0.9,1c-0.3,0.3-0.5,0.6-0.8,0.9c-3.4,3.8-5.3,7.1-5.4,11.4v0.3c0,0.3-0.1,2-0.1,2h2.5
		c0,0,0-1.7,0.1-2.6c0.1-0.8,1.3-5.5,4.6-9.3c0.1,0.1,0.2,0.2,0.3,0.3C8,38.6,8.2,38.8,8.4,39z"/>
</g>
<g>
	<path d="M21.2,24.5c1.3-1.2,2.6-2.4,3.9-3.6l0.8-0.8l1-0.9L26,18.3L26,18.3c-0.3-0.3-0.6-0.5-0.9-0.8c-1.5-1.4-3.2-2.9-4.9-4.5
		c-0.3-0.3-0.7-0.6-1-0.9c-0.3-0.3-0.6-0.5-0.9-0.8c-0.2-0.2-0.4-0.3-0.5-0.5c-0.5-0.4-0.9-0.9-1.4-1.4c-0.3-0.3-0.6-0.5-0.8-0.8
		c-0.3-0.3-0.6-0.6-0.9-0.9C14.3,7.2,14,7,13.8,6.7c-1.6-1.6-2.6-2.8-3.3-3.8C9.9,2.1,9.6,1.5,9.5,1L9.3,0H7.1c0,0,0.2,1.8,0.4,2.6
		c0.2,0.8,0.4,1.2,0.8,1.8c0.7,1,1.9,2.3,3.5,4c0.2,0.2,0.4,0.4,0.5,0.6c0.1,0.1,0.3,0.3,0.4,0.4c0.5,0.5,1.1,1.1,1.8,1.8
		c1,0.9,1.9,1.8,2.8,2.7c0.3,0.3,0.6,0.5,0.9,0.8c1.7,1.6,3.4,3.2,4.9,4.5c-0.4,0.4-0.9,0.8-1.3,1.2c-0.5,0.5-1,0.9-1.5,1.4
		c-1.7-1.6-3.3-3-5-4.6c-0.3-0.3-0.7-0.6-1-1h0c-0.8-0.8-1.6-1.6-2.5-2.4c-0.4-0.4-0.7-0.7-1.1-1l-1-1c-4.1-4.2-6.4-8-6.6-9.2
		C3.1,1.9,2.9,0,2.9,0H0.4l0.1,1.4C0.8,5.3,3,8.4,7.1,12.6c0.3,0.3,0.6,0.6,0.9,1l0.1,0l0.8,0.8c0.4,0.4,0.8,0.8,1.2,1.2
		c0.5,0.5,1,1,1.5,1.5c0.3,0.3,0.7,0.6,1,1c0.3,0.3,0.6,0.6,0.9,0.8c1.7,1.6,3.3,3.1,5,4.6c0.3,0.3,0.6,0.6,0.9,0.9
		c0,0,0.1,0,0.1,0.1l0.9,0.8L21.2,24.5z"/>
</g>
<g>
	<path d="M34.6,37.1c0.3-0.3,0.6-0.6,0.9-0.9l0.1-0.1c0.2-0.2,0.4-0.4,0.6-0.5c0.2-0.2,0.3-0.3,0.5-0.5c0.2-0.2,0.3-0.3,0.5-0.5
		c0.2-0.2,0.3-0.3,0.5-0.5c0.3-0.3,0.6-0.6,0.8-0.8c0.1-0.1,0.2-0.3,0.4-0.4c0.1-0.1,0.2-0.3,0.4-0.4l0.3-0.3l0.3-0.3l0-0.1l0.2-0.2
		l0,0l-0.9-0.9c-0.3-0.3-0.6-0.6-0.9-0.9c-1.9-1.9-4-3.9-6.5-6.2c-0.3-0.3-0.6-0.6-0.9-0.9c0,0-0.1,0-0.1-0.1l-0.9-0.8L28.6,23
		c-0.3,0.3-0.6,0.5-0.8,0.8l-0.6,0.6c-1,0.9-1.9,1.7-2.9,2.6l-0.4,0.4l-0.4,0.4l-0.2,0.1l0.9,0.9l0.1,0.1c0.3,0.3,0.6,0.5,0.9,0.8
		c2,1.9,4.4,4.1,6.8,6.5c0.3,0.3,0.6,0.6,0.9,0.9l0.9,0.9L34.6,37.1z M29.4,25.6c0.1-0.1,0.3-0.2,0.4-0.4c2.5,2.3,4.6,4.4,6.6,6.3
		c-0.2,0.2-0.4,0.4-0.6,0.6l-1.3,1.3c-0.2,0.2-0.5,0.5-0.7,0.7h0l-0.1,0.1l0,0c-2.4-2.4-4.7-4.6-6.7-6.4c0.6-0.6,1.2-1.1,1.8-1.7
		L29.4,25.6z"/>
</g>
<g>
	<path d="M47.5,47.4l0.1,2.6h2.2l0-1.2c0-0.4,0-0.7,0-1.1c-0.1-4.3-2-7.5-5.4-11.4c-0.2-0.3-0.5-0.6-0.8-0.9l-0.9-1l-0.4,0.4
		l-0.2,0.2l-0.4,0.5c-0.4,0.4-0.8,0.8-1.2,1.3c-0.1,0.2-0.3,0.3-0.5,0.5c-0.4,0.4-0.8,0.8-1.2,1.2c-0.2,0.2-0.3,0.3-0.5,0.5
		c-0.4,0.3-0.7,0.7-1.1,1l-0.9,0.9l0,0l0.8,0.9c0.3,0.4,0.6,0.7,0.9,1c2.2,2.7,2.5,4,2.7,5.1c0.3,1.3,0.4,2.2,0.4,2.2h2.4
		c0,0-0.1-0.9-0.3-2.6c-0.2-1.6-1.1-3.7-3.4-6.5l0,0c0.1-0.1,0.1-0.1,0.2-0.2c0.2-0.2,0.5-0.5,0.7-0.7l0.7-0.7
		c0.2-0.2,0.4-0.4,0.6-0.6c0.1-0.1,0.2-0.2,0.3-0.3c0.1-0.1,0.2-0.2,0.3-0.3l0,0C45.9,41.9,47.4,44.4,47.5,47.4z"/>
</g>
<polyline class="st0" points="18.5,0 19.7,0 21.1,0 26.7,0 29.6,0 31.3,0 "/>
</svg>
