<?xml version="1.0" encoding="utf-8"?>
<!-- Generator: Adobe Illustrator 21.1.0, SVG Export Plug-In . SVG Version: 6.00 Build 0)  -->
<svg version="1.1" id="Layer_1" xmlns="http://www.w3.org/2000/svg" xmlns:xlink="http://www.w3.org/1999/xlink" x="0px" y="0px"
	 viewBox="0 0 50 50" style="enable-background:new 0 0 50 50;" xml:space="preserve">
<style type="text/css">
	.st0{fill:none;}
</style>
<g>
	<path d="M41.6,34.5c-0.3,0.3-0.6,0.7-0.9,1c-0.8,0.9-1.5,1.7-2.3,2.6L38,38.5c-0.5,0.6-1.1,1.2-1.6,1.8l-0.7,0.7
		c-3.4,3.6-6.7,6-11,6c-2,0-3.7-0.6-5.7-1.9c-1.1-0.7-2.3-1.7-3.7-3l-0.2-0.2c-0.2-0.1-0.3-0.3-0.5-0.4c-0.4-0.4-0.8-0.8-1.3-1.2
		c-0.2-0.1-0.3-0.3-0.5-0.5c-0.4-0.4-0.8-0.8-1.2-1.2c-0.2-0.2-0.3-0.3-0.5-0.5c-0.3-0.4-0.7-0.7-1-1.1c-0.3-0.3-0.6-0.6-0.9-0.9
		c-2.2-2.3-4.4-4.6-6.6-7.1c0,0-0.1-0.1-0.1-0.1l-2.6-2.5v2.9c0,0,1.6,2.1,1.7,2.2c0,0,0,0,0,0c2.3,2.5,3.5,4,5.6,6.1
		c0.3,0.3,0.6,0.6,0.9,1c0.3,0.3,0.6,0.6,0.8,0.9c0.1,0.1,0.1,0.1,0.2,0.2c0.2,0.2,0.5,0.5,0.7,0.7l0.7,0.7c0.2,0.2,0.4,0.4,0.6,0.6
		c0.1,0.1,0.2,0.2,0.3,0.3c0.1,0.1,0.2,0.2,0.3,0.3c0.4,0.3,0.7,0.7,1,1c0.3,0.3,0.6,0.5,0.9,0.8c1.5,1.3,2.7,2.3,3.8,3.1
		c2.4,1.6,4.6,2.3,7.1,2.3c5.4,0,9.3-3.1,12.7-6.6c0.3-0.3,0.6-0.6,0.9-1c0.3-0.3,0.6-0.6,0.8-0.9c0.3-0.3,0.5-0.6,0.8-0.9l0.4-0.4
		c0.5-0.5,0.9-1,1.4-1.6c0.3-0.3,0.6-0.7,0.9-1c0.3-0.3,0.6-0.6,0.8-0.9c1.5-1.6,3-3.2,4.5-4.8c0,0,0,0,0.1,0c0.3-0.3,0.6-0.6,0.9-1
		l0.4-0.5c0.1-0.1,0.2-0.3,0.2-0.4s-0.1-0.3-0.2-0.4l-0.4-0.4c-0.4-0.4-1.2-1.2-1.6-1.6c0,0,0,0-0.1-0.1c-0.1-0.1-0.2-0.2-0.3-0.3
		c-0.4-0.4-0.5-0.5-0.9-0.9c0-0.1-0.1-0.1-0.1-0.2c0,0,0,0,0,0c-0.5-0.6-0.9-1-1.5-1.5c-0.2-0.2-0.3-0.3-0.5-0.5
		c-0.2-0.3-0.7-0.3-0.9,0l-0.5,0.5c-0.3,0.3-0.6,0.6-0.8,0.9c-1.6,1.6-3.1,3.3-4.6,4.9c-0.3,0.3-0.6,0.6-0.9,0.9
		c0,0-0.1,0.1-0.1,0.1c-0.3,0.3-0.5,0.6-0.8,0.9c-0.3,0.3-0.6,0.7-0.9,1c-0.2,0.2-0.3,0.3-0.5,0.5c-0.2,0.2-0.3,0.3-0.5,0.5
		l-0.2,0.2l-0.2,0.2c-0.1,0.1-0.2,0.3-0.3,0.4c-0.3,0.3-0.6,0.6-0.9,1c0,0,0,0.1-0.1,0.1c-0.2,0.3-0.5,0.6-0.8,0.9
		c-0.7,0.8-1.5,1.6-2.4,2.3c-1.5,1.2-2.8,1.8-4,1.8c-0.8,0-1.8-0.2-4.5-2.6c-0.3-0.3-0.6-0.6-0.9-0.9l0,0c-0.3-0.3-0.6-0.5-0.9-0.9
		c-0.2-0.2-0.4-0.4-0.6-0.6c-0.1-0.1-0.2-0.2-0.3-0.3c-0.1-0.1-0.2-0.2-0.3-0.3l-0.3-0.3c-0.1-0.1-0.2-0.2-0.3-0.3
		c-0.2-0.2-0.5-0.5-0.7-0.7l-0.1-0.1c-0.3-0.3-0.6-0.6-0.9-0.9l0,0c-0.3-0.3-0.6-0.6-0.9-0.9c-2.2-2.3-4.3-4.6-6.3-6.8
		c-0.3-0.3-0.5-0.6-0.8-0.9l-0.8-0.8C6,23.2,6,23.2,5.9,23.1c-0.9-0.9-1.7-1.9-2.6-2.8C3,20,2.8,19.7,2.5,19.4c0,0-0.1-0.1-0.5,0.1
		c-0.2,0.1-0.5,0-0.7-0.2l0,0C1.1,19.1,1,18.9,1,18.9c0,0-0.2,0.1-0.3,0.2c0,0,0,0,0,0c-0.2,0.2-0.4,0.4-0.5,0.5v1.1
		c0,0.1,0,0.1,0,0.1c0,0.2,0.1,0.2,0.2,0.3l2.3,2.2c0,0,0,0,0,0c0,0,0,0,0,0C3,23.7,3.2,24,3.5,24.2c0.2,0.3,0.5,0.5,0.7,0.8L5,25.9
		l0.9,1c2.2,2.4,4.6,5,7.1,7.6c0.3,0.3,0.6,0.6,0.9,0.9v0l0.1,0.1c0.2,0.2,0.4,0.4,0.5,0.6c0.2,0.2,0.3,0.3,0.5,0.5
		c0.2,0.2,0.3,0.3,0.5,0.5c0.2,0.2,0.3,0.3,0.5,0.5c0.3,0.3,0.6,0.6,0.8,0.8c0.1,0.1,0.3,0.2,0.4,0.4s0.2,0.2,0.4,0.4
		c0.1,0.1,0.2,0.2,0.3,0.3l0.3,0.3l0.1,0c0.1,0.1,0.2,0.1,0.2,0.2c2.8,2.5,4.4,3.3,6.3,3.3c1.8,0,3.7-0.8,5.6-2.4
		c0.9-0.7,1.7-1.6,2.5-2.4c0,0,0.1-0.1,0.1-0.1l0.1-0.1l0.8-0.9c0.4-0.5,0.9-1,1.3-1.5l0.4-0.4c0.9-1,1.7-2,2.6-2.9l0,0l0.8-0.8
		c1.3-1.5,2.7-2.9,4.1-4.4c0.2-0.3,0.7-0.3,0.9,0c0.3,0.3,0.6,0.6,0.9,0.9c0,0,0,0,0,0c0.3,0.3,0.6,0.6,0.9,0.9
		c0.2,0.2,0.2,0.6,0,0.9C44.4,31.5,43,33,41.6,34.5z"/>
</g>
<g>
	<path d="M36.2,19.1c0.3,0.3,0.6,0.7,0.9,1c1.5,1.6,3,3.3,4.6,4.9c0.3,0.3,0.6,0.6,0.8,0.9c0.8,0.8,1.5,1.6,2.3,2.3c0,0,0,0,0,0
		c0.7,0.8,1.5,1.5,2.2,2.2c0.3,0.3,0.6,0.7,0.9,1c0,0,0,0,0.1,0c0.2-0.2,1.1-1.1,2.1-1.9v-2.9c-0.4-0.4-0.5-0.4-0.7-0.4
		c-0.5,0.1-1,0.9-1.4,1.2c-0.1,0.1-0.5-0.2-0.7-0.4C47.1,27,47,26.9,47,26.9c-0.4-0.4-0.7-0.7-1-1.1c0-0.1-0.1-0.1-0.1-0.2
		c0,0,0,0,0,0c-0.5-0.6-0.9-1-1.5-1.5c-0.2-0.2-0.3-0.3-0.5-0.5c-1.7-1.8-3.4-3.6-5-5.4c0.2-0.2,0.3-0.4,0.5-0.5
		c0.4-0.5,0.9-0.9,1.4-1.4c0.3-0.3,0.5-0.6,0.8-0.8c1.8,2,4.7,5.1,5.7,6c0.6,0.6,1.2,0.6,1.8,0.3c0.4-0.2,0.6-0.7,1-0.7v-1.4
		c-1.3,0.4-4.7-3.6-6.7-6c-0.3-0.3-0.6-0.7-0.8-0.9l-0.9-1l0,0l-0.6,0.6c-0.1,0.1-0.3,0.3-0.4,0.4c-0.5,0.5-1.1,1.1-1.8,1.8
		c-0.9,1-1.8,1.9-2.7,2.8c-0.3,0.3-0.5,0.6-0.8,0.9L36.2,19.1z"/>
</g>
<g>
	<path d="M6.1,23.3l0.8,0.8c0.3,0.3,0.5,0.6,0.8,0.9c2-2.2,4.1-4.5,6.3-6.8l-0.9-0.9l-0.9-0.9c-2.2,2.3-4.3,4.6-6.3,6.7
		C6,23.2,6,23.2,6.1,23.3z M6.1,23.3l0.8,0.8c0.3,0.3,0.5,0.6,0.8,0.9c2-2.2,4.1-4.5,6.3-6.8l-0.9-0.9l-0.9-0.9
		c-2.2,2.3-4.3,4.6-6.3,6.7C6,23.2,6,23.2,6.1,23.3z M6.1,23.3l0.8,0.8c0.3,0.3,0.5,0.6,0.8,0.9c2-2.2,4.1-4.5,6.3-6.8l-0.9-0.9
		l-0.9-0.9c-2.2,2.3-4.3,4.6-6.3,6.7C6,23.2,6,23.2,6.1,23.3z M0.1,20.5l0.5,0.6c0.7,0.8,1.4,1.5,2.1,2.2c0,0,0,0,0,0
		c0.3,0.3,0.5,0.6,0.8,0.8c0.2,0.3,0.5,0.5,0.7,0.8L5,25.9l0.9,1l0.9-1c0.3-0.3,0.5-0.6,0.8-0.9c2-2.2,4.1-4.5,6.3-6.8
		c0.3-0.3,0.6-0.6,0.9-0.9c0,0,0,0,0,0c0.3-0.3,0.6-0.6,0.9-0.9c0,0,0,0,0.1-0.1c1-1.1,1.9-1.9,2.6-2.6c0.3-0.3,0.6-0.6,0.9-0.9
		c0,0,0,0,0,0c0.3-0.3,0.6-0.6,0.9-0.9c0.7-0.6,1.3-1.1,1.9-1.5c1.4-1,2-1.1,2.6-1.1c2,0,4,1.6,6.4,4.1c0.3,0.3,0.5,0.6,0.8,0.9
		l0.9,1c0.3-0.3,0.6-0.7,1-1v0c0.8-0.8,1.6-1.6,2.4-2.5c0.4-0.4,0.7-0.7,1-1.1l1-1l0.9-0.9L38.3,8c-0.3-0.3-0.6-0.6-0.9-1
		c-1.1-1.1-2.4-2.4-3.8-3.5c-2.9-2.1-5.8-3.2-8.9-3.2c-3.7,0-6.6,1.4-11,5.4C13.6,6,13.3,6.2,13,6.5c-0.3,0.3-0.7,0.6-1,1
		c-0.1,0.1-0.2,0.2-0.3,0.3c-0.2,0.2-0.4,0.4-0.6,0.6c-0.2,0.2-0.4,0.4-0.6,0.6c-0.3,0.3-0.7,0.7-1,1c-0.1,0.1-0.1,0.1-0.2,0.2
		c-0.3,0.3-0.6,0.6-0.9,0.9c-0.3,0.3-0.6,0.6-0.9,1c-2.1,2.2-4.2,4.8-5.9,6.3c-0.4,0.3-0.7,0.6-0.9,0.8c0,0,0,0,0,0
		c0,0-0.1,0.1-0.1,0.1c-0.3,0.4-0.4,0.7-0.4,0.9C0.1,20.4,0.1,20.5,0.1,20.5z M9.4,13.8l0.9-0.9c0.3-0.4,0.7-0.7,1-1.1
		c0.2-0.2,0.3-0.4,0.5-0.5l0.5-0.5c0.2-0.2,0.3-0.3,0.5-0.5c0.2-0.1,0.3-0.3,0.4-0.4c0.2-0.2,0.4-0.4,0.6-0.6
		c0.2-0.2,0.4-0.4,0.6-0.6c0.1-0.1,0.2-0.2,0.4-0.3L15.1,8c4.1-3.8,6.5-5.1,9.7-5.1c2.5,0,4.9,0.9,7.3,2.7c1.3,1,2.5,2.2,3.5,3.2
		c-0.4,0.4-0.8,0.8-1.2,1.2c-0.5,0.5-1,1-1.5,1.5c-2.4-2.5-5-4.8-8.1-4.8c-1.4,0-2.5,0.4-4.1,1.6c-0.6,0.5-1.4,1.1-2.2,1.8
		c-0.1,0.1-0.3,0.3-0.5,0.4l-0.4,0.4c-0.2,0.2-0.5,0.5-0.8,0.7c-0.3,0.3-0.5,0.5-0.8,0.8c-0.6,0.6-1.3,1.3-2,2c-0.3,0.3-0.6,0.7-1,1
		l-0.9,0.9c-2.2,2.3-4.3,4.6-6.3,6.7c-0.9-0.9-1.7-1.9-2.6-2.8C5.4,18,7.3,15.9,9.4,13.8z M6.1,23.3l0.8,0.8
		c0.3,0.3,0.5,0.6,0.8,0.9c2-2.2,4.1-4.5,6.3-6.8l-0.9-0.9l-0.9-0.9c-2.2,2.3-4.3,4.6-6.3,6.7C6,23.2,6,23.2,6.1,23.3z M6.1,23.3
		l0.8,0.8c0.3,0.3,0.5,0.6,0.8,0.9c2-2.2,4.1-4.5,6.3-6.8l-0.9-0.9l-0.9-0.9c-2.2,2.3-4.3,4.6-6.3,6.7C6,23.2,6,23.2,6.1,23.3z
		 M6.1,23.3l0.8,0.8c0.3,0.3,0.5,0.6,0.8,0.9c2-2.2,4.1-4.5,6.3-6.8l-0.9-0.9l-0.9-0.9c-2.2,2.3-4.3,4.6-6.3,6.7
		C6,23.2,6,23.2,6.1,23.3z"/>
</g>
<path d="M35.6,41.2l0.8-0.9c0.5-0.6,1.1-1.2,1.6-1.8l0.4-0.4c0.7-0.9,1.5-1.7,2.3-2.6l0.9-1l1,0.9c3.4,3.3,5.3,4.8,6.5,5.1l1,0.2
	v2.6l-2.6-0.6c-1.4-0.6-3.2-2-5.8-4.5c-0.5,0.5-0.9,1-1.4,1.6L40,40.2c-0.3,0.3-0.5,0.6-0.8,0.9c2.1,2,3.6,3.2,4.9,4.1
	c1.2,0.8,2.3,1.6,3.5,1.9l2.6,0.4v2.2l-1.4-0.1c-2.1-0.2-4-0.9-6.1-2.2c-1.7-1.1-3.5-2.7-6.1-5.3L35.6,41.2z"/>
<g>
	<path d="M13.1,17.3l0.9,0.9c2.4,2.4,4.6,4.8,6.5,6.8c0.3,0.3,0.5,0.6,0.8,0.9c0,0,0,0.1,0.1,0.1c0.3,0.3,0.6,0.6,0.9,0.9
		c0.6,0.6,1.1,1.2,1.7,1.8l0.6,0.6c0.1,0.1,0.2,0.3,0.4,0.4c0.1,0.1,0.3,0.3,0.4,0.5l0.4,0.4c0,0,0,0,0.1,0.1
		c0.3,0.3,0.6,0.6,0.9,0.9c1.6,1.7,3.1,3.3,4.6,5c0.3,0.3,0.6,0.6,0.8,0.9l0.9,1l0,0l0.1-0.1l0.1-0.1l0.8-0.9c0.4-0.5,0.9-1,1.3-1.5
		l0.4-0.4c0.9-1,1.7-2,2.6-2.9l0,0l0.8-0.8l-0.8-0.9c-0.3-0.3-0.6-0.7-0.9-1c-1.6-1.7-3.2-3.4-4.5-4.9c-0.3-0.3-0.5-0.6-0.8-0.9
		l-0.8-0.8c-0.5-0.5-0.9-1-1.4-1.5c-0.5-0.5-0.9-1-1.4-1.5c-0.3-0.3-0.5-0.6-0.8-0.9c-0.3-0.3-0.6-0.7-0.9-1
		c-2.2-2.4-4.3-4.5-6.2-6.5c-0.3-0.3-0.6-0.6-1-1l-0.9-0.9l0,0l-0.5,0.4l-0.4,0.4c-0.2,0.2-0.5,0.5-0.8,0.7
		c-0.3,0.3-0.5,0.5-0.8,0.8c-0.6,0.6-1.3,1.3-2,2c-0.3,0.3-0.6,0.7-1,1l-0.9,0.9L13.1,17.3z M15.8,16.3c1-1.1,1.9-1.9,2.6-2.6
		c2.2,2.2,4.5,4.6,7.1,7.5c1.2,1.3,2.4,2.6,3.6,3.9l0.8,0.8l0.9,1c1.4,1.5,2.9,3.2,4.5,4.9c-0.3,0.3-0.6,0.7-0.9,1
		c-0.2,0.2-0.3,0.3-0.5,0.5c-0.2,0.2-0.3,0.3-0.5,0.5l-0.2,0.2l-0.2,0.2c-0.1,0.1-0.2,0.3-0.3,0.4c-1.6-1.6-3-3.2-4.6-5l-1.2-1.3
		c-0.3-0.3-0.5-0.6-0.8-0.8L25.8,27c-0.9-1-1.7-1.9-2.6-2.9c-0.1-0.1-0.3-0.3-0.4-0.4l-0.4-0.4l-0.1-0.2
		C20.3,21.1,18.2,18.8,15.8,16.3C15.8,16.3,15.8,16.3,15.8,16.3z"/>
</g>
<g>
	<path d="M11.1,8.3c-0.2,0.2-0.4,0.4-0.6,0.6c-0.3,0.3-0.7,0.7-1,1c-0.1,0.1-0.1,0.1-0.2,0.2C6.4,7.8,2.8,7.1,2.8,7.1L0.1,7v2.2
		l1.5,0c0.2,0,0.5,0,0.7,0c1.3,0,2.5,0.5,5.2,2.8c0.3,0.3,0.6,0.6,1,0.9l0.9,0.8l0.9-0.9c0.3-0.4,0.7-0.7,1-1.1
		c0.2-0.2,0.3-0.4,0.5-0.5l0.5-0.5c0.2-0.2,0.3-0.3,0.5-0.5c0.2-0.1,0.3-0.3,0.4-0.4c0.2-0.2,0.4-0.4,0.6-0.6
		c0.2-0.2,0.4-0.4,0.6-0.6c0.1-0.1,0.2-0.2,0.4-0.3L15.1,8l0.6-0.6l-1-0.9c-0.3-0.3-0.6-0.5-0.9-0.8C10,2.4,6.8,0.4,2.4,0.3H2.2
		c-0.3,0-2-0.1-2-0.1v2.5c0,0,1.7,0,2.6,0.1C3.5,3,8.2,4.2,12,7.5c-0.1,0.1-0.2,0.2-0.3,0.3C11.5,7.9,11.3,8.1,11.1,8.3z"/>
</g>
<g>
	<path d="M25.6,21.1c1.2,1.3,2.4,2.6,3.6,3.9l0.8,0.8l0.9,1l0.9-0.9l0.1-0.1c0.3-0.3,0.5-0.6,0.8-0.9c1.4-1.5,2.9-3.2,4.5-4.9
		c0.3-0.3,0.6-0.7,0.9-1c0.3-0.3,0.5-0.6,0.8-0.9c0.2-0.2,0.3-0.4,0.5-0.5c0.4-0.5,0.9-0.9,1.4-1.4c0.3-0.3,0.5-0.6,0.8-0.8
		c0.3-0.3,0.6-0.6,0.9-0.9c0.3-0.3,0.6-0.6,0.9-0.8c1.6-1.6,2.8-2.6,3.8-3.3c0.8-0.6,1.4-0.9,1.9-1l1-0.1V7c0,0-1.8,0.2-2.6,0.4
		c-0.8,0.2-1.2,0.4-1.8,0.8c-1,0.7-2.3,1.9-4,3.5c-0.2,0.2-0.4,0.4-0.6,0.5c-0.1,0.1-0.3,0.3-0.4,0.4c-0.5,0.5-1.1,1.1-1.8,1.8
		c-0.9,1-1.8,1.9-2.7,2.8c-0.3,0.3-0.5,0.6-0.8,0.9c-1.6,1.7-3.2,3.4-4.5,4.9c-0.4-0.4-0.8-0.9-1.2-1.3c-0.5-0.5-0.9-1-1.4-1.5
		c1.6-1.7,3-3.3,4.6-5c0.3-0.3,0.6-0.7,1-1v0c0.8-0.8,1.6-1.6,2.4-2.5c0.4-0.4,0.7-0.7,1-1.1l1-1c4.2-4.1,8-6.4,9.2-6.6
		c0.7-0.1,2.6-0.4,2.6-0.4V0.3l-1.4,0.1C44.8,0.7,41.7,2.9,37.4,7c-0.3,0.3-0.6,0.6-1,0.9l0,0.1l-0.8,0.8c-0.4,0.4-0.8,0.8-1.2,1.2
		c-0.5,0.5-1,1-1.5,1.5c-0.3,0.3-0.6,0.7-1,1c-0.3,0.3-0.6,0.6-0.8,0.9c-1.6,1.7-3.1,3.3-4.6,5c-0.3,0.3-0.6,0.6-0.9,0.9
		c0,0,0,0.1-0.1,0.1l-0.8,0.9L25.6,21.1z"/>
</g>
<g>
	<path d="M13,34.5c0.3,0.3,0.6,0.6,0.9,0.9l0.1,0.1c0.2,0.2,0.4,0.4,0.5,0.6c0.2,0.2,0.3,0.3,0.5,0.5c0.2,0.2,0.3,0.3,0.5,0.5
		c0.2,0.2,0.3,0.3,0.5,0.5c0.3,0.3,0.6,0.6,0.8,0.8c0.1,0.1,0.3,0.2,0.4,0.4c0.1,0.1,0.3,0.2,0.4,0.4l0.3,0.3l0.3,0.3l0.1,0l0.2,0.2
		l0,0l0.9-0.9c0.3-0.3,0.6-0.6,0.9-0.9c1.9-1.9,3.9-4,6.2-6.5c0.3-0.3,0.6-0.6,0.9-0.9c0,0,0-0.1,0.1-0.1l0.8-0.9l-1.2-1.3
		c-0.3-0.3-0.5-0.6-0.8-0.8L25.8,27c-0.9-1-1.7-1.9-2.6-2.9l-0.4-0.4l-0.4-0.4l-0.1-0.2l-0.9,0.9l-0.1,0.1c-0.3,0.3-0.5,0.6-0.8,0.9
		c-1.9,2-4.1,4.4-6.5,6.8c-0.3,0.3-0.6,0.6-0.9,0.9l-0.9,0.9L13,34.5z M24.4,29.4c0.1,0.1,0.2,0.3,0.4,0.4c-2.3,2.5-4.4,4.6-6.3,6.6
		c-0.2-0.2-0.4-0.4-0.6-0.6l-1.3-1.3c-0.2-0.2-0.5-0.5-0.7-0.7v0l-0.1-0.1l0,0c2.4-2.4,4.6-4.7,6.4-6.7c0.6,0.6,1.1,1.2,1.7,1.8
		L24.4,29.4z"/>
</g>
<g>
	<path d="M2.7,47.4l-2.6,0.1v2.2l1.2,0c0.4,0,0.7,0,1.1,0c4.3-0.1,7.5-2,11.4-5.4c0.3-0.2,0.6-0.5,0.9-0.8l1-0.9l-0.4-0.4l-0.2-0.2
		l-0.5-0.4c-0.4-0.4-0.8-0.8-1.3-1.2c-0.2-0.1-0.3-0.3-0.5-0.5c-0.4-0.4-0.8-0.8-1.2-1.2c-0.2-0.2-0.3-0.3-0.5-0.5
		c-0.3-0.4-0.7-0.7-1-1.1l-0.9-0.9l0,0l-0.9,0.8c-0.4,0.3-0.7,0.6-1,0.9c-2.7,2.2-4,2.5-5.1,2.7C1,41,0.1,41.1,0.1,41.1v2.4
		c0,0,0.9-0.1,2.6-0.3c1.6-0.2,3.7-1.1,6.5-3.4l0,0c0.1,0.1,0.1,0.1,0.2,0.2c0.2,0.2,0.5,0.5,0.7,0.7l0.7,0.7
		c0.2,0.2,0.4,0.4,0.6,0.6c0.1,0.1,0.2,0.2,0.3,0.3c0.1,0.1,0.2,0.2,0.3,0.3l0,0C8.2,45.8,5.7,47.3,2.7,47.4z"/>
</g>
<polyline class="st0" points="50.1,18.4 50.1,19.6 50.1,21 50.1,26.6 50.1,29.5 50.1,31.2 "/>
</svg>
